M48
;DRILL file {KiCad 5.0.2-bee76a0~70~ubuntu16.04.1} date Sun 24 Mar 2019 04:15:11 PM PDT
;FORMAT={-:-/ absolute / inch / decimal}
FMAT,2
INCH,TZ
T1C0.0236
T2C0.0315
T3C0.0394
T4C0.0433
T5C0.0598
%
G90
G05
T1
X2.31Y-5.14
X2.31Y-5.83
X2.35Y-4.66
X2.36Y-4.04
X2.38Y-3.84
X2.47Y-3.5
X2.55Y-4.
X2.74Y-5.58
X2.8Y-4.98
X2.81Y-5.13
X2.85Y-3.79
X2.86Y-4.59
X2.8809Y-5.2009
X2.9Y-4.66
X2.95Y-4.71
X3.02Y-4.01
X3.15Y-4.4
X3.16Y-4.97
X3.24Y-4.78
X3.4Y-4.9
X3.49Y-3.94
X3.51Y-3.47
X3.53Y-5.8
X3.55Y-4.99
X3.66Y-5.04
X3.66Y-5.36
X3.78Y-4.8
X3.9Y-5.53
X4.1Y-4.8
T2
X3.73Y-5.7
X3.73Y-5.7984
T3
X2.68Y-4.06
X2.68Y-4.16
X2.68Y-4.26
X2.68Y-4.36
X2.68Y-4.46
X2.68Y-4.56
X2.68Y-4.66
X2.68Y-4.76
X2.31Y-5.72
X2.41Y-5.72
X3.9764Y-3.7402
X3.9764Y-3.8402
X3.9764Y-3.9402
X3.9764Y-4.0402
X3.9764Y-4.1402
X3.9764Y-4.2402
X3.9764Y-4.3402
X3.9764Y-4.4402
X4.0764Y-3.7402
X4.0764Y-3.8402
X4.0764Y-3.9402
X4.0764Y-4.0402
X4.0764Y-4.1402
X4.0764Y-4.2402
X4.0764Y-4.3402
X4.0764Y-4.4402
X2.5Y-5.15
X2.6Y-5.15
X2.7Y-5.15
X3.9748Y-5.0969
X3.9748Y-5.1969
X3.9748Y-5.2969
X3.9748Y-5.3969
X4.0748Y-5.0969
X4.0748Y-5.1969
X4.0748Y-5.2969
X4.0748Y-5.3969
X2.47Y-4.06
X2.47Y-4.16
X2.47Y-4.26
X2.47Y-4.36
X2.47Y-4.46
X2.47Y-4.56
X2.47Y-4.66
X2.47Y-4.76
X2.06Y-3.66
X2.06Y-3.76
X2.06Y-3.86
X2.06Y-3.96
X2.06Y-4.06
X2.06Y-4.16
X2.06Y-4.26
X2.06Y-4.36
X2.06Y-4.46
X2.06Y-4.56
X2.06Y-4.66
X2.06Y-4.76
X2.06Y-4.86
X2.06Y-4.96
X2.06Y-5.06
X2.06Y-5.16
X2.06Y-5.26
X2.06Y-5.36
X2.06Y-5.46
X2.06Y-5.56
X2.16Y-3.66
X2.16Y-3.76
X2.16Y-3.86
X2.16Y-3.96
X2.16Y-4.06
X2.16Y-4.16
X2.16Y-4.26
X2.16Y-4.36
X2.16Y-4.46
X2.16Y-4.56
X2.16Y-4.66
X2.16Y-4.76
X2.16Y-4.86
X2.16Y-4.96
X2.16Y-5.06
X2.16Y-5.16
X2.16Y-5.26
X2.16Y-5.36
X2.16Y-5.46
X2.16Y-5.56
T4
X3.17Y-5.748
X3.27Y-5.748
X3.37Y-5.748
T5
X2.62Y-5.74
X2.82Y-5.74
T0
M30
