%TF.GenerationSoftware,KiCad,Pcbnew,5.0.2-bee76a0~70~ubuntu16.04.1*%
%TF.CreationDate,2019-03-24T16:15:13-07:00*%
%TF.ProjectId,Pi_Breakout_Board,50695f42-7265-4616-9b6f-75745f426f61,rev?*%
%TF.SameCoordinates,Original*%
%TF.FileFunction,Soldermask,Bot*%
%TF.FilePolarity,Negative*%
%FSLAX46Y46*%
G04 Gerber Fmt 4.6, Leading zero omitted, Abs format (unit mm)*
G04 Created by KiCad (PCBNEW 5.0.2-bee76a0~70~ubuntu16.04.1) date Sun 24 Mar 2019 04:15:13 PM PDT*
%MOMM*%
%LPD*%
G01*
G04 APERTURE LIST*
%ADD10C,0.100000*%
G04 APERTURE END LIST*
D10*
G36*
X94990228Y-146461703D02*
X95145100Y-146525853D01*
X95284481Y-146618985D01*
X95403015Y-146737519D01*
X95496147Y-146876900D01*
X95560297Y-147031772D01*
X95593000Y-147196184D01*
X95593000Y-147363816D01*
X95560297Y-147528228D01*
X95496147Y-147683100D01*
X95403015Y-147822481D01*
X95284481Y-147941015D01*
X95145100Y-148034147D01*
X94990228Y-148098297D01*
X94825816Y-148131000D01*
X94658184Y-148131000D01*
X94493772Y-148098297D01*
X94338900Y-148034147D01*
X94199519Y-147941015D01*
X94080985Y-147822481D01*
X93987853Y-147683100D01*
X93923703Y-147528228D01*
X93891000Y-147363816D01*
X93891000Y-147196184D01*
X93923703Y-147031772D01*
X93987853Y-146876900D01*
X94080985Y-146737519D01*
X94199519Y-146618985D01*
X94338900Y-146525853D01*
X94493772Y-146461703D01*
X94658184Y-146429000D01*
X94825816Y-146429000D01*
X94990228Y-146461703D01*
X94990228Y-146461703D01*
G37*
G36*
X103318433Y-145134893D02*
X103408657Y-145152839D01*
X103514267Y-145196585D01*
X103663621Y-145258449D01*
X103893089Y-145411774D01*
X104088226Y-145606911D01*
X104241551Y-145836379D01*
X104303415Y-145985733D01*
X104347161Y-146091343D01*
X104353745Y-146124443D01*
X104377570Y-146244219D01*
X104401000Y-146362014D01*
X104401000Y-146637986D01*
X104347161Y-146908657D01*
X104317983Y-146979099D01*
X104241551Y-147163621D01*
X104088226Y-147393089D01*
X103893089Y-147588226D01*
X103663621Y-147741551D01*
X103514267Y-147803415D01*
X103408657Y-147847161D01*
X103318433Y-147865107D01*
X103137988Y-147901000D01*
X102862012Y-147901000D01*
X102681567Y-147865107D01*
X102591343Y-147847161D01*
X102485733Y-147803415D01*
X102336379Y-147741551D01*
X102106911Y-147588226D01*
X101911774Y-147393089D01*
X101758449Y-147163621D01*
X101682017Y-146979099D01*
X101652839Y-146908657D01*
X101599000Y-146637986D01*
X101599000Y-146362014D01*
X101622431Y-146244219D01*
X101646255Y-146124443D01*
X101652839Y-146091343D01*
X101696585Y-145985733D01*
X101758449Y-145836379D01*
X101911774Y-145606911D01*
X102106911Y-145411774D01*
X102336379Y-145258449D01*
X102485733Y-145196585D01*
X102591343Y-145152839D01*
X102681567Y-145134893D01*
X102862012Y-145099000D01*
X103137988Y-145099000D01*
X103318433Y-145134893D01*
X103318433Y-145134893D01*
G37*
G36*
X53818433Y-145134893D02*
X53908657Y-145152839D01*
X54014267Y-145196585D01*
X54163621Y-145258449D01*
X54393089Y-145411774D01*
X54588226Y-145606911D01*
X54741551Y-145836379D01*
X54803415Y-145985733D01*
X54847161Y-146091343D01*
X54853745Y-146124443D01*
X54877570Y-146244219D01*
X54901000Y-146362014D01*
X54901000Y-146637986D01*
X54847161Y-146908657D01*
X54817983Y-146979099D01*
X54741551Y-147163621D01*
X54588226Y-147393089D01*
X54393089Y-147588226D01*
X54163621Y-147741551D01*
X54014267Y-147803415D01*
X53908657Y-147847161D01*
X53818433Y-147865107D01*
X53637988Y-147901000D01*
X53362012Y-147901000D01*
X53181567Y-147865107D01*
X53091343Y-147847161D01*
X52985733Y-147803415D01*
X52836379Y-147741551D01*
X52606911Y-147588226D01*
X52411774Y-147393089D01*
X52258449Y-147163621D01*
X52182017Y-146979099D01*
X52152839Y-146908657D01*
X52099000Y-146637986D01*
X52099000Y-146362014D01*
X52122431Y-146244219D01*
X52146255Y-146124443D01*
X52152839Y-146091343D01*
X52196585Y-145985733D01*
X52258449Y-145836379D01*
X52411774Y-145606911D01*
X52606911Y-145411774D01*
X52836379Y-145258449D01*
X52985733Y-145196585D01*
X53091343Y-145152839D01*
X53181567Y-145134893D01*
X53362012Y-145099000D01*
X53637988Y-145099000D01*
X53818433Y-145134893D01*
X53818433Y-145134893D01*
G37*
G36*
X71980527Y-144284736D02*
X72080410Y-144304604D01*
X72362674Y-144421521D01*
X72616705Y-144591259D01*
X72832741Y-144807295D01*
X73002479Y-145061326D01*
X73119396Y-145343590D01*
X73119396Y-145343591D01*
X73179000Y-145643238D01*
X73179000Y-145948762D01*
X73149554Y-146096794D01*
X73119396Y-146248410D01*
X73002479Y-146530674D01*
X72832741Y-146784705D01*
X72616705Y-147000741D01*
X72362674Y-147170479D01*
X72080410Y-147287396D01*
X71980527Y-147307264D01*
X71780762Y-147347000D01*
X71475238Y-147347000D01*
X71275473Y-147307264D01*
X71175590Y-147287396D01*
X70893326Y-147170479D01*
X70639295Y-147000741D01*
X70423259Y-146784705D01*
X70253521Y-146530674D01*
X70136604Y-146248410D01*
X70106446Y-146096794D01*
X70077000Y-145948762D01*
X70077000Y-145643238D01*
X70136604Y-145343591D01*
X70136604Y-145343590D01*
X70253521Y-145061326D01*
X70423259Y-144807295D01*
X70639295Y-144591259D01*
X70893326Y-144421521D01*
X71175590Y-144304604D01*
X71275473Y-144284736D01*
X71475238Y-144245000D01*
X71780762Y-144245000D01*
X71980527Y-144284736D01*
X71980527Y-144284736D01*
G37*
G36*
X68099000Y-147347000D02*
X64997000Y-147347000D01*
X64997000Y-144245000D01*
X68099000Y-144245000D01*
X68099000Y-147347000D01*
X68099000Y-147347000D01*
G37*
G36*
X83254720Y-144963520D02*
X83443881Y-145020901D01*
X83618212Y-145114083D01*
X83771015Y-145239485D01*
X83896417Y-145392288D01*
X83989599Y-145566620D01*
X84046980Y-145755781D01*
X84061500Y-145903207D01*
X84061500Y-146096794D01*
X84046980Y-146244220D01*
X83989599Y-146433381D01*
X83896417Y-146607712D01*
X83771015Y-146760515D01*
X83618212Y-146885917D01*
X83443880Y-146979099D01*
X83254719Y-147036480D01*
X83058000Y-147055855D01*
X82861280Y-147036480D01*
X82672119Y-146979099D01*
X82497788Y-146885917D01*
X82344985Y-146760515D01*
X82219583Y-146607712D01*
X82126401Y-146433380D01*
X82069020Y-146244219D01*
X82054500Y-146096793D01*
X82054500Y-145903206D01*
X82069020Y-145755780D01*
X82126401Y-145566619D01*
X82219583Y-145392288D01*
X82344985Y-145239485D01*
X82497788Y-145114083D01*
X82672120Y-145020901D01*
X82861281Y-144963520D01*
X83058000Y-144944145D01*
X83254720Y-144963520D01*
X83254720Y-144963520D01*
G37*
G36*
X80714720Y-144963520D02*
X80903881Y-145020901D01*
X81078212Y-145114083D01*
X81231015Y-145239485D01*
X81356417Y-145392288D01*
X81449599Y-145566620D01*
X81506980Y-145755781D01*
X81521500Y-145903207D01*
X81521500Y-146096794D01*
X81506980Y-146244220D01*
X81449599Y-146433381D01*
X81356417Y-146607712D01*
X81231015Y-146760515D01*
X81078212Y-146885917D01*
X80903880Y-146979099D01*
X80714719Y-147036480D01*
X80518000Y-147055855D01*
X80321280Y-147036480D01*
X80132119Y-146979099D01*
X79957788Y-146885917D01*
X79804985Y-146760515D01*
X79679583Y-146607712D01*
X79586401Y-146433380D01*
X79529020Y-146244219D01*
X79514500Y-146096793D01*
X79514500Y-145903206D01*
X79529020Y-145755780D01*
X79586401Y-145566619D01*
X79679583Y-145392288D01*
X79804985Y-145239485D01*
X79957788Y-145114083D01*
X80132120Y-145020901D01*
X80321281Y-144963520D01*
X80518000Y-144944145D01*
X80714720Y-144963520D01*
X80714720Y-144963520D01*
G37*
G36*
X86601500Y-147051000D02*
X84594500Y-147051000D01*
X84594500Y-144949000D01*
X86601500Y-144949000D01*
X86601500Y-147051000D01*
X86601500Y-147051000D01*
G37*
G36*
X59575000Y-146189000D02*
X57773000Y-146189000D01*
X57773000Y-144387000D01*
X59575000Y-144387000D01*
X59575000Y-146189000D01*
X59575000Y-146189000D01*
G37*
G36*
X61324443Y-144393519D02*
X61390627Y-144400037D01*
X61461450Y-144421521D01*
X61560467Y-144451557D01*
X61699087Y-144525652D01*
X61716991Y-144535222D01*
X61752729Y-144564552D01*
X61854186Y-144647814D01*
X61937448Y-144749271D01*
X61966778Y-144785009D01*
X61966779Y-144785011D01*
X62050443Y-144941533D01*
X62067616Y-144998147D01*
X62101963Y-145111373D01*
X62119359Y-145288000D01*
X62101963Y-145464627D01*
X62071025Y-145566615D01*
X62050443Y-145634467D01*
X61985599Y-145755780D01*
X61966778Y-145790991D01*
X61937448Y-145826729D01*
X61854186Y-145928186D01*
X61752729Y-146011448D01*
X61716991Y-146040778D01*
X61716989Y-146040779D01*
X61560467Y-146124443D01*
X61503853Y-146141616D01*
X61390627Y-146175963D01*
X61324443Y-146182481D01*
X61258260Y-146189000D01*
X61169740Y-146189000D01*
X61103557Y-146182481D01*
X61037373Y-146175963D01*
X60924147Y-146141616D01*
X60867533Y-146124443D01*
X60711011Y-146040779D01*
X60711009Y-146040778D01*
X60675271Y-146011448D01*
X60573814Y-145928186D01*
X60490552Y-145826729D01*
X60461222Y-145790991D01*
X60442401Y-145755780D01*
X60377557Y-145634467D01*
X60356975Y-145566615D01*
X60326037Y-145464627D01*
X60308641Y-145288000D01*
X60326037Y-145111373D01*
X60360384Y-144998147D01*
X60377557Y-144941533D01*
X60461221Y-144785011D01*
X60461222Y-144785009D01*
X60490552Y-144749271D01*
X60573814Y-144647814D01*
X60675271Y-144564552D01*
X60711009Y-144535222D01*
X60728913Y-144525652D01*
X60867533Y-144451557D01*
X60966550Y-144421521D01*
X61037373Y-144400037D01*
X61103557Y-144393519D01*
X61169740Y-144387000D01*
X61258260Y-144387000D01*
X61324443Y-144393519D01*
X61324443Y-144393519D01*
G37*
G36*
X95593000Y-145631000D02*
X93891000Y-145631000D01*
X93891000Y-143929000D01*
X95593000Y-143929000D01*
X95593000Y-145631000D01*
X95593000Y-145631000D01*
G37*
G36*
X64135200Y-142875200D02*
X61848800Y-142875200D01*
X61848800Y-140588800D01*
X64135200Y-140588800D01*
X64135200Y-142875200D01*
X64135200Y-142875200D01*
G37*
G36*
X81229282Y-140871638D02*
X81264197Y-140882230D01*
X81296385Y-140899435D01*
X81324593Y-140922584D01*
X81347742Y-140950792D01*
X81364947Y-140982980D01*
X81375539Y-141017895D01*
X81379720Y-141060352D01*
X81379720Y-142526562D01*
X81375539Y-142569019D01*
X81364947Y-142603934D01*
X81347742Y-142636122D01*
X81324593Y-142664330D01*
X81296385Y-142687479D01*
X81264197Y-142704684D01*
X81229282Y-142715276D01*
X81186825Y-142719457D01*
X80045615Y-142719457D01*
X80003158Y-142715276D01*
X79968243Y-142704684D01*
X79936055Y-142687479D01*
X79907847Y-142664330D01*
X79884698Y-142636122D01*
X79867493Y-142603934D01*
X79856901Y-142569019D01*
X79852720Y-142526562D01*
X79852720Y-141060352D01*
X79856901Y-141017895D01*
X79867493Y-140982980D01*
X79884698Y-140950792D01*
X79907847Y-140922584D01*
X79936055Y-140899435D01*
X79968243Y-140882230D01*
X80003158Y-140871638D01*
X80045615Y-140867457D01*
X81186825Y-140867457D01*
X81229282Y-140871638D01*
X81229282Y-140871638D01*
G37*
G36*
X84204282Y-140871638D02*
X84239197Y-140882230D01*
X84271385Y-140899435D01*
X84299593Y-140922584D01*
X84322742Y-140950792D01*
X84339947Y-140982980D01*
X84350539Y-141017895D01*
X84354720Y-141060352D01*
X84354720Y-142526562D01*
X84350539Y-142569019D01*
X84339947Y-142603934D01*
X84322742Y-142636122D01*
X84299593Y-142664330D01*
X84271385Y-142687479D01*
X84239197Y-142704684D01*
X84204282Y-142715276D01*
X84161825Y-142719457D01*
X83020615Y-142719457D01*
X82978158Y-142715276D01*
X82943243Y-142704684D01*
X82911055Y-142687479D01*
X82882847Y-142664330D01*
X82859698Y-142636122D01*
X82842493Y-142603934D01*
X82831901Y-142569019D01*
X82827720Y-142526562D01*
X82827720Y-141060352D01*
X82831901Y-141017895D01*
X82842493Y-140982980D01*
X82859698Y-140950792D01*
X82882847Y-140922584D01*
X82911055Y-140899435D01*
X82943243Y-140882230D01*
X82978158Y-140871638D01*
X83020615Y-140867457D01*
X84161825Y-140867457D01*
X84204282Y-140871638D01*
X84204282Y-140871638D01*
G37*
G36*
X55765000Y-142125000D02*
X53963000Y-142125000D01*
X53963000Y-140323000D01*
X55765000Y-140323000D01*
X55765000Y-142125000D01*
X55765000Y-142125000D01*
G37*
G36*
X52434442Y-140329518D02*
X52500627Y-140336037D01*
X52613853Y-140370384D01*
X52670467Y-140387557D01*
X52806932Y-140460500D01*
X52826991Y-140471222D01*
X52852891Y-140492478D01*
X52964186Y-140583814D01*
X53039947Y-140676131D01*
X53076778Y-140721009D01*
X53076779Y-140721011D01*
X53160443Y-140877533D01*
X53160443Y-140877534D01*
X53211963Y-141047373D01*
X53229359Y-141224000D01*
X53211963Y-141400627D01*
X53177616Y-141513853D01*
X53160443Y-141570467D01*
X53086348Y-141709087D01*
X53076778Y-141726991D01*
X53047448Y-141762729D01*
X52964186Y-141864186D01*
X52868939Y-141942352D01*
X52826991Y-141976778D01*
X52826989Y-141976779D01*
X52670467Y-142060443D01*
X52613853Y-142077616D01*
X52500627Y-142111963D01*
X52434443Y-142118481D01*
X52368260Y-142125000D01*
X52279740Y-142125000D01*
X52213557Y-142118481D01*
X52147373Y-142111963D01*
X52034147Y-142077616D01*
X51977533Y-142060443D01*
X51821011Y-141976779D01*
X51821009Y-141976778D01*
X51779061Y-141942352D01*
X51683814Y-141864186D01*
X51600552Y-141762729D01*
X51571222Y-141726991D01*
X51561652Y-141709087D01*
X51487557Y-141570467D01*
X51470384Y-141513853D01*
X51436037Y-141400627D01*
X51418641Y-141224000D01*
X51436037Y-141047373D01*
X51487557Y-140877534D01*
X51487557Y-140877533D01*
X51571221Y-140721011D01*
X51571222Y-140721009D01*
X51608053Y-140676131D01*
X51683814Y-140583814D01*
X51795109Y-140492478D01*
X51821009Y-140471222D01*
X51841068Y-140460500D01*
X51977533Y-140387557D01*
X52034147Y-140370384D01*
X52147373Y-140336037D01*
X52213558Y-140329518D01*
X52279740Y-140323000D01*
X52368260Y-140323000D01*
X52434442Y-140329518D01*
X52434442Y-140329518D01*
G37*
G36*
X59899561Y-140464681D02*
X59934476Y-140475273D01*
X59966664Y-140492478D01*
X59994872Y-140515627D01*
X60018021Y-140543835D01*
X60035226Y-140576023D01*
X60045818Y-140610938D01*
X60049999Y-140653395D01*
X60049999Y-141794605D01*
X60045818Y-141837062D01*
X60035226Y-141871977D01*
X60018021Y-141904165D01*
X59994872Y-141932373D01*
X59966664Y-141955522D01*
X59934476Y-141972727D01*
X59899561Y-141983319D01*
X59857104Y-141987500D01*
X57490894Y-141987500D01*
X57448437Y-141983319D01*
X57413522Y-141972727D01*
X57381334Y-141955522D01*
X57353126Y-141932373D01*
X57329977Y-141904165D01*
X57312772Y-141871977D01*
X57302180Y-141837062D01*
X57297999Y-141794605D01*
X57297999Y-140653395D01*
X57302180Y-140610938D01*
X57312772Y-140576023D01*
X57329977Y-140543835D01*
X57353126Y-140515627D01*
X57381334Y-140492478D01*
X57413522Y-140475273D01*
X57448437Y-140464681D01*
X57490894Y-140460500D01*
X59857104Y-140460500D01*
X59899561Y-140464681D01*
X59899561Y-140464681D01*
G37*
G36*
X84191782Y-138270181D02*
X84226697Y-138280773D01*
X84258885Y-138297978D01*
X84287093Y-138321127D01*
X84310242Y-138349335D01*
X84327447Y-138381523D01*
X84338039Y-138416438D01*
X84342220Y-138458895D01*
X84342220Y-139925105D01*
X84338039Y-139967562D01*
X84327447Y-140002477D01*
X84310242Y-140034665D01*
X84287093Y-140062873D01*
X84258885Y-140086022D01*
X84226697Y-140103227D01*
X84191782Y-140113819D01*
X84149325Y-140118000D01*
X83008115Y-140118000D01*
X82965658Y-140113819D01*
X82930743Y-140103227D01*
X82898555Y-140086022D01*
X82870347Y-140062873D01*
X82847198Y-140034665D01*
X82829993Y-140002477D01*
X82819401Y-139967562D01*
X82815220Y-139925105D01*
X82815220Y-138458895D01*
X82819401Y-138416438D01*
X82829993Y-138381523D01*
X82847198Y-138349335D01*
X82870347Y-138321127D01*
X82898555Y-138297978D01*
X82930743Y-138280773D01*
X82965658Y-138270181D01*
X83008115Y-138266000D01*
X84149325Y-138266000D01*
X84191782Y-138270181D01*
X84191782Y-138270181D01*
G37*
G36*
X81216782Y-138270181D02*
X81251697Y-138280773D01*
X81283885Y-138297978D01*
X81312093Y-138321127D01*
X81335242Y-138349335D01*
X81352447Y-138381523D01*
X81363039Y-138416438D01*
X81367220Y-138458895D01*
X81367220Y-139925105D01*
X81363039Y-139967562D01*
X81352447Y-140002477D01*
X81335242Y-140034665D01*
X81312093Y-140062873D01*
X81283885Y-140086022D01*
X81251697Y-140103227D01*
X81216782Y-140113819D01*
X81174325Y-140118000D01*
X80033115Y-140118000D01*
X79990658Y-140113819D01*
X79955743Y-140103227D01*
X79923555Y-140086022D01*
X79895347Y-140062873D01*
X79872198Y-140034665D01*
X79854993Y-140002477D01*
X79844401Y-139967562D01*
X79840220Y-139925105D01*
X79840220Y-138458895D01*
X79844401Y-138416438D01*
X79854993Y-138381523D01*
X79872198Y-138349335D01*
X79895347Y-138321127D01*
X79923555Y-138297978D01*
X79955743Y-138280773D01*
X79990658Y-138270181D01*
X80033115Y-138266000D01*
X81174325Y-138266000D01*
X81216782Y-138270181D01*
X81216782Y-138270181D01*
G37*
G36*
X54974443Y-137789519D02*
X55040627Y-137796037D01*
X55153853Y-137830384D01*
X55210467Y-137847557D01*
X55339342Y-137916443D01*
X55366991Y-137931222D01*
X55402729Y-137960552D01*
X55504186Y-138043814D01*
X55587448Y-138145271D01*
X55616778Y-138181009D01*
X55616779Y-138181011D01*
X55700443Y-138337533D01*
X55704023Y-138349335D01*
X55751963Y-138507373D01*
X55769359Y-138684000D01*
X55751963Y-138860627D01*
X55740936Y-138896977D01*
X55700443Y-139030467D01*
X55669634Y-139088105D01*
X55616778Y-139186991D01*
X55613796Y-139190624D01*
X55504186Y-139324186D01*
X55402729Y-139407448D01*
X55366991Y-139436778D01*
X55366989Y-139436779D01*
X55210467Y-139520443D01*
X55153853Y-139537616D01*
X55040627Y-139571963D01*
X54974443Y-139578481D01*
X54908260Y-139585000D01*
X54819740Y-139585000D01*
X54753557Y-139578481D01*
X54687373Y-139571963D01*
X54574147Y-139537616D01*
X54517533Y-139520443D01*
X54361011Y-139436779D01*
X54361009Y-139436778D01*
X54325271Y-139407448D01*
X54223814Y-139324186D01*
X54114204Y-139190624D01*
X54111222Y-139186991D01*
X54058366Y-139088105D01*
X54027557Y-139030467D01*
X53987064Y-138896977D01*
X53976037Y-138860627D01*
X53958641Y-138684000D01*
X53976037Y-138507373D01*
X54023977Y-138349335D01*
X54027557Y-138337533D01*
X54111221Y-138181011D01*
X54111222Y-138181009D01*
X54140552Y-138145271D01*
X54223814Y-138043814D01*
X54325271Y-137960552D01*
X54361009Y-137931222D01*
X54388658Y-137916443D01*
X54517533Y-137847557D01*
X54574147Y-137830384D01*
X54687373Y-137796037D01*
X54753557Y-137789519D01*
X54819740Y-137783000D01*
X54908260Y-137783000D01*
X54974443Y-137789519D01*
X54974443Y-137789519D01*
G37*
G36*
X52434443Y-137789519D02*
X52500627Y-137796037D01*
X52613853Y-137830384D01*
X52670467Y-137847557D01*
X52799342Y-137916443D01*
X52826991Y-137931222D01*
X52862729Y-137960552D01*
X52964186Y-138043814D01*
X53047448Y-138145271D01*
X53076778Y-138181009D01*
X53076779Y-138181011D01*
X53160443Y-138337533D01*
X53164023Y-138349335D01*
X53211963Y-138507373D01*
X53229359Y-138684000D01*
X53211963Y-138860627D01*
X53200936Y-138896977D01*
X53160443Y-139030467D01*
X53129634Y-139088105D01*
X53076778Y-139186991D01*
X53073796Y-139190624D01*
X52964186Y-139324186D01*
X52862729Y-139407448D01*
X52826991Y-139436778D01*
X52826989Y-139436779D01*
X52670467Y-139520443D01*
X52613853Y-139537616D01*
X52500627Y-139571963D01*
X52434443Y-139578481D01*
X52368260Y-139585000D01*
X52279740Y-139585000D01*
X52213557Y-139578481D01*
X52147373Y-139571963D01*
X52034147Y-139537616D01*
X51977533Y-139520443D01*
X51821011Y-139436779D01*
X51821009Y-139436778D01*
X51785271Y-139407448D01*
X51683814Y-139324186D01*
X51574204Y-139190624D01*
X51571222Y-139186991D01*
X51518366Y-139088105D01*
X51487557Y-139030467D01*
X51447064Y-138896977D01*
X51436037Y-138860627D01*
X51418641Y-138684000D01*
X51436037Y-138507373D01*
X51483977Y-138349335D01*
X51487557Y-138337533D01*
X51571221Y-138181011D01*
X51571222Y-138181009D01*
X51600552Y-138145271D01*
X51683814Y-138043814D01*
X51785271Y-137960552D01*
X51821009Y-137931222D01*
X51848658Y-137916443D01*
X51977533Y-137847557D01*
X52034147Y-137830384D01*
X52147373Y-137796037D01*
X52213557Y-137789519D01*
X52279740Y-137783000D01*
X52368260Y-137783000D01*
X52434443Y-137789519D01*
X52434443Y-137789519D01*
G37*
G36*
X92126062Y-137508181D02*
X92160977Y-137518773D01*
X92193165Y-137535978D01*
X92221373Y-137559127D01*
X92244522Y-137587335D01*
X92261727Y-137619523D01*
X92272319Y-137654438D01*
X92276500Y-137696895D01*
X92276500Y-139163105D01*
X92272319Y-139205562D01*
X92261727Y-139240477D01*
X92244522Y-139272665D01*
X92221373Y-139300873D01*
X92193165Y-139324022D01*
X92160977Y-139341227D01*
X92126062Y-139351819D01*
X92083605Y-139356000D01*
X90942395Y-139356000D01*
X90899938Y-139351819D01*
X90865023Y-139341227D01*
X90832835Y-139324022D01*
X90804627Y-139300873D01*
X90781478Y-139272665D01*
X90764273Y-139240477D01*
X90753681Y-139205562D01*
X90749500Y-139163105D01*
X90749500Y-137696895D01*
X90753681Y-137654438D01*
X90764273Y-137619523D01*
X90781478Y-137587335D01*
X90804627Y-137559127D01*
X90832835Y-137535978D01*
X90865023Y-137518773D01*
X90899938Y-137508181D01*
X90942395Y-137504000D01*
X92083605Y-137504000D01*
X92126062Y-137508181D01*
X92126062Y-137508181D01*
G37*
G36*
X95101062Y-137508181D02*
X95135977Y-137518773D01*
X95168165Y-137535978D01*
X95196373Y-137559127D01*
X95219522Y-137587335D01*
X95236727Y-137619523D01*
X95247319Y-137654438D01*
X95251500Y-137696895D01*
X95251500Y-139163105D01*
X95247319Y-139205562D01*
X95236727Y-139240477D01*
X95219522Y-139272665D01*
X95196373Y-139300873D01*
X95168165Y-139324022D01*
X95135977Y-139341227D01*
X95101062Y-139351819D01*
X95058605Y-139356000D01*
X93917395Y-139356000D01*
X93874938Y-139351819D01*
X93840023Y-139341227D01*
X93807835Y-139324022D01*
X93779627Y-139300873D01*
X93756478Y-139272665D01*
X93739273Y-139240477D01*
X93728681Y-139205562D01*
X93724500Y-139163105D01*
X93724500Y-137696895D01*
X93728681Y-137654438D01*
X93739273Y-137619523D01*
X93756478Y-137587335D01*
X93779627Y-137559127D01*
X93807835Y-137535978D01*
X93840023Y-137518773D01*
X93874938Y-137508181D01*
X93917395Y-137504000D01*
X95058605Y-137504000D01*
X95101062Y-137508181D01*
X95101062Y-137508181D01*
G37*
G36*
X64135200Y-139166800D02*
X61848800Y-139166800D01*
X61848800Y-136880400D01*
X64135200Y-136880400D01*
X64135200Y-139166800D01*
X64135200Y-139166800D01*
G37*
G36*
X59899561Y-137489681D02*
X59934476Y-137500273D01*
X59966664Y-137517478D01*
X59994872Y-137540627D01*
X60018021Y-137568835D01*
X60035226Y-137601023D01*
X60045818Y-137635938D01*
X60049999Y-137678395D01*
X60049999Y-138819605D01*
X60045818Y-138862062D01*
X60035226Y-138896977D01*
X60018021Y-138929165D01*
X59994872Y-138957373D01*
X59966664Y-138980522D01*
X59934476Y-138997727D01*
X59899561Y-139008319D01*
X59857104Y-139012500D01*
X57490894Y-139012500D01*
X57448437Y-139008319D01*
X57413522Y-138997727D01*
X57381334Y-138980522D01*
X57353126Y-138957373D01*
X57329977Y-138929165D01*
X57312772Y-138896977D01*
X57302180Y-138862062D01*
X57297999Y-138819605D01*
X57297999Y-137678395D01*
X57302180Y-137635938D01*
X57312772Y-137601023D01*
X57329977Y-137568835D01*
X57353126Y-137540627D01*
X57381334Y-137517478D01*
X57413522Y-137500273D01*
X57448437Y-137489681D01*
X57490894Y-137485500D01*
X59857104Y-137485500D01*
X59899561Y-137489681D01*
X59899561Y-137489681D01*
G37*
G36*
X103610442Y-136185518D02*
X103676627Y-136192037D01*
X103789853Y-136226384D01*
X103846467Y-136243557D01*
X103985087Y-136317652D01*
X104002991Y-136327222D01*
X104038729Y-136356552D01*
X104140186Y-136439814D01*
X104223448Y-136541271D01*
X104252778Y-136577009D01*
X104252779Y-136577011D01*
X104336443Y-136733533D01*
X104336443Y-136733534D01*
X104387963Y-136903373D01*
X104405359Y-137080000D01*
X104387963Y-137256627D01*
X104353616Y-137369853D01*
X104336443Y-137426467D01*
X104302654Y-137489681D01*
X104252778Y-137582991D01*
X104237979Y-137601023D01*
X104140186Y-137720186D01*
X104047760Y-137796037D01*
X104002991Y-137832778D01*
X104002989Y-137832779D01*
X103846467Y-137916443D01*
X103797746Y-137931222D01*
X103676627Y-137967963D01*
X103610442Y-137974482D01*
X103544260Y-137981000D01*
X103455740Y-137981000D01*
X103389558Y-137974482D01*
X103323373Y-137967963D01*
X103202254Y-137931222D01*
X103153533Y-137916443D01*
X102997011Y-137832779D01*
X102997009Y-137832778D01*
X102952240Y-137796037D01*
X102859814Y-137720186D01*
X102762021Y-137601023D01*
X102747222Y-137582991D01*
X102697346Y-137489681D01*
X102663557Y-137426467D01*
X102646384Y-137369853D01*
X102612037Y-137256627D01*
X102594641Y-137080000D01*
X102612037Y-136903373D01*
X102663557Y-136733534D01*
X102663557Y-136733533D01*
X102747221Y-136577011D01*
X102747222Y-136577009D01*
X102776552Y-136541271D01*
X102859814Y-136439814D01*
X102961271Y-136356552D01*
X102997009Y-136327222D01*
X103014913Y-136317652D01*
X103153533Y-136243557D01*
X103210147Y-136226384D01*
X103323373Y-136192037D01*
X103389558Y-136185518D01*
X103455740Y-136179000D01*
X103544260Y-136179000D01*
X103610442Y-136185518D01*
X103610442Y-136185518D01*
G37*
G36*
X101070442Y-136185518D02*
X101136627Y-136192037D01*
X101249853Y-136226384D01*
X101306467Y-136243557D01*
X101445087Y-136317652D01*
X101462991Y-136327222D01*
X101498729Y-136356552D01*
X101600186Y-136439814D01*
X101683448Y-136541271D01*
X101712778Y-136577009D01*
X101712779Y-136577011D01*
X101796443Y-136733533D01*
X101796443Y-136733534D01*
X101847963Y-136903373D01*
X101865359Y-137080000D01*
X101847963Y-137256627D01*
X101813616Y-137369853D01*
X101796443Y-137426467D01*
X101762654Y-137489681D01*
X101712778Y-137582991D01*
X101697979Y-137601023D01*
X101600186Y-137720186D01*
X101507760Y-137796037D01*
X101462991Y-137832778D01*
X101462989Y-137832779D01*
X101306467Y-137916443D01*
X101257746Y-137931222D01*
X101136627Y-137967963D01*
X101070442Y-137974482D01*
X101004260Y-137981000D01*
X100915740Y-137981000D01*
X100849558Y-137974482D01*
X100783373Y-137967963D01*
X100662254Y-137931222D01*
X100613533Y-137916443D01*
X100457011Y-137832779D01*
X100457009Y-137832778D01*
X100412240Y-137796037D01*
X100319814Y-137720186D01*
X100222021Y-137601023D01*
X100207222Y-137582991D01*
X100157346Y-137489681D01*
X100123557Y-137426467D01*
X100106384Y-137369853D01*
X100072037Y-137256627D01*
X100054641Y-137080000D01*
X100072037Y-136903373D01*
X100123557Y-136733534D01*
X100123557Y-136733533D01*
X100207221Y-136577011D01*
X100207222Y-136577009D01*
X100236552Y-136541271D01*
X100319814Y-136439814D01*
X100421271Y-136356552D01*
X100457009Y-136327222D01*
X100474913Y-136317652D01*
X100613533Y-136243557D01*
X100670147Y-136226384D01*
X100783373Y-136192037D01*
X100849558Y-136185518D01*
X100915740Y-136179000D01*
X101004260Y-136179000D01*
X101070442Y-136185518D01*
X101070442Y-136185518D01*
G37*
G36*
X52434443Y-135249519D02*
X52500627Y-135256037D01*
X52613853Y-135290384D01*
X52670467Y-135307557D01*
X52799342Y-135376443D01*
X52826991Y-135391222D01*
X52862729Y-135420552D01*
X52964186Y-135503814D01*
X53047448Y-135605271D01*
X53076778Y-135641009D01*
X53076779Y-135641011D01*
X53160443Y-135797533D01*
X53160443Y-135797534D01*
X53211963Y-135967373D01*
X53229359Y-136144000D01*
X53211963Y-136320627D01*
X53209962Y-136327222D01*
X53160443Y-136490467D01*
X53086348Y-136629087D01*
X53076778Y-136646991D01*
X53047448Y-136682729D01*
X52964186Y-136784186D01*
X52862729Y-136867448D01*
X52826991Y-136896778D01*
X52826989Y-136896779D01*
X52670467Y-136980443D01*
X52613853Y-136997616D01*
X52500627Y-137031963D01*
X52434443Y-137038481D01*
X52368260Y-137045000D01*
X52279740Y-137045000D01*
X52213557Y-137038481D01*
X52147373Y-137031963D01*
X52034147Y-136997616D01*
X51977533Y-136980443D01*
X51821011Y-136896779D01*
X51821009Y-136896778D01*
X51785271Y-136867448D01*
X51683814Y-136784186D01*
X51600552Y-136682729D01*
X51571222Y-136646991D01*
X51561652Y-136629087D01*
X51487557Y-136490467D01*
X51438038Y-136327222D01*
X51436037Y-136320627D01*
X51418641Y-136144000D01*
X51436037Y-135967373D01*
X51487557Y-135797534D01*
X51487557Y-135797533D01*
X51571221Y-135641011D01*
X51571222Y-135641009D01*
X51600552Y-135605271D01*
X51683814Y-135503814D01*
X51785271Y-135420552D01*
X51821009Y-135391222D01*
X51848658Y-135376443D01*
X51977533Y-135307557D01*
X52034147Y-135290384D01*
X52147373Y-135256037D01*
X52213557Y-135249519D01*
X52279740Y-135243000D01*
X52368260Y-135243000D01*
X52434443Y-135249519D01*
X52434443Y-135249519D01*
G37*
G36*
X54974443Y-135249519D02*
X55040627Y-135256037D01*
X55153853Y-135290384D01*
X55210467Y-135307557D01*
X55339342Y-135376443D01*
X55366991Y-135391222D01*
X55402729Y-135420552D01*
X55504186Y-135503814D01*
X55587448Y-135605271D01*
X55616778Y-135641009D01*
X55616779Y-135641011D01*
X55700443Y-135797533D01*
X55700443Y-135797534D01*
X55751963Y-135967373D01*
X55769359Y-136144000D01*
X55751963Y-136320627D01*
X55749962Y-136327222D01*
X55700443Y-136490467D01*
X55626348Y-136629087D01*
X55616778Y-136646991D01*
X55587448Y-136682729D01*
X55504186Y-136784186D01*
X55402729Y-136867448D01*
X55366991Y-136896778D01*
X55366989Y-136896779D01*
X55210467Y-136980443D01*
X55153853Y-136997616D01*
X55040627Y-137031963D01*
X54974443Y-137038481D01*
X54908260Y-137045000D01*
X54819740Y-137045000D01*
X54753557Y-137038481D01*
X54687373Y-137031963D01*
X54574147Y-136997616D01*
X54517533Y-136980443D01*
X54361011Y-136896779D01*
X54361009Y-136896778D01*
X54325271Y-136867448D01*
X54223814Y-136784186D01*
X54140552Y-136682729D01*
X54111222Y-136646991D01*
X54101652Y-136629087D01*
X54027557Y-136490467D01*
X53978038Y-136327222D01*
X53976037Y-136320627D01*
X53958641Y-136144000D01*
X53976037Y-135967373D01*
X54027557Y-135797534D01*
X54027557Y-135797533D01*
X54111221Y-135641011D01*
X54111222Y-135641009D01*
X54140552Y-135605271D01*
X54223814Y-135503814D01*
X54325271Y-135420552D01*
X54361009Y-135391222D01*
X54388658Y-135376443D01*
X54517533Y-135307557D01*
X54574147Y-135290384D01*
X54687373Y-135256037D01*
X54753557Y-135249519D01*
X54819740Y-135243000D01*
X54908260Y-135243000D01*
X54974443Y-135249519D01*
X54974443Y-135249519D01*
G37*
G36*
X101070443Y-133645519D02*
X101136627Y-133652037D01*
X101249853Y-133686384D01*
X101306467Y-133703557D01*
X101445087Y-133777652D01*
X101462991Y-133787222D01*
X101498729Y-133816552D01*
X101600186Y-133899814D01*
X101683448Y-134001271D01*
X101712778Y-134037009D01*
X101712779Y-134037011D01*
X101796443Y-134193533D01*
X101796443Y-134193534D01*
X101847963Y-134363373D01*
X101865359Y-134540000D01*
X101847963Y-134716627D01*
X101813616Y-134829853D01*
X101796443Y-134886467D01*
X101722348Y-135025087D01*
X101712778Y-135042991D01*
X101683448Y-135078729D01*
X101600186Y-135180186D01*
X101507760Y-135256037D01*
X101462991Y-135292778D01*
X101462989Y-135292779D01*
X101306467Y-135376443D01*
X101257746Y-135391222D01*
X101136627Y-135427963D01*
X101070443Y-135434481D01*
X101004260Y-135441000D01*
X100915740Y-135441000D01*
X100849557Y-135434481D01*
X100783373Y-135427963D01*
X100662254Y-135391222D01*
X100613533Y-135376443D01*
X100457011Y-135292779D01*
X100457009Y-135292778D01*
X100412240Y-135256037D01*
X100319814Y-135180186D01*
X100236552Y-135078729D01*
X100207222Y-135042991D01*
X100197652Y-135025087D01*
X100123557Y-134886467D01*
X100106384Y-134829853D01*
X100072037Y-134716627D01*
X100054641Y-134540000D01*
X100072037Y-134363373D01*
X100123557Y-134193534D01*
X100123557Y-134193533D01*
X100207221Y-134037011D01*
X100207222Y-134037009D01*
X100236552Y-134001271D01*
X100319814Y-133899814D01*
X100421271Y-133816552D01*
X100457009Y-133787222D01*
X100474913Y-133777652D01*
X100613533Y-133703557D01*
X100670147Y-133686384D01*
X100783373Y-133652037D01*
X100849557Y-133645519D01*
X100915740Y-133639000D01*
X101004260Y-133639000D01*
X101070443Y-133645519D01*
X101070443Y-133645519D01*
G37*
G36*
X103610443Y-133645519D02*
X103676627Y-133652037D01*
X103789853Y-133686384D01*
X103846467Y-133703557D01*
X103985087Y-133777652D01*
X104002991Y-133787222D01*
X104038729Y-133816552D01*
X104140186Y-133899814D01*
X104223448Y-134001271D01*
X104252778Y-134037009D01*
X104252779Y-134037011D01*
X104336443Y-134193533D01*
X104336443Y-134193534D01*
X104387963Y-134363373D01*
X104405359Y-134540000D01*
X104387963Y-134716627D01*
X104353616Y-134829853D01*
X104336443Y-134886467D01*
X104262348Y-135025087D01*
X104252778Y-135042991D01*
X104223448Y-135078729D01*
X104140186Y-135180186D01*
X104047760Y-135256037D01*
X104002991Y-135292778D01*
X104002989Y-135292779D01*
X103846467Y-135376443D01*
X103797746Y-135391222D01*
X103676627Y-135427963D01*
X103610443Y-135434481D01*
X103544260Y-135441000D01*
X103455740Y-135441000D01*
X103389557Y-135434481D01*
X103323373Y-135427963D01*
X103202254Y-135391222D01*
X103153533Y-135376443D01*
X102997011Y-135292779D01*
X102997009Y-135292778D01*
X102952240Y-135256037D01*
X102859814Y-135180186D01*
X102776552Y-135078729D01*
X102747222Y-135042991D01*
X102737652Y-135025087D01*
X102663557Y-134886467D01*
X102646384Y-134829853D01*
X102612037Y-134716627D01*
X102594641Y-134540000D01*
X102612037Y-134363373D01*
X102663557Y-134193534D01*
X102663557Y-134193533D01*
X102747221Y-134037011D01*
X102747222Y-134037009D01*
X102776552Y-134001271D01*
X102859814Y-133899814D01*
X102961271Y-133816552D01*
X102997009Y-133787222D01*
X103014913Y-133777652D01*
X103153533Y-133703557D01*
X103210147Y-133686384D01*
X103323373Y-133652037D01*
X103389557Y-133645519D01*
X103455740Y-133639000D01*
X103544260Y-133639000D01*
X103610443Y-133645519D01*
X103610443Y-133645519D01*
G37*
G36*
X52434442Y-132709518D02*
X52500627Y-132716037D01*
X52613853Y-132750384D01*
X52670467Y-132767557D01*
X52799342Y-132836443D01*
X52826991Y-132851222D01*
X52862729Y-132880552D01*
X52964186Y-132963814D01*
X53047448Y-133065271D01*
X53076778Y-133101009D01*
X53076779Y-133101011D01*
X53160443Y-133257533D01*
X53160443Y-133257534D01*
X53211963Y-133427373D01*
X53229359Y-133604000D01*
X53211963Y-133780627D01*
X53209962Y-133787222D01*
X53160443Y-133950467D01*
X53086348Y-134089087D01*
X53076778Y-134106991D01*
X53047448Y-134142729D01*
X52964186Y-134244186D01*
X52862729Y-134327448D01*
X52826991Y-134356778D01*
X52826989Y-134356779D01*
X52670467Y-134440443D01*
X52613853Y-134457616D01*
X52500627Y-134491963D01*
X52434442Y-134498482D01*
X52368260Y-134505000D01*
X52279740Y-134505000D01*
X52213558Y-134498482D01*
X52147373Y-134491963D01*
X52034147Y-134457616D01*
X51977533Y-134440443D01*
X51821011Y-134356779D01*
X51821009Y-134356778D01*
X51785271Y-134327448D01*
X51683814Y-134244186D01*
X51600552Y-134142729D01*
X51571222Y-134106991D01*
X51561652Y-134089087D01*
X51487557Y-133950467D01*
X51438038Y-133787222D01*
X51436037Y-133780627D01*
X51418641Y-133604000D01*
X51436037Y-133427373D01*
X51487557Y-133257534D01*
X51487557Y-133257533D01*
X51571221Y-133101011D01*
X51571222Y-133101009D01*
X51600552Y-133065271D01*
X51683814Y-132963814D01*
X51785271Y-132880552D01*
X51821009Y-132851222D01*
X51848658Y-132836443D01*
X51977533Y-132767557D01*
X52034147Y-132750384D01*
X52147373Y-132716037D01*
X52213558Y-132709518D01*
X52279740Y-132703000D01*
X52368260Y-132703000D01*
X52434442Y-132709518D01*
X52434442Y-132709518D01*
G37*
G36*
X54974442Y-132709518D02*
X55040627Y-132716037D01*
X55153853Y-132750384D01*
X55210467Y-132767557D01*
X55339342Y-132836443D01*
X55366991Y-132851222D01*
X55402729Y-132880552D01*
X55504186Y-132963814D01*
X55587448Y-133065271D01*
X55616778Y-133101009D01*
X55616779Y-133101011D01*
X55700443Y-133257533D01*
X55700443Y-133257534D01*
X55751963Y-133427373D01*
X55769359Y-133604000D01*
X55751963Y-133780627D01*
X55749962Y-133787222D01*
X55700443Y-133950467D01*
X55626348Y-134089087D01*
X55616778Y-134106991D01*
X55587448Y-134142729D01*
X55504186Y-134244186D01*
X55402729Y-134327448D01*
X55366991Y-134356778D01*
X55366989Y-134356779D01*
X55210467Y-134440443D01*
X55153853Y-134457616D01*
X55040627Y-134491963D01*
X54974442Y-134498482D01*
X54908260Y-134505000D01*
X54819740Y-134505000D01*
X54753558Y-134498482D01*
X54687373Y-134491963D01*
X54574147Y-134457616D01*
X54517533Y-134440443D01*
X54361011Y-134356779D01*
X54361009Y-134356778D01*
X54325271Y-134327448D01*
X54223814Y-134244186D01*
X54140552Y-134142729D01*
X54111222Y-134106991D01*
X54101652Y-134089087D01*
X54027557Y-133950467D01*
X53978038Y-133787222D01*
X53976037Y-133780627D01*
X53958641Y-133604000D01*
X53976037Y-133427373D01*
X54027557Y-133257534D01*
X54027557Y-133257533D01*
X54111221Y-133101011D01*
X54111222Y-133101009D01*
X54140552Y-133065271D01*
X54223814Y-132963814D01*
X54325271Y-132880552D01*
X54361009Y-132851222D01*
X54388658Y-132836443D01*
X54517533Y-132767557D01*
X54574147Y-132750384D01*
X54687373Y-132716037D01*
X54753558Y-132709518D01*
X54819740Y-132703000D01*
X54908260Y-132703000D01*
X54974442Y-132709518D01*
X54974442Y-132709518D01*
G37*
G36*
X103610442Y-131105518D02*
X103676627Y-131112037D01*
X103789853Y-131146384D01*
X103846467Y-131163557D01*
X103985087Y-131237652D01*
X104002991Y-131247222D01*
X104038729Y-131276552D01*
X104140186Y-131359814D01*
X104214350Y-131450185D01*
X104252778Y-131497009D01*
X104252779Y-131497011D01*
X104336443Y-131653533D01*
X104336443Y-131653534D01*
X104387963Y-131823373D01*
X104405359Y-132000000D01*
X104387963Y-132176627D01*
X104353616Y-132289853D01*
X104336443Y-132346467D01*
X104262348Y-132485087D01*
X104252778Y-132502991D01*
X104223448Y-132538729D01*
X104140186Y-132640186D01*
X104047760Y-132716037D01*
X104002991Y-132752778D01*
X104002989Y-132752779D01*
X103846467Y-132836443D01*
X103797746Y-132851222D01*
X103676627Y-132887963D01*
X103610443Y-132894481D01*
X103544260Y-132901000D01*
X103455740Y-132901000D01*
X103389557Y-132894481D01*
X103323373Y-132887963D01*
X103202254Y-132851222D01*
X103153533Y-132836443D01*
X102997011Y-132752779D01*
X102997009Y-132752778D01*
X102952240Y-132716037D01*
X102859814Y-132640186D01*
X102776552Y-132538729D01*
X102747222Y-132502991D01*
X102737652Y-132485087D01*
X102663557Y-132346467D01*
X102646384Y-132289853D01*
X102612037Y-132176627D01*
X102594641Y-132000000D01*
X102612037Y-131823373D01*
X102663557Y-131653534D01*
X102663557Y-131653533D01*
X102747221Y-131497011D01*
X102747222Y-131497009D01*
X102785650Y-131450185D01*
X102859814Y-131359814D01*
X102961271Y-131276552D01*
X102997009Y-131247222D01*
X103014913Y-131237652D01*
X103153533Y-131163557D01*
X103210147Y-131146384D01*
X103323373Y-131112037D01*
X103389558Y-131105518D01*
X103455740Y-131099000D01*
X103544260Y-131099000D01*
X103610442Y-131105518D01*
X103610442Y-131105518D01*
G37*
G36*
X101070442Y-131105518D02*
X101136627Y-131112037D01*
X101249853Y-131146384D01*
X101306467Y-131163557D01*
X101445087Y-131237652D01*
X101462991Y-131247222D01*
X101498729Y-131276552D01*
X101600186Y-131359814D01*
X101674350Y-131450185D01*
X101712778Y-131497009D01*
X101712779Y-131497011D01*
X101796443Y-131653533D01*
X101796443Y-131653534D01*
X101847963Y-131823373D01*
X101865359Y-132000000D01*
X101847963Y-132176627D01*
X101813616Y-132289853D01*
X101796443Y-132346467D01*
X101722348Y-132485087D01*
X101712778Y-132502991D01*
X101683448Y-132538729D01*
X101600186Y-132640186D01*
X101507760Y-132716037D01*
X101462991Y-132752778D01*
X101462989Y-132752779D01*
X101306467Y-132836443D01*
X101257746Y-132851222D01*
X101136627Y-132887963D01*
X101070443Y-132894481D01*
X101004260Y-132901000D01*
X100915740Y-132901000D01*
X100849557Y-132894481D01*
X100783373Y-132887963D01*
X100662254Y-132851222D01*
X100613533Y-132836443D01*
X100457011Y-132752779D01*
X100457009Y-132752778D01*
X100412240Y-132716037D01*
X100319814Y-132640186D01*
X100236552Y-132538729D01*
X100207222Y-132502991D01*
X100197652Y-132485087D01*
X100123557Y-132346467D01*
X100106384Y-132289853D01*
X100072037Y-132176627D01*
X100054641Y-132000000D01*
X100072037Y-131823373D01*
X100123557Y-131653534D01*
X100123557Y-131653533D01*
X100207221Y-131497011D01*
X100207222Y-131497009D01*
X100245650Y-131450185D01*
X100319814Y-131359814D01*
X100421271Y-131276552D01*
X100457009Y-131247222D01*
X100474913Y-131237652D01*
X100613533Y-131163557D01*
X100670147Y-131146384D01*
X100783373Y-131112037D01*
X100849558Y-131105518D01*
X100915740Y-131099000D01*
X101004260Y-131099000D01*
X101070442Y-131105518D01*
X101070442Y-131105518D01*
G37*
G36*
X95100562Y-130142181D02*
X95135477Y-130152773D01*
X95167665Y-130169978D01*
X95195873Y-130193127D01*
X95219022Y-130221335D01*
X95236227Y-130253523D01*
X95246819Y-130288438D01*
X95251000Y-130330895D01*
X95251000Y-131797105D01*
X95246819Y-131839562D01*
X95236227Y-131874477D01*
X95219022Y-131906665D01*
X95195873Y-131934873D01*
X95167665Y-131958022D01*
X95135477Y-131975227D01*
X95100562Y-131985819D01*
X95058105Y-131990000D01*
X93916895Y-131990000D01*
X93874438Y-131985819D01*
X93839523Y-131975227D01*
X93807335Y-131958022D01*
X93779127Y-131934873D01*
X93755978Y-131906665D01*
X93738773Y-131874477D01*
X93728181Y-131839562D01*
X93724000Y-131797105D01*
X93724000Y-130330895D01*
X93728181Y-130288438D01*
X93738773Y-130253523D01*
X93755978Y-130221335D01*
X93779127Y-130193127D01*
X93807335Y-130169978D01*
X93839523Y-130152773D01*
X93874438Y-130142181D01*
X93916895Y-130138000D01*
X95058105Y-130138000D01*
X95100562Y-130142181D01*
X95100562Y-130142181D01*
G37*
G36*
X92125562Y-130142181D02*
X92160477Y-130152773D01*
X92192665Y-130169978D01*
X92220873Y-130193127D01*
X92244022Y-130221335D01*
X92261227Y-130253523D01*
X92271819Y-130288438D01*
X92276000Y-130330895D01*
X92276000Y-131797105D01*
X92271819Y-131839562D01*
X92261227Y-131874477D01*
X92244022Y-131906665D01*
X92220873Y-131934873D01*
X92192665Y-131958022D01*
X92160477Y-131975227D01*
X92125562Y-131985819D01*
X92083105Y-131990000D01*
X90941895Y-131990000D01*
X90899438Y-131985819D01*
X90864523Y-131975227D01*
X90832335Y-131958022D01*
X90804127Y-131934873D01*
X90780978Y-131906665D01*
X90763773Y-131874477D01*
X90753181Y-131839562D01*
X90749000Y-131797105D01*
X90749000Y-130330895D01*
X90753181Y-130288438D01*
X90763773Y-130253523D01*
X90780978Y-130221335D01*
X90804127Y-130193127D01*
X90832335Y-130169978D01*
X90864523Y-130152773D01*
X90899438Y-130142181D01*
X90941895Y-130138000D01*
X92083105Y-130138000D01*
X92125562Y-130142181D01*
X92125562Y-130142181D01*
G37*
G36*
X52434442Y-130169518D02*
X52500627Y-130176037D01*
X52613853Y-130210384D01*
X52670467Y-130227557D01*
X52799342Y-130296443D01*
X52826991Y-130311222D01*
X52850962Y-130330895D01*
X52964186Y-130423814D01*
X53047448Y-130525271D01*
X53076778Y-130561009D01*
X53076779Y-130561011D01*
X53160443Y-130717533D01*
X53160443Y-130717534D01*
X53211963Y-130887373D01*
X53229359Y-131064000D01*
X53211963Y-131240627D01*
X53177616Y-131353853D01*
X53160443Y-131410467D01*
X53086348Y-131549087D01*
X53076778Y-131566991D01*
X53047448Y-131602729D01*
X52964186Y-131704186D01*
X52862729Y-131787448D01*
X52826991Y-131816778D01*
X52826989Y-131816779D01*
X52670467Y-131900443D01*
X52649955Y-131906665D01*
X52500627Y-131951963D01*
X52439108Y-131958022D01*
X52368260Y-131965000D01*
X52279740Y-131965000D01*
X52208892Y-131958022D01*
X52147373Y-131951963D01*
X51998045Y-131906665D01*
X51977533Y-131900443D01*
X51821011Y-131816779D01*
X51821009Y-131816778D01*
X51785271Y-131787448D01*
X51683814Y-131704186D01*
X51600552Y-131602729D01*
X51571222Y-131566991D01*
X51561652Y-131549087D01*
X51487557Y-131410467D01*
X51470384Y-131353853D01*
X51436037Y-131240627D01*
X51418641Y-131064000D01*
X51436037Y-130887373D01*
X51487557Y-130717534D01*
X51487557Y-130717533D01*
X51571221Y-130561011D01*
X51571222Y-130561009D01*
X51600552Y-130525271D01*
X51683814Y-130423814D01*
X51797038Y-130330895D01*
X51821009Y-130311222D01*
X51848658Y-130296443D01*
X51977533Y-130227557D01*
X52034147Y-130210384D01*
X52147373Y-130176037D01*
X52213558Y-130169518D01*
X52279740Y-130163000D01*
X52368260Y-130163000D01*
X52434442Y-130169518D01*
X52434442Y-130169518D01*
G37*
G36*
X54974442Y-130169518D02*
X55040627Y-130176037D01*
X55153853Y-130210384D01*
X55210467Y-130227557D01*
X55339342Y-130296443D01*
X55366991Y-130311222D01*
X55390962Y-130330895D01*
X55504186Y-130423814D01*
X55587448Y-130525271D01*
X55616778Y-130561009D01*
X55616779Y-130561011D01*
X55700443Y-130717533D01*
X55700443Y-130717534D01*
X55751963Y-130887373D01*
X55769359Y-131064000D01*
X55751963Y-131240627D01*
X55717616Y-131353853D01*
X55700443Y-131410467D01*
X55626348Y-131549087D01*
X55616778Y-131566991D01*
X55587448Y-131602729D01*
X55504186Y-131704186D01*
X55402729Y-131787448D01*
X55366991Y-131816778D01*
X55366989Y-131816779D01*
X55210467Y-131900443D01*
X55189955Y-131906665D01*
X55040627Y-131951963D01*
X54979108Y-131958022D01*
X54908260Y-131965000D01*
X54819740Y-131965000D01*
X54748892Y-131958022D01*
X54687373Y-131951963D01*
X54538045Y-131906665D01*
X54517533Y-131900443D01*
X54361011Y-131816779D01*
X54361009Y-131816778D01*
X54325271Y-131787448D01*
X54223814Y-131704186D01*
X54140552Y-131602729D01*
X54111222Y-131566991D01*
X54101652Y-131549087D01*
X54027557Y-131410467D01*
X54010384Y-131353853D01*
X53976037Y-131240627D01*
X53958641Y-131064000D01*
X53976037Y-130887373D01*
X54027557Y-130717534D01*
X54027557Y-130717533D01*
X54111221Y-130561011D01*
X54111222Y-130561009D01*
X54140552Y-130525271D01*
X54223814Y-130423814D01*
X54337038Y-130330895D01*
X54361009Y-130311222D01*
X54388658Y-130296443D01*
X54517533Y-130227557D01*
X54574147Y-130210384D01*
X54687373Y-130176037D01*
X54753558Y-130169518D01*
X54819740Y-130163000D01*
X54908260Y-130163000D01*
X54974442Y-130169518D01*
X54974442Y-130169518D01*
G37*
G36*
X64401000Y-131711000D02*
X62599000Y-131711000D01*
X62599000Y-129909000D01*
X64401000Y-129909000D01*
X64401000Y-131711000D01*
X64401000Y-131711000D01*
G37*
G36*
X66150442Y-129915518D02*
X66216627Y-129922037D01*
X66329853Y-129956384D01*
X66386467Y-129973557D01*
X66525087Y-130047652D01*
X66542991Y-130057222D01*
X66578729Y-130086552D01*
X66680186Y-130169814D01*
X66763448Y-130271271D01*
X66792778Y-130307009D01*
X66792779Y-130307011D01*
X66876443Y-130463533D01*
X66876443Y-130463534D01*
X66927963Y-130633373D01*
X66945359Y-130810000D01*
X66927963Y-130986627D01*
X66904492Y-131064000D01*
X66876443Y-131156467D01*
X66872653Y-131163557D01*
X66792778Y-131312991D01*
X66763448Y-131348729D01*
X66680186Y-131450186D01*
X66578729Y-131533448D01*
X66542991Y-131562778D01*
X66542989Y-131562779D01*
X66386467Y-131646443D01*
X66329853Y-131663616D01*
X66216627Y-131697963D01*
X66153453Y-131704185D01*
X66084260Y-131711000D01*
X65995740Y-131711000D01*
X65926547Y-131704185D01*
X65863373Y-131697963D01*
X65750147Y-131663616D01*
X65693533Y-131646443D01*
X65537011Y-131562779D01*
X65537009Y-131562778D01*
X65501271Y-131533448D01*
X65399814Y-131450186D01*
X65316552Y-131348729D01*
X65287222Y-131312991D01*
X65207347Y-131163557D01*
X65203557Y-131156467D01*
X65175508Y-131064000D01*
X65152037Y-130986627D01*
X65134641Y-130810000D01*
X65152037Y-130633373D01*
X65203557Y-130463534D01*
X65203557Y-130463533D01*
X65287221Y-130307011D01*
X65287222Y-130307009D01*
X65316552Y-130271271D01*
X65399814Y-130169814D01*
X65501271Y-130086552D01*
X65537009Y-130057222D01*
X65554913Y-130047652D01*
X65693533Y-129973557D01*
X65750147Y-129956384D01*
X65863373Y-129922037D01*
X65929558Y-129915518D01*
X65995740Y-129909000D01*
X66084260Y-129909000D01*
X66150442Y-129915518D01*
X66150442Y-129915518D01*
G37*
G36*
X68690442Y-129915518D02*
X68756627Y-129922037D01*
X68869853Y-129956384D01*
X68926467Y-129973557D01*
X69065087Y-130047652D01*
X69082991Y-130057222D01*
X69118729Y-130086552D01*
X69220186Y-130169814D01*
X69303448Y-130271271D01*
X69332778Y-130307009D01*
X69332779Y-130307011D01*
X69416443Y-130463533D01*
X69416443Y-130463534D01*
X69467963Y-130633373D01*
X69485359Y-130810000D01*
X69467963Y-130986627D01*
X69444492Y-131064000D01*
X69416443Y-131156467D01*
X69412653Y-131163557D01*
X69332778Y-131312991D01*
X69303448Y-131348729D01*
X69220186Y-131450186D01*
X69118729Y-131533448D01*
X69082991Y-131562778D01*
X69082989Y-131562779D01*
X68926467Y-131646443D01*
X68869853Y-131663616D01*
X68756627Y-131697963D01*
X68693453Y-131704185D01*
X68624260Y-131711000D01*
X68535740Y-131711000D01*
X68466547Y-131704185D01*
X68403373Y-131697963D01*
X68290147Y-131663616D01*
X68233533Y-131646443D01*
X68077011Y-131562779D01*
X68077009Y-131562778D01*
X68041271Y-131533448D01*
X67939814Y-131450186D01*
X67856552Y-131348729D01*
X67827222Y-131312991D01*
X67747347Y-131163557D01*
X67743557Y-131156467D01*
X67715508Y-131064000D01*
X67692037Y-130986627D01*
X67674641Y-130810000D01*
X67692037Y-130633373D01*
X67743557Y-130463534D01*
X67743557Y-130463533D01*
X67827221Y-130307011D01*
X67827222Y-130307009D01*
X67856552Y-130271271D01*
X67939814Y-130169814D01*
X68041271Y-130086552D01*
X68077009Y-130057222D01*
X68094913Y-130047652D01*
X68233533Y-129973557D01*
X68290147Y-129956384D01*
X68403373Y-129922037D01*
X68469558Y-129915518D01*
X68535740Y-129909000D01*
X68624260Y-129909000D01*
X68690442Y-129915518D01*
X68690442Y-129915518D01*
G37*
G36*
X103610442Y-128565518D02*
X103676627Y-128572037D01*
X103789853Y-128606384D01*
X103846467Y-128623557D01*
X103985087Y-128697652D01*
X104002991Y-128707222D01*
X104038729Y-128736552D01*
X104140186Y-128819814D01*
X104223448Y-128921271D01*
X104252778Y-128957009D01*
X104252779Y-128957011D01*
X104336443Y-129113533D01*
X104336443Y-129113534D01*
X104387963Y-129283373D01*
X104405359Y-129460000D01*
X104387963Y-129636627D01*
X104353616Y-129749853D01*
X104336443Y-129806467D01*
X104281637Y-129909000D01*
X104252778Y-129962991D01*
X104223448Y-129998729D01*
X104140186Y-130100186D01*
X104055143Y-130169978D01*
X104002991Y-130212778D01*
X104002989Y-130212779D01*
X103846467Y-130296443D01*
X103797746Y-130311222D01*
X103676627Y-130347963D01*
X103619078Y-130353631D01*
X103544260Y-130361000D01*
X103455740Y-130361000D01*
X103380922Y-130353631D01*
X103323373Y-130347963D01*
X103202254Y-130311222D01*
X103153533Y-130296443D01*
X102997011Y-130212779D01*
X102997009Y-130212778D01*
X102944857Y-130169978D01*
X102859814Y-130100186D01*
X102776552Y-129998729D01*
X102747222Y-129962991D01*
X102718363Y-129909000D01*
X102663557Y-129806467D01*
X102646384Y-129749853D01*
X102612037Y-129636627D01*
X102594641Y-129460000D01*
X102612037Y-129283373D01*
X102663557Y-129113534D01*
X102663557Y-129113533D01*
X102747221Y-128957011D01*
X102747222Y-128957009D01*
X102776552Y-128921271D01*
X102859814Y-128819814D01*
X102961271Y-128736552D01*
X102997009Y-128707222D01*
X103014913Y-128697652D01*
X103153533Y-128623557D01*
X103210147Y-128606384D01*
X103323373Y-128572037D01*
X103389558Y-128565518D01*
X103455740Y-128559000D01*
X103544260Y-128559000D01*
X103610442Y-128565518D01*
X103610442Y-128565518D01*
G37*
G36*
X101861000Y-130361000D02*
X100059000Y-130361000D01*
X100059000Y-128559000D01*
X101861000Y-128559000D01*
X101861000Y-130361000D01*
X101861000Y-130361000D01*
G37*
G36*
X54974442Y-127629518D02*
X55040627Y-127636037D01*
X55153853Y-127670384D01*
X55210467Y-127687557D01*
X55349087Y-127761652D01*
X55366991Y-127771222D01*
X55402729Y-127800552D01*
X55504186Y-127883814D01*
X55587448Y-127985271D01*
X55616778Y-128021009D01*
X55616779Y-128021011D01*
X55700443Y-128177533D01*
X55700443Y-128177534D01*
X55751963Y-128347373D01*
X55769359Y-128524000D01*
X55751963Y-128700627D01*
X55749962Y-128707222D01*
X55700443Y-128870467D01*
X55626348Y-129009087D01*
X55616778Y-129026991D01*
X55587448Y-129062729D01*
X55504186Y-129164186D01*
X55402729Y-129247448D01*
X55366991Y-129276778D01*
X55366989Y-129276779D01*
X55210467Y-129360443D01*
X55153853Y-129377616D01*
X55040627Y-129411963D01*
X54974443Y-129418481D01*
X54908260Y-129425000D01*
X54819740Y-129425000D01*
X54753557Y-129418481D01*
X54687373Y-129411963D01*
X54574147Y-129377616D01*
X54517533Y-129360443D01*
X54361011Y-129276779D01*
X54361009Y-129276778D01*
X54325271Y-129247448D01*
X54223814Y-129164186D01*
X54140552Y-129062729D01*
X54111222Y-129026991D01*
X54101652Y-129009087D01*
X54027557Y-128870467D01*
X53978038Y-128707222D01*
X53976037Y-128700627D01*
X53958641Y-128524000D01*
X53976037Y-128347373D01*
X54027557Y-128177534D01*
X54027557Y-128177533D01*
X54111221Y-128021011D01*
X54111222Y-128021009D01*
X54140552Y-127985271D01*
X54223814Y-127883814D01*
X54325271Y-127800552D01*
X54361009Y-127771222D01*
X54378913Y-127761652D01*
X54517533Y-127687557D01*
X54574147Y-127670384D01*
X54687373Y-127636037D01*
X54753558Y-127629518D01*
X54819740Y-127623000D01*
X54908260Y-127623000D01*
X54974442Y-127629518D01*
X54974442Y-127629518D01*
G37*
G36*
X52434442Y-127629518D02*
X52500627Y-127636037D01*
X52613853Y-127670384D01*
X52670467Y-127687557D01*
X52809087Y-127761652D01*
X52826991Y-127771222D01*
X52862729Y-127800552D01*
X52964186Y-127883814D01*
X53047448Y-127985271D01*
X53076778Y-128021009D01*
X53076779Y-128021011D01*
X53160443Y-128177533D01*
X53160443Y-128177534D01*
X53211963Y-128347373D01*
X53229359Y-128524000D01*
X53211963Y-128700627D01*
X53209962Y-128707222D01*
X53160443Y-128870467D01*
X53086348Y-129009087D01*
X53076778Y-129026991D01*
X53047448Y-129062729D01*
X52964186Y-129164186D01*
X52862729Y-129247448D01*
X52826991Y-129276778D01*
X52826989Y-129276779D01*
X52670467Y-129360443D01*
X52613853Y-129377616D01*
X52500627Y-129411963D01*
X52434443Y-129418481D01*
X52368260Y-129425000D01*
X52279740Y-129425000D01*
X52213557Y-129418481D01*
X52147373Y-129411963D01*
X52034147Y-129377616D01*
X51977533Y-129360443D01*
X51821011Y-129276779D01*
X51821009Y-129276778D01*
X51785271Y-129247448D01*
X51683814Y-129164186D01*
X51600552Y-129062729D01*
X51571222Y-129026991D01*
X51561652Y-129009087D01*
X51487557Y-128870467D01*
X51438038Y-128707222D01*
X51436037Y-128700627D01*
X51418641Y-128524000D01*
X51436037Y-128347373D01*
X51487557Y-128177534D01*
X51487557Y-128177533D01*
X51571221Y-128021011D01*
X51571222Y-128021009D01*
X51600552Y-127985271D01*
X51683814Y-127883814D01*
X51785271Y-127800552D01*
X51821009Y-127771222D01*
X51838913Y-127761652D01*
X51977533Y-127687557D01*
X52034147Y-127670384D01*
X52147373Y-127636037D01*
X52213558Y-127629518D01*
X52279740Y-127623000D01*
X52368260Y-127623000D01*
X52434442Y-127629518D01*
X52434442Y-127629518D01*
G37*
G36*
X54974442Y-125089518D02*
X55040627Y-125096037D01*
X55153853Y-125130384D01*
X55210467Y-125147557D01*
X55295680Y-125193105D01*
X55366991Y-125231222D01*
X55372279Y-125235562D01*
X55504186Y-125343814D01*
X55587448Y-125445271D01*
X55616778Y-125481009D01*
X55616779Y-125481011D01*
X55700443Y-125637533D01*
X55700443Y-125637534D01*
X55751963Y-125807373D01*
X55769359Y-125984000D01*
X55751963Y-126160627D01*
X55717616Y-126273853D01*
X55700443Y-126330467D01*
X55626348Y-126469087D01*
X55616778Y-126486991D01*
X55587448Y-126522729D01*
X55504186Y-126624186D01*
X55402729Y-126707448D01*
X55366991Y-126736778D01*
X55366989Y-126736779D01*
X55210467Y-126820443D01*
X55153853Y-126837616D01*
X55040627Y-126871963D01*
X54974442Y-126878482D01*
X54908260Y-126885000D01*
X54819740Y-126885000D01*
X54753558Y-126878482D01*
X54687373Y-126871963D01*
X54574147Y-126837616D01*
X54517533Y-126820443D01*
X54361011Y-126736779D01*
X54361009Y-126736778D01*
X54325271Y-126707448D01*
X54223814Y-126624186D01*
X54140552Y-126522729D01*
X54111222Y-126486991D01*
X54101652Y-126469087D01*
X54027557Y-126330467D01*
X54010384Y-126273853D01*
X53976037Y-126160627D01*
X53958641Y-125984000D01*
X53976037Y-125807373D01*
X54027557Y-125637534D01*
X54027557Y-125637533D01*
X54111221Y-125481011D01*
X54111222Y-125481009D01*
X54140552Y-125445271D01*
X54223814Y-125343814D01*
X54355721Y-125235562D01*
X54361009Y-125231222D01*
X54432320Y-125193105D01*
X54517533Y-125147557D01*
X54574147Y-125130384D01*
X54687373Y-125096037D01*
X54753558Y-125089518D01*
X54819740Y-125083000D01*
X54908260Y-125083000D01*
X54974442Y-125089518D01*
X54974442Y-125089518D01*
G37*
G36*
X52434442Y-125089518D02*
X52500627Y-125096037D01*
X52613853Y-125130384D01*
X52670467Y-125147557D01*
X52755680Y-125193105D01*
X52826991Y-125231222D01*
X52832279Y-125235562D01*
X52964186Y-125343814D01*
X53047448Y-125445271D01*
X53076778Y-125481009D01*
X53076779Y-125481011D01*
X53160443Y-125637533D01*
X53160443Y-125637534D01*
X53211963Y-125807373D01*
X53229359Y-125984000D01*
X53211963Y-126160627D01*
X53177616Y-126273853D01*
X53160443Y-126330467D01*
X53086348Y-126469087D01*
X53076778Y-126486991D01*
X53047448Y-126522729D01*
X52964186Y-126624186D01*
X52862729Y-126707448D01*
X52826991Y-126736778D01*
X52826989Y-126736779D01*
X52670467Y-126820443D01*
X52613853Y-126837616D01*
X52500627Y-126871963D01*
X52434442Y-126878482D01*
X52368260Y-126885000D01*
X52279740Y-126885000D01*
X52213558Y-126878482D01*
X52147373Y-126871963D01*
X52034147Y-126837616D01*
X51977533Y-126820443D01*
X51821011Y-126736779D01*
X51821009Y-126736778D01*
X51785271Y-126707448D01*
X51683814Y-126624186D01*
X51600552Y-126522729D01*
X51571222Y-126486991D01*
X51561652Y-126469087D01*
X51487557Y-126330467D01*
X51470384Y-126273853D01*
X51436037Y-126160627D01*
X51418641Y-125984000D01*
X51436037Y-125807373D01*
X51487557Y-125637534D01*
X51487557Y-125637533D01*
X51571221Y-125481011D01*
X51571222Y-125481009D01*
X51600552Y-125445271D01*
X51683814Y-125343814D01*
X51815721Y-125235562D01*
X51821009Y-125231222D01*
X51892320Y-125193105D01*
X51977533Y-125147557D01*
X52034147Y-125130384D01*
X52147373Y-125096037D01*
X52213558Y-125089518D01*
X52279740Y-125083000D01*
X52368260Y-125083000D01*
X52434442Y-125089518D01*
X52434442Y-125089518D01*
G37*
G36*
X68758062Y-123538181D02*
X68792977Y-123548773D01*
X68825165Y-123565978D01*
X68853373Y-123589127D01*
X68876522Y-123617335D01*
X68893727Y-123649523D01*
X68904319Y-123684438D01*
X68908500Y-123726895D01*
X68908500Y-125193105D01*
X68904319Y-125235562D01*
X68893727Y-125270477D01*
X68876522Y-125302665D01*
X68853373Y-125330873D01*
X68825165Y-125354022D01*
X68792977Y-125371227D01*
X68758062Y-125381819D01*
X68715605Y-125386000D01*
X67574395Y-125386000D01*
X67531938Y-125381819D01*
X67497023Y-125371227D01*
X67464835Y-125354022D01*
X67436627Y-125330873D01*
X67413478Y-125302665D01*
X67396273Y-125270477D01*
X67385681Y-125235562D01*
X67381500Y-125193105D01*
X67381500Y-123726895D01*
X67385681Y-123684438D01*
X67396273Y-123649523D01*
X67413478Y-123617335D01*
X67436627Y-123589127D01*
X67464835Y-123565978D01*
X67497023Y-123548773D01*
X67531938Y-123538181D01*
X67574395Y-123534000D01*
X68715605Y-123534000D01*
X68758062Y-123538181D01*
X68758062Y-123538181D01*
G37*
G36*
X71733062Y-123538181D02*
X71767977Y-123548773D01*
X71800165Y-123565978D01*
X71828373Y-123589127D01*
X71851522Y-123617335D01*
X71868727Y-123649523D01*
X71879319Y-123684438D01*
X71883500Y-123726895D01*
X71883500Y-125193105D01*
X71879319Y-125235562D01*
X71868727Y-125270477D01*
X71851522Y-125302665D01*
X71828373Y-125330873D01*
X71800165Y-125354022D01*
X71767977Y-125371227D01*
X71733062Y-125381819D01*
X71690605Y-125386000D01*
X70549395Y-125386000D01*
X70506938Y-125381819D01*
X70472023Y-125371227D01*
X70439835Y-125354022D01*
X70411627Y-125330873D01*
X70388478Y-125302665D01*
X70371273Y-125270477D01*
X70360681Y-125235562D01*
X70356500Y-125193105D01*
X70356500Y-123726895D01*
X70360681Y-123684438D01*
X70371273Y-123649523D01*
X70388478Y-123617335D01*
X70411627Y-123589127D01*
X70439835Y-123565978D01*
X70472023Y-123548773D01*
X70506938Y-123538181D01*
X70549395Y-123534000D01*
X71690605Y-123534000D01*
X71733062Y-123538181D01*
X71733062Y-123538181D01*
G37*
G36*
X63351062Y-123538181D02*
X63385977Y-123548773D01*
X63418165Y-123565978D01*
X63446373Y-123589127D01*
X63469522Y-123617335D01*
X63486727Y-123649523D01*
X63497319Y-123684438D01*
X63501500Y-123726895D01*
X63501500Y-125193105D01*
X63497319Y-125235562D01*
X63486727Y-125270477D01*
X63469522Y-125302665D01*
X63446373Y-125330873D01*
X63418165Y-125354022D01*
X63385977Y-125371227D01*
X63351062Y-125381819D01*
X63308605Y-125386000D01*
X62167395Y-125386000D01*
X62124938Y-125381819D01*
X62090023Y-125371227D01*
X62057835Y-125354022D01*
X62029627Y-125330873D01*
X62006478Y-125302665D01*
X61989273Y-125270477D01*
X61978681Y-125235562D01*
X61974500Y-125193105D01*
X61974500Y-123726895D01*
X61978681Y-123684438D01*
X61989273Y-123649523D01*
X62006478Y-123617335D01*
X62029627Y-123589127D01*
X62057835Y-123565978D01*
X62090023Y-123548773D01*
X62124938Y-123538181D01*
X62167395Y-123534000D01*
X63308605Y-123534000D01*
X63351062Y-123538181D01*
X63351062Y-123538181D01*
G37*
G36*
X60376062Y-123538181D02*
X60410977Y-123548773D01*
X60443165Y-123565978D01*
X60471373Y-123589127D01*
X60494522Y-123617335D01*
X60511727Y-123649523D01*
X60522319Y-123684438D01*
X60526500Y-123726895D01*
X60526500Y-125193105D01*
X60522319Y-125235562D01*
X60511727Y-125270477D01*
X60494522Y-125302665D01*
X60471373Y-125330873D01*
X60443165Y-125354022D01*
X60410977Y-125371227D01*
X60376062Y-125381819D01*
X60333605Y-125386000D01*
X59192395Y-125386000D01*
X59149938Y-125381819D01*
X59115023Y-125371227D01*
X59082835Y-125354022D01*
X59054627Y-125330873D01*
X59031478Y-125302665D01*
X59014273Y-125270477D01*
X59003681Y-125235562D01*
X58999500Y-125193105D01*
X58999500Y-123726895D01*
X59003681Y-123684438D01*
X59014273Y-123649523D01*
X59031478Y-123617335D01*
X59054627Y-123589127D01*
X59082835Y-123565978D01*
X59115023Y-123548773D01*
X59149938Y-123538181D01*
X59192395Y-123534000D01*
X60333605Y-123534000D01*
X60376062Y-123538181D01*
X60376062Y-123538181D01*
G37*
G36*
X52434443Y-122549519D02*
X52500627Y-122556037D01*
X52613853Y-122590384D01*
X52670467Y-122607557D01*
X52774394Y-122663108D01*
X52826991Y-122691222D01*
X52862729Y-122720552D01*
X52964186Y-122803814D01*
X53047448Y-122905271D01*
X53076778Y-122941009D01*
X53076779Y-122941011D01*
X53160443Y-123097533D01*
X53160443Y-123097534D01*
X53211963Y-123267373D01*
X53229359Y-123444000D01*
X53211963Y-123620627D01*
X53202124Y-123653061D01*
X53160443Y-123790467D01*
X53086348Y-123929087D01*
X53076778Y-123946991D01*
X53047448Y-123982729D01*
X52964186Y-124084186D01*
X52862729Y-124167448D01*
X52826991Y-124196778D01*
X52826989Y-124196779D01*
X52670467Y-124280443D01*
X52613853Y-124297616D01*
X52500627Y-124331963D01*
X52434442Y-124338482D01*
X52368260Y-124345000D01*
X52279740Y-124345000D01*
X52213558Y-124338482D01*
X52147373Y-124331963D01*
X52034147Y-124297616D01*
X51977533Y-124280443D01*
X51821011Y-124196779D01*
X51821009Y-124196778D01*
X51785271Y-124167448D01*
X51683814Y-124084186D01*
X51600552Y-123982729D01*
X51571222Y-123946991D01*
X51561652Y-123929087D01*
X51487557Y-123790467D01*
X51445876Y-123653061D01*
X51436037Y-123620627D01*
X51418641Y-123444000D01*
X51436037Y-123267373D01*
X51487557Y-123097534D01*
X51487557Y-123097533D01*
X51571221Y-122941011D01*
X51571222Y-122941009D01*
X51600552Y-122905271D01*
X51683814Y-122803814D01*
X51785271Y-122720552D01*
X51821009Y-122691222D01*
X51873606Y-122663108D01*
X51977533Y-122607557D01*
X52034147Y-122590384D01*
X52147373Y-122556037D01*
X52213557Y-122549519D01*
X52279740Y-122543000D01*
X52368260Y-122543000D01*
X52434443Y-122549519D01*
X52434443Y-122549519D01*
G37*
G36*
X54974443Y-122549519D02*
X55040627Y-122556037D01*
X55153853Y-122590384D01*
X55210467Y-122607557D01*
X55314394Y-122663108D01*
X55366991Y-122691222D01*
X55402729Y-122720552D01*
X55504186Y-122803814D01*
X55587448Y-122905271D01*
X55616778Y-122941009D01*
X55616779Y-122941011D01*
X55700443Y-123097533D01*
X55700443Y-123097534D01*
X55751963Y-123267373D01*
X55769359Y-123444000D01*
X55751963Y-123620627D01*
X55742124Y-123653061D01*
X55700443Y-123790467D01*
X55626348Y-123929087D01*
X55616778Y-123946991D01*
X55587448Y-123982729D01*
X55504186Y-124084186D01*
X55402729Y-124167448D01*
X55366991Y-124196778D01*
X55366989Y-124196779D01*
X55210467Y-124280443D01*
X55153853Y-124297616D01*
X55040627Y-124331963D01*
X54974442Y-124338482D01*
X54908260Y-124345000D01*
X54819740Y-124345000D01*
X54753558Y-124338482D01*
X54687373Y-124331963D01*
X54574147Y-124297616D01*
X54517533Y-124280443D01*
X54361011Y-124196779D01*
X54361009Y-124196778D01*
X54325271Y-124167448D01*
X54223814Y-124084186D01*
X54140552Y-123982729D01*
X54111222Y-123946991D01*
X54101652Y-123929087D01*
X54027557Y-123790467D01*
X53985876Y-123653061D01*
X53976037Y-123620627D01*
X53958641Y-123444000D01*
X53976037Y-123267373D01*
X54027557Y-123097534D01*
X54027557Y-123097533D01*
X54111221Y-122941011D01*
X54111222Y-122941009D01*
X54140552Y-122905271D01*
X54223814Y-122803814D01*
X54325271Y-122720552D01*
X54361009Y-122691222D01*
X54413606Y-122663108D01*
X54517533Y-122607557D01*
X54574147Y-122590384D01*
X54687373Y-122556037D01*
X54753557Y-122549519D01*
X54819740Y-122543000D01*
X54908260Y-122543000D01*
X54974443Y-122549519D01*
X54974443Y-122549519D01*
G37*
G36*
X102750562Y-121160681D02*
X102785477Y-121171273D01*
X102817665Y-121188478D01*
X102845873Y-121211627D01*
X102869022Y-121239835D01*
X102886227Y-121272023D01*
X102896819Y-121306938D01*
X102901000Y-121349395D01*
X102901000Y-122490605D01*
X102896819Y-122533062D01*
X102886227Y-122567977D01*
X102869022Y-122600165D01*
X102845873Y-122628373D01*
X102817665Y-122651522D01*
X102785477Y-122668727D01*
X102750562Y-122679319D01*
X102708105Y-122683500D01*
X101241895Y-122683500D01*
X101199438Y-122679319D01*
X101164523Y-122668727D01*
X101132335Y-122651522D01*
X101104127Y-122628373D01*
X101080978Y-122600165D01*
X101063773Y-122567977D01*
X101053181Y-122533062D01*
X101049000Y-122490605D01*
X101049000Y-121349395D01*
X101053181Y-121306938D01*
X101063773Y-121272023D01*
X101080978Y-121239835D01*
X101104127Y-121211627D01*
X101132335Y-121188478D01*
X101164523Y-121171273D01*
X101199438Y-121160681D01*
X101241895Y-121156500D01*
X102708105Y-121156500D01*
X102750562Y-121160681D01*
X102750562Y-121160681D01*
G37*
G36*
X94247562Y-121160681D02*
X94282477Y-121171273D01*
X94314665Y-121188478D01*
X94342873Y-121211627D01*
X94366022Y-121239835D01*
X94383227Y-121272023D01*
X94393819Y-121306938D01*
X94398000Y-121349395D01*
X94398000Y-122490605D01*
X94393819Y-122533062D01*
X94383227Y-122567977D01*
X94366022Y-122600165D01*
X94342873Y-122628373D01*
X94314665Y-122651522D01*
X94282477Y-122668727D01*
X94247562Y-122679319D01*
X94205105Y-122683500D01*
X92738895Y-122683500D01*
X92696438Y-122679319D01*
X92661523Y-122668727D01*
X92629335Y-122651522D01*
X92601127Y-122628373D01*
X92577978Y-122600165D01*
X92560773Y-122567977D01*
X92550181Y-122533062D01*
X92546000Y-122490605D01*
X92546000Y-121349395D01*
X92550181Y-121306938D01*
X92560773Y-121272023D01*
X92577978Y-121239835D01*
X92601127Y-121211627D01*
X92629335Y-121188478D01*
X92661523Y-121171273D01*
X92696438Y-121160681D01*
X92738895Y-121156500D01*
X94205105Y-121156500D01*
X94247562Y-121160681D01*
X94247562Y-121160681D01*
G37*
G36*
X68182443Y-120009519D02*
X68248627Y-120016037D01*
X68361853Y-120050384D01*
X68418467Y-120067557D01*
X68557087Y-120141652D01*
X68574991Y-120151222D01*
X68610729Y-120180552D01*
X68712186Y-120263814D01*
X68795448Y-120365271D01*
X68824778Y-120401009D01*
X68824779Y-120401011D01*
X68908443Y-120557533D01*
X68908443Y-120557534D01*
X68959963Y-120727373D01*
X68977359Y-120904000D01*
X68959963Y-121080627D01*
X68932466Y-121171273D01*
X68908443Y-121250467D01*
X68855564Y-121349395D01*
X68824778Y-121406991D01*
X68795448Y-121442729D01*
X68712186Y-121544186D01*
X68610729Y-121627448D01*
X68574991Y-121656778D01*
X68574989Y-121656779D01*
X68418467Y-121740443D01*
X68361853Y-121757616D01*
X68248627Y-121791963D01*
X68182442Y-121798482D01*
X68116260Y-121805000D01*
X68027740Y-121805000D01*
X67961558Y-121798482D01*
X67895373Y-121791963D01*
X67782147Y-121757616D01*
X67725533Y-121740443D01*
X67569011Y-121656779D01*
X67569009Y-121656778D01*
X67533271Y-121627448D01*
X67431814Y-121544186D01*
X67348552Y-121442729D01*
X67319222Y-121406991D01*
X67288436Y-121349395D01*
X67235557Y-121250467D01*
X67211534Y-121171273D01*
X67184037Y-121080627D01*
X67166641Y-120904000D01*
X67184037Y-120727373D01*
X67235557Y-120557534D01*
X67235557Y-120557533D01*
X67319221Y-120401011D01*
X67319222Y-120401009D01*
X67348552Y-120365271D01*
X67431814Y-120263814D01*
X67533271Y-120180552D01*
X67569009Y-120151222D01*
X67586913Y-120141652D01*
X67725533Y-120067557D01*
X67782147Y-120050384D01*
X67895373Y-120016037D01*
X67961557Y-120009519D01*
X68027740Y-120003000D01*
X68116260Y-120003000D01*
X68182443Y-120009519D01*
X68182443Y-120009519D01*
G37*
G36*
X52434443Y-120009519D02*
X52500627Y-120016037D01*
X52613853Y-120050384D01*
X52670467Y-120067557D01*
X52809087Y-120141652D01*
X52826991Y-120151222D01*
X52862729Y-120180552D01*
X52964186Y-120263814D01*
X53047448Y-120365271D01*
X53076778Y-120401009D01*
X53076779Y-120401011D01*
X53160443Y-120557533D01*
X53160443Y-120557534D01*
X53211963Y-120727373D01*
X53229359Y-120904000D01*
X53211963Y-121080627D01*
X53184466Y-121171273D01*
X53160443Y-121250467D01*
X53107564Y-121349395D01*
X53076778Y-121406991D01*
X53047448Y-121442729D01*
X52964186Y-121544186D01*
X52862729Y-121627448D01*
X52826991Y-121656778D01*
X52826989Y-121656779D01*
X52670467Y-121740443D01*
X52613853Y-121757616D01*
X52500627Y-121791963D01*
X52434442Y-121798482D01*
X52368260Y-121805000D01*
X52279740Y-121805000D01*
X52213558Y-121798482D01*
X52147373Y-121791963D01*
X52034147Y-121757616D01*
X51977533Y-121740443D01*
X51821011Y-121656779D01*
X51821009Y-121656778D01*
X51785271Y-121627448D01*
X51683814Y-121544186D01*
X51600552Y-121442729D01*
X51571222Y-121406991D01*
X51540436Y-121349395D01*
X51487557Y-121250467D01*
X51463534Y-121171273D01*
X51436037Y-121080627D01*
X51418641Y-120904000D01*
X51436037Y-120727373D01*
X51487557Y-120557534D01*
X51487557Y-120557533D01*
X51571221Y-120401011D01*
X51571222Y-120401009D01*
X51600552Y-120365271D01*
X51683814Y-120263814D01*
X51785271Y-120180552D01*
X51821009Y-120151222D01*
X51838913Y-120141652D01*
X51977533Y-120067557D01*
X52034147Y-120050384D01*
X52147373Y-120016037D01*
X52213557Y-120009519D01*
X52279740Y-120003000D01*
X52368260Y-120003000D01*
X52434443Y-120009519D01*
X52434443Y-120009519D01*
G37*
G36*
X62848443Y-120009519D02*
X62914627Y-120016037D01*
X63027853Y-120050384D01*
X63084467Y-120067557D01*
X63223087Y-120141652D01*
X63240991Y-120151222D01*
X63276729Y-120180552D01*
X63378186Y-120263814D01*
X63461448Y-120365271D01*
X63490778Y-120401009D01*
X63490779Y-120401011D01*
X63574443Y-120557533D01*
X63574443Y-120557534D01*
X63625963Y-120727373D01*
X63643359Y-120904000D01*
X63625963Y-121080627D01*
X63598466Y-121171273D01*
X63574443Y-121250467D01*
X63521564Y-121349395D01*
X63490778Y-121406991D01*
X63461448Y-121442729D01*
X63378186Y-121544186D01*
X63276729Y-121627448D01*
X63240991Y-121656778D01*
X63240989Y-121656779D01*
X63084467Y-121740443D01*
X63027853Y-121757616D01*
X62914627Y-121791963D01*
X62848442Y-121798482D01*
X62782260Y-121805000D01*
X62693740Y-121805000D01*
X62627558Y-121798482D01*
X62561373Y-121791963D01*
X62448147Y-121757616D01*
X62391533Y-121740443D01*
X62235011Y-121656779D01*
X62235009Y-121656778D01*
X62199271Y-121627448D01*
X62097814Y-121544186D01*
X62014552Y-121442729D01*
X61985222Y-121406991D01*
X61954436Y-121349395D01*
X61901557Y-121250467D01*
X61877534Y-121171273D01*
X61850037Y-121080627D01*
X61832641Y-120904000D01*
X61850037Y-120727373D01*
X61901557Y-120557534D01*
X61901557Y-120557533D01*
X61985221Y-120401011D01*
X61985222Y-120401009D01*
X62014552Y-120365271D01*
X62097814Y-120263814D01*
X62199271Y-120180552D01*
X62235009Y-120151222D01*
X62252913Y-120141652D01*
X62391533Y-120067557D01*
X62448147Y-120050384D01*
X62561373Y-120016037D01*
X62627557Y-120009519D01*
X62693740Y-120003000D01*
X62782260Y-120003000D01*
X62848443Y-120009519D01*
X62848443Y-120009519D01*
G37*
G36*
X54974443Y-120009519D02*
X55040627Y-120016037D01*
X55153853Y-120050384D01*
X55210467Y-120067557D01*
X55349087Y-120141652D01*
X55366991Y-120151222D01*
X55402729Y-120180552D01*
X55504186Y-120263814D01*
X55587448Y-120365271D01*
X55616778Y-120401009D01*
X55616779Y-120401011D01*
X55700443Y-120557533D01*
X55700443Y-120557534D01*
X55751963Y-120727373D01*
X55769359Y-120904000D01*
X55751963Y-121080627D01*
X55724466Y-121171273D01*
X55700443Y-121250467D01*
X55647564Y-121349395D01*
X55616778Y-121406991D01*
X55587448Y-121442729D01*
X55504186Y-121544186D01*
X55402729Y-121627448D01*
X55366991Y-121656778D01*
X55366989Y-121656779D01*
X55210467Y-121740443D01*
X55153853Y-121757616D01*
X55040627Y-121791963D01*
X54974442Y-121798482D01*
X54908260Y-121805000D01*
X54819740Y-121805000D01*
X54753558Y-121798482D01*
X54687373Y-121791963D01*
X54574147Y-121757616D01*
X54517533Y-121740443D01*
X54361011Y-121656779D01*
X54361009Y-121656778D01*
X54325271Y-121627448D01*
X54223814Y-121544186D01*
X54140552Y-121442729D01*
X54111222Y-121406991D01*
X54080436Y-121349395D01*
X54027557Y-121250467D01*
X54003534Y-121171273D01*
X53976037Y-121080627D01*
X53958641Y-120904000D01*
X53976037Y-120727373D01*
X54027557Y-120557534D01*
X54027557Y-120557533D01*
X54111221Y-120401011D01*
X54111222Y-120401009D01*
X54140552Y-120365271D01*
X54223814Y-120263814D01*
X54325271Y-120180552D01*
X54361009Y-120151222D01*
X54378913Y-120141652D01*
X54517533Y-120067557D01*
X54574147Y-120050384D01*
X54687373Y-120016037D01*
X54753557Y-120009519D01*
X54819740Y-120003000D01*
X54908260Y-120003000D01*
X54974443Y-120009519D01*
X54974443Y-120009519D01*
G37*
G36*
X94247562Y-118185681D02*
X94282477Y-118196273D01*
X94314665Y-118213478D01*
X94342873Y-118236627D01*
X94366022Y-118264835D01*
X94383227Y-118297023D01*
X94393819Y-118331938D01*
X94398000Y-118374395D01*
X94398000Y-119515605D01*
X94393819Y-119558062D01*
X94383227Y-119592977D01*
X94366022Y-119625165D01*
X94342873Y-119653373D01*
X94314665Y-119676522D01*
X94282477Y-119693727D01*
X94247562Y-119704319D01*
X94205105Y-119708500D01*
X92738895Y-119708500D01*
X92696438Y-119704319D01*
X92661523Y-119693727D01*
X92629335Y-119676522D01*
X92601127Y-119653373D01*
X92577978Y-119625165D01*
X92560773Y-119592977D01*
X92550181Y-119558062D01*
X92546000Y-119515605D01*
X92546000Y-118374395D01*
X92550181Y-118331938D01*
X92560773Y-118297023D01*
X92577978Y-118264835D01*
X92601127Y-118236627D01*
X92629335Y-118213478D01*
X92661523Y-118196273D01*
X92696438Y-118185681D01*
X92738895Y-118181500D01*
X94205105Y-118181500D01*
X94247562Y-118185681D01*
X94247562Y-118185681D01*
G37*
G36*
X102750562Y-118185681D02*
X102785477Y-118196273D01*
X102817665Y-118213478D01*
X102845873Y-118236627D01*
X102869022Y-118264835D01*
X102886227Y-118297023D01*
X102896819Y-118331938D01*
X102901000Y-118374395D01*
X102901000Y-119515605D01*
X102896819Y-119558062D01*
X102886227Y-119592977D01*
X102869022Y-119625165D01*
X102845873Y-119653373D01*
X102817665Y-119676522D01*
X102785477Y-119693727D01*
X102750562Y-119704319D01*
X102708105Y-119708500D01*
X101241895Y-119708500D01*
X101199438Y-119704319D01*
X101164523Y-119693727D01*
X101132335Y-119676522D01*
X101104127Y-119653373D01*
X101080978Y-119625165D01*
X101063773Y-119592977D01*
X101053181Y-119558062D01*
X101049000Y-119515605D01*
X101049000Y-118374395D01*
X101053181Y-118331938D01*
X101063773Y-118297023D01*
X101080978Y-118264835D01*
X101104127Y-118236627D01*
X101132335Y-118213478D01*
X101164523Y-118196273D01*
X101199438Y-118185681D01*
X101241895Y-118181500D01*
X102708105Y-118181500D01*
X102750562Y-118185681D01*
X102750562Y-118185681D01*
G37*
G36*
X54974442Y-117469518D02*
X55040627Y-117476037D01*
X55153853Y-117510384D01*
X55210467Y-117527557D01*
X55349087Y-117601652D01*
X55366991Y-117611222D01*
X55402729Y-117640552D01*
X55504186Y-117723814D01*
X55587448Y-117825271D01*
X55616778Y-117861009D01*
X55616779Y-117861011D01*
X55700443Y-118017533D01*
X55700443Y-118017534D01*
X55751963Y-118187373D01*
X55769359Y-118364000D01*
X55751963Y-118540627D01*
X55717616Y-118653853D01*
X55700443Y-118710467D01*
X55626348Y-118849087D01*
X55616778Y-118866991D01*
X55587448Y-118902729D01*
X55504186Y-119004186D01*
X55402729Y-119087448D01*
X55366991Y-119116778D01*
X55366989Y-119116779D01*
X55210467Y-119200443D01*
X55153853Y-119217616D01*
X55040627Y-119251963D01*
X54974443Y-119258481D01*
X54908260Y-119265000D01*
X54819740Y-119265000D01*
X54753557Y-119258481D01*
X54687373Y-119251963D01*
X54574147Y-119217616D01*
X54517533Y-119200443D01*
X54361011Y-119116779D01*
X54361009Y-119116778D01*
X54325271Y-119087448D01*
X54223814Y-119004186D01*
X54140552Y-118902729D01*
X54111222Y-118866991D01*
X54101652Y-118849087D01*
X54027557Y-118710467D01*
X54010384Y-118653853D01*
X53976037Y-118540627D01*
X53958641Y-118364000D01*
X53976037Y-118187373D01*
X54027557Y-118017534D01*
X54027557Y-118017533D01*
X54111221Y-117861011D01*
X54111222Y-117861009D01*
X54140552Y-117825271D01*
X54223814Y-117723814D01*
X54325271Y-117640552D01*
X54361009Y-117611222D01*
X54378913Y-117601652D01*
X54517533Y-117527557D01*
X54574147Y-117510384D01*
X54687373Y-117476037D01*
X54753558Y-117469518D01*
X54819740Y-117463000D01*
X54908260Y-117463000D01*
X54974442Y-117469518D01*
X54974442Y-117469518D01*
G37*
G36*
X62848442Y-117469518D02*
X62914627Y-117476037D01*
X63027853Y-117510384D01*
X63084467Y-117527557D01*
X63223087Y-117601652D01*
X63240991Y-117611222D01*
X63276729Y-117640552D01*
X63378186Y-117723814D01*
X63461448Y-117825271D01*
X63490778Y-117861009D01*
X63490779Y-117861011D01*
X63574443Y-118017533D01*
X63574443Y-118017534D01*
X63625963Y-118187373D01*
X63643359Y-118364000D01*
X63625963Y-118540627D01*
X63591616Y-118653853D01*
X63574443Y-118710467D01*
X63500348Y-118849087D01*
X63490778Y-118866991D01*
X63461448Y-118902729D01*
X63378186Y-119004186D01*
X63276729Y-119087448D01*
X63240991Y-119116778D01*
X63240989Y-119116779D01*
X63084467Y-119200443D01*
X63027853Y-119217616D01*
X62914627Y-119251963D01*
X62848443Y-119258481D01*
X62782260Y-119265000D01*
X62693740Y-119265000D01*
X62627557Y-119258481D01*
X62561373Y-119251963D01*
X62448147Y-119217616D01*
X62391533Y-119200443D01*
X62235011Y-119116779D01*
X62235009Y-119116778D01*
X62199271Y-119087448D01*
X62097814Y-119004186D01*
X62014552Y-118902729D01*
X61985222Y-118866991D01*
X61975652Y-118849087D01*
X61901557Y-118710467D01*
X61884384Y-118653853D01*
X61850037Y-118540627D01*
X61832641Y-118364000D01*
X61850037Y-118187373D01*
X61901557Y-118017534D01*
X61901557Y-118017533D01*
X61985221Y-117861011D01*
X61985222Y-117861009D01*
X62014552Y-117825271D01*
X62097814Y-117723814D01*
X62199271Y-117640552D01*
X62235009Y-117611222D01*
X62252913Y-117601652D01*
X62391533Y-117527557D01*
X62448147Y-117510384D01*
X62561373Y-117476037D01*
X62627558Y-117469518D01*
X62693740Y-117463000D01*
X62782260Y-117463000D01*
X62848442Y-117469518D01*
X62848442Y-117469518D01*
G37*
G36*
X68182442Y-117469518D02*
X68248627Y-117476037D01*
X68361853Y-117510384D01*
X68418467Y-117527557D01*
X68557087Y-117601652D01*
X68574991Y-117611222D01*
X68610729Y-117640552D01*
X68712186Y-117723814D01*
X68795448Y-117825271D01*
X68824778Y-117861009D01*
X68824779Y-117861011D01*
X68908443Y-118017533D01*
X68908443Y-118017534D01*
X68959963Y-118187373D01*
X68977359Y-118364000D01*
X68959963Y-118540627D01*
X68925616Y-118653853D01*
X68908443Y-118710467D01*
X68834348Y-118849087D01*
X68824778Y-118866991D01*
X68795448Y-118902729D01*
X68712186Y-119004186D01*
X68610729Y-119087448D01*
X68574991Y-119116778D01*
X68574989Y-119116779D01*
X68418467Y-119200443D01*
X68361853Y-119217616D01*
X68248627Y-119251963D01*
X68182443Y-119258481D01*
X68116260Y-119265000D01*
X68027740Y-119265000D01*
X67961557Y-119258481D01*
X67895373Y-119251963D01*
X67782147Y-119217616D01*
X67725533Y-119200443D01*
X67569011Y-119116779D01*
X67569009Y-119116778D01*
X67533271Y-119087448D01*
X67431814Y-119004186D01*
X67348552Y-118902729D01*
X67319222Y-118866991D01*
X67309652Y-118849087D01*
X67235557Y-118710467D01*
X67218384Y-118653853D01*
X67184037Y-118540627D01*
X67166641Y-118364000D01*
X67184037Y-118187373D01*
X67235557Y-118017534D01*
X67235557Y-118017533D01*
X67319221Y-117861011D01*
X67319222Y-117861009D01*
X67348552Y-117825271D01*
X67431814Y-117723814D01*
X67533271Y-117640552D01*
X67569009Y-117611222D01*
X67586913Y-117601652D01*
X67725533Y-117527557D01*
X67782147Y-117510384D01*
X67895373Y-117476037D01*
X67961558Y-117469518D01*
X68027740Y-117463000D01*
X68116260Y-117463000D01*
X68182442Y-117469518D01*
X68182442Y-117469518D01*
G37*
G36*
X52434442Y-117469518D02*
X52500627Y-117476037D01*
X52613853Y-117510384D01*
X52670467Y-117527557D01*
X52809087Y-117601652D01*
X52826991Y-117611222D01*
X52862729Y-117640552D01*
X52964186Y-117723814D01*
X53047448Y-117825271D01*
X53076778Y-117861009D01*
X53076779Y-117861011D01*
X53160443Y-118017533D01*
X53160443Y-118017534D01*
X53211963Y-118187373D01*
X53229359Y-118364000D01*
X53211963Y-118540627D01*
X53177616Y-118653853D01*
X53160443Y-118710467D01*
X53086348Y-118849087D01*
X53076778Y-118866991D01*
X53047448Y-118902729D01*
X52964186Y-119004186D01*
X52862729Y-119087448D01*
X52826991Y-119116778D01*
X52826989Y-119116779D01*
X52670467Y-119200443D01*
X52613853Y-119217616D01*
X52500627Y-119251963D01*
X52434443Y-119258481D01*
X52368260Y-119265000D01*
X52279740Y-119265000D01*
X52213557Y-119258481D01*
X52147373Y-119251963D01*
X52034147Y-119217616D01*
X51977533Y-119200443D01*
X51821011Y-119116779D01*
X51821009Y-119116778D01*
X51785271Y-119087448D01*
X51683814Y-119004186D01*
X51600552Y-118902729D01*
X51571222Y-118866991D01*
X51561652Y-118849087D01*
X51487557Y-118710467D01*
X51470384Y-118653853D01*
X51436037Y-118540627D01*
X51418641Y-118364000D01*
X51436037Y-118187373D01*
X51487557Y-118017534D01*
X51487557Y-118017533D01*
X51571221Y-117861011D01*
X51571222Y-117861009D01*
X51600552Y-117825271D01*
X51683814Y-117723814D01*
X51785271Y-117640552D01*
X51821009Y-117611222D01*
X51838913Y-117601652D01*
X51977533Y-117527557D01*
X52034147Y-117510384D01*
X52147373Y-117476037D01*
X52213558Y-117469518D01*
X52279740Y-117463000D01*
X52368260Y-117463000D01*
X52434442Y-117469518D01*
X52434442Y-117469518D01*
G37*
G36*
X68182443Y-114929519D02*
X68248627Y-114936037D01*
X68361853Y-114970384D01*
X68418467Y-114987557D01*
X68557087Y-115061652D01*
X68574991Y-115071222D01*
X68610729Y-115100552D01*
X68712186Y-115183814D01*
X68795448Y-115285271D01*
X68824778Y-115321009D01*
X68824779Y-115321011D01*
X68908443Y-115477533D01*
X68908443Y-115477534D01*
X68959963Y-115647373D01*
X68977359Y-115824000D01*
X68959963Y-116000627D01*
X68925616Y-116113853D01*
X68908443Y-116170467D01*
X68834348Y-116309087D01*
X68824778Y-116326991D01*
X68795448Y-116362729D01*
X68712186Y-116464186D01*
X68610729Y-116547448D01*
X68574991Y-116576778D01*
X68574989Y-116576779D01*
X68418467Y-116660443D01*
X68361853Y-116677616D01*
X68248627Y-116711963D01*
X68182443Y-116718481D01*
X68116260Y-116725000D01*
X68027740Y-116725000D01*
X67961557Y-116718481D01*
X67895373Y-116711963D01*
X67782147Y-116677616D01*
X67725533Y-116660443D01*
X67569011Y-116576779D01*
X67569009Y-116576778D01*
X67533271Y-116547448D01*
X67431814Y-116464186D01*
X67348552Y-116362729D01*
X67319222Y-116326991D01*
X67309652Y-116309087D01*
X67235557Y-116170467D01*
X67218384Y-116113853D01*
X67184037Y-116000627D01*
X67166641Y-115824000D01*
X67184037Y-115647373D01*
X67235557Y-115477534D01*
X67235557Y-115477533D01*
X67319221Y-115321011D01*
X67319222Y-115321009D01*
X67348552Y-115285271D01*
X67431814Y-115183814D01*
X67533271Y-115100552D01*
X67569009Y-115071222D01*
X67586913Y-115061652D01*
X67725533Y-114987557D01*
X67782147Y-114970384D01*
X67895373Y-114936037D01*
X67961557Y-114929519D01*
X68027740Y-114923000D01*
X68116260Y-114923000D01*
X68182443Y-114929519D01*
X68182443Y-114929519D01*
G37*
G36*
X62848443Y-114929519D02*
X62914627Y-114936037D01*
X63027853Y-114970384D01*
X63084467Y-114987557D01*
X63223087Y-115061652D01*
X63240991Y-115071222D01*
X63276729Y-115100552D01*
X63378186Y-115183814D01*
X63461448Y-115285271D01*
X63490778Y-115321009D01*
X63490779Y-115321011D01*
X63574443Y-115477533D01*
X63574443Y-115477534D01*
X63625963Y-115647373D01*
X63643359Y-115824000D01*
X63625963Y-116000627D01*
X63591616Y-116113853D01*
X63574443Y-116170467D01*
X63500348Y-116309087D01*
X63490778Y-116326991D01*
X63461448Y-116362729D01*
X63378186Y-116464186D01*
X63276729Y-116547448D01*
X63240991Y-116576778D01*
X63240989Y-116576779D01*
X63084467Y-116660443D01*
X63027853Y-116677616D01*
X62914627Y-116711963D01*
X62848443Y-116718481D01*
X62782260Y-116725000D01*
X62693740Y-116725000D01*
X62627557Y-116718481D01*
X62561373Y-116711963D01*
X62448147Y-116677616D01*
X62391533Y-116660443D01*
X62235011Y-116576779D01*
X62235009Y-116576778D01*
X62199271Y-116547448D01*
X62097814Y-116464186D01*
X62014552Y-116362729D01*
X61985222Y-116326991D01*
X61975652Y-116309087D01*
X61901557Y-116170467D01*
X61884384Y-116113853D01*
X61850037Y-116000627D01*
X61832641Y-115824000D01*
X61850037Y-115647373D01*
X61901557Y-115477534D01*
X61901557Y-115477533D01*
X61985221Y-115321011D01*
X61985222Y-115321009D01*
X62014552Y-115285271D01*
X62097814Y-115183814D01*
X62199271Y-115100552D01*
X62235009Y-115071222D01*
X62252913Y-115061652D01*
X62391533Y-114987557D01*
X62448147Y-114970384D01*
X62561373Y-114936037D01*
X62627557Y-114929519D01*
X62693740Y-114923000D01*
X62782260Y-114923000D01*
X62848443Y-114929519D01*
X62848443Y-114929519D01*
G37*
G36*
X52434443Y-114929519D02*
X52500627Y-114936037D01*
X52613853Y-114970384D01*
X52670467Y-114987557D01*
X52809087Y-115061652D01*
X52826991Y-115071222D01*
X52862729Y-115100552D01*
X52964186Y-115183814D01*
X53047448Y-115285271D01*
X53076778Y-115321009D01*
X53076779Y-115321011D01*
X53160443Y-115477533D01*
X53160443Y-115477534D01*
X53211963Y-115647373D01*
X53229359Y-115824000D01*
X53211963Y-116000627D01*
X53177616Y-116113853D01*
X53160443Y-116170467D01*
X53086348Y-116309087D01*
X53076778Y-116326991D01*
X53047448Y-116362729D01*
X52964186Y-116464186D01*
X52862729Y-116547448D01*
X52826991Y-116576778D01*
X52826989Y-116576779D01*
X52670467Y-116660443D01*
X52613853Y-116677616D01*
X52500627Y-116711963D01*
X52434443Y-116718481D01*
X52368260Y-116725000D01*
X52279740Y-116725000D01*
X52213557Y-116718481D01*
X52147373Y-116711963D01*
X52034147Y-116677616D01*
X51977533Y-116660443D01*
X51821011Y-116576779D01*
X51821009Y-116576778D01*
X51785271Y-116547448D01*
X51683814Y-116464186D01*
X51600552Y-116362729D01*
X51571222Y-116326991D01*
X51561652Y-116309087D01*
X51487557Y-116170467D01*
X51470384Y-116113853D01*
X51436037Y-116000627D01*
X51418641Y-115824000D01*
X51436037Y-115647373D01*
X51487557Y-115477534D01*
X51487557Y-115477533D01*
X51571221Y-115321011D01*
X51571222Y-115321009D01*
X51600552Y-115285271D01*
X51683814Y-115183814D01*
X51785271Y-115100552D01*
X51821009Y-115071222D01*
X51838913Y-115061652D01*
X51977533Y-114987557D01*
X52034147Y-114970384D01*
X52147373Y-114936037D01*
X52213557Y-114929519D01*
X52279740Y-114923000D01*
X52368260Y-114923000D01*
X52434443Y-114929519D01*
X52434443Y-114929519D01*
G37*
G36*
X54974443Y-114929519D02*
X55040627Y-114936037D01*
X55153853Y-114970384D01*
X55210467Y-114987557D01*
X55349087Y-115061652D01*
X55366991Y-115071222D01*
X55402729Y-115100552D01*
X55504186Y-115183814D01*
X55587448Y-115285271D01*
X55616778Y-115321009D01*
X55616779Y-115321011D01*
X55700443Y-115477533D01*
X55700443Y-115477534D01*
X55751963Y-115647373D01*
X55769359Y-115824000D01*
X55751963Y-116000627D01*
X55717616Y-116113853D01*
X55700443Y-116170467D01*
X55626348Y-116309087D01*
X55616778Y-116326991D01*
X55587448Y-116362729D01*
X55504186Y-116464186D01*
X55402729Y-116547448D01*
X55366991Y-116576778D01*
X55366989Y-116576779D01*
X55210467Y-116660443D01*
X55153853Y-116677616D01*
X55040627Y-116711963D01*
X54974443Y-116718481D01*
X54908260Y-116725000D01*
X54819740Y-116725000D01*
X54753557Y-116718481D01*
X54687373Y-116711963D01*
X54574147Y-116677616D01*
X54517533Y-116660443D01*
X54361011Y-116576779D01*
X54361009Y-116576778D01*
X54325271Y-116547448D01*
X54223814Y-116464186D01*
X54140552Y-116362729D01*
X54111222Y-116326991D01*
X54101652Y-116309087D01*
X54027557Y-116170467D01*
X54010384Y-116113853D01*
X53976037Y-116000627D01*
X53958641Y-115824000D01*
X53976037Y-115647373D01*
X54027557Y-115477534D01*
X54027557Y-115477533D01*
X54111221Y-115321011D01*
X54111222Y-115321009D01*
X54140552Y-115285271D01*
X54223814Y-115183814D01*
X54325271Y-115100552D01*
X54361009Y-115071222D01*
X54378913Y-115061652D01*
X54517533Y-114987557D01*
X54574147Y-114970384D01*
X54687373Y-114936037D01*
X54753557Y-114929519D01*
X54819740Y-114923000D01*
X54908260Y-114923000D01*
X54974443Y-114929519D01*
X54974443Y-114929519D01*
G37*
G36*
X93813062Y-112773514D02*
X93847977Y-112784106D01*
X93880165Y-112801311D01*
X93908373Y-112824460D01*
X93931522Y-112852668D01*
X93948727Y-112884856D01*
X93959319Y-112919771D01*
X93963500Y-112962228D01*
X93963500Y-114428438D01*
X93959319Y-114470895D01*
X93948727Y-114505810D01*
X93931522Y-114537998D01*
X93908373Y-114566206D01*
X93880165Y-114589355D01*
X93847977Y-114606560D01*
X93813062Y-114617152D01*
X93770605Y-114621333D01*
X92629395Y-114621333D01*
X92586938Y-114617152D01*
X92552023Y-114606560D01*
X92519835Y-114589355D01*
X92491627Y-114566206D01*
X92468478Y-114537998D01*
X92451273Y-114505810D01*
X92440681Y-114470895D01*
X92436500Y-114428438D01*
X92436500Y-112962228D01*
X92440681Y-112919771D01*
X92451273Y-112884856D01*
X92468478Y-112852668D01*
X92491627Y-112824460D01*
X92519835Y-112801311D01*
X92552023Y-112784106D01*
X92586938Y-112773514D01*
X92629395Y-112769333D01*
X93770605Y-112769333D01*
X93813062Y-112773514D01*
X93813062Y-112773514D01*
G37*
G36*
X96788062Y-112773514D02*
X96822977Y-112784106D01*
X96855165Y-112801311D01*
X96883373Y-112824460D01*
X96906522Y-112852668D01*
X96923727Y-112884856D01*
X96934319Y-112919771D01*
X96938500Y-112962228D01*
X96938500Y-114428438D01*
X96934319Y-114470895D01*
X96923727Y-114505810D01*
X96906522Y-114537998D01*
X96883373Y-114566206D01*
X96855165Y-114589355D01*
X96822977Y-114606560D01*
X96788062Y-114617152D01*
X96745605Y-114621333D01*
X95604395Y-114621333D01*
X95561938Y-114617152D01*
X95527023Y-114606560D01*
X95494835Y-114589355D01*
X95466627Y-114566206D01*
X95443478Y-114537998D01*
X95426273Y-114505810D01*
X95415681Y-114470895D01*
X95411500Y-114428438D01*
X95411500Y-112962228D01*
X95415681Y-112919771D01*
X95426273Y-112884856D01*
X95443478Y-112852668D01*
X95466627Y-112824460D01*
X95494835Y-112801311D01*
X95527023Y-112784106D01*
X95561938Y-112773514D01*
X95604395Y-112769333D01*
X96745605Y-112769333D01*
X96788062Y-112773514D01*
X96788062Y-112773514D01*
G37*
G36*
X52434443Y-112389519D02*
X52500627Y-112396037D01*
X52613853Y-112430384D01*
X52670467Y-112447557D01*
X52809087Y-112521652D01*
X52826991Y-112531222D01*
X52862729Y-112560552D01*
X52964186Y-112643814D01*
X53047448Y-112745271D01*
X53076778Y-112781009D01*
X53076779Y-112781011D01*
X53160443Y-112937533D01*
X53160443Y-112937534D01*
X53211963Y-113107373D01*
X53229359Y-113284000D01*
X53211963Y-113460627D01*
X53190076Y-113532778D01*
X53160443Y-113630467D01*
X53133432Y-113681000D01*
X53076778Y-113786991D01*
X53047448Y-113822729D01*
X52964186Y-113924186D01*
X52862729Y-114007448D01*
X52826991Y-114036778D01*
X52826989Y-114036779D01*
X52670467Y-114120443D01*
X52613853Y-114137616D01*
X52500627Y-114171963D01*
X52434442Y-114178482D01*
X52368260Y-114185000D01*
X52279740Y-114185000D01*
X52213558Y-114178482D01*
X52147373Y-114171963D01*
X52034147Y-114137616D01*
X51977533Y-114120443D01*
X51821011Y-114036779D01*
X51821009Y-114036778D01*
X51785271Y-114007448D01*
X51683814Y-113924186D01*
X51600552Y-113822729D01*
X51571222Y-113786991D01*
X51514568Y-113681000D01*
X51487557Y-113630467D01*
X51457924Y-113532778D01*
X51436037Y-113460627D01*
X51418641Y-113284000D01*
X51436037Y-113107373D01*
X51487557Y-112937534D01*
X51487557Y-112937533D01*
X51571221Y-112781011D01*
X51571222Y-112781009D01*
X51600552Y-112745271D01*
X51683814Y-112643814D01*
X51785271Y-112560552D01*
X51821009Y-112531222D01*
X51838913Y-112521652D01*
X51977533Y-112447557D01*
X52034147Y-112430384D01*
X52147373Y-112396037D01*
X52213557Y-112389519D01*
X52279740Y-112383000D01*
X52368260Y-112383000D01*
X52434443Y-112389519D01*
X52434443Y-112389519D01*
G37*
G36*
X68182443Y-112389519D02*
X68248627Y-112396037D01*
X68361853Y-112430384D01*
X68418467Y-112447557D01*
X68557087Y-112521652D01*
X68574991Y-112531222D01*
X68610729Y-112560552D01*
X68712186Y-112643814D01*
X68795448Y-112745271D01*
X68824778Y-112781009D01*
X68824779Y-112781011D01*
X68908443Y-112937533D01*
X68908443Y-112937534D01*
X68959963Y-113107373D01*
X68977359Y-113284000D01*
X68959963Y-113460627D01*
X68938076Y-113532778D01*
X68908443Y-113630467D01*
X68881432Y-113681000D01*
X68824778Y-113786991D01*
X68795448Y-113822729D01*
X68712186Y-113924186D01*
X68610729Y-114007448D01*
X68574991Y-114036778D01*
X68574989Y-114036779D01*
X68418467Y-114120443D01*
X68361853Y-114137616D01*
X68248627Y-114171963D01*
X68182442Y-114178482D01*
X68116260Y-114185000D01*
X68027740Y-114185000D01*
X67961558Y-114178482D01*
X67895373Y-114171963D01*
X67782147Y-114137616D01*
X67725533Y-114120443D01*
X67569011Y-114036779D01*
X67569009Y-114036778D01*
X67533271Y-114007448D01*
X67431814Y-113924186D01*
X67348552Y-113822729D01*
X67319222Y-113786991D01*
X67262568Y-113681000D01*
X67235557Y-113630467D01*
X67205924Y-113532778D01*
X67184037Y-113460627D01*
X67166641Y-113284000D01*
X67184037Y-113107373D01*
X67235557Y-112937534D01*
X67235557Y-112937533D01*
X67319221Y-112781011D01*
X67319222Y-112781009D01*
X67348552Y-112745271D01*
X67431814Y-112643814D01*
X67533271Y-112560552D01*
X67569009Y-112531222D01*
X67586913Y-112521652D01*
X67725533Y-112447557D01*
X67782147Y-112430384D01*
X67895373Y-112396037D01*
X67961557Y-112389519D01*
X68027740Y-112383000D01*
X68116260Y-112383000D01*
X68182443Y-112389519D01*
X68182443Y-112389519D01*
G37*
G36*
X62848443Y-112389519D02*
X62914627Y-112396037D01*
X63027853Y-112430384D01*
X63084467Y-112447557D01*
X63223087Y-112521652D01*
X63240991Y-112531222D01*
X63276729Y-112560552D01*
X63378186Y-112643814D01*
X63461448Y-112745271D01*
X63490778Y-112781009D01*
X63490779Y-112781011D01*
X63574443Y-112937533D01*
X63574443Y-112937534D01*
X63625963Y-113107373D01*
X63643359Y-113284000D01*
X63625963Y-113460627D01*
X63604076Y-113532778D01*
X63574443Y-113630467D01*
X63547432Y-113681000D01*
X63490778Y-113786991D01*
X63461448Y-113822729D01*
X63378186Y-113924186D01*
X63276729Y-114007448D01*
X63240991Y-114036778D01*
X63240989Y-114036779D01*
X63084467Y-114120443D01*
X63027853Y-114137616D01*
X62914627Y-114171963D01*
X62848442Y-114178482D01*
X62782260Y-114185000D01*
X62693740Y-114185000D01*
X62627558Y-114178482D01*
X62561373Y-114171963D01*
X62448147Y-114137616D01*
X62391533Y-114120443D01*
X62235011Y-114036779D01*
X62235009Y-114036778D01*
X62199271Y-114007448D01*
X62097814Y-113924186D01*
X62014552Y-113822729D01*
X61985222Y-113786991D01*
X61928568Y-113681000D01*
X61901557Y-113630467D01*
X61871924Y-113532778D01*
X61850037Y-113460627D01*
X61832641Y-113284000D01*
X61850037Y-113107373D01*
X61901557Y-112937534D01*
X61901557Y-112937533D01*
X61985221Y-112781011D01*
X61985222Y-112781009D01*
X62014552Y-112745271D01*
X62097814Y-112643814D01*
X62199271Y-112560552D01*
X62235009Y-112531222D01*
X62252913Y-112521652D01*
X62391533Y-112447557D01*
X62448147Y-112430384D01*
X62561373Y-112396037D01*
X62627557Y-112389519D01*
X62693740Y-112383000D01*
X62782260Y-112383000D01*
X62848443Y-112389519D01*
X62848443Y-112389519D01*
G37*
G36*
X54974443Y-112389519D02*
X55040627Y-112396037D01*
X55153853Y-112430384D01*
X55210467Y-112447557D01*
X55349087Y-112521652D01*
X55366991Y-112531222D01*
X55402729Y-112560552D01*
X55504186Y-112643814D01*
X55587448Y-112745271D01*
X55616778Y-112781009D01*
X55616779Y-112781011D01*
X55700443Y-112937533D01*
X55700443Y-112937534D01*
X55751963Y-113107373D01*
X55769359Y-113284000D01*
X55751963Y-113460627D01*
X55730076Y-113532778D01*
X55700443Y-113630467D01*
X55673432Y-113681000D01*
X55616778Y-113786991D01*
X55587448Y-113822729D01*
X55504186Y-113924186D01*
X55402729Y-114007448D01*
X55366991Y-114036778D01*
X55366989Y-114036779D01*
X55210467Y-114120443D01*
X55153853Y-114137616D01*
X55040627Y-114171963D01*
X54974442Y-114178482D01*
X54908260Y-114185000D01*
X54819740Y-114185000D01*
X54753558Y-114178482D01*
X54687373Y-114171963D01*
X54574147Y-114137616D01*
X54517533Y-114120443D01*
X54361011Y-114036779D01*
X54361009Y-114036778D01*
X54325271Y-114007448D01*
X54223814Y-113924186D01*
X54140552Y-113822729D01*
X54111222Y-113786991D01*
X54054568Y-113681000D01*
X54027557Y-113630467D01*
X53997924Y-113532778D01*
X53976037Y-113460627D01*
X53958641Y-113284000D01*
X53976037Y-113107373D01*
X54027557Y-112937534D01*
X54027557Y-112937533D01*
X54111221Y-112781011D01*
X54111222Y-112781009D01*
X54140552Y-112745271D01*
X54223814Y-112643814D01*
X54325271Y-112560552D01*
X54361009Y-112531222D01*
X54378913Y-112521652D01*
X54517533Y-112447557D01*
X54574147Y-112430384D01*
X54687373Y-112396037D01*
X54753557Y-112389519D01*
X54819740Y-112383000D01*
X54908260Y-112383000D01*
X54974443Y-112389519D01*
X54974443Y-112389519D01*
G37*
G36*
X101110442Y-111885518D02*
X101176627Y-111892037D01*
X101281576Y-111923873D01*
X101346467Y-111943557D01*
X101453423Y-112000727D01*
X101502991Y-112027222D01*
X101538729Y-112056552D01*
X101640186Y-112139814D01*
X101723448Y-112241271D01*
X101752778Y-112277009D01*
X101752779Y-112277011D01*
X101836443Y-112433533D01*
X101836443Y-112433534D01*
X101887963Y-112603373D01*
X101905359Y-112780000D01*
X101887963Y-112956627D01*
X101879367Y-112984964D01*
X101836443Y-113126467D01*
X101762348Y-113265087D01*
X101752778Y-113282991D01*
X101723448Y-113318729D01*
X101640186Y-113420186D01*
X101538729Y-113503448D01*
X101502991Y-113532778D01*
X101502989Y-113532779D01*
X101346467Y-113616443D01*
X101300238Y-113630466D01*
X101176627Y-113667963D01*
X101110443Y-113674481D01*
X101044260Y-113681000D01*
X100955740Y-113681000D01*
X100889557Y-113674481D01*
X100823373Y-113667963D01*
X100699762Y-113630466D01*
X100653533Y-113616443D01*
X100497011Y-113532779D01*
X100497009Y-113532778D01*
X100461271Y-113503448D01*
X100359814Y-113420186D01*
X100276552Y-113318729D01*
X100247222Y-113282991D01*
X100237652Y-113265087D01*
X100163557Y-113126467D01*
X100120633Y-112984964D01*
X100112037Y-112956627D01*
X100094641Y-112780000D01*
X100112037Y-112603373D01*
X100163557Y-112433534D01*
X100163557Y-112433533D01*
X100247221Y-112277011D01*
X100247222Y-112277009D01*
X100276552Y-112241271D01*
X100359814Y-112139814D01*
X100461271Y-112056552D01*
X100497009Y-112027222D01*
X100546577Y-112000727D01*
X100653533Y-111943557D01*
X100718424Y-111923873D01*
X100823373Y-111892037D01*
X100889558Y-111885518D01*
X100955740Y-111879000D01*
X101044260Y-111879000D01*
X101110442Y-111885518D01*
X101110442Y-111885518D01*
G37*
G36*
X103650442Y-111885518D02*
X103716627Y-111892037D01*
X103821576Y-111923873D01*
X103886467Y-111943557D01*
X103993423Y-112000727D01*
X104042991Y-112027222D01*
X104078729Y-112056552D01*
X104180186Y-112139814D01*
X104263448Y-112241271D01*
X104292778Y-112277009D01*
X104292779Y-112277011D01*
X104376443Y-112433533D01*
X104376443Y-112433534D01*
X104427963Y-112603373D01*
X104445359Y-112780000D01*
X104427963Y-112956627D01*
X104419367Y-112984964D01*
X104376443Y-113126467D01*
X104302348Y-113265087D01*
X104292778Y-113282991D01*
X104263448Y-113318729D01*
X104180186Y-113420186D01*
X104078729Y-113503448D01*
X104042991Y-113532778D01*
X104042989Y-113532779D01*
X103886467Y-113616443D01*
X103840238Y-113630466D01*
X103716627Y-113667963D01*
X103650443Y-113674481D01*
X103584260Y-113681000D01*
X103495740Y-113681000D01*
X103429557Y-113674481D01*
X103363373Y-113667963D01*
X103239762Y-113630466D01*
X103193533Y-113616443D01*
X103037011Y-113532779D01*
X103037009Y-113532778D01*
X103001271Y-113503448D01*
X102899814Y-113420186D01*
X102816552Y-113318729D01*
X102787222Y-113282991D01*
X102777652Y-113265087D01*
X102703557Y-113126467D01*
X102660633Y-112984964D01*
X102652037Y-112956627D01*
X102634641Y-112780000D01*
X102652037Y-112603373D01*
X102703557Y-112433534D01*
X102703557Y-112433533D01*
X102787221Y-112277011D01*
X102787222Y-112277009D01*
X102816552Y-112241271D01*
X102899814Y-112139814D01*
X103001271Y-112056552D01*
X103037009Y-112027222D01*
X103086577Y-112000727D01*
X103193533Y-111943557D01*
X103258424Y-111923873D01*
X103363373Y-111892037D01*
X103429558Y-111885518D01*
X103495740Y-111879000D01*
X103584260Y-111879000D01*
X103650442Y-111885518D01*
X103650442Y-111885518D01*
G37*
G36*
X77171562Y-110492681D02*
X77206477Y-110503273D01*
X77238665Y-110520478D01*
X77266873Y-110543627D01*
X77290022Y-110571835D01*
X77307227Y-110604023D01*
X77317819Y-110638938D01*
X77322000Y-110681395D01*
X77322000Y-111822605D01*
X77317819Y-111865062D01*
X77307227Y-111899977D01*
X77290022Y-111932165D01*
X77266873Y-111960373D01*
X77238665Y-111983522D01*
X77206477Y-112000727D01*
X77171562Y-112011319D01*
X77129105Y-112015500D01*
X74762895Y-112015500D01*
X74720438Y-112011319D01*
X74685523Y-112000727D01*
X74653335Y-111983522D01*
X74625127Y-111960373D01*
X74601978Y-111932165D01*
X74584773Y-111899977D01*
X74574181Y-111865062D01*
X74570000Y-111822605D01*
X74570000Y-110681395D01*
X74574181Y-110638938D01*
X74584773Y-110604023D01*
X74601978Y-110571835D01*
X74625127Y-110543627D01*
X74653335Y-110520478D01*
X74685523Y-110503273D01*
X74720438Y-110492681D01*
X74762895Y-110488500D01*
X77129105Y-110488500D01*
X77171562Y-110492681D01*
X77171562Y-110492681D01*
G37*
G36*
X73361562Y-110456181D02*
X73396477Y-110466773D01*
X73428665Y-110483978D01*
X73456873Y-110507127D01*
X73480022Y-110535335D01*
X73497227Y-110567523D01*
X73507819Y-110602438D01*
X73512000Y-110644895D01*
X73512000Y-111786105D01*
X73507819Y-111828562D01*
X73497227Y-111863477D01*
X73480022Y-111895665D01*
X73456873Y-111923873D01*
X73428665Y-111947022D01*
X73396477Y-111964227D01*
X73361562Y-111974819D01*
X73319105Y-111979000D01*
X70952895Y-111979000D01*
X70910438Y-111974819D01*
X70875523Y-111964227D01*
X70843335Y-111947022D01*
X70815127Y-111923873D01*
X70791978Y-111895665D01*
X70774773Y-111863477D01*
X70764181Y-111828562D01*
X70760000Y-111786105D01*
X70760000Y-110644895D01*
X70764181Y-110602438D01*
X70774773Y-110567523D01*
X70791978Y-110535335D01*
X70815127Y-110507127D01*
X70843335Y-110483978D01*
X70875523Y-110466773D01*
X70910438Y-110456181D01*
X70952895Y-110452000D01*
X73319105Y-110452000D01*
X73361562Y-110456181D01*
X73361562Y-110456181D01*
G37*
G36*
X68182443Y-109849519D02*
X68248627Y-109856037D01*
X68361853Y-109890384D01*
X68418467Y-109907557D01*
X68557087Y-109981652D01*
X68574991Y-109991222D01*
X68610729Y-110020552D01*
X68712186Y-110103814D01*
X68795448Y-110205271D01*
X68824778Y-110241009D01*
X68824779Y-110241011D01*
X68908443Y-110397533D01*
X68908443Y-110397534D01*
X68959963Y-110567373D01*
X68977359Y-110744000D01*
X68959963Y-110920627D01*
X68940569Y-110984560D01*
X68908443Y-111090467D01*
X68881432Y-111141000D01*
X68824778Y-111246991D01*
X68795448Y-111282729D01*
X68712186Y-111384186D01*
X68610729Y-111467448D01*
X68574991Y-111496778D01*
X68574989Y-111496779D01*
X68418467Y-111580443D01*
X68361853Y-111597616D01*
X68248627Y-111631963D01*
X68182443Y-111638481D01*
X68116260Y-111645000D01*
X68027740Y-111645000D01*
X67961557Y-111638481D01*
X67895373Y-111631963D01*
X67782147Y-111597616D01*
X67725533Y-111580443D01*
X67569011Y-111496779D01*
X67569009Y-111496778D01*
X67533271Y-111467448D01*
X67431814Y-111384186D01*
X67348552Y-111282729D01*
X67319222Y-111246991D01*
X67262568Y-111141000D01*
X67235557Y-111090467D01*
X67203431Y-110984560D01*
X67184037Y-110920627D01*
X67166641Y-110744000D01*
X67184037Y-110567373D01*
X67235557Y-110397534D01*
X67235557Y-110397533D01*
X67319221Y-110241011D01*
X67319222Y-110241009D01*
X67348552Y-110205271D01*
X67431814Y-110103814D01*
X67533271Y-110020552D01*
X67569009Y-109991222D01*
X67586913Y-109981652D01*
X67725533Y-109907557D01*
X67782147Y-109890384D01*
X67895373Y-109856037D01*
X67961557Y-109849519D01*
X68027740Y-109843000D01*
X68116260Y-109843000D01*
X68182443Y-109849519D01*
X68182443Y-109849519D01*
G37*
G36*
X62848443Y-109849519D02*
X62914627Y-109856037D01*
X63027853Y-109890384D01*
X63084467Y-109907557D01*
X63223087Y-109981652D01*
X63240991Y-109991222D01*
X63276729Y-110020552D01*
X63378186Y-110103814D01*
X63461448Y-110205271D01*
X63490778Y-110241009D01*
X63490779Y-110241011D01*
X63574443Y-110397533D01*
X63574443Y-110397534D01*
X63625963Y-110567373D01*
X63643359Y-110744000D01*
X63625963Y-110920627D01*
X63606569Y-110984560D01*
X63574443Y-111090467D01*
X63547432Y-111141000D01*
X63490778Y-111246991D01*
X63461448Y-111282729D01*
X63378186Y-111384186D01*
X63276729Y-111467448D01*
X63240991Y-111496778D01*
X63240989Y-111496779D01*
X63084467Y-111580443D01*
X63027853Y-111597616D01*
X62914627Y-111631963D01*
X62848443Y-111638481D01*
X62782260Y-111645000D01*
X62693740Y-111645000D01*
X62627557Y-111638481D01*
X62561373Y-111631963D01*
X62448147Y-111597616D01*
X62391533Y-111580443D01*
X62235011Y-111496779D01*
X62235009Y-111496778D01*
X62199271Y-111467448D01*
X62097814Y-111384186D01*
X62014552Y-111282729D01*
X61985222Y-111246991D01*
X61928568Y-111141000D01*
X61901557Y-111090467D01*
X61869431Y-110984560D01*
X61850037Y-110920627D01*
X61832641Y-110744000D01*
X61850037Y-110567373D01*
X61901557Y-110397534D01*
X61901557Y-110397533D01*
X61985221Y-110241011D01*
X61985222Y-110241009D01*
X62014552Y-110205271D01*
X62097814Y-110103814D01*
X62199271Y-110020552D01*
X62235009Y-109991222D01*
X62252913Y-109981652D01*
X62391533Y-109907557D01*
X62448147Y-109890384D01*
X62561373Y-109856037D01*
X62627557Y-109849519D01*
X62693740Y-109843000D01*
X62782260Y-109843000D01*
X62848443Y-109849519D01*
X62848443Y-109849519D01*
G37*
G36*
X54974443Y-109849519D02*
X55040627Y-109856037D01*
X55153853Y-109890384D01*
X55210467Y-109907557D01*
X55349087Y-109981652D01*
X55366991Y-109991222D01*
X55402729Y-110020552D01*
X55504186Y-110103814D01*
X55587448Y-110205271D01*
X55616778Y-110241009D01*
X55616779Y-110241011D01*
X55700443Y-110397533D01*
X55700443Y-110397534D01*
X55751963Y-110567373D01*
X55769359Y-110744000D01*
X55751963Y-110920627D01*
X55732569Y-110984560D01*
X55700443Y-111090467D01*
X55673432Y-111141000D01*
X55616778Y-111246991D01*
X55587448Y-111282729D01*
X55504186Y-111384186D01*
X55402729Y-111467448D01*
X55366991Y-111496778D01*
X55366989Y-111496779D01*
X55210467Y-111580443D01*
X55153853Y-111597616D01*
X55040627Y-111631963D01*
X54974443Y-111638481D01*
X54908260Y-111645000D01*
X54819740Y-111645000D01*
X54753557Y-111638481D01*
X54687373Y-111631963D01*
X54574147Y-111597616D01*
X54517533Y-111580443D01*
X54361011Y-111496779D01*
X54361009Y-111496778D01*
X54325271Y-111467448D01*
X54223814Y-111384186D01*
X54140552Y-111282729D01*
X54111222Y-111246991D01*
X54054568Y-111141000D01*
X54027557Y-111090467D01*
X53995431Y-110984560D01*
X53976037Y-110920627D01*
X53958641Y-110744000D01*
X53976037Y-110567373D01*
X54027557Y-110397534D01*
X54027557Y-110397533D01*
X54111221Y-110241011D01*
X54111222Y-110241009D01*
X54140552Y-110205271D01*
X54223814Y-110103814D01*
X54325271Y-110020552D01*
X54361009Y-109991222D01*
X54378913Y-109981652D01*
X54517533Y-109907557D01*
X54574147Y-109890384D01*
X54687373Y-109856037D01*
X54753557Y-109849519D01*
X54819740Y-109843000D01*
X54908260Y-109843000D01*
X54974443Y-109849519D01*
X54974443Y-109849519D01*
G37*
G36*
X52434443Y-109849519D02*
X52500627Y-109856037D01*
X52613853Y-109890384D01*
X52670467Y-109907557D01*
X52809087Y-109981652D01*
X52826991Y-109991222D01*
X52862729Y-110020552D01*
X52964186Y-110103814D01*
X53047448Y-110205271D01*
X53076778Y-110241009D01*
X53076779Y-110241011D01*
X53160443Y-110397533D01*
X53160443Y-110397534D01*
X53211963Y-110567373D01*
X53229359Y-110744000D01*
X53211963Y-110920627D01*
X53192569Y-110984560D01*
X53160443Y-111090467D01*
X53133432Y-111141000D01*
X53076778Y-111246991D01*
X53047448Y-111282729D01*
X52964186Y-111384186D01*
X52862729Y-111467448D01*
X52826991Y-111496778D01*
X52826989Y-111496779D01*
X52670467Y-111580443D01*
X52613853Y-111597616D01*
X52500627Y-111631963D01*
X52434443Y-111638481D01*
X52368260Y-111645000D01*
X52279740Y-111645000D01*
X52213557Y-111638481D01*
X52147373Y-111631963D01*
X52034147Y-111597616D01*
X51977533Y-111580443D01*
X51821011Y-111496779D01*
X51821009Y-111496778D01*
X51785271Y-111467448D01*
X51683814Y-111384186D01*
X51600552Y-111282729D01*
X51571222Y-111246991D01*
X51514568Y-111141000D01*
X51487557Y-111090467D01*
X51455431Y-110984560D01*
X51436037Y-110920627D01*
X51418641Y-110744000D01*
X51436037Y-110567373D01*
X51487557Y-110397534D01*
X51487557Y-110397533D01*
X51571221Y-110241011D01*
X51571222Y-110241009D01*
X51600552Y-110205271D01*
X51683814Y-110103814D01*
X51785271Y-110020552D01*
X51821009Y-109991222D01*
X51838913Y-109981652D01*
X51977533Y-109907557D01*
X52034147Y-109890384D01*
X52147373Y-109856037D01*
X52213557Y-109849519D01*
X52279740Y-109843000D01*
X52368260Y-109843000D01*
X52434443Y-109849519D01*
X52434443Y-109849519D01*
G37*
G36*
X103650443Y-109345519D02*
X103716627Y-109352037D01*
X103829853Y-109386384D01*
X103886467Y-109403557D01*
X104025087Y-109477652D01*
X104042991Y-109487222D01*
X104078729Y-109516552D01*
X104180186Y-109599814D01*
X104263448Y-109701271D01*
X104292778Y-109737009D01*
X104292779Y-109737011D01*
X104376443Y-109893533D01*
X104376443Y-109893534D01*
X104427963Y-110063373D01*
X104445359Y-110240000D01*
X104427963Y-110416627D01*
X104404892Y-110492681D01*
X104376443Y-110586467D01*
X104333059Y-110667631D01*
X104292778Y-110742991D01*
X104263448Y-110778729D01*
X104180186Y-110880186D01*
X104078729Y-110963448D01*
X104042991Y-110992778D01*
X104030728Y-110999333D01*
X103886467Y-111076443D01*
X103840238Y-111090466D01*
X103716627Y-111127963D01*
X103650443Y-111134481D01*
X103584260Y-111141000D01*
X103495740Y-111141000D01*
X103429557Y-111134481D01*
X103363373Y-111127963D01*
X103239762Y-111090466D01*
X103193533Y-111076443D01*
X103049272Y-110999333D01*
X103037009Y-110992778D01*
X103001271Y-110963448D01*
X102899814Y-110880186D01*
X102816552Y-110778729D01*
X102787222Y-110742991D01*
X102746941Y-110667631D01*
X102703557Y-110586467D01*
X102675108Y-110492681D01*
X102652037Y-110416627D01*
X102634641Y-110240000D01*
X102652037Y-110063373D01*
X102703557Y-109893534D01*
X102703557Y-109893533D01*
X102787221Y-109737011D01*
X102787222Y-109737009D01*
X102816552Y-109701271D01*
X102899814Y-109599814D01*
X103001271Y-109516552D01*
X103037009Y-109487222D01*
X103054913Y-109477652D01*
X103193533Y-109403557D01*
X103250147Y-109386384D01*
X103363373Y-109352037D01*
X103429557Y-109345519D01*
X103495740Y-109339000D01*
X103584260Y-109339000D01*
X103650443Y-109345519D01*
X103650443Y-109345519D01*
G37*
G36*
X101110443Y-109345519D02*
X101176627Y-109352037D01*
X101289853Y-109386384D01*
X101346467Y-109403557D01*
X101485087Y-109477652D01*
X101502991Y-109487222D01*
X101538729Y-109516552D01*
X101640186Y-109599814D01*
X101723448Y-109701271D01*
X101752778Y-109737009D01*
X101752779Y-109737011D01*
X101836443Y-109893533D01*
X101836443Y-109893534D01*
X101887963Y-110063373D01*
X101905359Y-110240000D01*
X101887963Y-110416627D01*
X101864892Y-110492681D01*
X101836443Y-110586467D01*
X101793059Y-110667631D01*
X101752778Y-110742991D01*
X101723448Y-110778729D01*
X101640186Y-110880186D01*
X101538729Y-110963448D01*
X101502991Y-110992778D01*
X101490728Y-110999333D01*
X101346467Y-111076443D01*
X101300238Y-111090466D01*
X101176627Y-111127963D01*
X101110443Y-111134481D01*
X101044260Y-111141000D01*
X100955740Y-111141000D01*
X100889557Y-111134481D01*
X100823373Y-111127963D01*
X100699762Y-111090466D01*
X100653533Y-111076443D01*
X100509272Y-110999333D01*
X100497009Y-110992778D01*
X100461271Y-110963448D01*
X100359814Y-110880186D01*
X100276552Y-110778729D01*
X100247222Y-110742991D01*
X100206941Y-110667631D01*
X100163557Y-110586467D01*
X100135108Y-110492681D01*
X100112037Y-110416627D01*
X100094641Y-110240000D01*
X100112037Y-110063373D01*
X100163557Y-109893534D01*
X100163557Y-109893533D01*
X100247221Y-109737011D01*
X100247222Y-109737009D01*
X100276552Y-109701271D01*
X100359814Y-109599814D01*
X100461271Y-109516552D01*
X100497009Y-109487222D01*
X100514913Y-109477652D01*
X100653533Y-109403557D01*
X100710147Y-109386384D01*
X100823373Y-109352037D01*
X100889557Y-109345519D01*
X100955740Y-109339000D01*
X101044260Y-109339000D01*
X101110443Y-109345519D01*
X101110443Y-109345519D01*
G37*
G36*
X96808971Y-109151514D02*
X96843886Y-109162106D01*
X96876074Y-109179311D01*
X96904282Y-109202460D01*
X96927431Y-109230668D01*
X96944636Y-109262856D01*
X96955228Y-109297771D01*
X96959409Y-109340228D01*
X96959409Y-110806438D01*
X96955228Y-110848895D01*
X96944636Y-110883810D01*
X96927431Y-110915998D01*
X96904282Y-110944206D01*
X96876074Y-110967355D01*
X96843886Y-110984560D01*
X96808971Y-110995152D01*
X96766514Y-110999333D01*
X95625304Y-110999333D01*
X95582847Y-110995152D01*
X95547932Y-110984560D01*
X95515744Y-110967355D01*
X95487536Y-110944206D01*
X95464387Y-110915998D01*
X95447182Y-110883810D01*
X95436590Y-110848895D01*
X95432409Y-110806438D01*
X95432409Y-109340228D01*
X95436590Y-109297771D01*
X95447182Y-109262856D01*
X95464387Y-109230668D01*
X95487536Y-109202460D01*
X95515744Y-109179311D01*
X95547932Y-109162106D01*
X95582847Y-109151514D01*
X95625304Y-109147333D01*
X96766514Y-109147333D01*
X96808971Y-109151514D01*
X96808971Y-109151514D01*
G37*
G36*
X93833971Y-109151514D02*
X93868886Y-109162106D01*
X93901074Y-109179311D01*
X93929282Y-109202460D01*
X93952431Y-109230668D01*
X93969636Y-109262856D01*
X93980228Y-109297771D01*
X93984409Y-109340228D01*
X93984409Y-110806438D01*
X93980228Y-110848895D01*
X93969636Y-110883810D01*
X93952431Y-110915998D01*
X93929282Y-110944206D01*
X93901074Y-110967355D01*
X93868886Y-110984560D01*
X93833971Y-110995152D01*
X93791514Y-110999333D01*
X92650304Y-110999333D01*
X92607847Y-110995152D01*
X92572932Y-110984560D01*
X92540744Y-110967355D01*
X92512536Y-110944206D01*
X92489387Y-110915998D01*
X92472182Y-110883810D01*
X92461590Y-110848895D01*
X92457409Y-110806438D01*
X92457409Y-109340228D01*
X92461590Y-109297771D01*
X92472182Y-109262856D01*
X92489387Y-109230668D01*
X92512536Y-109202460D01*
X92540744Y-109179311D01*
X92572932Y-109162106D01*
X92607847Y-109151514D01*
X92650304Y-109147333D01*
X93791514Y-109147333D01*
X93833971Y-109151514D01*
X93833971Y-109151514D01*
G37*
G36*
X68182442Y-107309518D02*
X68248627Y-107316037D01*
X68361853Y-107350384D01*
X68418467Y-107367557D01*
X68458398Y-107388901D01*
X68574991Y-107451222D01*
X68606401Y-107477000D01*
X68712186Y-107563814D01*
X68768604Y-107632561D01*
X68824778Y-107701009D01*
X68824779Y-107701011D01*
X68908443Y-107857533D01*
X68908443Y-107857534D01*
X68959963Y-108027373D01*
X68977359Y-108204000D01*
X68959963Y-108380627D01*
X68938076Y-108452778D01*
X68908443Y-108550467D01*
X68881432Y-108601000D01*
X68824778Y-108706991D01*
X68795448Y-108742729D01*
X68712186Y-108844186D01*
X68613740Y-108924977D01*
X68574991Y-108956778D01*
X68574989Y-108956779D01*
X68418467Y-109040443D01*
X68361853Y-109057616D01*
X68248627Y-109091963D01*
X68182443Y-109098481D01*
X68116260Y-109105000D01*
X68027740Y-109105000D01*
X67961557Y-109098481D01*
X67895373Y-109091963D01*
X67782147Y-109057616D01*
X67725533Y-109040443D01*
X67569011Y-108956779D01*
X67569009Y-108956778D01*
X67530260Y-108924977D01*
X67431814Y-108844186D01*
X67348552Y-108742729D01*
X67319222Y-108706991D01*
X67262568Y-108601000D01*
X67235557Y-108550467D01*
X67205924Y-108452778D01*
X67184037Y-108380627D01*
X67166641Y-108204000D01*
X67184037Y-108027373D01*
X67235557Y-107857534D01*
X67235557Y-107857533D01*
X67319221Y-107701011D01*
X67319222Y-107701009D01*
X67375396Y-107632561D01*
X67431814Y-107563814D01*
X67537599Y-107477000D01*
X67569009Y-107451222D01*
X67685602Y-107388901D01*
X67725533Y-107367557D01*
X67782147Y-107350384D01*
X67895373Y-107316037D01*
X67961558Y-107309518D01*
X68027740Y-107303000D01*
X68116260Y-107303000D01*
X68182442Y-107309518D01*
X68182442Y-107309518D01*
G37*
G36*
X52434442Y-107309518D02*
X52500627Y-107316037D01*
X52613853Y-107350384D01*
X52670467Y-107367557D01*
X52710398Y-107388901D01*
X52826991Y-107451222D01*
X52858401Y-107477000D01*
X52964186Y-107563814D01*
X53020604Y-107632561D01*
X53076778Y-107701009D01*
X53076779Y-107701011D01*
X53160443Y-107857533D01*
X53160443Y-107857534D01*
X53211963Y-108027373D01*
X53229359Y-108204000D01*
X53211963Y-108380627D01*
X53190076Y-108452778D01*
X53160443Y-108550467D01*
X53133432Y-108601000D01*
X53076778Y-108706991D01*
X53047448Y-108742729D01*
X52964186Y-108844186D01*
X52865740Y-108924977D01*
X52826991Y-108956778D01*
X52826989Y-108956779D01*
X52670467Y-109040443D01*
X52613853Y-109057616D01*
X52500627Y-109091963D01*
X52434443Y-109098481D01*
X52368260Y-109105000D01*
X52279740Y-109105000D01*
X52213557Y-109098481D01*
X52147373Y-109091963D01*
X52034147Y-109057616D01*
X51977533Y-109040443D01*
X51821011Y-108956779D01*
X51821009Y-108956778D01*
X51782260Y-108924977D01*
X51683814Y-108844186D01*
X51600552Y-108742729D01*
X51571222Y-108706991D01*
X51514568Y-108601000D01*
X51487557Y-108550467D01*
X51457924Y-108452778D01*
X51436037Y-108380627D01*
X51418641Y-108204000D01*
X51436037Y-108027373D01*
X51487557Y-107857534D01*
X51487557Y-107857533D01*
X51571221Y-107701011D01*
X51571222Y-107701009D01*
X51627396Y-107632561D01*
X51683814Y-107563814D01*
X51789599Y-107477000D01*
X51821009Y-107451222D01*
X51937602Y-107388901D01*
X51977533Y-107367557D01*
X52034147Y-107350384D01*
X52147373Y-107316037D01*
X52213558Y-107309518D01*
X52279740Y-107303000D01*
X52368260Y-107303000D01*
X52434442Y-107309518D01*
X52434442Y-107309518D01*
G37*
G36*
X54974442Y-107309518D02*
X55040627Y-107316037D01*
X55153853Y-107350384D01*
X55210467Y-107367557D01*
X55250398Y-107388901D01*
X55366991Y-107451222D01*
X55398401Y-107477000D01*
X55504186Y-107563814D01*
X55560604Y-107632561D01*
X55616778Y-107701009D01*
X55616779Y-107701011D01*
X55700443Y-107857533D01*
X55700443Y-107857534D01*
X55751963Y-108027373D01*
X55769359Y-108204000D01*
X55751963Y-108380627D01*
X55730076Y-108452778D01*
X55700443Y-108550467D01*
X55673432Y-108601000D01*
X55616778Y-108706991D01*
X55587448Y-108742729D01*
X55504186Y-108844186D01*
X55405740Y-108924977D01*
X55366991Y-108956778D01*
X55366989Y-108956779D01*
X55210467Y-109040443D01*
X55153853Y-109057616D01*
X55040627Y-109091963D01*
X54974443Y-109098481D01*
X54908260Y-109105000D01*
X54819740Y-109105000D01*
X54753557Y-109098481D01*
X54687373Y-109091963D01*
X54574147Y-109057616D01*
X54517533Y-109040443D01*
X54361011Y-108956779D01*
X54361009Y-108956778D01*
X54322260Y-108924977D01*
X54223814Y-108844186D01*
X54140552Y-108742729D01*
X54111222Y-108706991D01*
X54054568Y-108601000D01*
X54027557Y-108550467D01*
X53997924Y-108452778D01*
X53976037Y-108380627D01*
X53958641Y-108204000D01*
X53976037Y-108027373D01*
X54027557Y-107857534D01*
X54027557Y-107857533D01*
X54111221Y-107701011D01*
X54111222Y-107701009D01*
X54167396Y-107632561D01*
X54223814Y-107563814D01*
X54329599Y-107477000D01*
X54361009Y-107451222D01*
X54477602Y-107388901D01*
X54517533Y-107367557D01*
X54574147Y-107350384D01*
X54687373Y-107316037D01*
X54753558Y-107309518D01*
X54819740Y-107303000D01*
X54908260Y-107303000D01*
X54974442Y-107309518D01*
X54974442Y-107309518D01*
G37*
G36*
X62848442Y-107309518D02*
X62914627Y-107316037D01*
X63027853Y-107350384D01*
X63084467Y-107367557D01*
X63124398Y-107388901D01*
X63240991Y-107451222D01*
X63272401Y-107477000D01*
X63378186Y-107563814D01*
X63434604Y-107632561D01*
X63490778Y-107701009D01*
X63490779Y-107701011D01*
X63574443Y-107857533D01*
X63574443Y-107857534D01*
X63625963Y-108027373D01*
X63643359Y-108204000D01*
X63625963Y-108380627D01*
X63604076Y-108452778D01*
X63574443Y-108550467D01*
X63547432Y-108601000D01*
X63490778Y-108706991D01*
X63461448Y-108742729D01*
X63378186Y-108844186D01*
X63279740Y-108924977D01*
X63240991Y-108956778D01*
X63240989Y-108956779D01*
X63084467Y-109040443D01*
X63027853Y-109057616D01*
X62914627Y-109091963D01*
X62848443Y-109098481D01*
X62782260Y-109105000D01*
X62693740Y-109105000D01*
X62627557Y-109098481D01*
X62561373Y-109091963D01*
X62448147Y-109057616D01*
X62391533Y-109040443D01*
X62235011Y-108956779D01*
X62235009Y-108956778D01*
X62196260Y-108924977D01*
X62097814Y-108844186D01*
X62014552Y-108742729D01*
X61985222Y-108706991D01*
X61928568Y-108601000D01*
X61901557Y-108550467D01*
X61871924Y-108452778D01*
X61850037Y-108380627D01*
X61832641Y-108204000D01*
X61850037Y-108027373D01*
X61901557Y-107857534D01*
X61901557Y-107857533D01*
X61985221Y-107701011D01*
X61985222Y-107701009D01*
X62041396Y-107632561D01*
X62097814Y-107563814D01*
X62203599Y-107477000D01*
X62235009Y-107451222D01*
X62351602Y-107388901D01*
X62391533Y-107367557D01*
X62448147Y-107350384D01*
X62561373Y-107316037D01*
X62627558Y-107309518D01*
X62693740Y-107303000D01*
X62782260Y-107303000D01*
X62848442Y-107309518D01*
X62848442Y-107309518D01*
G37*
G36*
X77171562Y-107517681D02*
X77206477Y-107528273D01*
X77238665Y-107545478D01*
X77266873Y-107568627D01*
X77290022Y-107596835D01*
X77307227Y-107629023D01*
X77317819Y-107663938D01*
X77322000Y-107706395D01*
X77322000Y-108847605D01*
X77317819Y-108890062D01*
X77307227Y-108924977D01*
X77290022Y-108957165D01*
X77266873Y-108985373D01*
X77238665Y-109008522D01*
X77206477Y-109025727D01*
X77171562Y-109036319D01*
X77129105Y-109040500D01*
X74762895Y-109040500D01*
X74720438Y-109036319D01*
X74685523Y-109025727D01*
X74653335Y-109008522D01*
X74625127Y-108985373D01*
X74601978Y-108957165D01*
X74584773Y-108924977D01*
X74574181Y-108890062D01*
X74570000Y-108847605D01*
X74570000Y-107706395D01*
X74574181Y-107663938D01*
X74584773Y-107629023D01*
X74601978Y-107596835D01*
X74625127Y-107568627D01*
X74653335Y-107545478D01*
X74685523Y-107528273D01*
X74720438Y-107517681D01*
X74762895Y-107513500D01*
X77129105Y-107513500D01*
X77171562Y-107517681D01*
X77171562Y-107517681D01*
G37*
G36*
X73361562Y-107481181D02*
X73396477Y-107491773D01*
X73428665Y-107508978D01*
X73456873Y-107532127D01*
X73480022Y-107560335D01*
X73497227Y-107592523D01*
X73507819Y-107627438D01*
X73512000Y-107669895D01*
X73512000Y-108811105D01*
X73507819Y-108853562D01*
X73497227Y-108888477D01*
X73480022Y-108920665D01*
X73456873Y-108948873D01*
X73428665Y-108972022D01*
X73396477Y-108989227D01*
X73361562Y-108999819D01*
X73319105Y-109004000D01*
X70952895Y-109004000D01*
X70910438Y-108999819D01*
X70875523Y-108989227D01*
X70843335Y-108972022D01*
X70815127Y-108948873D01*
X70791978Y-108920665D01*
X70774773Y-108888477D01*
X70764181Y-108853562D01*
X70760000Y-108811105D01*
X70760000Y-107669895D01*
X70764181Y-107627438D01*
X70774773Y-107592523D01*
X70791978Y-107560335D01*
X70815127Y-107532127D01*
X70843335Y-107508978D01*
X70875523Y-107491773D01*
X70910438Y-107481181D01*
X70952895Y-107477000D01*
X73319105Y-107477000D01*
X73361562Y-107481181D01*
X73361562Y-107481181D01*
G37*
G36*
X103650443Y-106805519D02*
X103716627Y-106812037D01*
X103829853Y-106846384D01*
X103886467Y-106863557D01*
X104025087Y-106937652D01*
X104042991Y-106947222D01*
X104078729Y-106976552D01*
X104180186Y-107059814D01*
X104230404Y-107121006D01*
X104292778Y-107197009D01*
X104292779Y-107197011D01*
X104376443Y-107353533D01*
X104393616Y-107410147D01*
X104427963Y-107523373D01*
X104445359Y-107700000D01*
X104427963Y-107876627D01*
X104393616Y-107989853D01*
X104376443Y-108046467D01*
X104302348Y-108185087D01*
X104292778Y-108202991D01*
X104263448Y-108238729D01*
X104180186Y-108340186D01*
X104078729Y-108423448D01*
X104042991Y-108452778D01*
X104042989Y-108452779D01*
X103886467Y-108536443D01*
X103840238Y-108550466D01*
X103716627Y-108587963D01*
X103650443Y-108594481D01*
X103584260Y-108601000D01*
X103495740Y-108601000D01*
X103429557Y-108594481D01*
X103363373Y-108587963D01*
X103239762Y-108550466D01*
X103193533Y-108536443D01*
X103037011Y-108452779D01*
X103037009Y-108452778D01*
X103001271Y-108423448D01*
X102899814Y-108340186D01*
X102816552Y-108238729D01*
X102787222Y-108202991D01*
X102777652Y-108185087D01*
X102703557Y-108046467D01*
X102686384Y-107989853D01*
X102652037Y-107876627D01*
X102634641Y-107700000D01*
X102652037Y-107523373D01*
X102686384Y-107410147D01*
X102703557Y-107353533D01*
X102787221Y-107197011D01*
X102787222Y-107197009D01*
X102849596Y-107121006D01*
X102899814Y-107059814D01*
X103001271Y-106976552D01*
X103037009Y-106947222D01*
X103054913Y-106937652D01*
X103193533Y-106863557D01*
X103250147Y-106846384D01*
X103363373Y-106812037D01*
X103429557Y-106805519D01*
X103495740Y-106799000D01*
X103584260Y-106799000D01*
X103650443Y-106805519D01*
X103650443Y-106805519D01*
G37*
G36*
X101110443Y-106805519D02*
X101176627Y-106812037D01*
X101289853Y-106846384D01*
X101346467Y-106863557D01*
X101485087Y-106937652D01*
X101502991Y-106947222D01*
X101538729Y-106976552D01*
X101640186Y-107059814D01*
X101690404Y-107121006D01*
X101752778Y-107197009D01*
X101752779Y-107197011D01*
X101836443Y-107353533D01*
X101853616Y-107410147D01*
X101887963Y-107523373D01*
X101905359Y-107700000D01*
X101887963Y-107876627D01*
X101853616Y-107989853D01*
X101836443Y-108046467D01*
X101762348Y-108185087D01*
X101752778Y-108202991D01*
X101723448Y-108238729D01*
X101640186Y-108340186D01*
X101538729Y-108423448D01*
X101502991Y-108452778D01*
X101502989Y-108452779D01*
X101346467Y-108536443D01*
X101300238Y-108550466D01*
X101176627Y-108587963D01*
X101110443Y-108594481D01*
X101044260Y-108601000D01*
X100955740Y-108601000D01*
X100889557Y-108594481D01*
X100823373Y-108587963D01*
X100699762Y-108550466D01*
X100653533Y-108536443D01*
X100497011Y-108452779D01*
X100497009Y-108452778D01*
X100461271Y-108423448D01*
X100359814Y-108340186D01*
X100276552Y-108238729D01*
X100247222Y-108202991D01*
X100237652Y-108185087D01*
X100163557Y-108046467D01*
X100146384Y-107989853D01*
X100112037Y-107876627D01*
X100094641Y-107700000D01*
X100112037Y-107523373D01*
X100146384Y-107410147D01*
X100163557Y-107353533D01*
X100247221Y-107197011D01*
X100247222Y-107197009D01*
X100309596Y-107121006D01*
X100359814Y-107059814D01*
X100461271Y-106976552D01*
X100497009Y-106947222D01*
X100514913Y-106937652D01*
X100653533Y-106863557D01*
X100710147Y-106846384D01*
X100823373Y-106812037D01*
X100889557Y-106805519D01*
X100955740Y-106799000D01*
X101044260Y-106799000D01*
X101110443Y-106805519D01*
X101110443Y-106805519D01*
G37*
G36*
X93833971Y-105541082D02*
X93868886Y-105551674D01*
X93901074Y-105568879D01*
X93929282Y-105592028D01*
X93952431Y-105620236D01*
X93969636Y-105652424D01*
X93980228Y-105687339D01*
X93984409Y-105729796D01*
X93984409Y-107196006D01*
X93980228Y-107238463D01*
X93969636Y-107273378D01*
X93952431Y-107305566D01*
X93929282Y-107333774D01*
X93901074Y-107356923D01*
X93868886Y-107374128D01*
X93833971Y-107384720D01*
X93791514Y-107388901D01*
X92650304Y-107388901D01*
X92607847Y-107384720D01*
X92572932Y-107374128D01*
X92540744Y-107356923D01*
X92512536Y-107333774D01*
X92489387Y-107305566D01*
X92472182Y-107273378D01*
X92461590Y-107238463D01*
X92457409Y-107196006D01*
X92457409Y-105729796D01*
X92461590Y-105687339D01*
X92472182Y-105652424D01*
X92489387Y-105620236D01*
X92512536Y-105592028D01*
X92540744Y-105568879D01*
X92572932Y-105551674D01*
X92607847Y-105541082D01*
X92650304Y-105536901D01*
X93791514Y-105536901D01*
X93833971Y-105541082D01*
X93833971Y-105541082D01*
G37*
G36*
X96808971Y-105541082D02*
X96843886Y-105551674D01*
X96876074Y-105568879D01*
X96904282Y-105592028D01*
X96927431Y-105620236D01*
X96944636Y-105652424D01*
X96955228Y-105687339D01*
X96959409Y-105729796D01*
X96959409Y-107196006D01*
X96955228Y-107238463D01*
X96944636Y-107273378D01*
X96927431Y-107305566D01*
X96904282Y-107333774D01*
X96876074Y-107356923D01*
X96843886Y-107374128D01*
X96808971Y-107384720D01*
X96766514Y-107388901D01*
X95625304Y-107388901D01*
X95582847Y-107384720D01*
X95547932Y-107374128D01*
X95515744Y-107356923D01*
X95487536Y-107333774D01*
X95464387Y-107305566D01*
X95447182Y-107273378D01*
X95436590Y-107238463D01*
X95432409Y-107196006D01*
X95432409Y-105729796D01*
X95436590Y-105687339D01*
X95447182Y-105652424D01*
X95464387Y-105620236D01*
X95487536Y-105592028D01*
X95515744Y-105568879D01*
X95547932Y-105551674D01*
X95582847Y-105541082D01*
X95625304Y-105536901D01*
X96766514Y-105536901D01*
X96808971Y-105541082D01*
X96808971Y-105541082D01*
G37*
G36*
X68182442Y-104769518D02*
X68248627Y-104776037D01*
X68361853Y-104810384D01*
X68418467Y-104827557D01*
X68557087Y-104901652D01*
X68574991Y-104911222D01*
X68610729Y-104940552D01*
X68712186Y-105023814D01*
X68795448Y-105125271D01*
X68824778Y-105161009D01*
X68824779Y-105161011D01*
X68908443Y-105317533D01*
X68908443Y-105317534D01*
X68959963Y-105487373D01*
X68977359Y-105664000D01*
X68959963Y-105840627D01*
X68938076Y-105912778D01*
X68908443Y-106010467D01*
X68881432Y-106061000D01*
X68824778Y-106166991D01*
X68795448Y-106202729D01*
X68712186Y-106304186D01*
X68610729Y-106387448D01*
X68574991Y-106416778D01*
X68574989Y-106416779D01*
X68418467Y-106500443D01*
X68361853Y-106517616D01*
X68248627Y-106551963D01*
X68182442Y-106558482D01*
X68116260Y-106565000D01*
X68027740Y-106565000D01*
X67961558Y-106558482D01*
X67895373Y-106551963D01*
X67782147Y-106517616D01*
X67725533Y-106500443D01*
X67569011Y-106416779D01*
X67569009Y-106416778D01*
X67533271Y-106387448D01*
X67431814Y-106304186D01*
X67348552Y-106202729D01*
X67319222Y-106166991D01*
X67262568Y-106061000D01*
X67235557Y-106010467D01*
X67205924Y-105912778D01*
X67184037Y-105840627D01*
X67166641Y-105664000D01*
X67184037Y-105487373D01*
X67235557Y-105317534D01*
X67235557Y-105317533D01*
X67319221Y-105161011D01*
X67319222Y-105161009D01*
X67348552Y-105125271D01*
X67431814Y-105023814D01*
X67533271Y-104940552D01*
X67569009Y-104911222D01*
X67586913Y-104901652D01*
X67725533Y-104827557D01*
X67782147Y-104810384D01*
X67895373Y-104776037D01*
X67961558Y-104769518D01*
X68027740Y-104763000D01*
X68116260Y-104763000D01*
X68182442Y-104769518D01*
X68182442Y-104769518D01*
G37*
G36*
X54974442Y-104769518D02*
X55040627Y-104776037D01*
X55153853Y-104810384D01*
X55210467Y-104827557D01*
X55349087Y-104901652D01*
X55366991Y-104911222D01*
X55402729Y-104940552D01*
X55504186Y-105023814D01*
X55587448Y-105125271D01*
X55616778Y-105161009D01*
X55616779Y-105161011D01*
X55700443Y-105317533D01*
X55700443Y-105317534D01*
X55751963Y-105487373D01*
X55769359Y-105664000D01*
X55751963Y-105840627D01*
X55730076Y-105912778D01*
X55700443Y-106010467D01*
X55673432Y-106061000D01*
X55616778Y-106166991D01*
X55587448Y-106202729D01*
X55504186Y-106304186D01*
X55402729Y-106387448D01*
X55366991Y-106416778D01*
X55366989Y-106416779D01*
X55210467Y-106500443D01*
X55153853Y-106517616D01*
X55040627Y-106551963D01*
X54974442Y-106558482D01*
X54908260Y-106565000D01*
X54819740Y-106565000D01*
X54753558Y-106558482D01*
X54687373Y-106551963D01*
X54574147Y-106517616D01*
X54517533Y-106500443D01*
X54361011Y-106416779D01*
X54361009Y-106416778D01*
X54325271Y-106387448D01*
X54223814Y-106304186D01*
X54140552Y-106202729D01*
X54111222Y-106166991D01*
X54054568Y-106061000D01*
X54027557Y-106010467D01*
X53997924Y-105912778D01*
X53976037Y-105840627D01*
X53958641Y-105664000D01*
X53976037Y-105487373D01*
X54027557Y-105317534D01*
X54027557Y-105317533D01*
X54111221Y-105161011D01*
X54111222Y-105161009D01*
X54140552Y-105125271D01*
X54223814Y-105023814D01*
X54325271Y-104940552D01*
X54361009Y-104911222D01*
X54378913Y-104901652D01*
X54517533Y-104827557D01*
X54574147Y-104810384D01*
X54687373Y-104776037D01*
X54753558Y-104769518D01*
X54819740Y-104763000D01*
X54908260Y-104763000D01*
X54974442Y-104769518D01*
X54974442Y-104769518D01*
G37*
G36*
X62848442Y-104769518D02*
X62914627Y-104776037D01*
X63027853Y-104810384D01*
X63084467Y-104827557D01*
X63223087Y-104901652D01*
X63240991Y-104911222D01*
X63276729Y-104940552D01*
X63378186Y-105023814D01*
X63461448Y-105125271D01*
X63490778Y-105161009D01*
X63490779Y-105161011D01*
X63574443Y-105317533D01*
X63574443Y-105317534D01*
X63625963Y-105487373D01*
X63643359Y-105664000D01*
X63625963Y-105840627D01*
X63604076Y-105912778D01*
X63574443Y-106010467D01*
X63547432Y-106061000D01*
X63490778Y-106166991D01*
X63461448Y-106202729D01*
X63378186Y-106304186D01*
X63276729Y-106387448D01*
X63240991Y-106416778D01*
X63240989Y-106416779D01*
X63084467Y-106500443D01*
X63027853Y-106517616D01*
X62914627Y-106551963D01*
X62848442Y-106558482D01*
X62782260Y-106565000D01*
X62693740Y-106565000D01*
X62627558Y-106558482D01*
X62561373Y-106551963D01*
X62448147Y-106517616D01*
X62391533Y-106500443D01*
X62235011Y-106416779D01*
X62235009Y-106416778D01*
X62199271Y-106387448D01*
X62097814Y-106304186D01*
X62014552Y-106202729D01*
X61985222Y-106166991D01*
X61928568Y-106061000D01*
X61901557Y-106010467D01*
X61871924Y-105912778D01*
X61850037Y-105840627D01*
X61832641Y-105664000D01*
X61850037Y-105487373D01*
X61901557Y-105317534D01*
X61901557Y-105317533D01*
X61985221Y-105161011D01*
X61985222Y-105161009D01*
X62014552Y-105125271D01*
X62097814Y-105023814D01*
X62199271Y-104940552D01*
X62235009Y-104911222D01*
X62252913Y-104901652D01*
X62391533Y-104827557D01*
X62448147Y-104810384D01*
X62561373Y-104776037D01*
X62627558Y-104769518D01*
X62693740Y-104763000D01*
X62782260Y-104763000D01*
X62848442Y-104769518D01*
X62848442Y-104769518D01*
G37*
G36*
X52434442Y-104769518D02*
X52500627Y-104776037D01*
X52613853Y-104810384D01*
X52670467Y-104827557D01*
X52809087Y-104901652D01*
X52826991Y-104911222D01*
X52862729Y-104940552D01*
X52964186Y-105023814D01*
X53047448Y-105125271D01*
X53076778Y-105161009D01*
X53076779Y-105161011D01*
X53160443Y-105317533D01*
X53160443Y-105317534D01*
X53211963Y-105487373D01*
X53229359Y-105664000D01*
X53211963Y-105840627D01*
X53190076Y-105912778D01*
X53160443Y-106010467D01*
X53133432Y-106061000D01*
X53076778Y-106166991D01*
X53047448Y-106202729D01*
X52964186Y-106304186D01*
X52862729Y-106387448D01*
X52826991Y-106416778D01*
X52826989Y-106416779D01*
X52670467Y-106500443D01*
X52613853Y-106517616D01*
X52500627Y-106551963D01*
X52434442Y-106558482D01*
X52368260Y-106565000D01*
X52279740Y-106565000D01*
X52213558Y-106558482D01*
X52147373Y-106551963D01*
X52034147Y-106517616D01*
X51977533Y-106500443D01*
X51821011Y-106416779D01*
X51821009Y-106416778D01*
X51785271Y-106387448D01*
X51683814Y-106304186D01*
X51600552Y-106202729D01*
X51571222Y-106166991D01*
X51514568Y-106061000D01*
X51487557Y-106010467D01*
X51457924Y-105912778D01*
X51436037Y-105840627D01*
X51418641Y-105664000D01*
X51436037Y-105487373D01*
X51487557Y-105317534D01*
X51487557Y-105317533D01*
X51571221Y-105161011D01*
X51571222Y-105161009D01*
X51600552Y-105125271D01*
X51683814Y-105023814D01*
X51785271Y-104940552D01*
X51821009Y-104911222D01*
X51838913Y-104901652D01*
X51977533Y-104827557D01*
X52034147Y-104810384D01*
X52147373Y-104776037D01*
X52213558Y-104769518D01*
X52279740Y-104763000D01*
X52368260Y-104763000D01*
X52434442Y-104769518D01*
X52434442Y-104769518D01*
G37*
G36*
X103650442Y-104265518D02*
X103716627Y-104272037D01*
X103829853Y-104306384D01*
X103886467Y-104323557D01*
X104025087Y-104397652D01*
X104042991Y-104407222D01*
X104078729Y-104436552D01*
X104180186Y-104519814D01*
X104263448Y-104621271D01*
X104292778Y-104657009D01*
X104292779Y-104657011D01*
X104376443Y-104813533D01*
X104376443Y-104813534D01*
X104427963Y-104983373D01*
X104445359Y-105160000D01*
X104427963Y-105336627D01*
X104393616Y-105449853D01*
X104376443Y-105506467D01*
X104336043Y-105582049D01*
X104292778Y-105662991D01*
X104272796Y-105687339D01*
X104180186Y-105800186D01*
X104078729Y-105883448D01*
X104042991Y-105912778D01*
X104042989Y-105912779D01*
X103886467Y-105996443D01*
X103840238Y-106010466D01*
X103716627Y-106047963D01*
X103650442Y-106054482D01*
X103584260Y-106061000D01*
X103495740Y-106061000D01*
X103429558Y-106054482D01*
X103363373Y-106047963D01*
X103239762Y-106010466D01*
X103193533Y-105996443D01*
X103037011Y-105912779D01*
X103037009Y-105912778D01*
X103001271Y-105883448D01*
X102899814Y-105800186D01*
X102807204Y-105687339D01*
X102787222Y-105662991D01*
X102743957Y-105582049D01*
X102703557Y-105506467D01*
X102686384Y-105449853D01*
X102652037Y-105336627D01*
X102634641Y-105160000D01*
X102652037Y-104983373D01*
X102703557Y-104813534D01*
X102703557Y-104813533D01*
X102787221Y-104657011D01*
X102787222Y-104657009D01*
X102816552Y-104621271D01*
X102899814Y-104519814D01*
X103001271Y-104436552D01*
X103037009Y-104407222D01*
X103054913Y-104397652D01*
X103193533Y-104323557D01*
X103250147Y-104306384D01*
X103363373Y-104272037D01*
X103429558Y-104265518D01*
X103495740Y-104259000D01*
X103584260Y-104259000D01*
X103650442Y-104265518D01*
X103650442Y-104265518D01*
G37*
G36*
X101110442Y-104265518D02*
X101176627Y-104272037D01*
X101289853Y-104306384D01*
X101346467Y-104323557D01*
X101485087Y-104397652D01*
X101502991Y-104407222D01*
X101538729Y-104436552D01*
X101640186Y-104519814D01*
X101723448Y-104621271D01*
X101752778Y-104657009D01*
X101752779Y-104657011D01*
X101836443Y-104813533D01*
X101836443Y-104813534D01*
X101887963Y-104983373D01*
X101905359Y-105160000D01*
X101887963Y-105336627D01*
X101853616Y-105449853D01*
X101836443Y-105506467D01*
X101796043Y-105582049D01*
X101752778Y-105662991D01*
X101732796Y-105687339D01*
X101640186Y-105800186D01*
X101538729Y-105883448D01*
X101502991Y-105912778D01*
X101502989Y-105912779D01*
X101346467Y-105996443D01*
X101300238Y-106010466D01*
X101176627Y-106047963D01*
X101110442Y-106054482D01*
X101044260Y-106061000D01*
X100955740Y-106061000D01*
X100889558Y-106054482D01*
X100823373Y-106047963D01*
X100699762Y-106010466D01*
X100653533Y-105996443D01*
X100497011Y-105912779D01*
X100497009Y-105912778D01*
X100461271Y-105883448D01*
X100359814Y-105800186D01*
X100267204Y-105687339D01*
X100247222Y-105662991D01*
X100203957Y-105582049D01*
X100163557Y-105506467D01*
X100146384Y-105449853D01*
X100112037Y-105336627D01*
X100094641Y-105160000D01*
X100112037Y-104983373D01*
X100163557Y-104813534D01*
X100163557Y-104813533D01*
X100247221Y-104657011D01*
X100247222Y-104657009D01*
X100276552Y-104621271D01*
X100359814Y-104519814D01*
X100461271Y-104436552D01*
X100497009Y-104407222D01*
X100514913Y-104397652D01*
X100653533Y-104323557D01*
X100710147Y-104306384D01*
X100823373Y-104272037D01*
X100889558Y-104265518D01*
X100955740Y-104259000D01*
X101044260Y-104259000D01*
X101110442Y-104265518D01*
X101110442Y-104265518D01*
G37*
G36*
X71769562Y-102202181D02*
X71804477Y-102212773D01*
X71836665Y-102229978D01*
X71864873Y-102253127D01*
X71888022Y-102281335D01*
X71905227Y-102313523D01*
X71915819Y-102348438D01*
X71920000Y-102390895D01*
X71920000Y-103857105D01*
X71915819Y-103899562D01*
X71905227Y-103934477D01*
X71888022Y-103966665D01*
X71864873Y-103994873D01*
X71836665Y-104018022D01*
X71804477Y-104035227D01*
X71769562Y-104045819D01*
X71727105Y-104050000D01*
X70585895Y-104050000D01*
X70543438Y-104045819D01*
X70508523Y-104035227D01*
X70476335Y-104018022D01*
X70448127Y-103994873D01*
X70424978Y-103966665D01*
X70407773Y-103934477D01*
X70397181Y-103899562D01*
X70393000Y-103857105D01*
X70393000Y-102390895D01*
X70397181Y-102348438D01*
X70407773Y-102313523D01*
X70424978Y-102281335D01*
X70448127Y-102253127D01*
X70476335Y-102229978D01*
X70508523Y-102212773D01*
X70543438Y-102202181D01*
X70585895Y-102198000D01*
X71727105Y-102198000D01*
X71769562Y-102202181D01*
X71769562Y-102202181D01*
G37*
G36*
X74744562Y-102202181D02*
X74779477Y-102212773D01*
X74811665Y-102229978D01*
X74839873Y-102253127D01*
X74863022Y-102281335D01*
X74880227Y-102313523D01*
X74890819Y-102348438D01*
X74895000Y-102390895D01*
X74895000Y-103857105D01*
X74890819Y-103899562D01*
X74880227Y-103934477D01*
X74863022Y-103966665D01*
X74839873Y-103994873D01*
X74811665Y-104018022D01*
X74779477Y-104035227D01*
X74744562Y-104045819D01*
X74702105Y-104050000D01*
X73560895Y-104050000D01*
X73518438Y-104045819D01*
X73483523Y-104035227D01*
X73451335Y-104018022D01*
X73423127Y-103994873D01*
X73399978Y-103966665D01*
X73382773Y-103934477D01*
X73372181Y-103899562D01*
X73368000Y-103857105D01*
X73368000Y-102390895D01*
X73372181Y-102348438D01*
X73382773Y-102313523D01*
X73399978Y-102281335D01*
X73423127Y-102253127D01*
X73451335Y-102229978D01*
X73483523Y-102212773D01*
X73518438Y-102202181D01*
X73560895Y-102198000D01*
X74702105Y-102198000D01*
X74744562Y-102202181D01*
X74744562Y-102202181D01*
G37*
G36*
X63639000Y-104025000D02*
X61837000Y-104025000D01*
X61837000Y-102223000D01*
X63639000Y-102223000D01*
X63639000Y-104025000D01*
X63639000Y-104025000D01*
G37*
G36*
X52434443Y-102229519D02*
X52500627Y-102236037D01*
X52613853Y-102270384D01*
X52670467Y-102287557D01*
X52809087Y-102361652D01*
X52826991Y-102371222D01*
X52850962Y-102390895D01*
X52964186Y-102483814D01*
X53047448Y-102585271D01*
X53076778Y-102621009D01*
X53076779Y-102621011D01*
X53160443Y-102777533D01*
X53160443Y-102777534D01*
X53211963Y-102947373D01*
X53229359Y-103124000D01*
X53211963Y-103300627D01*
X53190076Y-103372778D01*
X53160443Y-103470467D01*
X53139003Y-103510578D01*
X53076778Y-103626991D01*
X53075921Y-103628035D01*
X52964186Y-103764186D01*
X52862729Y-103847448D01*
X52826991Y-103876778D01*
X52826989Y-103876779D01*
X52670467Y-103960443D01*
X52649955Y-103966665D01*
X52500627Y-104011963D01*
X52439108Y-104018022D01*
X52368260Y-104025000D01*
X52279740Y-104025000D01*
X52208892Y-104018022D01*
X52147373Y-104011963D01*
X51998045Y-103966665D01*
X51977533Y-103960443D01*
X51821011Y-103876779D01*
X51821009Y-103876778D01*
X51785271Y-103847448D01*
X51683814Y-103764186D01*
X51572079Y-103628035D01*
X51571222Y-103626991D01*
X51508997Y-103510578D01*
X51487557Y-103470467D01*
X51457924Y-103372778D01*
X51436037Y-103300627D01*
X51418641Y-103124000D01*
X51436037Y-102947373D01*
X51487557Y-102777534D01*
X51487557Y-102777533D01*
X51571221Y-102621011D01*
X51571222Y-102621009D01*
X51600552Y-102585271D01*
X51683814Y-102483814D01*
X51797038Y-102390895D01*
X51821009Y-102371222D01*
X51838913Y-102361652D01*
X51977533Y-102287557D01*
X52034147Y-102270384D01*
X52147373Y-102236037D01*
X52213557Y-102229519D01*
X52279740Y-102223000D01*
X52368260Y-102223000D01*
X52434443Y-102229519D01*
X52434443Y-102229519D01*
G37*
G36*
X54974443Y-102229519D02*
X55040627Y-102236037D01*
X55153853Y-102270384D01*
X55210467Y-102287557D01*
X55349087Y-102361652D01*
X55366991Y-102371222D01*
X55390962Y-102390895D01*
X55504186Y-102483814D01*
X55587448Y-102585271D01*
X55616778Y-102621009D01*
X55616779Y-102621011D01*
X55700443Y-102777533D01*
X55700443Y-102777534D01*
X55751963Y-102947373D01*
X55769359Y-103124000D01*
X55751963Y-103300627D01*
X55730076Y-103372778D01*
X55700443Y-103470467D01*
X55679003Y-103510578D01*
X55616778Y-103626991D01*
X55615921Y-103628035D01*
X55504186Y-103764186D01*
X55402729Y-103847448D01*
X55366991Y-103876778D01*
X55366989Y-103876779D01*
X55210467Y-103960443D01*
X55189955Y-103966665D01*
X55040627Y-104011963D01*
X54979108Y-104018022D01*
X54908260Y-104025000D01*
X54819740Y-104025000D01*
X54748892Y-104018022D01*
X54687373Y-104011963D01*
X54538045Y-103966665D01*
X54517533Y-103960443D01*
X54361011Y-103876779D01*
X54361009Y-103876778D01*
X54325271Y-103847448D01*
X54223814Y-103764186D01*
X54112079Y-103628035D01*
X54111222Y-103626991D01*
X54048997Y-103510578D01*
X54027557Y-103470467D01*
X53997924Y-103372778D01*
X53976037Y-103300627D01*
X53958641Y-103124000D01*
X53976037Y-102947373D01*
X54027557Y-102777534D01*
X54027557Y-102777533D01*
X54111221Y-102621011D01*
X54111222Y-102621009D01*
X54140552Y-102585271D01*
X54223814Y-102483814D01*
X54337038Y-102390895D01*
X54361009Y-102371222D01*
X54378913Y-102361652D01*
X54517533Y-102287557D01*
X54574147Y-102270384D01*
X54687373Y-102236037D01*
X54753557Y-102229519D01*
X54819740Y-102223000D01*
X54908260Y-102223000D01*
X54974443Y-102229519D01*
X54974443Y-102229519D01*
G37*
G36*
X68973000Y-104025000D02*
X67171000Y-104025000D01*
X67171000Y-102223000D01*
X68973000Y-102223000D01*
X68973000Y-104025000D01*
X68973000Y-104025000D01*
G37*
G36*
X93833971Y-101930654D02*
X93868886Y-101941246D01*
X93901074Y-101958451D01*
X93929282Y-101981600D01*
X93952431Y-102009808D01*
X93969636Y-102041996D01*
X93980228Y-102076911D01*
X93984409Y-102119368D01*
X93984409Y-103585578D01*
X93980228Y-103628035D01*
X93969636Y-103662950D01*
X93952431Y-103695138D01*
X93929282Y-103723346D01*
X93901074Y-103746495D01*
X93868886Y-103763700D01*
X93833971Y-103774292D01*
X93791514Y-103778473D01*
X92650304Y-103778473D01*
X92607847Y-103774292D01*
X92572932Y-103763700D01*
X92540744Y-103746495D01*
X92512536Y-103723346D01*
X92489387Y-103695138D01*
X92472182Y-103662950D01*
X92461590Y-103628035D01*
X92457409Y-103585578D01*
X92457409Y-102119368D01*
X92461590Y-102076911D01*
X92472182Y-102041996D01*
X92489387Y-102009808D01*
X92512536Y-101981600D01*
X92540744Y-101958451D01*
X92572932Y-101941246D01*
X92607847Y-101930654D01*
X92650304Y-101926473D01*
X93791514Y-101926473D01*
X93833971Y-101930654D01*
X93833971Y-101930654D01*
G37*
G36*
X96808971Y-101930654D02*
X96843886Y-101941246D01*
X96876074Y-101958451D01*
X96904282Y-101981600D01*
X96927431Y-102009808D01*
X96944636Y-102041996D01*
X96955228Y-102076911D01*
X96959409Y-102119368D01*
X96959409Y-103585578D01*
X96955228Y-103628035D01*
X96944636Y-103662950D01*
X96927431Y-103695138D01*
X96904282Y-103723346D01*
X96876074Y-103746495D01*
X96843886Y-103763700D01*
X96808971Y-103774292D01*
X96766514Y-103778473D01*
X95625304Y-103778473D01*
X95582847Y-103774292D01*
X95547932Y-103763700D01*
X95515744Y-103746495D01*
X95487536Y-103723346D01*
X95464387Y-103695138D01*
X95447182Y-103662950D01*
X95436590Y-103628035D01*
X95432409Y-103585578D01*
X95432409Y-102119368D01*
X95436590Y-102076911D01*
X95447182Y-102041996D01*
X95464387Y-102009808D01*
X95487536Y-101981600D01*
X95515744Y-101958451D01*
X95547932Y-101941246D01*
X95582847Y-101930654D01*
X95625304Y-101926473D01*
X96766514Y-101926473D01*
X96808971Y-101930654D01*
X96808971Y-101930654D01*
G37*
G36*
X103650443Y-101725519D02*
X103716627Y-101732037D01*
X103829853Y-101766384D01*
X103886467Y-101783557D01*
X104025087Y-101857652D01*
X104042991Y-101867222D01*
X104078729Y-101896552D01*
X104180186Y-101979814D01*
X104234120Y-102045534D01*
X104292778Y-102117009D01*
X104292779Y-102117011D01*
X104376443Y-102273533D01*
X104380697Y-102287557D01*
X104427963Y-102443373D01*
X104445359Y-102620000D01*
X104427963Y-102796627D01*
X104393616Y-102909853D01*
X104376443Y-102966467D01*
X104302348Y-103105087D01*
X104292778Y-103122991D01*
X104263448Y-103158729D01*
X104180186Y-103260186D01*
X104078729Y-103343448D01*
X104042991Y-103372778D01*
X104042989Y-103372779D01*
X103886467Y-103456443D01*
X103840238Y-103470466D01*
X103716627Y-103507963D01*
X103650443Y-103514481D01*
X103584260Y-103521000D01*
X103495740Y-103521000D01*
X103429558Y-103514482D01*
X103363373Y-103507963D01*
X103239762Y-103470466D01*
X103193533Y-103456443D01*
X103037011Y-103372779D01*
X103037009Y-103372778D01*
X103001271Y-103343448D01*
X102899814Y-103260186D01*
X102816552Y-103158729D01*
X102787222Y-103122991D01*
X102777652Y-103105087D01*
X102703557Y-102966467D01*
X102686384Y-102909853D01*
X102652037Y-102796627D01*
X102634641Y-102620000D01*
X102652037Y-102443373D01*
X102699303Y-102287557D01*
X102703557Y-102273533D01*
X102787221Y-102117011D01*
X102787222Y-102117009D01*
X102845880Y-102045534D01*
X102899814Y-101979814D01*
X103001271Y-101896552D01*
X103037009Y-101867222D01*
X103054913Y-101857652D01*
X103193533Y-101783557D01*
X103250147Y-101766384D01*
X103363373Y-101732037D01*
X103429557Y-101725519D01*
X103495740Y-101719000D01*
X103584260Y-101719000D01*
X103650443Y-101725519D01*
X103650443Y-101725519D01*
G37*
G36*
X101110443Y-101725519D02*
X101176627Y-101732037D01*
X101289853Y-101766384D01*
X101346467Y-101783557D01*
X101485087Y-101857652D01*
X101502991Y-101867222D01*
X101538729Y-101896552D01*
X101640186Y-101979814D01*
X101694120Y-102045534D01*
X101752778Y-102117009D01*
X101752779Y-102117011D01*
X101836443Y-102273533D01*
X101840697Y-102287557D01*
X101887963Y-102443373D01*
X101905359Y-102620000D01*
X101887963Y-102796627D01*
X101853616Y-102909853D01*
X101836443Y-102966467D01*
X101762348Y-103105087D01*
X101752778Y-103122991D01*
X101723448Y-103158729D01*
X101640186Y-103260186D01*
X101538729Y-103343448D01*
X101502991Y-103372778D01*
X101502989Y-103372779D01*
X101346467Y-103456443D01*
X101300238Y-103470466D01*
X101176627Y-103507963D01*
X101110443Y-103514481D01*
X101044260Y-103521000D01*
X100955740Y-103521000D01*
X100889558Y-103514482D01*
X100823373Y-103507963D01*
X100699762Y-103470466D01*
X100653533Y-103456443D01*
X100497011Y-103372779D01*
X100497009Y-103372778D01*
X100461271Y-103343448D01*
X100359814Y-103260186D01*
X100276552Y-103158729D01*
X100247222Y-103122991D01*
X100237652Y-103105087D01*
X100163557Y-102966467D01*
X100146384Y-102909853D01*
X100112037Y-102796627D01*
X100094641Y-102620000D01*
X100112037Y-102443373D01*
X100159303Y-102287557D01*
X100163557Y-102273533D01*
X100247221Y-102117011D01*
X100247222Y-102117009D01*
X100305880Y-102045534D01*
X100359814Y-101979814D01*
X100461271Y-101896552D01*
X100497009Y-101867222D01*
X100514913Y-101857652D01*
X100653533Y-101783557D01*
X100710147Y-101766384D01*
X100823373Y-101732037D01*
X100889557Y-101725519D01*
X100955740Y-101719000D01*
X101044260Y-101719000D01*
X101110443Y-101725519D01*
X101110443Y-101725519D01*
G37*
G36*
X52434442Y-99689518D02*
X52500627Y-99696037D01*
X52613853Y-99730384D01*
X52670467Y-99747557D01*
X52809087Y-99821652D01*
X52826991Y-99831222D01*
X52862729Y-99860552D01*
X52964186Y-99943814D01*
X53012486Y-100002669D01*
X53076778Y-100081009D01*
X53076779Y-100081011D01*
X53160443Y-100237533D01*
X53160443Y-100237534D01*
X53211963Y-100407373D01*
X53229359Y-100584000D01*
X53211963Y-100760627D01*
X53190076Y-100832778D01*
X53160443Y-100930467D01*
X53133432Y-100981000D01*
X53076778Y-101086991D01*
X53047448Y-101122729D01*
X52964186Y-101224186D01*
X52862729Y-101307448D01*
X52826991Y-101336778D01*
X52826989Y-101336779D01*
X52670467Y-101420443D01*
X52613853Y-101437616D01*
X52500627Y-101471963D01*
X52434443Y-101478481D01*
X52368260Y-101485000D01*
X52279740Y-101485000D01*
X52213557Y-101478481D01*
X52147373Y-101471963D01*
X52034147Y-101437616D01*
X51977533Y-101420443D01*
X51821011Y-101336779D01*
X51821009Y-101336778D01*
X51785271Y-101307448D01*
X51683814Y-101224186D01*
X51600552Y-101122729D01*
X51571222Y-101086991D01*
X51514568Y-100981000D01*
X51487557Y-100930467D01*
X51457924Y-100832778D01*
X51436037Y-100760627D01*
X51418641Y-100584000D01*
X51436037Y-100407373D01*
X51487557Y-100237534D01*
X51487557Y-100237533D01*
X51571221Y-100081011D01*
X51571222Y-100081009D01*
X51635514Y-100002669D01*
X51683814Y-99943814D01*
X51785271Y-99860552D01*
X51821009Y-99831222D01*
X51838913Y-99821652D01*
X51977533Y-99747557D01*
X52034147Y-99730384D01*
X52147373Y-99696037D01*
X52213558Y-99689518D01*
X52279740Y-99683000D01*
X52368260Y-99683000D01*
X52434442Y-99689518D01*
X52434442Y-99689518D01*
G37*
G36*
X54974442Y-99689518D02*
X55040627Y-99696037D01*
X55153853Y-99730384D01*
X55210467Y-99747557D01*
X55349087Y-99821652D01*
X55366991Y-99831222D01*
X55402729Y-99860552D01*
X55504186Y-99943814D01*
X55552486Y-100002669D01*
X55616778Y-100081009D01*
X55616779Y-100081011D01*
X55700443Y-100237533D01*
X55700443Y-100237534D01*
X55751963Y-100407373D01*
X55769359Y-100584000D01*
X55751963Y-100760627D01*
X55730076Y-100832778D01*
X55700443Y-100930467D01*
X55673432Y-100981000D01*
X55616778Y-101086991D01*
X55587448Y-101122729D01*
X55504186Y-101224186D01*
X55402729Y-101307448D01*
X55366991Y-101336778D01*
X55366989Y-101336779D01*
X55210467Y-101420443D01*
X55153853Y-101437616D01*
X55040627Y-101471963D01*
X54974443Y-101478481D01*
X54908260Y-101485000D01*
X54819740Y-101485000D01*
X54753557Y-101478481D01*
X54687373Y-101471963D01*
X54574147Y-101437616D01*
X54517533Y-101420443D01*
X54361011Y-101336779D01*
X54361009Y-101336778D01*
X54325271Y-101307448D01*
X54223814Y-101224186D01*
X54140552Y-101122729D01*
X54111222Y-101086991D01*
X54054568Y-100981000D01*
X54027557Y-100930467D01*
X53997924Y-100832778D01*
X53976037Y-100760627D01*
X53958641Y-100584000D01*
X53976037Y-100407373D01*
X54027557Y-100237534D01*
X54027557Y-100237533D01*
X54111221Y-100081011D01*
X54111222Y-100081009D01*
X54175514Y-100002669D01*
X54223814Y-99943814D01*
X54325271Y-99860552D01*
X54361009Y-99831222D01*
X54378913Y-99821652D01*
X54517533Y-99747557D01*
X54574147Y-99730384D01*
X54687373Y-99696037D01*
X54753558Y-99689518D01*
X54819740Y-99683000D01*
X54908260Y-99683000D01*
X54974442Y-99689518D01*
X54974442Y-99689518D01*
G37*
G36*
X103650442Y-99185518D02*
X103716627Y-99192037D01*
X103829853Y-99226384D01*
X103886467Y-99243557D01*
X104025087Y-99317652D01*
X104042991Y-99327222D01*
X104078729Y-99356552D01*
X104180186Y-99439814D01*
X104245257Y-99519105D01*
X104292778Y-99577009D01*
X104292779Y-99577011D01*
X104376443Y-99733533D01*
X104376443Y-99733534D01*
X104427963Y-99903373D01*
X104445359Y-100080000D01*
X104427963Y-100256627D01*
X104393616Y-100369853D01*
X104376443Y-100426467D01*
X104302348Y-100565087D01*
X104292778Y-100582991D01*
X104263448Y-100618729D01*
X104180186Y-100720186D01*
X104078729Y-100803448D01*
X104042991Y-100832778D01*
X104042989Y-100832779D01*
X103886467Y-100916443D01*
X103840238Y-100930466D01*
X103716627Y-100967963D01*
X103650442Y-100974482D01*
X103584260Y-100981000D01*
X103495740Y-100981000D01*
X103429558Y-100974482D01*
X103363373Y-100967963D01*
X103239762Y-100930466D01*
X103193533Y-100916443D01*
X103037011Y-100832779D01*
X103037009Y-100832778D01*
X103001271Y-100803448D01*
X102899814Y-100720186D01*
X102816552Y-100618729D01*
X102787222Y-100582991D01*
X102777652Y-100565087D01*
X102703557Y-100426467D01*
X102686384Y-100369853D01*
X102652037Y-100256627D01*
X102634641Y-100080000D01*
X102652037Y-99903373D01*
X102703557Y-99733534D01*
X102703557Y-99733533D01*
X102787221Y-99577011D01*
X102787222Y-99577009D01*
X102834743Y-99519105D01*
X102899814Y-99439814D01*
X103001271Y-99356552D01*
X103037009Y-99327222D01*
X103054913Y-99317652D01*
X103193533Y-99243557D01*
X103250147Y-99226384D01*
X103363373Y-99192037D01*
X103429558Y-99185518D01*
X103495740Y-99179000D01*
X103584260Y-99179000D01*
X103650442Y-99185518D01*
X103650442Y-99185518D01*
G37*
G36*
X101110442Y-99185518D02*
X101176627Y-99192037D01*
X101289853Y-99226384D01*
X101346467Y-99243557D01*
X101485087Y-99317652D01*
X101502991Y-99327222D01*
X101538729Y-99356552D01*
X101640186Y-99439814D01*
X101705257Y-99519105D01*
X101752778Y-99577009D01*
X101752779Y-99577011D01*
X101836443Y-99733533D01*
X101836443Y-99733534D01*
X101887963Y-99903373D01*
X101905359Y-100080000D01*
X101887963Y-100256627D01*
X101853616Y-100369853D01*
X101836443Y-100426467D01*
X101762348Y-100565087D01*
X101752778Y-100582991D01*
X101723448Y-100618729D01*
X101640186Y-100720186D01*
X101538729Y-100803448D01*
X101502991Y-100832778D01*
X101502989Y-100832779D01*
X101346467Y-100916443D01*
X101300238Y-100930466D01*
X101176627Y-100967963D01*
X101110442Y-100974482D01*
X101044260Y-100981000D01*
X100955740Y-100981000D01*
X100889558Y-100974482D01*
X100823373Y-100967963D01*
X100699762Y-100930466D01*
X100653533Y-100916443D01*
X100497011Y-100832779D01*
X100497009Y-100832778D01*
X100461271Y-100803448D01*
X100359814Y-100720186D01*
X100276552Y-100618729D01*
X100247222Y-100582991D01*
X100237652Y-100565087D01*
X100163557Y-100426467D01*
X100146384Y-100369853D01*
X100112037Y-100256627D01*
X100094641Y-100080000D01*
X100112037Y-99903373D01*
X100163557Y-99733534D01*
X100163557Y-99733533D01*
X100247221Y-99577011D01*
X100247222Y-99577009D01*
X100294743Y-99519105D01*
X100359814Y-99439814D01*
X100461271Y-99356552D01*
X100497009Y-99327222D01*
X100514913Y-99317652D01*
X100653533Y-99243557D01*
X100710147Y-99226384D01*
X100823373Y-99192037D01*
X100889558Y-99185518D01*
X100955740Y-99179000D01*
X101044260Y-99179000D01*
X101110442Y-99185518D01*
X101110442Y-99185518D01*
G37*
G36*
X93833971Y-98320226D02*
X93868886Y-98330818D01*
X93901074Y-98348023D01*
X93929282Y-98371172D01*
X93952431Y-98399380D01*
X93969636Y-98431568D01*
X93980228Y-98466483D01*
X93984409Y-98508940D01*
X93984409Y-99975150D01*
X93980228Y-100017607D01*
X93969636Y-100052522D01*
X93952431Y-100084710D01*
X93929282Y-100112918D01*
X93901074Y-100136067D01*
X93868886Y-100153272D01*
X93833971Y-100163864D01*
X93791514Y-100168045D01*
X92650304Y-100168045D01*
X92607847Y-100163864D01*
X92572932Y-100153272D01*
X92540744Y-100136067D01*
X92512536Y-100112918D01*
X92489387Y-100084710D01*
X92472182Y-100052522D01*
X92461590Y-100017607D01*
X92457409Y-99975150D01*
X92457409Y-98508940D01*
X92461590Y-98466483D01*
X92472182Y-98431568D01*
X92489387Y-98399380D01*
X92512536Y-98371172D01*
X92540744Y-98348023D01*
X92572932Y-98330818D01*
X92607847Y-98320226D01*
X92650304Y-98316045D01*
X93791514Y-98316045D01*
X93833971Y-98320226D01*
X93833971Y-98320226D01*
G37*
G36*
X96808971Y-98320226D02*
X96843886Y-98330818D01*
X96876074Y-98348023D01*
X96904282Y-98371172D01*
X96927431Y-98399380D01*
X96944636Y-98431568D01*
X96955228Y-98466483D01*
X96959409Y-98508940D01*
X96959409Y-99975150D01*
X96955228Y-100017607D01*
X96944636Y-100052522D01*
X96927431Y-100084710D01*
X96904282Y-100112918D01*
X96876074Y-100136067D01*
X96843886Y-100153272D01*
X96808971Y-100163864D01*
X96766514Y-100168045D01*
X95625304Y-100168045D01*
X95582847Y-100163864D01*
X95547932Y-100153272D01*
X95515744Y-100136067D01*
X95487536Y-100112918D01*
X95464387Y-100084710D01*
X95447182Y-100052522D01*
X95436590Y-100017607D01*
X95432409Y-99975150D01*
X95432409Y-98508940D01*
X95436590Y-98466483D01*
X95447182Y-98431568D01*
X95464387Y-98399380D01*
X95487536Y-98371172D01*
X95515744Y-98348023D01*
X95547932Y-98330818D01*
X95582847Y-98320226D01*
X95625304Y-98316045D01*
X96766514Y-98316045D01*
X96808971Y-98320226D01*
X96808971Y-98320226D01*
G37*
G36*
X77483562Y-98264181D02*
X77518477Y-98274773D01*
X77550665Y-98291978D01*
X77578873Y-98315127D01*
X77602022Y-98343335D01*
X77619227Y-98375523D01*
X77629819Y-98410438D01*
X77634000Y-98452895D01*
X77634000Y-99594105D01*
X77629819Y-99636562D01*
X77619227Y-99671477D01*
X77602022Y-99703665D01*
X77578873Y-99731873D01*
X77550665Y-99755022D01*
X77518477Y-99772227D01*
X77483562Y-99782819D01*
X77441105Y-99787000D01*
X75974895Y-99787000D01*
X75932438Y-99782819D01*
X75897523Y-99772227D01*
X75865335Y-99755022D01*
X75837127Y-99731873D01*
X75813978Y-99703665D01*
X75796773Y-99671477D01*
X75786181Y-99636562D01*
X75782000Y-99594105D01*
X75782000Y-98452895D01*
X75786181Y-98410438D01*
X75796773Y-98375523D01*
X75813978Y-98343335D01*
X75837127Y-98315127D01*
X75865335Y-98291978D01*
X75897523Y-98274773D01*
X75932438Y-98264181D01*
X75974895Y-98260000D01*
X77441105Y-98260000D01*
X77483562Y-98264181D01*
X77483562Y-98264181D01*
G37*
G36*
X52434443Y-97149519D02*
X52500627Y-97156037D01*
X52613853Y-97190384D01*
X52670467Y-97207557D01*
X52809087Y-97281652D01*
X52826991Y-97291222D01*
X52862729Y-97320552D01*
X52964186Y-97403814D01*
X53047448Y-97505271D01*
X53076778Y-97541009D01*
X53076779Y-97541011D01*
X53160443Y-97697533D01*
X53160443Y-97697534D01*
X53211963Y-97867373D01*
X53229359Y-98044000D01*
X53211963Y-98220627D01*
X53190319Y-98291978D01*
X53160443Y-98390467D01*
X53133432Y-98441000D01*
X53076778Y-98546991D01*
X53047448Y-98582729D01*
X52964186Y-98684186D01*
X52862729Y-98767448D01*
X52826991Y-98796778D01*
X52826989Y-98796779D01*
X52670467Y-98880443D01*
X52613853Y-98897616D01*
X52500627Y-98931963D01*
X52434442Y-98938482D01*
X52368260Y-98945000D01*
X52279740Y-98945000D01*
X52213558Y-98938482D01*
X52147373Y-98931963D01*
X52034147Y-98897616D01*
X51977533Y-98880443D01*
X51821011Y-98796779D01*
X51821009Y-98796778D01*
X51785271Y-98767448D01*
X51683814Y-98684186D01*
X51600552Y-98582729D01*
X51571222Y-98546991D01*
X51514568Y-98441000D01*
X51487557Y-98390467D01*
X51457681Y-98291978D01*
X51436037Y-98220627D01*
X51418641Y-98044000D01*
X51436037Y-97867373D01*
X51487557Y-97697534D01*
X51487557Y-97697533D01*
X51571221Y-97541011D01*
X51571222Y-97541009D01*
X51600552Y-97505271D01*
X51683814Y-97403814D01*
X51785271Y-97320552D01*
X51821009Y-97291222D01*
X51838913Y-97281652D01*
X51977533Y-97207557D01*
X52034147Y-97190384D01*
X52147373Y-97156037D01*
X52213557Y-97149519D01*
X52279740Y-97143000D01*
X52368260Y-97143000D01*
X52434443Y-97149519D01*
X52434443Y-97149519D01*
G37*
G36*
X54974443Y-97149519D02*
X55040627Y-97156037D01*
X55153853Y-97190384D01*
X55210467Y-97207557D01*
X55349087Y-97281652D01*
X55366991Y-97291222D01*
X55402729Y-97320552D01*
X55504186Y-97403814D01*
X55587448Y-97505271D01*
X55616778Y-97541009D01*
X55616779Y-97541011D01*
X55700443Y-97697533D01*
X55700443Y-97697534D01*
X55751963Y-97867373D01*
X55769359Y-98044000D01*
X55751963Y-98220627D01*
X55730319Y-98291978D01*
X55700443Y-98390467D01*
X55673432Y-98441000D01*
X55616778Y-98546991D01*
X55587448Y-98582729D01*
X55504186Y-98684186D01*
X55402729Y-98767448D01*
X55366991Y-98796778D01*
X55366989Y-98796779D01*
X55210467Y-98880443D01*
X55153853Y-98897616D01*
X55040627Y-98931963D01*
X54974442Y-98938482D01*
X54908260Y-98945000D01*
X54819740Y-98945000D01*
X54753558Y-98938482D01*
X54687373Y-98931963D01*
X54574147Y-98897616D01*
X54517533Y-98880443D01*
X54361011Y-98796779D01*
X54361009Y-98796778D01*
X54325271Y-98767448D01*
X54223814Y-98684186D01*
X54140552Y-98582729D01*
X54111222Y-98546991D01*
X54054568Y-98441000D01*
X54027557Y-98390467D01*
X53997681Y-98291978D01*
X53976037Y-98220627D01*
X53958641Y-98044000D01*
X53976037Y-97867373D01*
X54027557Y-97697534D01*
X54027557Y-97697533D01*
X54111221Y-97541011D01*
X54111222Y-97541009D01*
X54140552Y-97505271D01*
X54223814Y-97403814D01*
X54325271Y-97320552D01*
X54361009Y-97291222D01*
X54378913Y-97281652D01*
X54517533Y-97207557D01*
X54574147Y-97190384D01*
X54687373Y-97156037D01*
X54753557Y-97149519D01*
X54819740Y-97143000D01*
X54908260Y-97143000D01*
X54974443Y-97149519D01*
X54974443Y-97149519D01*
G37*
G36*
X101110442Y-96645518D02*
X101176627Y-96652037D01*
X101289853Y-96686384D01*
X101346467Y-96703557D01*
X101464882Y-96766852D01*
X101502991Y-96787222D01*
X101508335Y-96791608D01*
X101640186Y-96899814D01*
X101723448Y-97001271D01*
X101752778Y-97037009D01*
X101752779Y-97037011D01*
X101836443Y-97193533D01*
X101836443Y-97193534D01*
X101887963Y-97363373D01*
X101905359Y-97540000D01*
X101887963Y-97716627D01*
X101853616Y-97829853D01*
X101836443Y-97886467D01*
X101762348Y-98025087D01*
X101752778Y-98042991D01*
X101723448Y-98078729D01*
X101640186Y-98180186D01*
X101542931Y-98260000D01*
X101502991Y-98292778D01*
X101502989Y-98292779D01*
X101346467Y-98376443D01*
X101337836Y-98379061D01*
X101176627Y-98427963D01*
X101110442Y-98434482D01*
X101044260Y-98441000D01*
X100955740Y-98441000D01*
X100889557Y-98434481D01*
X100823373Y-98427963D01*
X100662164Y-98379061D01*
X100653533Y-98376443D01*
X100497011Y-98292779D01*
X100497009Y-98292778D01*
X100457069Y-98260000D01*
X100359814Y-98180186D01*
X100276552Y-98078729D01*
X100247222Y-98042991D01*
X100237652Y-98025087D01*
X100163557Y-97886467D01*
X100146384Y-97829853D01*
X100112037Y-97716627D01*
X100094641Y-97540000D01*
X100112037Y-97363373D01*
X100163557Y-97193534D01*
X100163557Y-97193533D01*
X100247221Y-97037011D01*
X100247222Y-97037009D01*
X100276552Y-97001271D01*
X100359814Y-96899814D01*
X100491665Y-96791608D01*
X100497009Y-96787222D01*
X100535118Y-96766852D01*
X100653533Y-96703557D01*
X100710147Y-96686384D01*
X100823373Y-96652037D01*
X100889558Y-96645518D01*
X100955740Y-96639000D01*
X101044260Y-96639000D01*
X101110442Y-96645518D01*
X101110442Y-96645518D01*
G37*
G36*
X103650442Y-96645518D02*
X103716627Y-96652037D01*
X103829853Y-96686384D01*
X103886467Y-96703557D01*
X104004882Y-96766852D01*
X104042991Y-96787222D01*
X104048335Y-96791608D01*
X104180186Y-96899814D01*
X104263448Y-97001271D01*
X104292778Y-97037009D01*
X104292779Y-97037011D01*
X104376443Y-97193533D01*
X104376443Y-97193534D01*
X104427963Y-97363373D01*
X104445359Y-97540000D01*
X104427963Y-97716627D01*
X104393616Y-97829853D01*
X104376443Y-97886467D01*
X104302348Y-98025087D01*
X104292778Y-98042991D01*
X104263448Y-98078729D01*
X104180186Y-98180186D01*
X104082931Y-98260000D01*
X104042991Y-98292778D01*
X104042989Y-98292779D01*
X103886467Y-98376443D01*
X103877836Y-98379061D01*
X103716627Y-98427963D01*
X103650442Y-98434482D01*
X103584260Y-98441000D01*
X103495740Y-98441000D01*
X103429557Y-98434481D01*
X103363373Y-98427963D01*
X103202164Y-98379061D01*
X103193533Y-98376443D01*
X103037011Y-98292779D01*
X103037009Y-98292778D01*
X102997069Y-98260000D01*
X102899814Y-98180186D01*
X102816552Y-98078729D01*
X102787222Y-98042991D01*
X102777652Y-98025087D01*
X102703557Y-97886467D01*
X102686384Y-97829853D01*
X102652037Y-97716627D01*
X102634641Y-97540000D01*
X102652037Y-97363373D01*
X102703557Y-97193534D01*
X102703557Y-97193533D01*
X102787221Y-97037011D01*
X102787222Y-97037009D01*
X102816552Y-97001271D01*
X102899814Y-96899814D01*
X103031665Y-96791608D01*
X103037009Y-96787222D01*
X103075118Y-96766852D01*
X103193533Y-96703557D01*
X103250147Y-96686384D01*
X103363373Y-96652037D01*
X103429558Y-96645518D01*
X103495740Y-96639000D01*
X103584260Y-96639000D01*
X103650442Y-96645518D01*
X103650442Y-96645518D01*
G37*
G36*
X77483562Y-95289181D02*
X77518477Y-95299773D01*
X77550665Y-95316978D01*
X77578873Y-95340127D01*
X77602022Y-95368335D01*
X77619227Y-95400523D01*
X77629819Y-95435438D01*
X77634000Y-95477895D01*
X77634000Y-96619105D01*
X77629819Y-96661562D01*
X77619227Y-96696477D01*
X77602022Y-96728665D01*
X77578873Y-96756873D01*
X77550665Y-96780022D01*
X77518477Y-96797227D01*
X77483562Y-96807819D01*
X77441105Y-96812000D01*
X75974895Y-96812000D01*
X75932438Y-96807819D01*
X75897523Y-96797227D01*
X75865335Y-96780022D01*
X75837127Y-96756873D01*
X75813978Y-96728665D01*
X75796773Y-96696477D01*
X75786181Y-96661562D01*
X75782000Y-96619105D01*
X75782000Y-95477895D01*
X75786181Y-95435438D01*
X75796773Y-95400523D01*
X75813978Y-95368335D01*
X75837127Y-95340127D01*
X75865335Y-95316978D01*
X75897523Y-95299773D01*
X75932438Y-95289181D01*
X75974895Y-95285000D01*
X77441105Y-95285000D01*
X77483562Y-95289181D01*
X77483562Y-95289181D01*
G37*
G36*
X96808971Y-94709798D02*
X96843886Y-94720390D01*
X96876074Y-94737595D01*
X96904282Y-94760744D01*
X96927431Y-94788952D01*
X96944636Y-94821140D01*
X96955228Y-94856055D01*
X96959409Y-94898512D01*
X96959409Y-96364722D01*
X96955228Y-96407179D01*
X96944636Y-96442094D01*
X96927431Y-96474282D01*
X96904282Y-96502490D01*
X96876074Y-96525639D01*
X96843886Y-96542844D01*
X96808971Y-96553436D01*
X96766514Y-96557617D01*
X95625304Y-96557617D01*
X95582847Y-96553436D01*
X95547932Y-96542844D01*
X95515744Y-96525639D01*
X95487536Y-96502490D01*
X95464387Y-96474282D01*
X95447182Y-96442094D01*
X95436590Y-96407179D01*
X95432409Y-96364722D01*
X95432409Y-94898512D01*
X95436590Y-94856055D01*
X95447182Y-94821140D01*
X95464387Y-94788952D01*
X95487536Y-94760744D01*
X95515744Y-94737595D01*
X95547932Y-94720390D01*
X95582847Y-94709798D01*
X95625304Y-94705617D01*
X96766514Y-94705617D01*
X96808971Y-94709798D01*
X96808971Y-94709798D01*
G37*
G36*
X93833971Y-94709798D02*
X93868886Y-94720390D01*
X93901074Y-94737595D01*
X93929282Y-94760744D01*
X93952431Y-94788952D01*
X93969636Y-94821140D01*
X93980228Y-94856055D01*
X93984409Y-94898512D01*
X93984409Y-96364722D01*
X93980228Y-96407179D01*
X93969636Y-96442094D01*
X93952431Y-96474282D01*
X93929282Y-96502490D01*
X93901074Y-96525639D01*
X93868886Y-96542844D01*
X93833971Y-96553436D01*
X93791514Y-96557617D01*
X92650304Y-96557617D01*
X92607847Y-96553436D01*
X92572932Y-96542844D01*
X92540744Y-96525639D01*
X92512536Y-96502490D01*
X92489387Y-96474282D01*
X92472182Y-96442094D01*
X92461590Y-96407179D01*
X92457409Y-96364722D01*
X92457409Y-94898512D01*
X92461590Y-94856055D01*
X92472182Y-94821140D01*
X92489387Y-94788952D01*
X92512536Y-94760744D01*
X92540744Y-94737595D01*
X92572932Y-94720390D01*
X92607847Y-94709798D01*
X92650304Y-94705617D01*
X93791514Y-94705617D01*
X93833971Y-94709798D01*
X93833971Y-94709798D01*
G37*
G36*
X54974442Y-94609518D02*
X55040627Y-94616037D01*
X55153853Y-94650384D01*
X55210467Y-94667557D01*
X55281671Y-94705617D01*
X55366991Y-94751222D01*
X55402729Y-94780552D01*
X55504186Y-94863814D01*
X55587448Y-94965271D01*
X55616778Y-95001009D01*
X55616779Y-95001011D01*
X55700443Y-95157533D01*
X55700443Y-95157534D01*
X55751963Y-95327373D01*
X55769359Y-95504000D01*
X55751963Y-95680627D01*
X55730076Y-95752778D01*
X55700443Y-95850467D01*
X55673432Y-95901000D01*
X55616778Y-96006991D01*
X55587448Y-96042729D01*
X55504186Y-96144186D01*
X55402729Y-96227448D01*
X55366991Y-96256778D01*
X55366989Y-96256779D01*
X55210467Y-96340443D01*
X55153853Y-96357616D01*
X55040627Y-96391963D01*
X54974442Y-96398482D01*
X54908260Y-96405000D01*
X54819740Y-96405000D01*
X54753558Y-96398482D01*
X54687373Y-96391963D01*
X54574147Y-96357616D01*
X54517533Y-96340443D01*
X54361011Y-96256779D01*
X54361009Y-96256778D01*
X54325271Y-96227448D01*
X54223814Y-96144186D01*
X54140552Y-96042729D01*
X54111222Y-96006991D01*
X54054568Y-95901000D01*
X54027557Y-95850467D01*
X53997924Y-95752778D01*
X53976037Y-95680627D01*
X53958641Y-95504000D01*
X53976037Y-95327373D01*
X54027557Y-95157534D01*
X54027557Y-95157533D01*
X54111221Y-95001011D01*
X54111222Y-95001009D01*
X54140552Y-94965271D01*
X54223814Y-94863814D01*
X54325271Y-94780552D01*
X54361009Y-94751222D01*
X54446329Y-94705617D01*
X54517533Y-94667557D01*
X54574147Y-94650384D01*
X54687373Y-94616037D01*
X54753558Y-94609518D01*
X54819740Y-94603000D01*
X54908260Y-94603000D01*
X54974442Y-94609518D01*
X54974442Y-94609518D01*
G37*
G36*
X52434442Y-94609518D02*
X52500627Y-94616037D01*
X52613853Y-94650384D01*
X52670467Y-94667557D01*
X52741671Y-94705617D01*
X52826991Y-94751222D01*
X52862729Y-94780552D01*
X52964186Y-94863814D01*
X53047448Y-94965271D01*
X53076778Y-95001009D01*
X53076779Y-95001011D01*
X53160443Y-95157533D01*
X53160443Y-95157534D01*
X53211963Y-95327373D01*
X53229359Y-95504000D01*
X53211963Y-95680627D01*
X53190076Y-95752778D01*
X53160443Y-95850467D01*
X53133432Y-95901000D01*
X53076778Y-96006991D01*
X53047448Y-96042729D01*
X52964186Y-96144186D01*
X52862729Y-96227448D01*
X52826991Y-96256778D01*
X52826989Y-96256779D01*
X52670467Y-96340443D01*
X52613853Y-96357616D01*
X52500627Y-96391963D01*
X52434442Y-96398482D01*
X52368260Y-96405000D01*
X52279740Y-96405000D01*
X52213558Y-96398482D01*
X52147373Y-96391963D01*
X52034147Y-96357616D01*
X51977533Y-96340443D01*
X51821011Y-96256779D01*
X51821009Y-96256778D01*
X51785271Y-96227448D01*
X51683814Y-96144186D01*
X51600552Y-96042729D01*
X51571222Y-96006991D01*
X51514568Y-95901000D01*
X51487557Y-95850467D01*
X51457924Y-95752778D01*
X51436037Y-95680627D01*
X51418641Y-95504000D01*
X51436037Y-95327373D01*
X51487557Y-95157534D01*
X51487557Y-95157533D01*
X51571221Y-95001011D01*
X51571222Y-95001009D01*
X51600552Y-94965271D01*
X51683814Y-94863814D01*
X51785271Y-94780552D01*
X51821009Y-94751222D01*
X51906329Y-94705617D01*
X51977533Y-94667557D01*
X52034147Y-94650384D01*
X52147373Y-94616037D01*
X52213558Y-94609518D01*
X52279740Y-94603000D01*
X52368260Y-94603000D01*
X52434442Y-94609518D01*
X52434442Y-94609518D01*
G37*
G36*
X103650443Y-94105519D02*
X103716627Y-94112037D01*
X103829853Y-94146384D01*
X103886467Y-94163557D01*
X104025087Y-94237652D01*
X104042991Y-94247222D01*
X104078729Y-94276552D01*
X104180186Y-94359814D01*
X104263448Y-94461271D01*
X104292778Y-94497009D01*
X104292779Y-94497011D01*
X104376443Y-94653533D01*
X104376443Y-94653534D01*
X104427963Y-94823373D01*
X104445359Y-95000000D01*
X104427963Y-95176627D01*
X104395088Y-95285000D01*
X104376443Y-95346467D01*
X104367357Y-95363465D01*
X104292778Y-95502991D01*
X104263448Y-95538729D01*
X104180186Y-95640186D01*
X104078729Y-95723448D01*
X104042991Y-95752778D01*
X104042989Y-95752779D01*
X103886467Y-95836443D01*
X103840238Y-95850466D01*
X103716627Y-95887963D01*
X103650443Y-95894481D01*
X103584260Y-95901000D01*
X103495740Y-95901000D01*
X103429557Y-95894481D01*
X103363373Y-95887963D01*
X103239762Y-95850466D01*
X103193533Y-95836443D01*
X103037011Y-95752779D01*
X103037009Y-95752778D01*
X103001271Y-95723448D01*
X102899814Y-95640186D01*
X102816552Y-95538729D01*
X102787222Y-95502991D01*
X102712643Y-95363465D01*
X102703557Y-95346467D01*
X102684912Y-95285000D01*
X102652037Y-95176627D01*
X102634641Y-95000000D01*
X102652037Y-94823373D01*
X102703557Y-94653534D01*
X102703557Y-94653533D01*
X102787221Y-94497011D01*
X102787222Y-94497009D01*
X102816552Y-94461271D01*
X102899814Y-94359814D01*
X103001271Y-94276552D01*
X103037009Y-94247222D01*
X103054913Y-94237652D01*
X103193533Y-94163557D01*
X103250147Y-94146384D01*
X103363373Y-94112037D01*
X103429557Y-94105519D01*
X103495740Y-94099000D01*
X103584260Y-94099000D01*
X103650443Y-94105519D01*
X103650443Y-94105519D01*
G37*
G36*
X101901000Y-95901000D02*
X100099000Y-95901000D01*
X100099000Y-94099000D01*
X101901000Y-94099000D01*
X101901000Y-95901000D01*
X101901000Y-95901000D01*
G37*
G36*
X52434443Y-92069519D02*
X52500627Y-92076037D01*
X52613853Y-92110384D01*
X52670467Y-92127557D01*
X52809087Y-92201652D01*
X52826991Y-92211222D01*
X52862729Y-92240552D01*
X52964186Y-92323814D01*
X53047448Y-92425271D01*
X53076778Y-92461009D01*
X53076779Y-92461011D01*
X53160443Y-92617533D01*
X53160443Y-92617534D01*
X53211963Y-92787373D01*
X53229359Y-92964000D01*
X53211963Y-93140627D01*
X53177616Y-93253853D01*
X53160443Y-93310467D01*
X53086348Y-93449087D01*
X53076778Y-93466991D01*
X53047448Y-93502729D01*
X52964186Y-93604186D01*
X52862729Y-93687448D01*
X52826991Y-93716778D01*
X52826989Y-93716779D01*
X52670467Y-93800443D01*
X52613853Y-93817616D01*
X52500627Y-93851963D01*
X52434443Y-93858481D01*
X52368260Y-93865000D01*
X52279740Y-93865000D01*
X52213557Y-93858481D01*
X52147373Y-93851963D01*
X52034147Y-93817616D01*
X51977533Y-93800443D01*
X51821011Y-93716779D01*
X51821009Y-93716778D01*
X51785271Y-93687448D01*
X51683814Y-93604186D01*
X51600552Y-93502729D01*
X51571222Y-93466991D01*
X51561652Y-93449087D01*
X51487557Y-93310467D01*
X51470384Y-93253853D01*
X51436037Y-93140627D01*
X51418641Y-92964000D01*
X51436037Y-92787373D01*
X51487557Y-92617534D01*
X51487557Y-92617533D01*
X51571221Y-92461011D01*
X51571222Y-92461009D01*
X51600552Y-92425271D01*
X51683814Y-92323814D01*
X51785271Y-92240552D01*
X51821009Y-92211222D01*
X51838913Y-92201652D01*
X51977533Y-92127557D01*
X52034147Y-92110384D01*
X52147373Y-92076037D01*
X52213557Y-92069519D01*
X52279740Y-92063000D01*
X52368260Y-92063000D01*
X52434443Y-92069519D01*
X52434443Y-92069519D01*
G37*
G36*
X54974443Y-92069519D02*
X55040627Y-92076037D01*
X55153853Y-92110384D01*
X55210467Y-92127557D01*
X55349087Y-92201652D01*
X55366991Y-92211222D01*
X55402729Y-92240552D01*
X55504186Y-92323814D01*
X55587448Y-92425271D01*
X55616778Y-92461009D01*
X55616779Y-92461011D01*
X55700443Y-92617533D01*
X55700443Y-92617534D01*
X55751963Y-92787373D01*
X55769359Y-92964000D01*
X55751963Y-93140627D01*
X55717616Y-93253853D01*
X55700443Y-93310467D01*
X55626348Y-93449087D01*
X55616778Y-93466991D01*
X55587448Y-93502729D01*
X55504186Y-93604186D01*
X55402729Y-93687448D01*
X55366991Y-93716778D01*
X55366989Y-93716779D01*
X55210467Y-93800443D01*
X55153853Y-93817616D01*
X55040627Y-93851963D01*
X54974443Y-93858481D01*
X54908260Y-93865000D01*
X54819740Y-93865000D01*
X54753557Y-93858481D01*
X54687373Y-93851963D01*
X54574147Y-93817616D01*
X54517533Y-93800443D01*
X54361011Y-93716779D01*
X54361009Y-93716778D01*
X54325271Y-93687448D01*
X54223814Y-93604186D01*
X54140552Y-93502729D01*
X54111222Y-93466991D01*
X54101652Y-93449087D01*
X54027557Y-93310467D01*
X54010384Y-93253853D01*
X53976037Y-93140627D01*
X53958641Y-92964000D01*
X53976037Y-92787373D01*
X54027557Y-92617534D01*
X54027557Y-92617533D01*
X54111221Y-92461011D01*
X54111222Y-92461009D01*
X54140552Y-92425271D01*
X54223814Y-92323814D01*
X54325271Y-92240552D01*
X54361009Y-92211222D01*
X54378913Y-92201652D01*
X54517533Y-92127557D01*
X54574147Y-92110384D01*
X54687373Y-92076037D01*
X54753557Y-92069519D01*
X54819740Y-92063000D01*
X54908260Y-92063000D01*
X54974443Y-92069519D01*
X54974443Y-92069519D01*
G37*
G36*
X96808971Y-91099370D02*
X96843886Y-91109962D01*
X96876074Y-91127167D01*
X96904282Y-91150316D01*
X96927431Y-91178524D01*
X96944636Y-91210712D01*
X96955228Y-91245627D01*
X96959409Y-91288084D01*
X96959409Y-92754294D01*
X96955228Y-92796751D01*
X96944636Y-92831666D01*
X96927431Y-92863854D01*
X96904282Y-92892062D01*
X96876074Y-92915211D01*
X96843886Y-92932416D01*
X96808971Y-92943008D01*
X96766514Y-92947189D01*
X95625304Y-92947189D01*
X95582847Y-92943008D01*
X95547932Y-92932416D01*
X95515744Y-92915211D01*
X95487536Y-92892062D01*
X95464387Y-92863854D01*
X95447182Y-92831666D01*
X95436590Y-92796751D01*
X95432409Y-92754294D01*
X95432409Y-91288084D01*
X95436590Y-91245627D01*
X95447182Y-91210712D01*
X95464387Y-91178524D01*
X95487536Y-91150316D01*
X95515744Y-91127167D01*
X95547932Y-91109962D01*
X95582847Y-91099370D01*
X95625304Y-91095189D01*
X96766514Y-91095189D01*
X96808971Y-91099370D01*
X96808971Y-91099370D01*
G37*
G36*
X93833971Y-91099370D02*
X93868886Y-91109962D01*
X93901074Y-91127167D01*
X93929282Y-91150316D01*
X93952431Y-91178524D01*
X93969636Y-91210712D01*
X93980228Y-91245627D01*
X93984409Y-91288084D01*
X93984409Y-92754294D01*
X93980228Y-92796751D01*
X93969636Y-92831666D01*
X93952431Y-92863854D01*
X93929282Y-92892062D01*
X93901074Y-92915211D01*
X93868886Y-92932416D01*
X93833971Y-92943008D01*
X93791514Y-92947189D01*
X92650304Y-92947189D01*
X92607847Y-92943008D01*
X92572932Y-92932416D01*
X92540744Y-92915211D01*
X92512536Y-92892062D01*
X92489387Y-92863854D01*
X92472182Y-92831666D01*
X92461590Y-92796751D01*
X92457409Y-92754294D01*
X92457409Y-91288084D01*
X92461590Y-91245627D01*
X92472182Y-91210712D01*
X92489387Y-91178524D01*
X92512536Y-91150316D01*
X92540744Y-91127167D01*
X92572932Y-91109962D01*
X92607847Y-91099370D01*
X92650304Y-91095189D01*
X93791514Y-91095189D01*
X93833971Y-91099370D01*
X93833971Y-91099370D01*
G37*
G36*
X53818433Y-87134893D02*
X53908657Y-87152839D01*
X54014267Y-87196585D01*
X54163621Y-87258449D01*
X54393089Y-87411774D01*
X54588226Y-87606911D01*
X54741551Y-87836379D01*
X54803415Y-87985733D01*
X54847161Y-88091343D01*
X54901000Y-88362014D01*
X54901000Y-88637986D01*
X54847161Y-88908657D01*
X54837034Y-88933105D01*
X54741551Y-89163621D01*
X54588226Y-89393089D01*
X54393089Y-89588226D01*
X54163621Y-89741551D01*
X54014267Y-89803415D01*
X53908657Y-89847161D01*
X53818433Y-89865107D01*
X53637988Y-89901000D01*
X53362012Y-89901000D01*
X53181567Y-89865107D01*
X53091343Y-89847161D01*
X52985733Y-89803415D01*
X52836379Y-89741551D01*
X52606911Y-89588226D01*
X52411774Y-89393089D01*
X52258449Y-89163621D01*
X52162966Y-88933105D01*
X52152839Y-88908657D01*
X52099000Y-88637986D01*
X52099000Y-88362014D01*
X52152839Y-88091343D01*
X52196585Y-87985733D01*
X52258449Y-87836379D01*
X52411774Y-87606911D01*
X52606911Y-87411774D01*
X52836379Y-87258449D01*
X52985733Y-87196585D01*
X53091343Y-87152839D01*
X53181567Y-87134893D01*
X53362012Y-87099000D01*
X53637988Y-87099000D01*
X53818433Y-87134893D01*
X53818433Y-87134893D01*
G37*
G36*
X103318433Y-87134893D02*
X103408657Y-87152839D01*
X103514267Y-87196585D01*
X103663621Y-87258449D01*
X103893089Y-87411774D01*
X104088226Y-87606911D01*
X104241551Y-87836379D01*
X104303415Y-87985733D01*
X104347161Y-88091343D01*
X104401000Y-88362014D01*
X104401000Y-88637986D01*
X104347161Y-88908657D01*
X104337034Y-88933105D01*
X104241551Y-89163621D01*
X104088226Y-89393089D01*
X103893089Y-89588226D01*
X103663621Y-89741551D01*
X103514267Y-89803415D01*
X103408657Y-89847161D01*
X103318433Y-89865107D01*
X103137988Y-89901000D01*
X102862012Y-89901000D01*
X102681567Y-89865107D01*
X102591343Y-89847161D01*
X102485733Y-89803415D01*
X102336379Y-89741551D01*
X102106911Y-89588226D01*
X101911774Y-89393089D01*
X101758449Y-89163621D01*
X101662966Y-88933105D01*
X101652839Y-88908657D01*
X101599000Y-88637986D01*
X101599000Y-88362014D01*
X101652839Y-88091343D01*
X101696585Y-87985733D01*
X101758449Y-87836379D01*
X101911774Y-87606911D01*
X102106911Y-87411774D01*
X102336379Y-87258449D01*
X102485733Y-87196585D01*
X102591343Y-87152839D01*
X102681567Y-87134893D01*
X102862012Y-87099000D01*
X103137988Y-87099000D01*
X103318433Y-87134893D01*
X103318433Y-87134893D01*
G37*
G36*
X93813062Y-87278181D02*
X93847977Y-87288773D01*
X93880165Y-87305978D01*
X93908373Y-87329127D01*
X93931522Y-87357335D01*
X93948727Y-87389523D01*
X93959319Y-87424438D01*
X93963500Y-87466895D01*
X93963500Y-88933105D01*
X93959319Y-88975562D01*
X93948727Y-89010477D01*
X93931522Y-89042665D01*
X93908373Y-89070873D01*
X93880165Y-89094022D01*
X93847977Y-89111227D01*
X93813062Y-89121819D01*
X93770605Y-89126000D01*
X92629395Y-89126000D01*
X92586938Y-89121819D01*
X92552023Y-89111227D01*
X92519835Y-89094022D01*
X92491627Y-89070873D01*
X92468478Y-89042665D01*
X92451273Y-89010477D01*
X92440681Y-88975562D01*
X92436500Y-88933105D01*
X92436500Y-87466895D01*
X92440681Y-87424438D01*
X92451273Y-87389523D01*
X92468478Y-87357335D01*
X92491627Y-87329127D01*
X92519835Y-87305978D01*
X92552023Y-87288773D01*
X92586938Y-87278181D01*
X92629395Y-87274000D01*
X93770605Y-87274000D01*
X93813062Y-87278181D01*
X93813062Y-87278181D01*
G37*
G36*
X96788062Y-87278181D02*
X96822977Y-87288773D01*
X96855165Y-87305978D01*
X96883373Y-87329127D01*
X96906522Y-87357335D01*
X96923727Y-87389523D01*
X96934319Y-87424438D01*
X96938500Y-87466895D01*
X96938500Y-88933105D01*
X96934319Y-88975562D01*
X96923727Y-89010477D01*
X96906522Y-89042665D01*
X96883373Y-89070873D01*
X96855165Y-89094022D01*
X96822977Y-89111227D01*
X96788062Y-89121819D01*
X96745605Y-89126000D01*
X95604395Y-89126000D01*
X95561938Y-89121819D01*
X95527023Y-89111227D01*
X95494835Y-89094022D01*
X95466627Y-89070873D01*
X95443478Y-89042665D01*
X95426273Y-89010477D01*
X95415681Y-88975562D01*
X95411500Y-88933105D01*
X95411500Y-87466895D01*
X95415681Y-87424438D01*
X95426273Y-87389523D01*
X95443478Y-87357335D01*
X95466627Y-87329127D01*
X95494835Y-87305978D01*
X95527023Y-87288773D01*
X95561938Y-87278181D01*
X95604395Y-87274000D01*
X96745605Y-87274000D01*
X96788062Y-87278181D01*
X96788062Y-87278181D01*
G37*
M02*
