%TF.GenerationSoftware,KiCad,Pcbnew,5.0.2-bee76a0~70~ubuntu18.04.1*%
%TF.CreationDate,2019-03-20T18:43:48-06:00*%
%TF.ProjectId,Pi_Breakout_Board,50695f42-7265-4616-9b6f-75745f426f61,rev?*%
%TF.SameCoordinates,Original*%
%TF.FileFunction,Paste,Bot*%
%TF.FilePolarity,Positive*%
%FSLAX46Y46*%
G04 Gerber Fmt 4.6, Leading zero omitted, Abs format (unit mm)*
G04 Created by KiCad (PCBNEW 5.0.2-bee76a0~70~ubuntu18.04.1) date Wed 20 Mar 2019 06:43:48 PM MDT*
%MOMM*%
%LPD*%
G01*
G04 APERTURE LIST*
%ADD10C,0.100000*%
%ADD11C,1.425000*%
G04 APERTURE END LIST*
D10*
%TO.C,C6*%
G36*
X73235504Y-110504204D02*
X73259773Y-110507804D01*
X73283571Y-110513765D01*
X73306671Y-110522030D01*
X73328849Y-110532520D01*
X73349893Y-110545133D01*
X73369598Y-110559747D01*
X73387777Y-110576223D01*
X73404253Y-110594402D01*
X73418867Y-110614107D01*
X73431480Y-110635151D01*
X73441970Y-110657329D01*
X73450235Y-110680429D01*
X73456196Y-110704227D01*
X73459796Y-110728496D01*
X73461000Y-110753000D01*
X73461000Y-111678000D01*
X73459796Y-111702504D01*
X73456196Y-111726773D01*
X73450235Y-111750571D01*
X73441970Y-111773671D01*
X73431480Y-111795849D01*
X73418867Y-111816893D01*
X73404253Y-111836598D01*
X73387777Y-111854777D01*
X73369598Y-111871253D01*
X73349893Y-111885867D01*
X73328849Y-111898480D01*
X73306671Y-111908970D01*
X73283571Y-111917235D01*
X73259773Y-111923196D01*
X73235504Y-111926796D01*
X73211000Y-111928000D01*
X71061000Y-111928000D01*
X71036496Y-111926796D01*
X71012227Y-111923196D01*
X70988429Y-111917235D01*
X70965329Y-111908970D01*
X70943151Y-111898480D01*
X70922107Y-111885867D01*
X70902402Y-111871253D01*
X70884223Y-111854777D01*
X70867747Y-111836598D01*
X70853133Y-111816893D01*
X70840520Y-111795849D01*
X70830030Y-111773671D01*
X70821765Y-111750571D01*
X70815804Y-111726773D01*
X70812204Y-111702504D01*
X70811000Y-111678000D01*
X70811000Y-110753000D01*
X70812204Y-110728496D01*
X70815804Y-110704227D01*
X70821765Y-110680429D01*
X70830030Y-110657329D01*
X70840520Y-110635151D01*
X70853133Y-110614107D01*
X70867747Y-110594402D01*
X70884223Y-110576223D01*
X70902402Y-110559747D01*
X70922107Y-110545133D01*
X70943151Y-110532520D01*
X70965329Y-110522030D01*
X70988429Y-110513765D01*
X71012227Y-110507804D01*
X71036496Y-110504204D01*
X71061000Y-110503000D01*
X73211000Y-110503000D01*
X73235504Y-110504204D01*
X73235504Y-110504204D01*
G37*
D11*
X72136000Y-111215500D03*
D10*
G36*
X73235504Y-107529204D02*
X73259773Y-107532804D01*
X73283571Y-107538765D01*
X73306671Y-107547030D01*
X73328849Y-107557520D01*
X73349893Y-107570133D01*
X73369598Y-107584747D01*
X73387777Y-107601223D01*
X73404253Y-107619402D01*
X73418867Y-107639107D01*
X73431480Y-107660151D01*
X73441970Y-107682329D01*
X73450235Y-107705429D01*
X73456196Y-107729227D01*
X73459796Y-107753496D01*
X73461000Y-107778000D01*
X73461000Y-108703000D01*
X73459796Y-108727504D01*
X73456196Y-108751773D01*
X73450235Y-108775571D01*
X73441970Y-108798671D01*
X73431480Y-108820849D01*
X73418867Y-108841893D01*
X73404253Y-108861598D01*
X73387777Y-108879777D01*
X73369598Y-108896253D01*
X73349893Y-108910867D01*
X73328849Y-108923480D01*
X73306671Y-108933970D01*
X73283571Y-108942235D01*
X73259773Y-108948196D01*
X73235504Y-108951796D01*
X73211000Y-108953000D01*
X71061000Y-108953000D01*
X71036496Y-108951796D01*
X71012227Y-108948196D01*
X70988429Y-108942235D01*
X70965329Y-108933970D01*
X70943151Y-108923480D01*
X70922107Y-108910867D01*
X70902402Y-108896253D01*
X70884223Y-108879777D01*
X70867747Y-108861598D01*
X70853133Y-108841893D01*
X70840520Y-108820849D01*
X70830030Y-108798671D01*
X70821765Y-108775571D01*
X70815804Y-108751773D01*
X70812204Y-108727504D01*
X70811000Y-108703000D01*
X70811000Y-107778000D01*
X70812204Y-107753496D01*
X70815804Y-107729227D01*
X70821765Y-107705429D01*
X70830030Y-107682329D01*
X70840520Y-107660151D01*
X70853133Y-107639107D01*
X70867747Y-107619402D01*
X70884223Y-107601223D01*
X70902402Y-107584747D01*
X70922107Y-107570133D01*
X70943151Y-107557520D01*
X70965329Y-107547030D01*
X70988429Y-107538765D01*
X71012227Y-107532804D01*
X71036496Y-107529204D01*
X71061000Y-107528000D01*
X73211000Y-107528000D01*
X73235504Y-107529204D01*
X73235504Y-107529204D01*
G37*
D11*
X72136000Y-108240500D03*
%TD*%
D10*
%TO.C,C7*%
G36*
X77045504Y-107565704D02*
X77069773Y-107569304D01*
X77093571Y-107575265D01*
X77116671Y-107583530D01*
X77138849Y-107594020D01*
X77159893Y-107606633D01*
X77179598Y-107621247D01*
X77197777Y-107637723D01*
X77214253Y-107655902D01*
X77228867Y-107675607D01*
X77241480Y-107696651D01*
X77251970Y-107718829D01*
X77260235Y-107741929D01*
X77266196Y-107765727D01*
X77269796Y-107789996D01*
X77271000Y-107814500D01*
X77271000Y-108739500D01*
X77269796Y-108764004D01*
X77266196Y-108788273D01*
X77260235Y-108812071D01*
X77251970Y-108835171D01*
X77241480Y-108857349D01*
X77228867Y-108878393D01*
X77214253Y-108898098D01*
X77197777Y-108916277D01*
X77179598Y-108932753D01*
X77159893Y-108947367D01*
X77138849Y-108959980D01*
X77116671Y-108970470D01*
X77093571Y-108978735D01*
X77069773Y-108984696D01*
X77045504Y-108988296D01*
X77021000Y-108989500D01*
X74871000Y-108989500D01*
X74846496Y-108988296D01*
X74822227Y-108984696D01*
X74798429Y-108978735D01*
X74775329Y-108970470D01*
X74753151Y-108959980D01*
X74732107Y-108947367D01*
X74712402Y-108932753D01*
X74694223Y-108916277D01*
X74677747Y-108898098D01*
X74663133Y-108878393D01*
X74650520Y-108857349D01*
X74640030Y-108835171D01*
X74631765Y-108812071D01*
X74625804Y-108788273D01*
X74622204Y-108764004D01*
X74621000Y-108739500D01*
X74621000Y-107814500D01*
X74622204Y-107789996D01*
X74625804Y-107765727D01*
X74631765Y-107741929D01*
X74640030Y-107718829D01*
X74650520Y-107696651D01*
X74663133Y-107675607D01*
X74677747Y-107655902D01*
X74694223Y-107637723D01*
X74712402Y-107621247D01*
X74732107Y-107606633D01*
X74753151Y-107594020D01*
X74775329Y-107583530D01*
X74798429Y-107575265D01*
X74822227Y-107569304D01*
X74846496Y-107565704D01*
X74871000Y-107564500D01*
X77021000Y-107564500D01*
X77045504Y-107565704D01*
X77045504Y-107565704D01*
G37*
D11*
X75946000Y-108277000D03*
D10*
G36*
X77045504Y-110540704D02*
X77069773Y-110544304D01*
X77093571Y-110550265D01*
X77116671Y-110558530D01*
X77138849Y-110569020D01*
X77159893Y-110581633D01*
X77179598Y-110596247D01*
X77197777Y-110612723D01*
X77214253Y-110630902D01*
X77228867Y-110650607D01*
X77241480Y-110671651D01*
X77251970Y-110693829D01*
X77260235Y-110716929D01*
X77266196Y-110740727D01*
X77269796Y-110764996D01*
X77271000Y-110789500D01*
X77271000Y-111714500D01*
X77269796Y-111739004D01*
X77266196Y-111763273D01*
X77260235Y-111787071D01*
X77251970Y-111810171D01*
X77241480Y-111832349D01*
X77228867Y-111853393D01*
X77214253Y-111873098D01*
X77197777Y-111891277D01*
X77179598Y-111907753D01*
X77159893Y-111922367D01*
X77138849Y-111934980D01*
X77116671Y-111945470D01*
X77093571Y-111953735D01*
X77069773Y-111959696D01*
X77045504Y-111963296D01*
X77021000Y-111964500D01*
X74871000Y-111964500D01*
X74846496Y-111963296D01*
X74822227Y-111959696D01*
X74798429Y-111953735D01*
X74775329Y-111945470D01*
X74753151Y-111934980D01*
X74732107Y-111922367D01*
X74712402Y-111907753D01*
X74694223Y-111891277D01*
X74677747Y-111873098D01*
X74663133Y-111853393D01*
X74650520Y-111832349D01*
X74640030Y-111810171D01*
X74631765Y-111787071D01*
X74625804Y-111763273D01*
X74622204Y-111739004D01*
X74621000Y-111714500D01*
X74621000Y-110789500D01*
X74622204Y-110764996D01*
X74625804Y-110740727D01*
X74631765Y-110716929D01*
X74640030Y-110693829D01*
X74650520Y-110671651D01*
X74663133Y-110650607D01*
X74677747Y-110630902D01*
X74694223Y-110612723D01*
X74712402Y-110596247D01*
X74732107Y-110581633D01*
X74753151Y-110569020D01*
X74775329Y-110558530D01*
X74798429Y-110550265D01*
X74822227Y-110544304D01*
X74846496Y-110540704D01*
X74871000Y-110539500D01*
X77021000Y-110539500D01*
X77045504Y-110540704D01*
X77045504Y-110540704D01*
G37*
D11*
X75946000Y-111252000D03*
%TD*%
D10*
%TO.C,C9*%
G36*
X58907004Y-135582204D02*
X58931273Y-135585804D01*
X58955071Y-135591765D01*
X58978171Y-135600030D01*
X59000349Y-135610520D01*
X59021393Y-135623133D01*
X59041098Y-135637747D01*
X59059277Y-135654223D01*
X59075753Y-135672402D01*
X59090367Y-135692107D01*
X59102980Y-135713151D01*
X59113470Y-135735329D01*
X59121735Y-135758429D01*
X59127696Y-135782227D01*
X59131296Y-135806496D01*
X59132500Y-135831000D01*
X59132500Y-137981000D01*
X59131296Y-138005504D01*
X59127696Y-138029773D01*
X59121735Y-138053571D01*
X59113470Y-138076671D01*
X59102980Y-138098849D01*
X59090367Y-138119893D01*
X59075753Y-138139598D01*
X59059277Y-138157777D01*
X59041098Y-138174253D01*
X59021393Y-138188867D01*
X59000349Y-138201480D01*
X58978171Y-138211970D01*
X58955071Y-138220235D01*
X58931273Y-138226196D01*
X58907004Y-138229796D01*
X58882500Y-138231000D01*
X57957500Y-138231000D01*
X57932996Y-138229796D01*
X57908727Y-138226196D01*
X57884929Y-138220235D01*
X57861829Y-138211970D01*
X57839651Y-138201480D01*
X57818607Y-138188867D01*
X57798902Y-138174253D01*
X57780723Y-138157777D01*
X57764247Y-138139598D01*
X57749633Y-138119893D01*
X57737020Y-138098849D01*
X57726530Y-138076671D01*
X57718265Y-138053571D01*
X57712304Y-138029773D01*
X57708704Y-138005504D01*
X57707500Y-137981000D01*
X57707500Y-135831000D01*
X57708704Y-135806496D01*
X57712304Y-135782227D01*
X57718265Y-135758429D01*
X57726530Y-135735329D01*
X57737020Y-135713151D01*
X57749633Y-135692107D01*
X57764247Y-135672402D01*
X57780723Y-135654223D01*
X57798902Y-135637747D01*
X57818607Y-135623133D01*
X57839651Y-135610520D01*
X57861829Y-135600030D01*
X57884929Y-135591765D01*
X57908727Y-135585804D01*
X57932996Y-135582204D01*
X57957500Y-135581000D01*
X58882500Y-135581000D01*
X58907004Y-135582204D01*
X58907004Y-135582204D01*
G37*
D11*
X58420000Y-136906000D03*
D10*
G36*
X61882004Y-135582204D02*
X61906273Y-135585804D01*
X61930071Y-135591765D01*
X61953171Y-135600030D01*
X61975349Y-135610520D01*
X61996393Y-135623133D01*
X62016098Y-135637747D01*
X62034277Y-135654223D01*
X62050753Y-135672402D01*
X62065367Y-135692107D01*
X62077980Y-135713151D01*
X62088470Y-135735329D01*
X62096735Y-135758429D01*
X62102696Y-135782227D01*
X62106296Y-135806496D01*
X62107500Y-135831000D01*
X62107500Y-137981000D01*
X62106296Y-138005504D01*
X62102696Y-138029773D01*
X62096735Y-138053571D01*
X62088470Y-138076671D01*
X62077980Y-138098849D01*
X62065367Y-138119893D01*
X62050753Y-138139598D01*
X62034277Y-138157777D01*
X62016098Y-138174253D01*
X61996393Y-138188867D01*
X61975349Y-138201480D01*
X61953171Y-138211970D01*
X61930071Y-138220235D01*
X61906273Y-138226196D01*
X61882004Y-138229796D01*
X61857500Y-138231000D01*
X60932500Y-138231000D01*
X60907996Y-138229796D01*
X60883727Y-138226196D01*
X60859929Y-138220235D01*
X60836829Y-138211970D01*
X60814651Y-138201480D01*
X60793607Y-138188867D01*
X60773902Y-138174253D01*
X60755723Y-138157777D01*
X60739247Y-138139598D01*
X60724633Y-138119893D01*
X60712020Y-138098849D01*
X60701530Y-138076671D01*
X60693265Y-138053571D01*
X60687304Y-138029773D01*
X60683704Y-138005504D01*
X60682500Y-137981000D01*
X60682500Y-135831000D01*
X60683704Y-135806496D01*
X60687304Y-135782227D01*
X60693265Y-135758429D01*
X60701530Y-135735329D01*
X60712020Y-135713151D01*
X60724633Y-135692107D01*
X60739247Y-135672402D01*
X60755723Y-135654223D01*
X60773902Y-135637747D01*
X60793607Y-135623133D01*
X60814651Y-135610520D01*
X60836829Y-135600030D01*
X60859929Y-135591765D01*
X60883727Y-135585804D01*
X60907996Y-135582204D01*
X60932500Y-135581000D01*
X61857500Y-135581000D01*
X61882004Y-135582204D01*
X61882004Y-135582204D01*
G37*
D11*
X61395000Y-136906000D03*
%TD*%
D10*
%TO.C,C10*%
G36*
X58943504Y-139646204D02*
X58967773Y-139649804D01*
X58991571Y-139655765D01*
X59014671Y-139664030D01*
X59036849Y-139674520D01*
X59057893Y-139687133D01*
X59077598Y-139701747D01*
X59095777Y-139718223D01*
X59112253Y-139736402D01*
X59126867Y-139756107D01*
X59139480Y-139777151D01*
X59149970Y-139799329D01*
X59158235Y-139822429D01*
X59164196Y-139846227D01*
X59167796Y-139870496D01*
X59169000Y-139895000D01*
X59169000Y-142045000D01*
X59167796Y-142069504D01*
X59164196Y-142093773D01*
X59158235Y-142117571D01*
X59149970Y-142140671D01*
X59139480Y-142162849D01*
X59126867Y-142183893D01*
X59112253Y-142203598D01*
X59095777Y-142221777D01*
X59077598Y-142238253D01*
X59057893Y-142252867D01*
X59036849Y-142265480D01*
X59014671Y-142275970D01*
X58991571Y-142284235D01*
X58967773Y-142290196D01*
X58943504Y-142293796D01*
X58919000Y-142295000D01*
X57994000Y-142295000D01*
X57969496Y-142293796D01*
X57945227Y-142290196D01*
X57921429Y-142284235D01*
X57898329Y-142275970D01*
X57876151Y-142265480D01*
X57855107Y-142252867D01*
X57835402Y-142238253D01*
X57817223Y-142221777D01*
X57800747Y-142203598D01*
X57786133Y-142183893D01*
X57773520Y-142162849D01*
X57763030Y-142140671D01*
X57754765Y-142117571D01*
X57748804Y-142093773D01*
X57745204Y-142069504D01*
X57744000Y-142045000D01*
X57744000Y-139895000D01*
X57745204Y-139870496D01*
X57748804Y-139846227D01*
X57754765Y-139822429D01*
X57763030Y-139799329D01*
X57773520Y-139777151D01*
X57786133Y-139756107D01*
X57800747Y-139736402D01*
X57817223Y-139718223D01*
X57835402Y-139701747D01*
X57855107Y-139687133D01*
X57876151Y-139674520D01*
X57898329Y-139664030D01*
X57921429Y-139655765D01*
X57945227Y-139649804D01*
X57969496Y-139646204D01*
X57994000Y-139645000D01*
X58919000Y-139645000D01*
X58943504Y-139646204D01*
X58943504Y-139646204D01*
G37*
D11*
X58456500Y-140970000D03*
D10*
G36*
X61918504Y-139646204D02*
X61942773Y-139649804D01*
X61966571Y-139655765D01*
X61989671Y-139664030D01*
X62011849Y-139674520D01*
X62032893Y-139687133D01*
X62052598Y-139701747D01*
X62070777Y-139718223D01*
X62087253Y-139736402D01*
X62101867Y-139756107D01*
X62114480Y-139777151D01*
X62124970Y-139799329D01*
X62133235Y-139822429D01*
X62139196Y-139846227D01*
X62142796Y-139870496D01*
X62144000Y-139895000D01*
X62144000Y-142045000D01*
X62142796Y-142069504D01*
X62139196Y-142093773D01*
X62133235Y-142117571D01*
X62124970Y-142140671D01*
X62114480Y-142162849D01*
X62101867Y-142183893D01*
X62087253Y-142203598D01*
X62070777Y-142221777D01*
X62052598Y-142238253D01*
X62032893Y-142252867D01*
X62011849Y-142265480D01*
X61989671Y-142275970D01*
X61966571Y-142284235D01*
X61942773Y-142290196D01*
X61918504Y-142293796D01*
X61894000Y-142295000D01*
X60969000Y-142295000D01*
X60944496Y-142293796D01*
X60920227Y-142290196D01*
X60896429Y-142284235D01*
X60873329Y-142275970D01*
X60851151Y-142265480D01*
X60830107Y-142252867D01*
X60810402Y-142238253D01*
X60792223Y-142221777D01*
X60775747Y-142203598D01*
X60761133Y-142183893D01*
X60748520Y-142162849D01*
X60738030Y-142140671D01*
X60729765Y-142117571D01*
X60723804Y-142093773D01*
X60720204Y-142069504D01*
X60719000Y-142045000D01*
X60719000Y-139895000D01*
X60720204Y-139870496D01*
X60723804Y-139846227D01*
X60729765Y-139822429D01*
X60738030Y-139799329D01*
X60748520Y-139777151D01*
X60761133Y-139756107D01*
X60775747Y-139736402D01*
X60792223Y-139718223D01*
X60810402Y-139701747D01*
X60830107Y-139687133D01*
X60851151Y-139674520D01*
X60873329Y-139664030D01*
X60896429Y-139655765D01*
X60920227Y-139649804D01*
X60944496Y-139646204D01*
X60969000Y-139645000D01*
X61894000Y-139645000D01*
X61918504Y-139646204D01*
X61918504Y-139646204D01*
G37*
D11*
X61431500Y-140970000D03*
%TD*%
D10*
%TO.C,R8*%
G36*
X77357504Y-98312204D02*
X77381773Y-98315804D01*
X77405571Y-98321765D01*
X77428671Y-98330030D01*
X77450849Y-98340520D01*
X77471893Y-98353133D01*
X77491598Y-98367747D01*
X77509777Y-98384223D01*
X77526253Y-98402402D01*
X77540867Y-98422107D01*
X77553480Y-98443151D01*
X77563970Y-98465329D01*
X77572235Y-98488429D01*
X77578196Y-98512227D01*
X77581796Y-98536496D01*
X77583000Y-98561000D01*
X77583000Y-99486000D01*
X77581796Y-99510504D01*
X77578196Y-99534773D01*
X77572235Y-99558571D01*
X77563970Y-99581671D01*
X77553480Y-99603849D01*
X77540867Y-99624893D01*
X77526253Y-99644598D01*
X77509777Y-99662777D01*
X77491598Y-99679253D01*
X77471893Y-99693867D01*
X77450849Y-99706480D01*
X77428671Y-99716970D01*
X77405571Y-99725235D01*
X77381773Y-99731196D01*
X77357504Y-99734796D01*
X77333000Y-99736000D01*
X76083000Y-99736000D01*
X76058496Y-99734796D01*
X76034227Y-99731196D01*
X76010429Y-99725235D01*
X75987329Y-99716970D01*
X75965151Y-99706480D01*
X75944107Y-99693867D01*
X75924402Y-99679253D01*
X75906223Y-99662777D01*
X75889747Y-99644598D01*
X75875133Y-99624893D01*
X75862520Y-99603849D01*
X75852030Y-99581671D01*
X75843765Y-99558571D01*
X75837804Y-99534773D01*
X75834204Y-99510504D01*
X75833000Y-99486000D01*
X75833000Y-98561000D01*
X75834204Y-98536496D01*
X75837804Y-98512227D01*
X75843765Y-98488429D01*
X75852030Y-98465329D01*
X75862520Y-98443151D01*
X75875133Y-98422107D01*
X75889747Y-98402402D01*
X75906223Y-98384223D01*
X75924402Y-98367747D01*
X75944107Y-98353133D01*
X75965151Y-98340520D01*
X75987329Y-98330030D01*
X76010429Y-98321765D01*
X76034227Y-98315804D01*
X76058496Y-98312204D01*
X76083000Y-98311000D01*
X77333000Y-98311000D01*
X77357504Y-98312204D01*
X77357504Y-98312204D01*
G37*
D11*
X76708000Y-99023500D03*
D10*
G36*
X77357504Y-95337204D02*
X77381773Y-95340804D01*
X77405571Y-95346765D01*
X77428671Y-95355030D01*
X77450849Y-95365520D01*
X77471893Y-95378133D01*
X77491598Y-95392747D01*
X77509777Y-95409223D01*
X77526253Y-95427402D01*
X77540867Y-95447107D01*
X77553480Y-95468151D01*
X77563970Y-95490329D01*
X77572235Y-95513429D01*
X77578196Y-95537227D01*
X77581796Y-95561496D01*
X77583000Y-95586000D01*
X77583000Y-96511000D01*
X77581796Y-96535504D01*
X77578196Y-96559773D01*
X77572235Y-96583571D01*
X77563970Y-96606671D01*
X77553480Y-96628849D01*
X77540867Y-96649893D01*
X77526253Y-96669598D01*
X77509777Y-96687777D01*
X77491598Y-96704253D01*
X77471893Y-96718867D01*
X77450849Y-96731480D01*
X77428671Y-96741970D01*
X77405571Y-96750235D01*
X77381773Y-96756196D01*
X77357504Y-96759796D01*
X77333000Y-96761000D01*
X76083000Y-96761000D01*
X76058496Y-96759796D01*
X76034227Y-96756196D01*
X76010429Y-96750235D01*
X75987329Y-96741970D01*
X75965151Y-96731480D01*
X75944107Y-96718867D01*
X75924402Y-96704253D01*
X75906223Y-96687777D01*
X75889747Y-96669598D01*
X75875133Y-96649893D01*
X75862520Y-96628849D01*
X75852030Y-96606671D01*
X75843765Y-96583571D01*
X75837804Y-96559773D01*
X75834204Y-96535504D01*
X75833000Y-96511000D01*
X75833000Y-95586000D01*
X75834204Y-95561496D01*
X75837804Y-95537227D01*
X75843765Y-95513429D01*
X75852030Y-95490329D01*
X75862520Y-95468151D01*
X75875133Y-95447107D01*
X75889747Y-95427402D01*
X75906223Y-95409223D01*
X75924402Y-95392747D01*
X75944107Y-95378133D01*
X75965151Y-95365520D01*
X75987329Y-95355030D01*
X76010429Y-95346765D01*
X76034227Y-95340804D01*
X76058496Y-95337204D01*
X76083000Y-95336000D01*
X77333000Y-95336000D01*
X77357504Y-95337204D01*
X77357504Y-95337204D01*
G37*
D11*
X76708000Y-96048500D03*
%TD*%
D10*
%TO.C,R10*%
G36*
X71607004Y-123586204D02*
X71631273Y-123589804D01*
X71655071Y-123595765D01*
X71678171Y-123604030D01*
X71700349Y-123614520D01*
X71721393Y-123627133D01*
X71741098Y-123641747D01*
X71759277Y-123658223D01*
X71775753Y-123676402D01*
X71790367Y-123696107D01*
X71802980Y-123717151D01*
X71813470Y-123739329D01*
X71821735Y-123762429D01*
X71827696Y-123786227D01*
X71831296Y-123810496D01*
X71832500Y-123835000D01*
X71832500Y-125085000D01*
X71831296Y-125109504D01*
X71827696Y-125133773D01*
X71821735Y-125157571D01*
X71813470Y-125180671D01*
X71802980Y-125202849D01*
X71790367Y-125223893D01*
X71775753Y-125243598D01*
X71759277Y-125261777D01*
X71741098Y-125278253D01*
X71721393Y-125292867D01*
X71700349Y-125305480D01*
X71678171Y-125315970D01*
X71655071Y-125324235D01*
X71631273Y-125330196D01*
X71607004Y-125333796D01*
X71582500Y-125335000D01*
X70657500Y-125335000D01*
X70632996Y-125333796D01*
X70608727Y-125330196D01*
X70584929Y-125324235D01*
X70561829Y-125315970D01*
X70539651Y-125305480D01*
X70518607Y-125292867D01*
X70498902Y-125278253D01*
X70480723Y-125261777D01*
X70464247Y-125243598D01*
X70449633Y-125223893D01*
X70437020Y-125202849D01*
X70426530Y-125180671D01*
X70418265Y-125157571D01*
X70412304Y-125133773D01*
X70408704Y-125109504D01*
X70407500Y-125085000D01*
X70407500Y-123835000D01*
X70408704Y-123810496D01*
X70412304Y-123786227D01*
X70418265Y-123762429D01*
X70426530Y-123739329D01*
X70437020Y-123717151D01*
X70449633Y-123696107D01*
X70464247Y-123676402D01*
X70480723Y-123658223D01*
X70498902Y-123641747D01*
X70518607Y-123627133D01*
X70539651Y-123614520D01*
X70561829Y-123604030D01*
X70584929Y-123595765D01*
X70608727Y-123589804D01*
X70632996Y-123586204D01*
X70657500Y-123585000D01*
X71582500Y-123585000D01*
X71607004Y-123586204D01*
X71607004Y-123586204D01*
G37*
D11*
X71120000Y-124460000D03*
D10*
G36*
X68632004Y-123586204D02*
X68656273Y-123589804D01*
X68680071Y-123595765D01*
X68703171Y-123604030D01*
X68725349Y-123614520D01*
X68746393Y-123627133D01*
X68766098Y-123641747D01*
X68784277Y-123658223D01*
X68800753Y-123676402D01*
X68815367Y-123696107D01*
X68827980Y-123717151D01*
X68838470Y-123739329D01*
X68846735Y-123762429D01*
X68852696Y-123786227D01*
X68856296Y-123810496D01*
X68857500Y-123835000D01*
X68857500Y-125085000D01*
X68856296Y-125109504D01*
X68852696Y-125133773D01*
X68846735Y-125157571D01*
X68838470Y-125180671D01*
X68827980Y-125202849D01*
X68815367Y-125223893D01*
X68800753Y-125243598D01*
X68784277Y-125261777D01*
X68766098Y-125278253D01*
X68746393Y-125292867D01*
X68725349Y-125305480D01*
X68703171Y-125315970D01*
X68680071Y-125324235D01*
X68656273Y-125330196D01*
X68632004Y-125333796D01*
X68607500Y-125335000D01*
X67682500Y-125335000D01*
X67657996Y-125333796D01*
X67633727Y-125330196D01*
X67609929Y-125324235D01*
X67586829Y-125315970D01*
X67564651Y-125305480D01*
X67543607Y-125292867D01*
X67523902Y-125278253D01*
X67505723Y-125261777D01*
X67489247Y-125243598D01*
X67474633Y-125223893D01*
X67462020Y-125202849D01*
X67451530Y-125180671D01*
X67443265Y-125157571D01*
X67437304Y-125133773D01*
X67433704Y-125109504D01*
X67432500Y-125085000D01*
X67432500Y-123835000D01*
X67433704Y-123810496D01*
X67437304Y-123786227D01*
X67443265Y-123762429D01*
X67451530Y-123739329D01*
X67462020Y-123717151D01*
X67474633Y-123696107D01*
X67489247Y-123676402D01*
X67505723Y-123658223D01*
X67523902Y-123641747D01*
X67543607Y-123627133D01*
X67564651Y-123614520D01*
X67586829Y-123604030D01*
X67609929Y-123595765D01*
X67633727Y-123589804D01*
X67657996Y-123586204D01*
X67682500Y-123585000D01*
X68607500Y-123585000D01*
X68632004Y-123586204D01*
X68632004Y-123586204D01*
G37*
D11*
X68145000Y-124460000D03*
%TD*%
D10*
%TO.C,R11*%
G36*
X71643504Y-102250204D02*
X71667773Y-102253804D01*
X71691571Y-102259765D01*
X71714671Y-102268030D01*
X71736849Y-102278520D01*
X71757893Y-102291133D01*
X71777598Y-102305747D01*
X71795777Y-102322223D01*
X71812253Y-102340402D01*
X71826867Y-102360107D01*
X71839480Y-102381151D01*
X71849970Y-102403329D01*
X71858235Y-102426429D01*
X71864196Y-102450227D01*
X71867796Y-102474496D01*
X71869000Y-102499000D01*
X71869000Y-103749000D01*
X71867796Y-103773504D01*
X71864196Y-103797773D01*
X71858235Y-103821571D01*
X71849970Y-103844671D01*
X71839480Y-103866849D01*
X71826867Y-103887893D01*
X71812253Y-103907598D01*
X71795777Y-103925777D01*
X71777598Y-103942253D01*
X71757893Y-103956867D01*
X71736849Y-103969480D01*
X71714671Y-103979970D01*
X71691571Y-103988235D01*
X71667773Y-103994196D01*
X71643504Y-103997796D01*
X71619000Y-103999000D01*
X70694000Y-103999000D01*
X70669496Y-103997796D01*
X70645227Y-103994196D01*
X70621429Y-103988235D01*
X70598329Y-103979970D01*
X70576151Y-103969480D01*
X70555107Y-103956867D01*
X70535402Y-103942253D01*
X70517223Y-103925777D01*
X70500747Y-103907598D01*
X70486133Y-103887893D01*
X70473520Y-103866849D01*
X70463030Y-103844671D01*
X70454765Y-103821571D01*
X70448804Y-103797773D01*
X70445204Y-103773504D01*
X70444000Y-103749000D01*
X70444000Y-102499000D01*
X70445204Y-102474496D01*
X70448804Y-102450227D01*
X70454765Y-102426429D01*
X70463030Y-102403329D01*
X70473520Y-102381151D01*
X70486133Y-102360107D01*
X70500747Y-102340402D01*
X70517223Y-102322223D01*
X70535402Y-102305747D01*
X70555107Y-102291133D01*
X70576151Y-102278520D01*
X70598329Y-102268030D01*
X70621429Y-102259765D01*
X70645227Y-102253804D01*
X70669496Y-102250204D01*
X70694000Y-102249000D01*
X71619000Y-102249000D01*
X71643504Y-102250204D01*
X71643504Y-102250204D01*
G37*
D11*
X71156500Y-103124000D03*
D10*
G36*
X74618504Y-102250204D02*
X74642773Y-102253804D01*
X74666571Y-102259765D01*
X74689671Y-102268030D01*
X74711849Y-102278520D01*
X74732893Y-102291133D01*
X74752598Y-102305747D01*
X74770777Y-102322223D01*
X74787253Y-102340402D01*
X74801867Y-102360107D01*
X74814480Y-102381151D01*
X74824970Y-102403329D01*
X74833235Y-102426429D01*
X74839196Y-102450227D01*
X74842796Y-102474496D01*
X74844000Y-102499000D01*
X74844000Y-103749000D01*
X74842796Y-103773504D01*
X74839196Y-103797773D01*
X74833235Y-103821571D01*
X74824970Y-103844671D01*
X74814480Y-103866849D01*
X74801867Y-103887893D01*
X74787253Y-103907598D01*
X74770777Y-103925777D01*
X74752598Y-103942253D01*
X74732893Y-103956867D01*
X74711849Y-103969480D01*
X74689671Y-103979970D01*
X74666571Y-103988235D01*
X74642773Y-103994196D01*
X74618504Y-103997796D01*
X74594000Y-103999000D01*
X73669000Y-103999000D01*
X73644496Y-103997796D01*
X73620227Y-103994196D01*
X73596429Y-103988235D01*
X73573329Y-103979970D01*
X73551151Y-103969480D01*
X73530107Y-103956867D01*
X73510402Y-103942253D01*
X73492223Y-103925777D01*
X73475747Y-103907598D01*
X73461133Y-103887893D01*
X73448520Y-103866849D01*
X73438030Y-103844671D01*
X73429765Y-103821571D01*
X73423804Y-103797773D01*
X73420204Y-103773504D01*
X73419000Y-103749000D01*
X73419000Y-102499000D01*
X73420204Y-102474496D01*
X73423804Y-102450227D01*
X73429765Y-102426429D01*
X73438030Y-102403329D01*
X73448520Y-102381151D01*
X73461133Y-102360107D01*
X73475747Y-102340402D01*
X73492223Y-102322223D01*
X73510402Y-102305747D01*
X73530107Y-102291133D01*
X73551151Y-102278520D01*
X73573329Y-102268030D01*
X73596429Y-102259765D01*
X73620227Y-102253804D01*
X73644496Y-102250204D01*
X73669000Y-102249000D01*
X74594000Y-102249000D01*
X74618504Y-102250204D01*
X74618504Y-102250204D01*
G37*
D11*
X74131500Y-103124000D03*
%TD*%
D10*
%TO.C,R13*%
G36*
X63225004Y-123586204D02*
X63249273Y-123589804D01*
X63273071Y-123595765D01*
X63296171Y-123604030D01*
X63318349Y-123614520D01*
X63339393Y-123627133D01*
X63359098Y-123641747D01*
X63377277Y-123658223D01*
X63393753Y-123676402D01*
X63408367Y-123696107D01*
X63420980Y-123717151D01*
X63431470Y-123739329D01*
X63439735Y-123762429D01*
X63445696Y-123786227D01*
X63449296Y-123810496D01*
X63450500Y-123835000D01*
X63450500Y-125085000D01*
X63449296Y-125109504D01*
X63445696Y-125133773D01*
X63439735Y-125157571D01*
X63431470Y-125180671D01*
X63420980Y-125202849D01*
X63408367Y-125223893D01*
X63393753Y-125243598D01*
X63377277Y-125261777D01*
X63359098Y-125278253D01*
X63339393Y-125292867D01*
X63318349Y-125305480D01*
X63296171Y-125315970D01*
X63273071Y-125324235D01*
X63249273Y-125330196D01*
X63225004Y-125333796D01*
X63200500Y-125335000D01*
X62275500Y-125335000D01*
X62250996Y-125333796D01*
X62226727Y-125330196D01*
X62202929Y-125324235D01*
X62179829Y-125315970D01*
X62157651Y-125305480D01*
X62136607Y-125292867D01*
X62116902Y-125278253D01*
X62098723Y-125261777D01*
X62082247Y-125243598D01*
X62067633Y-125223893D01*
X62055020Y-125202849D01*
X62044530Y-125180671D01*
X62036265Y-125157571D01*
X62030304Y-125133773D01*
X62026704Y-125109504D01*
X62025500Y-125085000D01*
X62025500Y-123835000D01*
X62026704Y-123810496D01*
X62030304Y-123786227D01*
X62036265Y-123762429D01*
X62044530Y-123739329D01*
X62055020Y-123717151D01*
X62067633Y-123696107D01*
X62082247Y-123676402D01*
X62098723Y-123658223D01*
X62116902Y-123641747D01*
X62136607Y-123627133D01*
X62157651Y-123614520D01*
X62179829Y-123604030D01*
X62202929Y-123595765D01*
X62226727Y-123589804D01*
X62250996Y-123586204D01*
X62275500Y-123585000D01*
X63200500Y-123585000D01*
X63225004Y-123586204D01*
X63225004Y-123586204D01*
G37*
D11*
X62738000Y-124460000D03*
D10*
G36*
X60250004Y-123586204D02*
X60274273Y-123589804D01*
X60298071Y-123595765D01*
X60321171Y-123604030D01*
X60343349Y-123614520D01*
X60364393Y-123627133D01*
X60384098Y-123641747D01*
X60402277Y-123658223D01*
X60418753Y-123676402D01*
X60433367Y-123696107D01*
X60445980Y-123717151D01*
X60456470Y-123739329D01*
X60464735Y-123762429D01*
X60470696Y-123786227D01*
X60474296Y-123810496D01*
X60475500Y-123835000D01*
X60475500Y-125085000D01*
X60474296Y-125109504D01*
X60470696Y-125133773D01*
X60464735Y-125157571D01*
X60456470Y-125180671D01*
X60445980Y-125202849D01*
X60433367Y-125223893D01*
X60418753Y-125243598D01*
X60402277Y-125261777D01*
X60384098Y-125278253D01*
X60364393Y-125292867D01*
X60343349Y-125305480D01*
X60321171Y-125315970D01*
X60298071Y-125324235D01*
X60274273Y-125330196D01*
X60250004Y-125333796D01*
X60225500Y-125335000D01*
X59300500Y-125335000D01*
X59275996Y-125333796D01*
X59251727Y-125330196D01*
X59227929Y-125324235D01*
X59204829Y-125315970D01*
X59182651Y-125305480D01*
X59161607Y-125292867D01*
X59141902Y-125278253D01*
X59123723Y-125261777D01*
X59107247Y-125243598D01*
X59092633Y-125223893D01*
X59080020Y-125202849D01*
X59069530Y-125180671D01*
X59061265Y-125157571D01*
X59055304Y-125133773D01*
X59051704Y-125109504D01*
X59050500Y-125085000D01*
X59050500Y-123835000D01*
X59051704Y-123810496D01*
X59055304Y-123786227D01*
X59061265Y-123762429D01*
X59069530Y-123739329D01*
X59080020Y-123717151D01*
X59092633Y-123696107D01*
X59107247Y-123676402D01*
X59123723Y-123658223D01*
X59141902Y-123641747D01*
X59161607Y-123627133D01*
X59182651Y-123614520D01*
X59204829Y-123604030D01*
X59227929Y-123595765D01*
X59251727Y-123589804D01*
X59275996Y-123586204D01*
X59300500Y-123585000D01*
X60225500Y-123585000D01*
X60250004Y-123586204D01*
X60250004Y-123586204D01*
G37*
D11*
X59763000Y-124460000D03*
%TD*%
D10*
%TO.C,R15*%
G36*
X102624504Y-121208704D02*
X102648773Y-121212304D01*
X102672571Y-121218265D01*
X102695671Y-121226530D01*
X102717849Y-121237020D01*
X102738893Y-121249633D01*
X102758598Y-121264247D01*
X102776777Y-121280723D01*
X102793253Y-121298902D01*
X102807867Y-121318607D01*
X102820480Y-121339651D01*
X102830970Y-121361829D01*
X102839235Y-121384929D01*
X102845196Y-121408727D01*
X102848796Y-121432996D01*
X102850000Y-121457500D01*
X102850000Y-122382500D01*
X102848796Y-122407004D01*
X102845196Y-122431273D01*
X102839235Y-122455071D01*
X102830970Y-122478171D01*
X102820480Y-122500349D01*
X102807867Y-122521393D01*
X102793253Y-122541098D01*
X102776777Y-122559277D01*
X102758598Y-122575753D01*
X102738893Y-122590367D01*
X102717849Y-122602980D01*
X102695671Y-122613470D01*
X102672571Y-122621735D01*
X102648773Y-122627696D01*
X102624504Y-122631296D01*
X102600000Y-122632500D01*
X101350000Y-122632500D01*
X101325496Y-122631296D01*
X101301227Y-122627696D01*
X101277429Y-122621735D01*
X101254329Y-122613470D01*
X101232151Y-122602980D01*
X101211107Y-122590367D01*
X101191402Y-122575753D01*
X101173223Y-122559277D01*
X101156747Y-122541098D01*
X101142133Y-122521393D01*
X101129520Y-122500349D01*
X101119030Y-122478171D01*
X101110765Y-122455071D01*
X101104804Y-122431273D01*
X101101204Y-122407004D01*
X101100000Y-122382500D01*
X101100000Y-121457500D01*
X101101204Y-121432996D01*
X101104804Y-121408727D01*
X101110765Y-121384929D01*
X101119030Y-121361829D01*
X101129520Y-121339651D01*
X101142133Y-121318607D01*
X101156747Y-121298902D01*
X101173223Y-121280723D01*
X101191402Y-121264247D01*
X101211107Y-121249633D01*
X101232151Y-121237020D01*
X101254329Y-121226530D01*
X101277429Y-121218265D01*
X101301227Y-121212304D01*
X101325496Y-121208704D01*
X101350000Y-121207500D01*
X102600000Y-121207500D01*
X102624504Y-121208704D01*
X102624504Y-121208704D01*
G37*
D11*
X101975000Y-121920000D03*
D10*
G36*
X102624504Y-118233704D02*
X102648773Y-118237304D01*
X102672571Y-118243265D01*
X102695671Y-118251530D01*
X102717849Y-118262020D01*
X102738893Y-118274633D01*
X102758598Y-118289247D01*
X102776777Y-118305723D01*
X102793253Y-118323902D01*
X102807867Y-118343607D01*
X102820480Y-118364651D01*
X102830970Y-118386829D01*
X102839235Y-118409929D01*
X102845196Y-118433727D01*
X102848796Y-118457996D01*
X102850000Y-118482500D01*
X102850000Y-119407500D01*
X102848796Y-119432004D01*
X102845196Y-119456273D01*
X102839235Y-119480071D01*
X102830970Y-119503171D01*
X102820480Y-119525349D01*
X102807867Y-119546393D01*
X102793253Y-119566098D01*
X102776777Y-119584277D01*
X102758598Y-119600753D01*
X102738893Y-119615367D01*
X102717849Y-119627980D01*
X102695671Y-119638470D01*
X102672571Y-119646735D01*
X102648773Y-119652696D01*
X102624504Y-119656296D01*
X102600000Y-119657500D01*
X101350000Y-119657500D01*
X101325496Y-119656296D01*
X101301227Y-119652696D01*
X101277429Y-119646735D01*
X101254329Y-119638470D01*
X101232151Y-119627980D01*
X101211107Y-119615367D01*
X101191402Y-119600753D01*
X101173223Y-119584277D01*
X101156747Y-119566098D01*
X101142133Y-119546393D01*
X101129520Y-119525349D01*
X101119030Y-119503171D01*
X101110765Y-119480071D01*
X101104804Y-119456273D01*
X101101204Y-119432004D01*
X101100000Y-119407500D01*
X101100000Y-118482500D01*
X101101204Y-118457996D01*
X101104804Y-118433727D01*
X101110765Y-118409929D01*
X101119030Y-118386829D01*
X101129520Y-118364651D01*
X101142133Y-118343607D01*
X101156747Y-118323902D01*
X101173223Y-118305723D01*
X101191402Y-118289247D01*
X101211107Y-118274633D01*
X101232151Y-118262020D01*
X101254329Y-118251530D01*
X101277429Y-118243265D01*
X101301227Y-118237304D01*
X101325496Y-118233704D01*
X101350000Y-118232500D01*
X102600000Y-118232500D01*
X102624504Y-118233704D01*
X102624504Y-118233704D01*
G37*
D11*
X101975000Y-118945000D03*
%TD*%
D10*
%TO.C,R16*%
G36*
X94121504Y-118233704D02*
X94145773Y-118237304D01*
X94169571Y-118243265D01*
X94192671Y-118251530D01*
X94214849Y-118262020D01*
X94235893Y-118274633D01*
X94255598Y-118289247D01*
X94273777Y-118305723D01*
X94290253Y-118323902D01*
X94304867Y-118343607D01*
X94317480Y-118364651D01*
X94327970Y-118386829D01*
X94336235Y-118409929D01*
X94342196Y-118433727D01*
X94345796Y-118457996D01*
X94347000Y-118482500D01*
X94347000Y-119407500D01*
X94345796Y-119432004D01*
X94342196Y-119456273D01*
X94336235Y-119480071D01*
X94327970Y-119503171D01*
X94317480Y-119525349D01*
X94304867Y-119546393D01*
X94290253Y-119566098D01*
X94273777Y-119584277D01*
X94255598Y-119600753D01*
X94235893Y-119615367D01*
X94214849Y-119627980D01*
X94192671Y-119638470D01*
X94169571Y-119646735D01*
X94145773Y-119652696D01*
X94121504Y-119656296D01*
X94097000Y-119657500D01*
X92847000Y-119657500D01*
X92822496Y-119656296D01*
X92798227Y-119652696D01*
X92774429Y-119646735D01*
X92751329Y-119638470D01*
X92729151Y-119627980D01*
X92708107Y-119615367D01*
X92688402Y-119600753D01*
X92670223Y-119584277D01*
X92653747Y-119566098D01*
X92639133Y-119546393D01*
X92626520Y-119525349D01*
X92616030Y-119503171D01*
X92607765Y-119480071D01*
X92601804Y-119456273D01*
X92598204Y-119432004D01*
X92597000Y-119407500D01*
X92597000Y-118482500D01*
X92598204Y-118457996D01*
X92601804Y-118433727D01*
X92607765Y-118409929D01*
X92616030Y-118386829D01*
X92626520Y-118364651D01*
X92639133Y-118343607D01*
X92653747Y-118323902D01*
X92670223Y-118305723D01*
X92688402Y-118289247D01*
X92708107Y-118274633D01*
X92729151Y-118262020D01*
X92751329Y-118251530D01*
X92774429Y-118243265D01*
X92798227Y-118237304D01*
X92822496Y-118233704D01*
X92847000Y-118232500D01*
X94097000Y-118232500D01*
X94121504Y-118233704D01*
X94121504Y-118233704D01*
G37*
D11*
X93472000Y-118945000D03*
D10*
G36*
X94121504Y-121208704D02*
X94145773Y-121212304D01*
X94169571Y-121218265D01*
X94192671Y-121226530D01*
X94214849Y-121237020D01*
X94235893Y-121249633D01*
X94255598Y-121264247D01*
X94273777Y-121280723D01*
X94290253Y-121298902D01*
X94304867Y-121318607D01*
X94317480Y-121339651D01*
X94327970Y-121361829D01*
X94336235Y-121384929D01*
X94342196Y-121408727D01*
X94345796Y-121432996D01*
X94347000Y-121457500D01*
X94347000Y-122382500D01*
X94345796Y-122407004D01*
X94342196Y-122431273D01*
X94336235Y-122455071D01*
X94327970Y-122478171D01*
X94317480Y-122500349D01*
X94304867Y-122521393D01*
X94290253Y-122541098D01*
X94273777Y-122559277D01*
X94255598Y-122575753D01*
X94235893Y-122590367D01*
X94214849Y-122602980D01*
X94192671Y-122613470D01*
X94169571Y-122621735D01*
X94145773Y-122627696D01*
X94121504Y-122631296D01*
X94097000Y-122632500D01*
X92847000Y-122632500D01*
X92822496Y-122631296D01*
X92798227Y-122627696D01*
X92774429Y-122621735D01*
X92751329Y-122613470D01*
X92729151Y-122602980D01*
X92708107Y-122590367D01*
X92688402Y-122575753D01*
X92670223Y-122559277D01*
X92653747Y-122541098D01*
X92639133Y-122521393D01*
X92626520Y-122500349D01*
X92616030Y-122478171D01*
X92607765Y-122455071D01*
X92601804Y-122431273D01*
X92598204Y-122407004D01*
X92597000Y-122382500D01*
X92597000Y-121457500D01*
X92598204Y-121432996D01*
X92601804Y-121408727D01*
X92607765Y-121384929D01*
X92616030Y-121361829D01*
X92626520Y-121339651D01*
X92639133Y-121318607D01*
X92653747Y-121298902D01*
X92670223Y-121280723D01*
X92688402Y-121264247D01*
X92708107Y-121249633D01*
X92729151Y-121237020D01*
X92751329Y-121226530D01*
X92774429Y-121218265D01*
X92798227Y-121212304D01*
X92822496Y-121208704D01*
X92847000Y-121207500D01*
X94097000Y-121207500D01*
X94121504Y-121208704D01*
X94121504Y-121208704D01*
G37*
D11*
X93472000Y-121920000D03*
%TD*%
D10*
%TO.C,R17*%
G36*
X94974504Y-130190204D02*
X94998773Y-130193804D01*
X95022571Y-130199765D01*
X95045671Y-130208030D01*
X95067849Y-130218520D01*
X95088893Y-130231133D01*
X95108598Y-130245747D01*
X95126777Y-130262223D01*
X95143253Y-130280402D01*
X95157867Y-130300107D01*
X95170480Y-130321151D01*
X95180970Y-130343329D01*
X95189235Y-130366429D01*
X95195196Y-130390227D01*
X95198796Y-130414496D01*
X95200000Y-130439000D01*
X95200000Y-131689000D01*
X95198796Y-131713504D01*
X95195196Y-131737773D01*
X95189235Y-131761571D01*
X95180970Y-131784671D01*
X95170480Y-131806849D01*
X95157867Y-131827893D01*
X95143253Y-131847598D01*
X95126777Y-131865777D01*
X95108598Y-131882253D01*
X95088893Y-131896867D01*
X95067849Y-131909480D01*
X95045671Y-131919970D01*
X95022571Y-131928235D01*
X94998773Y-131934196D01*
X94974504Y-131937796D01*
X94950000Y-131939000D01*
X94025000Y-131939000D01*
X94000496Y-131937796D01*
X93976227Y-131934196D01*
X93952429Y-131928235D01*
X93929329Y-131919970D01*
X93907151Y-131909480D01*
X93886107Y-131896867D01*
X93866402Y-131882253D01*
X93848223Y-131865777D01*
X93831747Y-131847598D01*
X93817133Y-131827893D01*
X93804520Y-131806849D01*
X93794030Y-131784671D01*
X93785765Y-131761571D01*
X93779804Y-131737773D01*
X93776204Y-131713504D01*
X93775000Y-131689000D01*
X93775000Y-130439000D01*
X93776204Y-130414496D01*
X93779804Y-130390227D01*
X93785765Y-130366429D01*
X93794030Y-130343329D01*
X93804520Y-130321151D01*
X93817133Y-130300107D01*
X93831747Y-130280402D01*
X93848223Y-130262223D01*
X93866402Y-130245747D01*
X93886107Y-130231133D01*
X93907151Y-130218520D01*
X93929329Y-130208030D01*
X93952429Y-130199765D01*
X93976227Y-130193804D01*
X94000496Y-130190204D01*
X94025000Y-130189000D01*
X94950000Y-130189000D01*
X94974504Y-130190204D01*
X94974504Y-130190204D01*
G37*
D11*
X94487500Y-131064000D03*
D10*
G36*
X91999504Y-130190204D02*
X92023773Y-130193804D01*
X92047571Y-130199765D01*
X92070671Y-130208030D01*
X92092849Y-130218520D01*
X92113893Y-130231133D01*
X92133598Y-130245747D01*
X92151777Y-130262223D01*
X92168253Y-130280402D01*
X92182867Y-130300107D01*
X92195480Y-130321151D01*
X92205970Y-130343329D01*
X92214235Y-130366429D01*
X92220196Y-130390227D01*
X92223796Y-130414496D01*
X92225000Y-130439000D01*
X92225000Y-131689000D01*
X92223796Y-131713504D01*
X92220196Y-131737773D01*
X92214235Y-131761571D01*
X92205970Y-131784671D01*
X92195480Y-131806849D01*
X92182867Y-131827893D01*
X92168253Y-131847598D01*
X92151777Y-131865777D01*
X92133598Y-131882253D01*
X92113893Y-131896867D01*
X92092849Y-131909480D01*
X92070671Y-131919970D01*
X92047571Y-131928235D01*
X92023773Y-131934196D01*
X91999504Y-131937796D01*
X91975000Y-131939000D01*
X91050000Y-131939000D01*
X91025496Y-131937796D01*
X91001227Y-131934196D01*
X90977429Y-131928235D01*
X90954329Y-131919970D01*
X90932151Y-131909480D01*
X90911107Y-131896867D01*
X90891402Y-131882253D01*
X90873223Y-131865777D01*
X90856747Y-131847598D01*
X90842133Y-131827893D01*
X90829520Y-131806849D01*
X90819030Y-131784671D01*
X90810765Y-131761571D01*
X90804804Y-131737773D01*
X90801204Y-131713504D01*
X90800000Y-131689000D01*
X90800000Y-130439000D01*
X90801204Y-130414496D01*
X90804804Y-130390227D01*
X90810765Y-130366429D01*
X90819030Y-130343329D01*
X90829520Y-130321151D01*
X90842133Y-130300107D01*
X90856747Y-130280402D01*
X90873223Y-130262223D01*
X90891402Y-130245747D01*
X90911107Y-130231133D01*
X90932151Y-130218520D01*
X90954329Y-130208030D01*
X90977429Y-130199765D01*
X91001227Y-130193804D01*
X91025496Y-130190204D01*
X91050000Y-130189000D01*
X91975000Y-130189000D01*
X91999504Y-130190204D01*
X91999504Y-130190204D01*
G37*
D11*
X91512500Y-131064000D03*
%TD*%
D10*
%TO.C,R18*%
G36*
X94975004Y-137556204D02*
X94999273Y-137559804D01*
X95023071Y-137565765D01*
X95046171Y-137574030D01*
X95068349Y-137584520D01*
X95089393Y-137597133D01*
X95109098Y-137611747D01*
X95127277Y-137628223D01*
X95143753Y-137646402D01*
X95158367Y-137666107D01*
X95170980Y-137687151D01*
X95181470Y-137709329D01*
X95189735Y-137732429D01*
X95195696Y-137756227D01*
X95199296Y-137780496D01*
X95200500Y-137805000D01*
X95200500Y-139055000D01*
X95199296Y-139079504D01*
X95195696Y-139103773D01*
X95189735Y-139127571D01*
X95181470Y-139150671D01*
X95170980Y-139172849D01*
X95158367Y-139193893D01*
X95143753Y-139213598D01*
X95127277Y-139231777D01*
X95109098Y-139248253D01*
X95089393Y-139262867D01*
X95068349Y-139275480D01*
X95046171Y-139285970D01*
X95023071Y-139294235D01*
X94999273Y-139300196D01*
X94975004Y-139303796D01*
X94950500Y-139305000D01*
X94025500Y-139305000D01*
X94000996Y-139303796D01*
X93976727Y-139300196D01*
X93952929Y-139294235D01*
X93929829Y-139285970D01*
X93907651Y-139275480D01*
X93886607Y-139262867D01*
X93866902Y-139248253D01*
X93848723Y-139231777D01*
X93832247Y-139213598D01*
X93817633Y-139193893D01*
X93805020Y-139172849D01*
X93794530Y-139150671D01*
X93786265Y-139127571D01*
X93780304Y-139103773D01*
X93776704Y-139079504D01*
X93775500Y-139055000D01*
X93775500Y-137805000D01*
X93776704Y-137780496D01*
X93780304Y-137756227D01*
X93786265Y-137732429D01*
X93794530Y-137709329D01*
X93805020Y-137687151D01*
X93817633Y-137666107D01*
X93832247Y-137646402D01*
X93848723Y-137628223D01*
X93866902Y-137611747D01*
X93886607Y-137597133D01*
X93907651Y-137584520D01*
X93929829Y-137574030D01*
X93952929Y-137565765D01*
X93976727Y-137559804D01*
X94000996Y-137556204D01*
X94025500Y-137555000D01*
X94950500Y-137555000D01*
X94975004Y-137556204D01*
X94975004Y-137556204D01*
G37*
D11*
X94488000Y-138430000D03*
D10*
G36*
X92000004Y-137556204D02*
X92024273Y-137559804D01*
X92048071Y-137565765D01*
X92071171Y-137574030D01*
X92093349Y-137584520D01*
X92114393Y-137597133D01*
X92134098Y-137611747D01*
X92152277Y-137628223D01*
X92168753Y-137646402D01*
X92183367Y-137666107D01*
X92195980Y-137687151D01*
X92206470Y-137709329D01*
X92214735Y-137732429D01*
X92220696Y-137756227D01*
X92224296Y-137780496D01*
X92225500Y-137805000D01*
X92225500Y-139055000D01*
X92224296Y-139079504D01*
X92220696Y-139103773D01*
X92214735Y-139127571D01*
X92206470Y-139150671D01*
X92195980Y-139172849D01*
X92183367Y-139193893D01*
X92168753Y-139213598D01*
X92152277Y-139231777D01*
X92134098Y-139248253D01*
X92114393Y-139262867D01*
X92093349Y-139275480D01*
X92071171Y-139285970D01*
X92048071Y-139294235D01*
X92024273Y-139300196D01*
X92000004Y-139303796D01*
X91975500Y-139305000D01*
X91050500Y-139305000D01*
X91025996Y-139303796D01*
X91001727Y-139300196D01*
X90977929Y-139294235D01*
X90954829Y-139285970D01*
X90932651Y-139275480D01*
X90911607Y-139262867D01*
X90891902Y-139248253D01*
X90873723Y-139231777D01*
X90857247Y-139213598D01*
X90842633Y-139193893D01*
X90830020Y-139172849D01*
X90819530Y-139150671D01*
X90811265Y-139127571D01*
X90805304Y-139103773D01*
X90801704Y-139079504D01*
X90800500Y-139055000D01*
X90800500Y-137805000D01*
X90801704Y-137780496D01*
X90805304Y-137756227D01*
X90811265Y-137732429D01*
X90819530Y-137709329D01*
X90830020Y-137687151D01*
X90842633Y-137666107D01*
X90857247Y-137646402D01*
X90873723Y-137628223D01*
X90891902Y-137611747D01*
X90911607Y-137597133D01*
X90932651Y-137584520D01*
X90954829Y-137574030D01*
X90977929Y-137565765D01*
X91001727Y-137559804D01*
X91025996Y-137556204D01*
X91050500Y-137555000D01*
X91975500Y-137555000D01*
X92000004Y-137556204D01*
X92000004Y-137556204D01*
G37*
D11*
X91513000Y-138430000D03*
%TD*%
D10*
%TO.C,R19*%
G36*
X93687004Y-87326204D02*
X93711273Y-87329804D01*
X93735071Y-87335765D01*
X93758171Y-87344030D01*
X93780349Y-87354520D01*
X93801393Y-87367133D01*
X93821098Y-87381747D01*
X93839277Y-87398223D01*
X93855753Y-87416402D01*
X93870367Y-87436107D01*
X93882980Y-87457151D01*
X93893470Y-87479329D01*
X93901735Y-87502429D01*
X93907696Y-87526227D01*
X93911296Y-87550496D01*
X93912500Y-87575000D01*
X93912500Y-88825000D01*
X93911296Y-88849504D01*
X93907696Y-88873773D01*
X93901735Y-88897571D01*
X93893470Y-88920671D01*
X93882980Y-88942849D01*
X93870367Y-88963893D01*
X93855753Y-88983598D01*
X93839277Y-89001777D01*
X93821098Y-89018253D01*
X93801393Y-89032867D01*
X93780349Y-89045480D01*
X93758171Y-89055970D01*
X93735071Y-89064235D01*
X93711273Y-89070196D01*
X93687004Y-89073796D01*
X93662500Y-89075000D01*
X92737500Y-89075000D01*
X92712996Y-89073796D01*
X92688727Y-89070196D01*
X92664929Y-89064235D01*
X92641829Y-89055970D01*
X92619651Y-89045480D01*
X92598607Y-89032867D01*
X92578902Y-89018253D01*
X92560723Y-89001777D01*
X92544247Y-88983598D01*
X92529633Y-88963893D01*
X92517020Y-88942849D01*
X92506530Y-88920671D01*
X92498265Y-88897571D01*
X92492304Y-88873773D01*
X92488704Y-88849504D01*
X92487500Y-88825000D01*
X92487500Y-87575000D01*
X92488704Y-87550496D01*
X92492304Y-87526227D01*
X92498265Y-87502429D01*
X92506530Y-87479329D01*
X92517020Y-87457151D01*
X92529633Y-87436107D01*
X92544247Y-87416402D01*
X92560723Y-87398223D01*
X92578902Y-87381747D01*
X92598607Y-87367133D01*
X92619651Y-87354520D01*
X92641829Y-87344030D01*
X92664929Y-87335765D01*
X92688727Y-87329804D01*
X92712996Y-87326204D01*
X92737500Y-87325000D01*
X93662500Y-87325000D01*
X93687004Y-87326204D01*
X93687004Y-87326204D01*
G37*
D11*
X93200000Y-88200000D03*
D10*
G36*
X96662004Y-87326204D02*
X96686273Y-87329804D01*
X96710071Y-87335765D01*
X96733171Y-87344030D01*
X96755349Y-87354520D01*
X96776393Y-87367133D01*
X96796098Y-87381747D01*
X96814277Y-87398223D01*
X96830753Y-87416402D01*
X96845367Y-87436107D01*
X96857980Y-87457151D01*
X96868470Y-87479329D01*
X96876735Y-87502429D01*
X96882696Y-87526227D01*
X96886296Y-87550496D01*
X96887500Y-87575000D01*
X96887500Y-88825000D01*
X96886296Y-88849504D01*
X96882696Y-88873773D01*
X96876735Y-88897571D01*
X96868470Y-88920671D01*
X96857980Y-88942849D01*
X96845367Y-88963893D01*
X96830753Y-88983598D01*
X96814277Y-89001777D01*
X96796098Y-89018253D01*
X96776393Y-89032867D01*
X96755349Y-89045480D01*
X96733171Y-89055970D01*
X96710071Y-89064235D01*
X96686273Y-89070196D01*
X96662004Y-89073796D01*
X96637500Y-89075000D01*
X95712500Y-89075000D01*
X95687996Y-89073796D01*
X95663727Y-89070196D01*
X95639929Y-89064235D01*
X95616829Y-89055970D01*
X95594651Y-89045480D01*
X95573607Y-89032867D01*
X95553902Y-89018253D01*
X95535723Y-89001777D01*
X95519247Y-88983598D01*
X95504633Y-88963893D01*
X95492020Y-88942849D01*
X95481530Y-88920671D01*
X95473265Y-88897571D01*
X95467304Y-88873773D01*
X95463704Y-88849504D01*
X95462500Y-88825000D01*
X95462500Y-87575000D01*
X95463704Y-87550496D01*
X95467304Y-87526227D01*
X95473265Y-87502429D01*
X95481530Y-87479329D01*
X95492020Y-87457151D01*
X95504633Y-87436107D01*
X95519247Y-87416402D01*
X95535723Y-87398223D01*
X95553902Y-87381747D01*
X95573607Y-87367133D01*
X95594651Y-87354520D01*
X95616829Y-87344030D01*
X95639929Y-87335765D01*
X95663727Y-87329804D01*
X95687996Y-87326204D01*
X95712500Y-87325000D01*
X96637500Y-87325000D01*
X96662004Y-87326204D01*
X96662004Y-87326204D01*
G37*
D11*
X96175000Y-88200000D03*
%TD*%
D10*
%TO.C,R21*%
G36*
X93707913Y-91147393D02*
X93732182Y-91150993D01*
X93755980Y-91156954D01*
X93779080Y-91165219D01*
X93801258Y-91175709D01*
X93822302Y-91188322D01*
X93842007Y-91202936D01*
X93860186Y-91219412D01*
X93876662Y-91237591D01*
X93891276Y-91257296D01*
X93903889Y-91278340D01*
X93914379Y-91300518D01*
X93922644Y-91323618D01*
X93928605Y-91347416D01*
X93932205Y-91371685D01*
X93933409Y-91396189D01*
X93933409Y-92646189D01*
X93932205Y-92670693D01*
X93928605Y-92694962D01*
X93922644Y-92718760D01*
X93914379Y-92741860D01*
X93903889Y-92764038D01*
X93891276Y-92785082D01*
X93876662Y-92804787D01*
X93860186Y-92822966D01*
X93842007Y-92839442D01*
X93822302Y-92854056D01*
X93801258Y-92866669D01*
X93779080Y-92877159D01*
X93755980Y-92885424D01*
X93732182Y-92891385D01*
X93707913Y-92894985D01*
X93683409Y-92896189D01*
X92758409Y-92896189D01*
X92733905Y-92894985D01*
X92709636Y-92891385D01*
X92685838Y-92885424D01*
X92662738Y-92877159D01*
X92640560Y-92866669D01*
X92619516Y-92854056D01*
X92599811Y-92839442D01*
X92581632Y-92822966D01*
X92565156Y-92804787D01*
X92550542Y-92785082D01*
X92537929Y-92764038D01*
X92527439Y-92741860D01*
X92519174Y-92718760D01*
X92513213Y-92694962D01*
X92509613Y-92670693D01*
X92508409Y-92646189D01*
X92508409Y-91396189D01*
X92509613Y-91371685D01*
X92513213Y-91347416D01*
X92519174Y-91323618D01*
X92527439Y-91300518D01*
X92537929Y-91278340D01*
X92550542Y-91257296D01*
X92565156Y-91237591D01*
X92581632Y-91219412D01*
X92599811Y-91202936D01*
X92619516Y-91188322D01*
X92640560Y-91175709D01*
X92662738Y-91165219D01*
X92685838Y-91156954D01*
X92709636Y-91150993D01*
X92733905Y-91147393D01*
X92758409Y-91146189D01*
X93683409Y-91146189D01*
X93707913Y-91147393D01*
X93707913Y-91147393D01*
G37*
D11*
X93220909Y-92021189D03*
D10*
G36*
X96682913Y-91147393D02*
X96707182Y-91150993D01*
X96730980Y-91156954D01*
X96754080Y-91165219D01*
X96776258Y-91175709D01*
X96797302Y-91188322D01*
X96817007Y-91202936D01*
X96835186Y-91219412D01*
X96851662Y-91237591D01*
X96866276Y-91257296D01*
X96878889Y-91278340D01*
X96889379Y-91300518D01*
X96897644Y-91323618D01*
X96903605Y-91347416D01*
X96907205Y-91371685D01*
X96908409Y-91396189D01*
X96908409Y-92646189D01*
X96907205Y-92670693D01*
X96903605Y-92694962D01*
X96897644Y-92718760D01*
X96889379Y-92741860D01*
X96878889Y-92764038D01*
X96866276Y-92785082D01*
X96851662Y-92804787D01*
X96835186Y-92822966D01*
X96817007Y-92839442D01*
X96797302Y-92854056D01*
X96776258Y-92866669D01*
X96754080Y-92877159D01*
X96730980Y-92885424D01*
X96707182Y-92891385D01*
X96682913Y-92894985D01*
X96658409Y-92896189D01*
X95733409Y-92896189D01*
X95708905Y-92894985D01*
X95684636Y-92891385D01*
X95660838Y-92885424D01*
X95637738Y-92877159D01*
X95615560Y-92866669D01*
X95594516Y-92854056D01*
X95574811Y-92839442D01*
X95556632Y-92822966D01*
X95540156Y-92804787D01*
X95525542Y-92785082D01*
X95512929Y-92764038D01*
X95502439Y-92741860D01*
X95494174Y-92718760D01*
X95488213Y-92694962D01*
X95484613Y-92670693D01*
X95483409Y-92646189D01*
X95483409Y-91396189D01*
X95484613Y-91371685D01*
X95488213Y-91347416D01*
X95494174Y-91323618D01*
X95502439Y-91300518D01*
X95512929Y-91278340D01*
X95525542Y-91257296D01*
X95540156Y-91237591D01*
X95556632Y-91219412D01*
X95574811Y-91202936D01*
X95594516Y-91188322D01*
X95615560Y-91175709D01*
X95637738Y-91165219D01*
X95660838Y-91156954D01*
X95684636Y-91150993D01*
X95708905Y-91147393D01*
X95733409Y-91146189D01*
X96658409Y-91146189D01*
X96682913Y-91147393D01*
X96682913Y-91147393D01*
G37*
D11*
X96195909Y-92021189D03*
%TD*%
D10*
%TO.C,R22*%
G36*
X96682913Y-94757821D02*
X96707182Y-94761421D01*
X96730980Y-94767382D01*
X96754080Y-94775647D01*
X96776258Y-94786137D01*
X96797302Y-94798750D01*
X96817007Y-94813364D01*
X96835186Y-94829840D01*
X96851662Y-94848019D01*
X96866276Y-94867724D01*
X96878889Y-94888768D01*
X96889379Y-94910946D01*
X96897644Y-94934046D01*
X96903605Y-94957844D01*
X96907205Y-94982113D01*
X96908409Y-95006617D01*
X96908409Y-96256617D01*
X96907205Y-96281121D01*
X96903605Y-96305390D01*
X96897644Y-96329188D01*
X96889379Y-96352288D01*
X96878889Y-96374466D01*
X96866276Y-96395510D01*
X96851662Y-96415215D01*
X96835186Y-96433394D01*
X96817007Y-96449870D01*
X96797302Y-96464484D01*
X96776258Y-96477097D01*
X96754080Y-96487587D01*
X96730980Y-96495852D01*
X96707182Y-96501813D01*
X96682913Y-96505413D01*
X96658409Y-96506617D01*
X95733409Y-96506617D01*
X95708905Y-96505413D01*
X95684636Y-96501813D01*
X95660838Y-96495852D01*
X95637738Y-96487587D01*
X95615560Y-96477097D01*
X95594516Y-96464484D01*
X95574811Y-96449870D01*
X95556632Y-96433394D01*
X95540156Y-96415215D01*
X95525542Y-96395510D01*
X95512929Y-96374466D01*
X95502439Y-96352288D01*
X95494174Y-96329188D01*
X95488213Y-96305390D01*
X95484613Y-96281121D01*
X95483409Y-96256617D01*
X95483409Y-95006617D01*
X95484613Y-94982113D01*
X95488213Y-94957844D01*
X95494174Y-94934046D01*
X95502439Y-94910946D01*
X95512929Y-94888768D01*
X95525542Y-94867724D01*
X95540156Y-94848019D01*
X95556632Y-94829840D01*
X95574811Y-94813364D01*
X95594516Y-94798750D01*
X95615560Y-94786137D01*
X95637738Y-94775647D01*
X95660838Y-94767382D01*
X95684636Y-94761421D01*
X95708905Y-94757821D01*
X95733409Y-94756617D01*
X96658409Y-94756617D01*
X96682913Y-94757821D01*
X96682913Y-94757821D01*
G37*
D11*
X96195909Y-95631617D03*
D10*
G36*
X93707913Y-94757821D02*
X93732182Y-94761421D01*
X93755980Y-94767382D01*
X93779080Y-94775647D01*
X93801258Y-94786137D01*
X93822302Y-94798750D01*
X93842007Y-94813364D01*
X93860186Y-94829840D01*
X93876662Y-94848019D01*
X93891276Y-94867724D01*
X93903889Y-94888768D01*
X93914379Y-94910946D01*
X93922644Y-94934046D01*
X93928605Y-94957844D01*
X93932205Y-94982113D01*
X93933409Y-95006617D01*
X93933409Y-96256617D01*
X93932205Y-96281121D01*
X93928605Y-96305390D01*
X93922644Y-96329188D01*
X93914379Y-96352288D01*
X93903889Y-96374466D01*
X93891276Y-96395510D01*
X93876662Y-96415215D01*
X93860186Y-96433394D01*
X93842007Y-96449870D01*
X93822302Y-96464484D01*
X93801258Y-96477097D01*
X93779080Y-96487587D01*
X93755980Y-96495852D01*
X93732182Y-96501813D01*
X93707913Y-96505413D01*
X93683409Y-96506617D01*
X92758409Y-96506617D01*
X92733905Y-96505413D01*
X92709636Y-96501813D01*
X92685838Y-96495852D01*
X92662738Y-96487587D01*
X92640560Y-96477097D01*
X92619516Y-96464484D01*
X92599811Y-96449870D01*
X92581632Y-96433394D01*
X92565156Y-96415215D01*
X92550542Y-96395510D01*
X92537929Y-96374466D01*
X92527439Y-96352288D01*
X92519174Y-96329188D01*
X92513213Y-96305390D01*
X92509613Y-96281121D01*
X92508409Y-96256617D01*
X92508409Y-95006617D01*
X92509613Y-94982113D01*
X92513213Y-94957844D01*
X92519174Y-94934046D01*
X92527439Y-94910946D01*
X92537929Y-94888768D01*
X92550542Y-94867724D01*
X92565156Y-94848019D01*
X92581632Y-94829840D01*
X92599811Y-94813364D01*
X92619516Y-94798750D01*
X92640560Y-94786137D01*
X92662738Y-94775647D01*
X92685838Y-94767382D01*
X92709636Y-94761421D01*
X92733905Y-94757821D01*
X92758409Y-94756617D01*
X93683409Y-94756617D01*
X93707913Y-94757821D01*
X93707913Y-94757821D01*
G37*
D11*
X93220909Y-95631617D03*
%TD*%
D10*
%TO.C,R23*%
G36*
X93707913Y-98368249D02*
X93732182Y-98371849D01*
X93755980Y-98377810D01*
X93779080Y-98386075D01*
X93801258Y-98396565D01*
X93822302Y-98409178D01*
X93842007Y-98423792D01*
X93860186Y-98440268D01*
X93876662Y-98458447D01*
X93891276Y-98478152D01*
X93903889Y-98499196D01*
X93914379Y-98521374D01*
X93922644Y-98544474D01*
X93928605Y-98568272D01*
X93932205Y-98592541D01*
X93933409Y-98617045D01*
X93933409Y-99867045D01*
X93932205Y-99891549D01*
X93928605Y-99915818D01*
X93922644Y-99939616D01*
X93914379Y-99962716D01*
X93903889Y-99984894D01*
X93891276Y-100005938D01*
X93876662Y-100025643D01*
X93860186Y-100043822D01*
X93842007Y-100060298D01*
X93822302Y-100074912D01*
X93801258Y-100087525D01*
X93779080Y-100098015D01*
X93755980Y-100106280D01*
X93732182Y-100112241D01*
X93707913Y-100115841D01*
X93683409Y-100117045D01*
X92758409Y-100117045D01*
X92733905Y-100115841D01*
X92709636Y-100112241D01*
X92685838Y-100106280D01*
X92662738Y-100098015D01*
X92640560Y-100087525D01*
X92619516Y-100074912D01*
X92599811Y-100060298D01*
X92581632Y-100043822D01*
X92565156Y-100025643D01*
X92550542Y-100005938D01*
X92537929Y-99984894D01*
X92527439Y-99962716D01*
X92519174Y-99939616D01*
X92513213Y-99915818D01*
X92509613Y-99891549D01*
X92508409Y-99867045D01*
X92508409Y-98617045D01*
X92509613Y-98592541D01*
X92513213Y-98568272D01*
X92519174Y-98544474D01*
X92527439Y-98521374D01*
X92537929Y-98499196D01*
X92550542Y-98478152D01*
X92565156Y-98458447D01*
X92581632Y-98440268D01*
X92599811Y-98423792D01*
X92619516Y-98409178D01*
X92640560Y-98396565D01*
X92662738Y-98386075D01*
X92685838Y-98377810D01*
X92709636Y-98371849D01*
X92733905Y-98368249D01*
X92758409Y-98367045D01*
X93683409Y-98367045D01*
X93707913Y-98368249D01*
X93707913Y-98368249D01*
G37*
D11*
X93220909Y-99242045D03*
D10*
G36*
X96682913Y-98368249D02*
X96707182Y-98371849D01*
X96730980Y-98377810D01*
X96754080Y-98386075D01*
X96776258Y-98396565D01*
X96797302Y-98409178D01*
X96817007Y-98423792D01*
X96835186Y-98440268D01*
X96851662Y-98458447D01*
X96866276Y-98478152D01*
X96878889Y-98499196D01*
X96889379Y-98521374D01*
X96897644Y-98544474D01*
X96903605Y-98568272D01*
X96907205Y-98592541D01*
X96908409Y-98617045D01*
X96908409Y-99867045D01*
X96907205Y-99891549D01*
X96903605Y-99915818D01*
X96897644Y-99939616D01*
X96889379Y-99962716D01*
X96878889Y-99984894D01*
X96866276Y-100005938D01*
X96851662Y-100025643D01*
X96835186Y-100043822D01*
X96817007Y-100060298D01*
X96797302Y-100074912D01*
X96776258Y-100087525D01*
X96754080Y-100098015D01*
X96730980Y-100106280D01*
X96707182Y-100112241D01*
X96682913Y-100115841D01*
X96658409Y-100117045D01*
X95733409Y-100117045D01*
X95708905Y-100115841D01*
X95684636Y-100112241D01*
X95660838Y-100106280D01*
X95637738Y-100098015D01*
X95615560Y-100087525D01*
X95594516Y-100074912D01*
X95574811Y-100060298D01*
X95556632Y-100043822D01*
X95540156Y-100025643D01*
X95525542Y-100005938D01*
X95512929Y-99984894D01*
X95502439Y-99962716D01*
X95494174Y-99939616D01*
X95488213Y-99915818D01*
X95484613Y-99891549D01*
X95483409Y-99867045D01*
X95483409Y-98617045D01*
X95484613Y-98592541D01*
X95488213Y-98568272D01*
X95494174Y-98544474D01*
X95502439Y-98521374D01*
X95512929Y-98499196D01*
X95525542Y-98478152D01*
X95540156Y-98458447D01*
X95556632Y-98440268D01*
X95574811Y-98423792D01*
X95594516Y-98409178D01*
X95615560Y-98396565D01*
X95637738Y-98386075D01*
X95660838Y-98377810D01*
X95684636Y-98371849D01*
X95708905Y-98368249D01*
X95733409Y-98367045D01*
X96658409Y-98367045D01*
X96682913Y-98368249D01*
X96682913Y-98368249D01*
G37*
D11*
X96195909Y-99242045D03*
%TD*%
D10*
%TO.C,R24*%
G36*
X93707913Y-101978677D02*
X93732182Y-101982277D01*
X93755980Y-101988238D01*
X93779080Y-101996503D01*
X93801258Y-102006993D01*
X93822302Y-102019606D01*
X93842007Y-102034220D01*
X93860186Y-102050696D01*
X93876662Y-102068875D01*
X93891276Y-102088580D01*
X93903889Y-102109624D01*
X93914379Y-102131802D01*
X93922644Y-102154902D01*
X93928605Y-102178700D01*
X93932205Y-102202969D01*
X93933409Y-102227473D01*
X93933409Y-103477473D01*
X93932205Y-103501977D01*
X93928605Y-103526246D01*
X93922644Y-103550044D01*
X93914379Y-103573144D01*
X93903889Y-103595322D01*
X93891276Y-103616366D01*
X93876662Y-103636071D01*
X93860186Y-103654250D01*
X93842007Y-103670726D01*
X93822302Y-103685340D01*
X93801258Y-103697953D01*
X93779080Y-103708443D01*
X93755980Y-103716708D01*
X93732182Y-103722669D01*
X93707913Y-103726269D01*
X93683409Y-103727473D01*
X92758409Y-103727473D01*
X92733905Y-103726269D01*
X92709636Y-103722669D01*
X92685838Y-103716708D01*
X92662738Y-103708443D01*
X92640560Y-103697953D01*
X92619516Y-103685340D01*
X92599811Y-103670726D01*
X92581632Y-103654250D01*
X92565156Y-103636071D01*
X92550542Y-103616366D01*
X92537929Y-103595322D01*
X92527439Y-103573144D01*
X92519174Y-103550044D01*
X92513213Y-103526246D01*
X92509613Y-103501977D01*
X92508409Y-103477473D01*
X92508409Y-102227473D01*
X92509613Y-102202969D01*
X92513213Y-102178700D01*
X92519174Y-102154902D01*
X92527439Y-102131802D01*
X92537929Y-102109624D01*
X92550542Y-102088580D01*
X92565156Y-102068875D01*
X92581632Y-102050696D01*
X92599811Y-102034220D01*
X92619516Y-102019606D01*
X92640560Y-102006993D01*
X92662738Y-101996503D01*
X92685838Y-101988238D01*
X92709636Y-101982277D01*
X92733905Y-101978677D01*
X92758409Y-101977473D01*
X93683409Y-101977473D01*
X93707913Y-101978677D01*
X93707913Y-101978677D01*
G37*
D11*
X93220909Y-102852473D03*
D10*
G36*
X96682913Y-101978677D02*
X96707182Y-101982277D01*
X96730980Y-101988238D01*
X96754080Y-101996503D01*
X96776258Y-102006993D01*
X96797302Y-102019606D01*
X96817007Y-102034220D01*
X96835186Y-102050696D01*
X96851662Y-102068875D01*
X96866276Y-102088580D01*
X96878889Y-102109624D01*
X96889379Y-102131802D01*
X96897644Y-102154902D01*
X96903605Y-102178700D01*
X96907205Y-102202969D01*
X96908409Y-102227473D01*
X96908409Y-103477473D01*
X96907205Y-103501977D01*
X96903605Y-103526246D01*
X96897644Y-103550044D01*
X96889379Y-103573144D01*
X96878889Y-103595322D01*
X96866276Y-103616366D01*
X96851662Y-103636071D01*
X96835186Y-103654250D01*
X96817007Y-103670726D01*
X96797302Y-103685340D01*
X96776258Y-103697953D01*
X96754080Y-103708443D01*
X96730980Y-103716708D01*
X96707182Y-103722669D01*
X96682913Y-103726269D01*
X96658409Y-103727473D01*
X95733409Y-103727473D01*
X95708905Y-103726269D01*
X95684636Y-103722669D01*
X95660838Y-103716708D01*
X95637738Y-103708443D01*
X95615560Y-103697953D01*
X95594516Y-103685340D01*
X95574811Y-103670726D01*
X95556632Y-103654250D01*
X95540156Y-103636071D01*
X95525542Y-103616366D01*
X95512929Y-103595322D01*
X95502439Y-103573144D01*
X95494174Y-103550044D01*
X95488213Y-103526246D01*
X95484613Y-103501977D01*
X95483409Y-103477473D01*
X95483409Y-102227473D01*
X95484613Y-102202969D01*
X95488213Y-102178700D01*
X95494174Y-102154902D01*
X95502439Y-102131802D01*
X95512929Y-102109624D01*
X95525542Y-102088580D01*
X95540156Y-102068875D01*
X95556632Y-102050696D01*
X95574811Y-102034220D01*
X95594516Y-102019606D01*
X95615560Y-102006993D01*
X95637738Y-101996503D01*
X95660838Y-101988238D01*
X95684636Y-101982277D01*
X95708905Y-101978677D01*
X95733409Y-101977473D01*
X96658409Y-101977473D01*
X96682913Y-101978677D01*
X96682913Y-101978677D01*
G37*
D11*
X96195909Y-102852473D03*
%TD*%
D10*
%TO.C,R25*%
G36*
X93707913Y-105589105D02*
X93732182Y-105592705D01*
X93755980Y-105598666D01*
X93779080Y-105606931D01*
X93801258Y-105617421D01*
X93822302Y-105630034D01*
X93842007Y-105644648D01*
X93860186Y-105661124D01*
X93876662Y-105679303D01*
X93891276Y-105699008D01*
X93903889Y-105720052D01*
X93914379Y-105742230D01*
X93922644Y-105765330D01*
X93928605Y-105789128D01*
X93932205Y-105813397D01*
X93933409Y-105837901D01*
X93933409Y-107087901D01*
X93932205Y-107112405D01*
X93928605Y-107136674D01*
X93922644Y-107160472D01*
X93914379Y-107183572D01*
X93903889Y-107205750D01*
X93891276Y-107226794D01*
X93876662Y-107246499D01*
X93860186Y-107264678D01*
X93842007Y-107281154D01*
X93822302Y-107295768D01*
X93801258Y-107308381D01*
X93779080Y-107318871D01*
X93755980Y-107327136D01*
X93732182Y-107333097D01*
X93707913Y-107336697D01*
X93683409Y-107337901D01*
X92758409Y-107337901D01*
X92733905Y-107336697D01*
X92709636Y-107333097D01*
X92685838Y-107327136D01*
X92662738Y-107318871D01*
X92640560Y-107308381D01*
X92619516Y-107295768D01*
X92599811Y-107281154D01*
X92581632Y-107264678D01*
X92565156Y-107246499D01*
X92550542Y-107226794D01*
X92537929Y-107205750D01*
X92527439Y-107183572D01*
X92519174Y-107160472D01*
X92513213Y-107136674D01*
X92509613Y-107112405D01*
X92508409Y-107087901D01*
X92508409Y-105837901D01*
X92509613Y-105813397D01*
X92513213Y-105789128D01*
X92519174Y-105765330D01*
X92527439Y-105742230D01*
X92537929Y-105720052D01*
X92550542Y-105699008D01*
X92565156Y-105679303D01*
X92581632Y-105661124D01*
X92599811Y-105644648D01*
X92619516Y-105630034D01*
X92640560Y-105617421D01*
X92662738Y-105606931D01*
X92685838Y-105598666D01*
X92709636Y-105592705D01*
X92733905Y-105589105D01*
X92758409Y-105587901D01*
X93683409Y-105587901D01*
X93707913Y-105589105D01*
X93707913Y-105589105D01*
G37*
D11*
X93220909Y-106462901D03*
D10*
G36*
X96682913Y-105589105D02*
X96707182Y-105592705D01*
X96730980Y-105598666D01*
X96754080Y-105606931D01*
X96776258Y-105617421D01*
X96797302Y-105630034D01*
X96817007Y-105644648D01*
X96835186Y-105661124D01*
X96851662Y-105679303D01*
X96866276Y-105699008D01*
X96878889Y-105720052D01*
X96889379Y-105742230D01*
X96897644Y-105765330D01*
X96903605Y-105789128D01*
X96907205Y-105813397D01*
X96908409Y-105837901D01*
X96908409Y-107087901D01*
X96907205Y-107112405D01*
X96903605Y-107136674D01*
X96897644Y-107160472D01*
X96889379Y-107183572D01*
X96878889Y-107205750D01*
X96866276Y-107226794D01*
X96851662Y-107246499D01*
X96835186Y-107264678D01*
X96817007Y-107281154D01*
X96797302Y-107295768D01*
X96776258Y-107308381D01*
X96754080Y-107318871D01*
X96730980Y-107327136D01*
X96707182Y-107333097D01*
X96682913Y-107336697D01*
X96658409Y-107337901D01*
X95733409Y-107337901D01*
X95708905Y-107336697D01*
X95684636Y-107333097D01*
X95660838Y-107327136D01*
X95637738Y-107318871D01*
X95615560Y-107308381D01*
X95594516Y-107295768D01*
X95574811Y-107281154D01*
X95556632Y-107264678D01*
X95540156Y-107246499D01*
X95525542Y-107226794D01*
X95512929Y-107205750D01*
X95502439Y-107183572D01*
X95494174Y-107160472D01*
X95488213Y-107136674D01*
X95484613Y-107112405D01*
X95483409Y-107087901D01*
X95483409Y-105837901D01*
X95484613Y-105813397D01*
X95488213Y-105789128D01*
X95494174Y-105765330D01*
X95502439Y-105742230D01*
X95512929Y-105720052D01*
X95525542Y-105699008D01*
X95540156Y-105679303D01*
X95556632Y-105661124D01*
X95574811Y-105644648D01*
X95594516Y-105630034D01*
X95615560Y-105617421D01*
X95637738Y-105606931D01*
X95660838Y-105598666D01*
X95684636Y-105592705D01*
X95708905Y-105589105D01*
X95733409Y-105587901D01*
X96658409Y-105587901D01*
X96682913Y-105589105D01*
X96682913Y-105589105D01*
G37*
D11*
X96195909Y-106462901D03*
%TD*%
D10*
%TO.C,R26*%
G36*
X96682913Y-109199537D02*
X96707182Y-109203137D01*
X96730980Y-109209098D01*
X96754080Y-109217363D01*
X96776258Y-109227853D01*
X96797302Y-109240466D01*
X96817007Y-109255080D01*
X96835186Y-109271556D01*
X96851662Y-109289735D01*
X96866276Y-109309440D01*
X96878889Y-109330484D01*
X96889379Y-109352662D01*
X96897644Y-109375762D01*
X96903605Y-109399560D01*
X96907205Y-109423829D01*
X96908409Y-109448333D01*
X96908409Y-110698333D01*
X96907205Y-110722837D01*
X96903605Y-110747106D01*
X96897644Y-110770904D01*
X96889379Y-110794004D01*
X96878889Y-110816182D01*
X96866276Y-110837226D01*
X96851662Y-110856931D01*
X96835186Y-110875110D01*
X96817007Y-110891586D01*
X96797302Y-110906200D01*
X96776258Y-110918813D01*
X96754080Y-110929303D01*
X96730980Y-110937568D01*
X96707182Y-110943529D01*
X96682913Y-110947129D01*
X96658409Y-110948333D01*
X95733409Y-110948333D01*
X95708905Y-110947129D01*
X95684636Y-110943529D01*
X95660838Y-110937568D01*
X95637738Y-110929303D01*
X95615560Y-110918813D01*
X95594516Y-110906200D01*
X95574811Y-110891586D01*
X95556632Y-110875110D01*
X95540156Y-110856931D01*
X95525542Y-110837226D01*
X95512929Y-110816182D01*
X95502439Y-110794004D01*
X95494174Y-110770904D01*
X95488213Y-110747106D01*
X95484613Y-110722837D01*
X95483409Y-110698333D01*
X95483409Y-109448333D01*
X95484613Y-109423829D01*
X95488213Y-109399560D01*
X95494174Y-109375762D01*
X95502439Y-109352662D01*
X95512929Y-109330484D01*
X95525542Y-109309440D01*
X95540156Y-109289735D01*
X95556632Y-109271556D01*
X95574811Y-109255080D01*
X95594516Y-109240466D01*
X95615560Y-109227853D01*
X95637738Y-109217363D01*
X95660838Y-109209098D01*
X95684636Y-109203137D01*
X95708905Y-109199537D01*
X95733409Y-109198333D01*
X96658409Y-109198333D01*
X96682913Y-109199537D01*
X96682913Y-109199537D01*
G37*
D11*
X96195909Y-110073333D03*
D10*
G36*
X93707913Y-109199537D02*
X93732182Y-109203137D01*
X93755980Y-109209098D01*
X93779080Y-109217363D01*
X93801258Y-109227853D01*
X93822302Y-109240466D01*
X93842007Y-109255080D01*
X93860186Y-109271556D01*
X93876662Y-109289735D01*
X93891276Y-109309440D01*
X93903889Y-109330484D01*
X93914379Y-109352662D01*
X93922644Y-109375762D01*
X93928605Y-109399560D01*
X93932205Y-109423829D01*
X93933409Y-109448333D01*
X93933409Y-110698333D01*
X93932205Y-110722837D01*
X93928605Y-110747106D01*
X93922644Y-110770904D01*
X93914379Y-110794004D01*
X93903889Y-110816182D01*
X93891276Y-110837226D01*
X93876662Y-110856931D01*
X93860186Y-110875110D01*
X93842007Y-110891586D01*
X93822302Y-110906200D01*
X93801258Y-110918813D01*
X93779080Y-110929303D01*
X93755980Y-110937568D01*
X93732182Y-110943529D01*
X93707913Y-110947129D01*
X93683409Y-110948333D01*
X92758409Y-110948333D01*
X92733905Y-110947129D01*
X92709636Y-110943529D01*
X92685838Y-110937568D01*
X92662738Y-110929303D01*
X92640560Y-110918813D01*
X92619516Y-110906200D01*
X92599811Y-110891586D01*
X92581632Y-110875110D01*
X92565156Y-110856931D01*
X92550542Y-110837226D01*
X92537929Y-110816182D01*
X92527439Y-110794004D01*
X92519174Y-110770904D01*
X92513213Y-110747106D01*
X92509613Y-110722837D01*
X92508409Y-110698333D01*
X92508409Y-109448333D01*
X92509613Y-109423829D01*
X92513213Y-109399560D01*
X92519174Y-109375762D01*
X92527439Y-109352662D01*
X92537929Y-109330484D01*
X92550542Y-109309440D01*
X92565156Y-109289735D01*
X92581632Y-109271556D01*
X92599811Y-109255080D01*
X92619516Y-109240466D01*
X92640560Y-109227853D01*
X92662738Y-109217363D01*
X92685838Y-109209098D01*
X92709636Y-109203137D01*
X92733905Y-109199537D01*
X92758409Y-109198333D01*
X93683409Y-109198333D01*
X93707913Y-109199537D01*
X93707913Y-109199537D01*
G37*
D11*
X93220909Y-110073333D03*
%TD*%
D10*
%TO.C,R27*%
G36*
X93687004Y-112821537D02*
X93711273Y-112825137D01*
X93735071Y-112831098D01*
X93758171Y-112839363D01*
X93780349Y-112849853D01*
X93801393Y-112862466D01*
X93821098Y-112877080D01*
X93839277Y-112893556D01*
X93855753Y-112911735D01*
X93870367Y-112931440D01*
X93882980Y-112952484D01*
X93893470Y-112974662D01*
X93901735Y-112997762D01*
X93907696Y-113021560D01*
X93911296Y-113045829D01*
X93912500Y-113070333D01*
X93912500Y-114320333D01*
X93911296Y-114344837D01*
X93907696Y-114369106D01*
X93901735Y-114392904D01*
X93893470Y-114416004D01*
X93882980Y-114438182D01*
X93870367Y-114459226D01*
X93855753Y-114478931D01*
X93839277Y-114497110D01*
X93821098Y-114513586D01*
X93801393Y-114528200D01*
X93780349Y-114540813D01*
X93758171Y-114551303D01*
X93735071Y-114559568D01*
X93711273Y-114565529D01*
X93687004Y-114569129D01*
X93662500Y-114570333D01*
X92737500Y-114570333D01*
X92712996Y-114569129D01*
X92688727Y-114565529D01*
X92664929Y-114559568D01*
X92641829Y-114551303D01*
X92619651Y-114540813D01*
X92598607Y-114528200D01*
X92578902Y-114513586D01*
X92560723Y-114497110D01*
X92544247Y-114478931D01*
X92529633Y-114459226D01*
X92517020Y-114438182D01*
X92506530Y-114416004D01*
X92498265Y-114392904D01*
X92492304Y-114369106D01*
X92488704Y-114344837D01*
X92487500Y-114320333D01*
X92487500Y-113070333D01*
X92488704Y-113045829D01*
X92492304Y-113021560D01*
X92498265Y-112997762D01*
X92506530Y-112974662D01*
X92517020Y-112952484D01*
X92529633Y-112931440D01*
X92544247Y-112911735D01*
X92560723Y-112893556D01*
X92578902Y-112877080D01*
X92598607Y-112862466D01*
X92619651Y-112849853D01*
X92641829Y-112839363D01*
X92664929Y-112831098D01*
X92688727Y-112825137D01*
X92712996Y-112821537D01*
X92737500Y-112820333D01*
X93662500Y-112820333D01*
X93687004Y-112821537D01*
X93687004Y-112821537D01*
G37*
D11*
X93200000Y-113695333D03*
D10*
G36*
X96662004Y-112821537D02*
X96686273Y-112825137D01*
X96710071Y-112831098D01*
X96733171Y-112839363D01*
X96755349Y-112849853D01*
X96776393Y-112862466D01*
X96796098Y-112877080D01*
X96814277Y-112893556D01*
X96830753Y-112911735D01*
X96845367Y-112931440D01*
X96857980Y-112952484D01*
X96868470Y-112974662D01*
X96876735Y-112997762D01*
X96882696Y-113021560D01*
X96886296Y-113045829D01*
X96887500Y-113070333D01*
X96887500Y-114320333D01*
X96886296Y-114344837D01*
X96882696Y-114369106D01*
X96876735Y-114392904D01*
X96868470Y-114416004D01*
X96857980Y-114438182D01*
X96845367Y-114459226D01*
X96830753Y-114478931D01*
X96814277Y-114497110D01*
X96796098Y-114513586D01*
X96776393Y-114528200D01*
X96755349Y-114540813D01*
X96733171Y-114551303D01*
X96710071Y-114559568D01*
X96686273Y-114565529D01*
X96662004Y-114569129D01*
X96637500Y-114570333D01*
X95712500Y-114570333D01*
X95687996Y-114569129D01*
X95663727Y-114565529D01*
X95639929Y-114559568D01*
X95616829Y-114551303D01*
X95594651Y-114540813D01*
X95573607Y-114528200D01*
X95553902Y-114513586D01*
X95535723Y-114497110D01*
X95519247Y-114478931D01*
X95504633Y-114459226D01*
X95492020Y-114438182D01*
X95481530Y-114416004D01*
X95473265Y-114392904D01*
X95467304Y-114369106D01*
X95463704Y-114344837D01*
X95462500Y-114320333D01*
X95462500Y-113070333D01*
X95463704Y-113045829D01*
X95467304Y-113021560D01*
X95473265Y-112997762D01*
X95481530Y-112974662D01*
X95492020Y-112952484D01*
X95504633Y-112931440D01*
X95519247Y-112911735D01*
X95535723Y-112893556D01*
X95553902Y-112877080D01*
X95573607Y-112862466D01*
X95594651Y-112849853D01*
X95616829Y-112839363D01*
X95639929Y-112831098D01*
X95663727Y-112825137D01*
X95687996Y-112821537D01*
X95712500Y-112820333D01*
X96637500Y-112820333D01*
X96662004Y-112821537D01*
X96662004Y-112821537D01*
G37*
D11*
X96175000Y-113695333D03*
%TD*%
D10*
%TO.C,R28*%
G36*
X81090724Y-138318204D02*
X81114993Y-138321804D01*
X81138791Y-138327765D01*
X81161891Y-138336030D01*
X81184069Y-138346520D01*
X81205113Y-138359133D01*
X81224818Y-138373747D01*
X81242997Y-138390223D01*
X81259473Y-138408402D01*
X81274087Y-138428107D01*
X81286700Y-138449151D01*
X81297190Y-138471329D01*
X81305455Y-138494429D01*
X81311416Y-138518227D01*
X81315016Y-138542496D01*
X81316220Y-138567000D01*
X81316220Y-139817000D01*
X81315016Y-139841504D01*
X81311416Y-139865773D01*
X81305455Y-139889571D01*
X81297190Y-139912671D01*
X81286700Y-139934849D01*
X81274087Y-139955893D01*
X81259473Y-139975598D01*
X81242997Y-139993777D01*
X81224818Y-140010253D01*
X81205113Y-140024867D01*
X81184069Y-140037480D01*
X81161891Y-140047970D01*
X81138791Y-140056235D01*
X81114993Y-140062196D01*
X81090724Y-140065796D01*
X81066220Y-140067000D01*
X80141220Y-140067000D01*
X80116716Y-140065796D01*
X80092447Y-140062196D01*
X80068649Y-140056235D01*
X80045549Y-140047970D01*
X80023371Y-140037480D01*
X80002327Y-140024867D01*
X79982622Y-140010253D01*
X79964443Y-139993777D01*
X79947967Y-139975598D01*
X79933353Y-139955893D01*
X79920740Y-139934849D01*
X79910250Y-139912671D01*
X79901985Y-139889571D01*
X79896024Y-139865773D01*
X79892424Y-139841504D01*
X79891220Y-139817000D01*
X79891220Y-138567000D01*
X79892424Y-138542496D01*
X79896024Y-138518227D01*
X79901985Y-138494429D01*
X79910250Y-138471329D01*
X79920740Y-138449151D01*
X79933353Y-138428107D01*
X79947967Y-138408402D01*
X79964443Y-138390223D01*
X79982622Y-138373747D01*
X80002327Y-138359133D01*
X80023371Y-138346520D01*
X80045549Y-138336030D01*
X80068649Y-138327765D01*
X80092447Y-138321804D01*
X80116716Y-138318204D01*
X80141220Y-138317000D01*
X81066220Y-138317000D01*
X81090724Y-138318204D01*
X81090724Y-138318204D01*
G37*
D11*
X80603720Y-139192000D03*
D10*
G36*
X84065724Y-138318204D02*
X84089993Y-138321804D01*
X84113791Y-138327765D01*
X84136891Y-138336030D01*
X84159069Y-138346520D01*
X84180113Y-138359133D01*
X84199818Y-138373747D01*
X84217997Y-138390223D01*
X84234473Y-138408402D01*
X84249087Y-138428107D01*
X84261700Y-138449151D01*
X84272190Y-138471329D01*
X84280455Y-138494429D01*
X84286416Y-138518227D01*
X84290016Y-138542496D01*
X84291220Y-138567000D01*
X84291220Y-139817000D01*
X84290016Y-139841504D01*
X84286416Y-139865773D01*
X84280455Y-139889571D01*
X84272190Y-139912671D01*
X84261700Y-139934849D01*
X84249087Y-139955893D01*
X84234473Y-139975598D01*
X84217997Y-139993777D01*
X84199818Y-140010253D01*
X84180113Y-140024867D01*
X84159069Y-140037480D01*
X84136891Y-140047970D01*
X84113791Y-140056235D01*
X84089993Y-140062196D01*
X84065724Y-140065796D01*
X84041220Y-140067000D01*
X83116220Y-140067000D01*
X83091716Y-140065796D01*
X83067447Y-140062196D01*
X83043649Y-140056235D01*
X83020549Y-140047970D01*
X82998371Y-140037480D01*
X82977327Y-140024867D01*
X82957622Y-140010253D01*
X82939443Y-139993777D01*
X82922967Y-139975598D01*
X82908353Y-139955893D01*
X82895740Y-139934849D01*
X82885250Y-139912671D01*
X82876985Y-139889571D01*
X82871024Y-139865773D01*
X82867424Y-139841504D01*
X82866220Y-139817000D01*
X82866220Y-138567000D01*
X82867424Y-138542496D01*
X82871024Y-138518227D01*
X82876985Y-138494429D01*
X82885250Y-138471329D01*
X82895740Y-138449151D01*
X82908353Y-138428107D01*
X82922967Y-138408402D01*
X82939443Y-138390223D01*
X82957622Y-138373747D01*
X82977327Y-138359133D01*
X82998371Y-138346520D01*
X83020549Y-138336030D01*
X83043649Y-138327765D01*
X83067447Y-138321804D01*
X83091716Y-138318204D01*
X83116220Y-138317000D01*
X84041220Y-138317000D01*
X84065724Y-138318204D01*
X84065724Y-138318204D01*
G37*
D11*
X83578720Y-139192000D03*
%TD*%
D10*
%TO.C,R29*%
G36*
X81103224Y-140919661D02*
X81127493Y-140923261D01*
X81151291Y-140929222D01*
X81174391Y-140937487D01*
X81196569Y-140947977D01*
X81217613Y-140960590D01*
X81237318Y-140975204D01*
X81255497Y-140991680D01*
X81271973Y-141009859D01*
X81286587Y-141029564D01*
X81299200Y-141050608D01*
X81309690Y-141072786D01*
X81317955Y-141095886D01*
X81323916Y-141119684D01*
X81327516Y-141143953D01*
X81328720Y-141168457D01*
X81328720Y-142418457D01*
X81327516Y-142442961D01*
X81323916Y-142467230D01*
X81317955Y-142491028D01*
X81309690Y-142514128D01*
X81299200Y-142536306D01*
X81286587Y-142557350D01*
X81271973Y-142577055D01*
X81255497Y-142595234D01*
X81237318Y-142611710D01*
X81217613Y-142626324D01*
X81196569Y-142638937D01*
X81174391Y-142649427D01*
X81151291Y-142657692D01*
X81127493Y-142663653D01*
X81103224Y-142667253D01*
X81078720Y-142668457D01*
X80153720Y-142668457D01*
X80129216Y-142667253D01*
X80104947Y-142663653D01*
X80081149Y-142657692D01*
X80058049Y-142649427D01*
X80035871Y-142638937D01*
X80014827Y-142626324D01*
X79995122Y-142611710D01*
X79976943Y-142595234D01*
X79960467Y-142577055D01*
X79945853Y-142557350D01*
X79933240Y-142536306D01*
X79922750Y-142514128D01*
X79914485Y-142491028D01*
X79908524Y-142467230D01*
X79904924Y-142442961D01*
X79903720Y-142418457D01*
X79903720Y-141168457D01*
X79904924Y-141143953D01*
X79908524Y-141119684D01*
X79914485Y-141095886D01*
X79922750Y-141072786D01*
X79933240Y-141050608D01*
X79945853Y-141029564D01*
X79960467Y-141009859D01*
X79976943Y-140991680D01*
X79995122Y-140975204D01*
X80014827Y-140960590D01*
X80035871Y-140947977D01*
X80058049Y-140937487D01*
X80081149Y-140929222D01*
X80104947Y-140923261D01*
X80129216Y-140919661D01*
X80153720Y-140918457D01*
X81078720Y-140918457D01*
X81103224Y-140919661D01*
X81103224Y-140919661D01*
G37*
D11*
X80616220Y-141793457D03*
D10*
G36*
X84078224Y-140919661D02*
X84102493Y-140923261D01*
X84126291Y-140929222D01*
X84149391Y-140937487D01*
X84171569Y-140947977D01*
X84192613Y-140960590D01*
X84212318Y-140975204D01*
X84230497Y-140991680D01*
X84246973Y-141009859D01*
X84261587Y-141029564D01*
X84274200Y-141050608D01*
X84284690Y-141072786D01*
X84292955Y-141095886D01*
X84298916Y-141119684D01*
X84302516Y-141143953D01*
X84303720Y-141168457D01*
X84303720Y-142418457D01*
X84302516Y-142442961D01*
X84298916Y-142467230D01*
X84292955Y-142491028D01*
X84284690Y-142514128D01*
X84274200Y-142536306D01*
X84261587Y-142557350D01*
X84246973Y-142577055D01*
X84230497Y-142595234D01*
X84212318Y-142611710D01*
X84192613Y-142626324D01*
X84171569Y-142638937D01*
X84149391Y-142649427D01*
X84126291Y-142657692D01*
X84102493Y-142663653D01*
X84078224Y-142667253D01*
X84053720Y-142668457D01*
X83128720Y-142668457D01*
X83104216Y-142667253D01*
X83079947Y-142663653D01*
X83056149Y-142657692D01*
X83033049Y-142649427D01*
X83010871Y-142638937D01*
X82989827Y-142626324D01*
X82970122Y-142611710D01*
X82951943Y-142595234D01*
X82935467Y-142577055D01*
X82920853Y-142557350D01*
X82908240Y-142536306D01*
X82897750Y-142514128D01*
X82889485Y-142491028D01*
X82883524Y-142467230D01*
X82879924Y-142442961D01*
X82878720Y-142418457D01*
X82878720Y-141168457D01*
X82879924Y-141143953D01*
X82883524Y-141119684D01*
X82889485Y-141095886D01*
X82897750Y-141072786D01*
X82908240Y-141050608D01*
X82920853Y-141029564D01*
X82935467Y-141009859D01*
X82951943Y-140991680D01*
X82970122Y-140975204D01*
X82989827Y-140960590D01*
X83010871Y-140947977D01*
X83033049Y-140937487D01*
X83056149Y-140929222D01*
X83079947Y-140923261D01*
X83104216Y-140919661D01*
X83128720Y-140918457D01*
X84053720Y-140918457D01*
X84078224Y-140919661D01*
X84078224Y-140919661D01*
G37*
D11*
X83591220Y-141793457D03*
%TD*%
M02*
