%TF.GenerationSoftware,KiCad,Pcbnew,5.0.2-bee76a0~70~ubuntu18.04.1*%
%TF.CreationDate,2019-03-20T18:43:48-06:00*%
%TF.ProjectId,Pi_Breakout_Board,50695f42-7265-4616-9b6f-75745f426f61,rev?*%
%TF.SameCoordinates,Original*%
%TF.FileFunction,Soldermask,Top*%
%TF.FilePolarity,Negative*%
%FSLAX46Y46*%
G04 Gerber Fmt 4.6, Leading zero omitted, Abs format (unit mm)*
G04 Created by KiCad (PCBNEW 5.0.2-bee76a0~70~ubuntu18.04.1) date Wed 20 Mar 2019 06:43:48 PM MDT*
%MOMM*%
%LPD*%
G01*
G04 APERTURE LIST*
%ADD10C,0.100000*%
G04 APERTURE END LIST*
D10*
G36*
X94990228Y-146461703D02*
X95145100Y-146525853D01*
X95284481Y-146618985D01*
X95403015Y-146737519D01*
X95496147Y-146876900D01*
X95560297Y-147031772D01*
X95593000Y-147196184D01*
X95593000Y-147363816D01*
X95560297Y-147528228D01*
X95496147Y-147683100D01*
X95403015Y-147822481D01*
X95284481Y-147941015D01*
X95145100Y-148034147D01*
X94990228Y-148098297D01*
X94825816Y-148131000D01*
X94658184Y-148131000D01*
X94493772Y-148098297D01*
X94338900Y-148034147D01*
X94199519Y-147941015D01*
X94080985Y-147822481D01*
X93987853Y-147683100D01*
X93923703Y-147528228D01*
X93891000Y-147363816D01*
X93891000Y-147196184D01*
X93923703Y-147031772D01*
X93987853Y-146876900D01*
X94080985Y-146737519D01*
X94199519Y-146618985D01*
X94338900Y-146525853D01*
X94493772Y-146461703D01*
X94658184Y-146429000D01*
X94825816Y-146429000D01*
X94990228Y-146461703D01*
X94990228Y-146461703D01*
G37*
G36*
X103318433Y-145134893D02*
X103408657Y-145152839D01*
X103514267Y-145196585D01*
X103663621Y-145258449D01*
X103893089Y-145411774D01*
X104088226Y-145606911D01*
X104241551Y-145836379D01*
X104303415Y-145985733D01*
X104347161Y-146091343D01*
X104353745Y-146124443D01*
X104377570Y-146244219D01*
X104401000Y-146362014D01*
X104401000Y-146637986D01*
X104347161Y-146908657D01*
X104317983Y-146979099D01*
X104241551Y-147163621D01*
X104088226Y-147393089D01*
X103893089Y-147588226D01*
X103663621Y-147741551D01*
X103514267Y-147803415D01*
X103408657Y-147847161D01*
X103318433Y-147865107D01*
X103137988Y-147901000D01*
X102862012Y-147901000D01*
X102681567Y-147865107D01*
X102591343Y-147847161D01*
X102485733Y-147803415D01*
X102336379Y-147741551D01*
X102106911Y-147588226D01*
X101911774Y-147393089D01*
X101758449Y-147163621D01*
X101682017Y-146979099D01*
X101652839Y-146908657D01*
X101599000Y-146637986D01*
X101599000Y-146362014D01*
X101622431Y-146244219D01*
X101646255Y-146124443D01*
X101652839Y-146091343D01*
X101696585Y-145985733D01*
X101758449Y-145836379D01*
X101911774Y-145606911D01*
X102106911Y-145411774D01*
X102336379Y-145258449D01*
X102485733Y-145196585D01*
X102591343Y-145152839D01*
X102681567Y-145134893D01*
X102862012Y-145099000D01*
X103137988Y-145099000D01*
X103318433Y-145134893D01*
X103318433Y-145134893D01*
G37*
G36*
X53818433Y-145134893D02*
X53908657Y-145152839D01*
X54014267Y-145196585D01*
X54163621Y-145258449D01*
X54393089Y-145411774D01*
X54588226Y-145606911D01*
X54741551Y-145836379D01*
X54803415Y-145985733D01*
X54847161Y-146091343D01*
X54853745Y-146124443D01*
X54877570Y-146244219D01*
X54901000Y-146362014D01*
X54901000Y-146637986D01*
X54847161Y-146908657D01*
X54817983Y-146979099D01*
X54741551Y-147163621D01*
X54588226Y-147393089D01*
X54393089Y-147588226D01*
X54163621Y-147741551D01*
X54014267Y-147803415D01*
X53908657Y-147847161D01*
X53818433Y-147865107D01*
X53637988Y-147901000D01*
X53362012Y-147901000D01*
X53181567Y-147865107D01*
X53091343Y-147847161D01*
X52985733Y-147803415D01*
X52836379Y-147741551D01*
X52606911Y-147588226D01*
X52411774Y-147393089D01*
X52258449Y-147163621D01*
X52182017Y-146979099D01*
X52152839Y-146908657D01*
X52099000Y-146637986D01*
X52099000Y-146362014D01*
X52122431Y-146244219D01*
X52146255Y-146124443D01*
X52152839Y-146091343D01*
X52196585Y-145985733D01*
X52258449Y-145836379D01*
X52411774Y-145606911D01*
X52606911Y-145411774D01*
X52836379Y-145258449D01*
X52985733Y-145196585D01*
X53091343Y-145152839D01*
X53181567Y-145134893D01*
X53362012Y-145099000D01*
X53637988Y-145099000D01*
X53818433Y-145134893D01*
X53818433Y-145134893D01*
G37*
G36*
X71980527Y-144284736D02*
X72080410Y-144304604D01*
X72362674Y-144421521D01*
X72616705Y-144591259D01*
X72832741Y-144807295D01*
X73002479Y-145061326D01*
X73119396Y-145343590D01*
X73119396Y-145343591D01*
X73179000Y-145643238D01*
X73179000Y-145948762D01*
X73149554Y-146096794D01*
X73119396Y-146248410D01*
X73002479Y-146530674D01*
X72832741Y-146784705D01*
X72616705Y-147000741D01*
X72362674Y-147170479D01*
X72080410Y-147287396D01*
X71980527Y-147307264D01*
X71780762Y-147347000D01*
X71475238Y-147347000D01*
X71275473Y-147307264D01*
X71175590Y-147287396D01*
X70893326Y-147170479D01*
X70639295Y-147000741D01*
X70423259Y-146784705D01*
X70253521Y-146530674D01*
X70136604Y-146248410D01*
X70106446Y-146096794D01*
X70077000Y-145948762D01*
X70077000Y-145643238D01*
X70136604Y-145343591D01*
X70136604Y-145343590D01*
X70253521Y-145061326D01*
X70423259Y-144807295D01*
X70639295Y-144591259D01*
X70893326Y-144421521D01*
X71175590Y-144304604D01*
X71275473Y-144284736D01*
X71475238Y-144245000D01*
X71780762Y-144245000D01*
X71980527Y-144284736D01*
X71980527Y-144284736D01*
G37*
G36*
X68099000Y-147347000D02*
X64997000Y-147347000D01*
X64997000Y-144245000D01*
X68099000Y-144245000D01*
X68099000Y-147347000D01*
X68099000Y-147347000D01*
G37*
G36*
X83254720Y-144963520D02*
X83443881Y-145020901D01*
X83618212Y-145114083D01*
X83771015Y-145239485D01*
X83896417Y-145392288D01*
X83989599Y-145566620D01*
X84046980Y-145755781D01*
X84061500Y-145903207D01*
X84061500Y-146096794D01*
X84046980Y-146244220D01*
X83989599Y-146433381D01*
X83896417Y-146607712D01*
X83771015Y-146760515D01*
X83618212Y-146885917D01*
X83443880Y-146979099D01*
X83254719Y-147036480D01*
X83058000Y-147055855D01*
X82861280Y-147036480D01*
X82672119Y-146979099D01*
X82497788Y-146885917D01*
X82344985Y-146760515D01*
X82219583Y-146607712D01*
X82126401Y-146433380D01*
X82069020Y-146244219D01*
X82054500Y-146096793D01*
X82054500Y-145903206D01*
X82069020Y-145755780D01*
X82126401Y-145566619D01*
X82219583Y-145392288D01*
X82344985Y-145239485D01*
X82497788Y-145114083D01*
X82672120Y-145020901D01*
X82861281Y-144963520D01*
X83058000Y-144944145D01*
X83254720Y-144963520D01*
X83254720Y-144963520D01*
G37*
G36*
X80714720Y-144963520D02*
X80903881Y-145020901D01*
X81078212Y-145114083D01*
X81231015Y-145239485D01*
X81356417Y-145392288D01*
X81449599Y-145566620D01*
X81506980Y-145755781D01*
X81521500Y-145903207D01*
X81521500Y-146096794D01*
X81506980Y-146244220D01*
X81449599Y-146433381D01*
X81356417Y-146607712D01*
X81231015Y-146760515D01*
X81078212Y-146885917D01*
X80903880Y-146979099D01*
X80714719Y-147036480D01*
X80518000Y-147055855D01*
X80321280Y-147036480D01*
X80132119Y-146979099D01*
X79957788Y-146885917D01*
X79804985Y-146760515D01*
X79679583Y-146607712D01*
X79586401Y-146433380D01*
X79529020Y-146244219D01*
X79514500Y-146096793D01*
X79514500Y-145903206D01*
X79529020Y-145755780D01*
X79586401Y-145566619D01*
X79679583Y-145392288D01*
X79804985Y-145239485D01*
X79957788Y-145114083D01*
X80132120Y-145020901D01*
X80321281Y-144963520D01*
X80518000Y-144944145D01*
X80714720Y-144963520D01*
X80714720Y-144963520D01*
G37*
G36*
X86601500Y-147051000D02*
X84594500Y-147051000D01*
X84594500Y-144949000D01*
X86601500Y-144949000D01*
X86601500Y-147051000D01*
X86601500Y-147051000D01*
G37*
G36*
X59575000Y-146189000D02*
X57773000Y-146189000D01*
X57773000Y-144387000D01*
X59575000Y-144387000D01*
X59575000Y-146189000D01*
X59575000Y-146189000D01*
G37*
G36*
X61324443Y-144393519D02*
X61390627Y-144400037D01*
X61461450Y-144421521D01*
X61560467Y-144451557D01*
X61699087Y-144525652D01*
X61716991Y-144535222D01*
X61752729Y-144564552D01*
X61854186Y-144647814D01*
X61937448Y-144749271D01*
X61966778Y-144785009D01*
X61966779Y-144785011D01*
X62050443Y-144941533D01*
X62067616Y-144998147D01*
X62101963Y-145111373D01*
X62119359Y-145288000D01*
X62101963Y-145464627D01*
X62071025Y-145566615D01*
X62050443Y-145634467D01*
X61985599Y-145755780D01*
X61966778Y-145790991D01*
X61937448Y-145826729D01*
X61854186Y-145928186D01*
X61752729Y-146011448D01*
X61716991Y-146040778D01*
X61716989Y-146040779D01*
X61560467Y-146124443D01*
X61503853Y-146141616D01*
X61390627Y-146175963D01*
X61324443Y-146182481D01*
X61258260Y-146189000D01*
X61169740Y-146189000D01*
X61103557Y-146182481D01*
X61037373Y-146175963D01*
X60924147Y-146141616D01*
X60867533Y-146124443D01*
X60711011Y-146040779D01*
X60711009Y-146040778D01*
X60675271Y-146011448D01*
X60573814Y-145928186D01*
X60490552Y-145826729D01*
X60461222Y-145790991D01*
X60442401Y-145755780D01*
X60377557Y-145634467D01*
X60356975Y-145566615D01*
X60326037Y-145464627D01*
X60308641Y-145288000D01*
X60326037Y-145111373D01*
X60360384Y-144998147D01*
X60377557Y-144941533D01*
X60461221Y-144785011D01*
X60461222Y-144785009D01*
X60490552Y-144749271D01*
X60573814Y-144647814D01*
X60675271Y-144564552D01*
X60711009Y-144535222D01*
X60728913Y-144525652D01*
X60867533Y-144451557D01*
X60966550Y-144421521D01*
X61037373Y-144400037D01*
X61103557Y-144393519D01*
X61169740Y-144387000D01*
X61258260Y-144387000D01*
X61324443Y-144393519D01*
X61324443Y-144393519D01*
G37*
G36*
X95593000Y-145631000D02*
X93891000Y-145631000D01*
X93891000Y-143929000D01*
X95593000Y-143929000D01*
X95593000Y-145631000D01*
X95593000Y-145631000D01*
G37*
G36*
X59449562Y-140972681D02*
X59484477Y-140983273D01*
X59516665Y-141000478D01*
X59544873Y-141023627D01*
X59568022Y-141051835D01*
X59585227Y-141084023D01*
X59595819Y-141118938D01*
X59600000Y-141161395D01*
X59600000Y-142302605D01*
X59595819Y-142345062D01*
X59585227Y-142379977D01*
X59568022Y-142412165D01*
X59544873Y-142440373D01*
X59516665Y-142463522D01*
X59484477Y-142480727D01*
X59449562Y-142491319D01*
X59407105Y-142495500D01*
X57940895Y-142495500D01*
X57898438Y-142491319D01*
X57863523Y-142480727D01*
X57831335Y-142463522D01*
X57803127Y-142440373D01*
X57779978Y-142412165D01*
X57762773Y-142379977D01*
X57752181Y-142345062D01*
X57748000Y-142302605D01*
X57748000Y-141161395D01*
X57752181Y-141118938D01*
X57762773Y-141084023D01*
X57779978Y-141051835D01*
X57803127Y-141023627D01*
X57831335Y-141000478D01*
X57863523Y-140983273D01*
X57898438Y-140972681D01*
X57940895Y-140968500D01*
X59407105Y-140968500D01*
X59449562Y-140972681D01*
X59449562Y-140972681D01*
G37*
G36*
X78265562Y-140756681D02*
X78300477Y-140767273D01*
X78332665Y-140784478D01*
X78360873Y-140807627D01*
X78384022Y-140835835D01*
X78401227Y-140868023D01*
X78411819Y-140902938D01*
X78416000Y-140945395D01*
X78416000Y-142086605D01*
X78411819Y-142129062D01*
X78401227Y-142163977D01*
X78384022Y-142196165D01*
X78360873Y-142224373D01*
X78332665Y-142247522D01*
X78300477Y-142264727D01*
X78265562Y-142275319D01*
X78223105Y-142279500D01*
X75856895Y-142279500D01*
X75814438Y-142275319D01*
X75779523Y-142264727D01*
X75747335Y-142247522D01*
X75719127Y-142224373D01*
X75695978Y-142196165D01*
X75678773Y-142163977D01*
X75668181Y-142129062D01*
X75664000Y-142086605D01*
X75664000Y-140945395D01*
X75668181Y-140902938D01*
X75678773Y-140868023D01*
X75695978Y-140835835D01*
X75719127Y-140807627D01*
X75747335Y-140784478D01*
X75779523Y-140767273D01*
X75814438Y-140756681D01*
X75856895Y-140752500D01*
X78223105Y-140752500D01*
X78265562Y-140756681D01*
X78265562Y-140756681D01*
G37*
G36*
X55765000Y-142125000D02*
X53963000Y-142125000D01*
X53963000Y-140323000D01*
X55765000Y-140323000D01*
X55765000Y-142125000D01*
X55765000Y-142125000D01*
G37*
G36*
X52434442Y-140329518D02*
X52500627Y-140336037D01*
X52613853Y-140370384D01*
X52670467Y-140387557D01*
X52789159Y-140451000D01*
X52826991Y-140471222D01*
X52862729Y-140500552D01*
X52964186Y-140583814D01*
X53047448Y-140685271D01*
X53076778Y-140721009D01*
X53076779Y-140721011D01*
X53160443Y-140877533D01*
X53160443Y-140877534D01*
X53211963Y-141047373D01*
X53229359Y-141224000D01*
X53211963Y-141400627D01*
X53199109Y-141443000D01*
X53160443Y-141570467D01*
X53086348Y-141709087D01*
X53076778Y-141726991D01*
X53047448Y-141762729D01*
X52964186Y-141864186D01*
X52862729Y-141947448D01*
X52826991Y-141976778D01*
X52826989Y-141976779D01*
X52670467Y-142060443D01*
X52613853Y-142077616D01*
X52500627Y-142111963D01*
X52434443Y-142118481D01*
X52368260Y-142125000D01*
X52279740Y-142125000D01*
X52213557Y-142118481D01*
X52147373Y-142111963D01*
X52034147Y-142077616D01*
X51977533Y-142060443D01*
X51821011Y-141976779D01*
X51821009Y-141976778D01*
X51785271Y-141947448D01*
X51683814Y-141864186D01*
X51600552Y-141762729D01*
X51571222Y-141726991D01*
X51561652Y-141709087D01*
X51487557Y-141570467D01*
X51448891Y-141443000D01*
X51436037Y-141400627D01*
X51418641Y-141224000D01*
X51436037Y-141047373D01*
X51487557Y-140877534D01*
X51487557Y-140877533D01*
X51571221Y-140721011D01*
X51571222Y-140721009D01*
X51600552Y-140685271D01*
X51683814Y-140583814D01*
X51785271Y-140500552D01*
X51821009Y-140471222D01*
X51858841Y-140451000D01*
X51977533Y-140387557D01*
X52034147Y-140370384D01*
X52147373Y-140336037D01*
X52213558Y-140329518D01*
X52279740Y-140323000D01*
X52368260Y-140323000D01*
X52434442Y-140329518D01*
X52434442Y-140329518D01*
G37*
G36*
X90901000Y-141601000D02*
X88799000Y-141601000D01*
X88799000Y-139999000D01*
X90901000Y-139999000D01*
X90901000Y-141601000D01*
X90901000Y-141601000D01*
G37*
G36*
X86315562Y-139920181D02*
X86350477Y-139930773D01*
X86382665Y-139947978D01*
X86410873Y-139971127D01*
X86434022Y-139999335D01*
X86451227Y-140031523D01*
X86461819Y-140066438D01*
X86466000Y-140108895D01*
X86466000Y-141250105D01*
X86461819Y-141292562D01*
X86451227Y-141327477D01*
X86434022Y-141359665D01*
X86410873Y-141387873D01*
X86382665Y-141411022D01*
X86350477Y-141428227D01*
X86315562Y-141438819D01*
X86273105Y-141443000D01*
X83906895Y-141443000D01*
X83864438Y-141438819D01*
X83829523Y-141428227D01*
X83797335Y-141411022D01*
X83769127Y-141387873D01*
X83745978Y-141359665D01*
X83728773Y-141327477D01*
X83718181Y-141292562D01*
X83714000Y-141250105D01*
X83714000Y-140108895D01*
X83718181Y-140066438D01*
X83728773Y-140031523D01*
X83745978Y-139999335D01*
X83769127Y-139971127D01*
X83797335Y-139947978D01*
X83829523Y-139930773D01*
X83864438Y-139920181D01*
X83906895Y-139916000D01*
X86273105Y-139916000D01*
X86315562Y-139920181D01*
X86315562Y-139920181D01*
G37*
G36*
X82251562Y-139920181D02*
X82286477Y-139930773D01*
X82318665Y-139947978D01*
X82346873Y-139971127D01*
X82370022Y-139999335D01*
X82387227Y-140031523D01*
X82397819Y-140066438D01*
X82402000Y-140108895D01*
X82402000Y-141250105D01*
X82397819Y-141292562D01*
X82387227Y-141327477D01*
X82370022Y-141359665D01*
X82346873Y-141387873D01*
X82318665Y-141411022D01*
X82286477Y-141428227D01*
X82251562Y-141438819D01*
X82209105Y-141443000D01*
X79842895Y-141443000D01*
X79800438Y-141438819D01*
X79765523Y-141428227D01*
X79733335Y-141411022D01*
X79705127Y-141387873D01*
X79681978Y-141359665D01*
X79664773Y-141327477D01*
X79654181Y-141292562D01*
X79650000Y-141250105D01*
X79650000Y-140108895D01*
X79654181Y-140066438D01*
X79664773Y-140031523D01*
X79681978Y-139999335D01*
X79705127Y-139971127D01*
X79733335Y-139947978D01*
X79765523Y-139930773D01*
X79800438Y-139920181D01*
X79842895Y-139916000D01*
X82209105Y-139916000D01*
X82251562Y-139920181D01*
X82251562Y-139920181D01*
G37*
G36*
X97201000Y-140451000D02*
X95099000Y-140451000D01*
X95099000Y-136549000D01*
X97201000Y-136549000D01*
X97201000Y-140451000D01*
X97201000Y-140451000D01*
G37*
G36*
X72871677Y-138445465D02*
X72909364Y-138456898D01*
X72944103Y-138475466D01*
X72974548Y-138500452D01*
X72999534Y-138530897D01*
X73018102Y-138565636D01*
X73029535Y-138603323D01*
X73034000Y-138648661D01*
X73034000Y-139735339D01*
X73029535Y-139780677D01*
X73018102Y-139818364D01*
X72999534Y-139853103D01*
X72974548Y-139883548D01*
X72944103Y-139908534D01*
X72909364Y-139927102D01*
X72871677Y-139938535D01*
X72826339Y-139943000D01*
X71989661Y-139943000D01*
X71944323Y-139938535D01*
X71906636Y-139927102D01*
X71871897Y-139908534D01*
X71841452Y-139883548D01*
X71816466Y-139853103D01*
X71797898Y-139818364D01*
X71786465Y-139780677D01*
X71782000Y-139735339D01*
X71782000Y-138648661D01*
X71786465Y-138603323D01*
X71797898Y-138565636D01*
X71816466Y-138530897D01*
X71841452Y-138500452D01*
X71871897Y-138475466D01*
X71906636Y-138456898D01*
X71944323Y-138445465D01*
X71989661Y-138441000D01*
X72826339Y-138441000D01*
X72871677Y-138445465D01*
X72871677Y-138445465D01*
G37*
G36*
X70821677Y-138445465D02*
X70859364Y-138456898D01*
X70894103Y-138475466D01*
X70924548Y-138500452D01*
X70949534Y-138530897D01*
X70968102Y-138565636D01*
X70979535Y-138603323D01*
X70984000Y-138648661D01*
X70984000Y-139735339D01*
X70979535Y-139780677D01*
X70968102Y-139818364D01*
X70949534Y-139853103D01*
X70924548Y-139883548D01*
X70894103Y-139908534D01*
X70859364Y-139927102D01*
X70821677Y-139938535D01*
X70776339Y-139943000D01*
X69939661Y-139943000D01*
X69894323Y-139938535D01*
X69856636Y-139927102D01*
X69821897Y-139908534D01*
X69791452Y-139883548D01*
X69766466Y-139853103D01*
X69747898Y-139818364D01*
X69736465Y-139780677D01*
X69732000Y-139735339D01*
X69732000Y-138648661D01*
X69736465Y-138603323D01*
X69747898Y-138565636D01*
X69766466Y-138530897D01*
X69791452Y-138500452D01*
X69821897Y-138475466D01*
X69856636Y-138456898D01*
X69894323Y-138445465D01*
X69939661Y-138441000D01*
X70776339Y-138441000D01*
X70821677Y-138445465D01*
X70821677Y-138445465D01*
G37*
G36*
X66739677Y-138445465D02*
X66777364Y-138456898D01*
X66812103Y-138475466D01*
X66842548Y-138500452D01*
X66867534Y-138530897D01*
X66886102Y-138565636D01*
X66897535Y-138603323D01*
X66902000Y-138648661D01*
X66902000Y-139735339D01*
X66897535Y-139780677D01*
X66886102Y-139818364D01*
X66867534Y-139853103D01*
X66842548Y-139883548D01*
X66812103Y-139908534D01*
X66777364Y-139927102D01*
X66739677Y-139938535D01*
X66694339Y-139943000D01*
X65857661Y-139943000D01*
X65812323Y-139938535D01*
X65774636Y-139927102D01*
X65739897Y-139908534D01*
X65709452Y-139883548D01*
X65684466Y-139853103D01*
X65665898Y-139818364D01*
X65654465Y-139780677D01*
X65650000Y-139735339D01*
X65650000Y-138648661D01*
X65654465Y-138603323D01*
X65665898Y-138565636D01*
X65684466Y-138530897D01*
X65709452Y-138500452D01*
X65739897Y-138475466D01*
X65774636Y-138456898D01*
X65812323Y-138445465D01*
X65857661Y-138441000D01*
X66694339Y-138441000D01*
X66739677Y-138445465D01*
X66739677Y-138445465D01*
G37*
G36*
X68789677Y-138445465D02*
X68827364Y-138456898D01*
X68862103Y-138475466D01*
X68892548Y-138500452D01*
X68917534Y-138530897D01*
X68936102Y-138565636D01*
X68947535Y-138603323D01*
X68952000Y-138648661D01*
X68952000Y-139735339D01*
X68947535Y-139780677D01*
X68936102Y-139818364D01*
X68917534Y-139853103D01*
X68892548Y-139883548D01*
X68862103Y-139908534D01*
X68827364Y-139927102D01*
X68789677Y-139938535D01*
X68744339Y-139943000D01*
X67907661Y-139943000D01*
X67862323Y-139938535D01*
X67824636Y-139927102D01*
X67789897Y-139908534D01*
X67759452Y-139883548D01*
X67734466Y-139853103D01*
X67715898Y-139818364D01*
X67704465Y-139780677D01*
X67700000Y-139735339D01*
X67700000Y-138648661D01*
X67704465Y-138603323D01*
X67715898Y-138565636D01*
X67734466Y-138530897D01*
X67759452Y-138500452D01*
X67789897Y-138475466D01*
X67824636Y-138456898D01*
X67862323Y-138445465D01*
X67907661Y-138441000D01*
X68744339Y-138441000D01*
X68789677Y-138445465D01*
X68789677Y-138445465D01*
G37*
G36*
X62751562Y-138396181D02*
X62786477Y-138406773D01*
X62818665Y-138423978D01*
X62846873Y-138447127D01*
X62870022Y-138475335D01*
X62887227Y-138507523D01*
X62897819Y-138542438D01*
X62902000Y-138584895D01*
X62902000Y-139726105D01*
X62897819Y-139768562D01*
X62887227Y-139803477D01*
X62870022Y-139835665D01*
X62846873Y-139863873D01*
X62818665Y-139887022D01*
X62786477Y-139904227D01*
X62751562Y-139914819D01*
X62709105Y-139919000D01*
X61242895Y-139919000D01*
X61200438Y-139914819D01*
X61165523Y-139904227D01*
X61133335Y-139887022D01*
X61105127Y-139863873D01*
X61081978Y-139835665D01*
X61064773Y-139803477D01*
X61054181Y-139768562D01*
X61050000Y-139726105D01*
X61050000Y-138584895D01*
X61054181Y-138542438D01*
X61064773Y-138507523D01*
X61081978Y-138475335D01*
X61105127Y-138447127D01*
X61133335Y-138423978D01*
X61165523Y-138406773D01*
X61200438Y-138396181D01*
X61242895Y-138392000D01*
X62709105Y-138392000D01*
X62751562Y-138396181D01*
X62751562Y-138396181D01*
G37*
G36*
X52434443Y-137789519D02*
X52500627Y-137796037D01*
X52613853Y-137830384D01*
X52670467Y-137847557D01*
X52799342Y-137916443D01*
X52826991Y-137931222D01*
X52841191Y-137942876D01*
X52964186Y-138043814D01*
X53020604Y-138112561D01*
X53076778Y-138181009D01*
X53076779Y-138181011D01*
X53160443Y-138337533D01*
X53160443Y-138337534D01*
X53211963Y-138507373D01*
X53229359Y-138684000D01*
X53211963Y-138860627D01*
X53177616Y-138973853D01*
X53160443Y-139030467D01*
X53157162Y-139036605D01*
X53076778Y-139186991D01*
X53075148Y-139188977D01*
X52964186Y-139324186D01*
X52865740Y-139404977D01*
X52826991Y-139436778D01*
X52826989Y-139436779D01*
X52670467Y-139520443D01*
X52613853Y-139537616D01*
X52500627Y-139571963D01*
X52434443Y-139578481D01*
X52368260Y-139585000D01*
X52279740Y-139585000D01*
X52213557Y-139578481D01*
X52147373Y-139571963D01*
X52034147Y-139537616D01*
X51977533Y-139520443D01*
X51821011Y-139436779D01*
X51821009Y-139436778D01*
X51782260Y-139404977D01*
X51683814Y-139324186D01*
X51572852Y-139188977D01*
X51571222Y-139186991D01*
X51490838Y-139036605D01*
X51487557Y-139030467D01*
X51470384Y-138973853D01*
X51436037Y-138860627D01*
X51418641Y-138684000D01*
X51436037Y-138507373D01*
X51487557Y-138337534D01*
X51487557Y-138337533D01*
X51571221Y-138181011D01*
X51571222Y-138181009D01*
X51627396Y-138112561D01*
X51683814Y-138043814D01*
X51806809Y-137942876D01*
X51821009Y-137931222D01*
X51848658Y-137916443D01*
X51977533Y-137847557D01*
X52034147Y-137830384D01*
X52147373Y-137796037D01*
X52213557Y-137789519D01*
X52279740Y-137783000D01*
X52368260Y-137783000D01*
X52434443Y-137789519D01*
X52434443Y-137789519D01*
G37*
G36*
X54974443Y-137789519D02*
X55040627Y-137796037D01*
X55153853Y-137830384D01*
X55210467Y-137847557D01*
X55339342Y-137916443D01*
X55366991Y-137931222D01*
X55381191Y-137942876D01*
X55504186Y-138043814D01*
X55560604Y-138112561D01*
X55616778Y-138181009D01*
X55616779Y-138181011D01*
X55700443Y-138337533D01*
X55700443Y-138337534D01*
X55751963Y-138507373D01*
X55769359Y-138684000D01*
X55751963Y-138860627D01*
X55717616Y-138973853D01*
X55700443Y-139030467D01*
X55697162Y-139036605D01*
X55616778Y-139186991D01*
X55615148Y-139188977D01*
X55504186Y-139324186D01*
X55405740Y-139404977D01*
X55366991Y-139436778D01*
X55366989Y-139436779D01*
X55210467Y-139520443D01*
X55153853Y-139537616D01*
X55040627Y-139571963D01*
X54974443Y-139578481D01*
X54908260Y-139585000D01*
X54819740Y-139585000D01*
X54753557Y-139578481D01*
X54687373Y-139571963D01*
X54574147Y-139537616D01*
X54517533Y-139520443D01*
X54361011Y-139436779D01*
X54361009Y-139436778D01*
X54322260Y-139404977D01*
X54223814Y-139324186D01*
X54112852Y-139188977D01*
X54111222Y-139186991D01*
X54030838Y-139036605D01*
X54027557Y-139030467D01*
X54010384Y-138973853D01*
X53976037Y-138860627D01*
X53958641Y-138684000D01*
X53976037Y-138507373D01*
X54027557Y-138337534D01*
X54027557Y-138337533D01*
X54111221Y-138181011D01*
X54111222Y-138181009D01*
X54167396Y-138112561D01*
X54223814Y-138043814D01*
X54346809Y-137942876D01*
X54361009Y-137931222D01*
X54388658Y-137916443D01*
X54517533Y-137847557D01*
X54574147Y-137830384D01*
X54687373Y-137796037D01*
X54753557Y-137789519D01*
X54819740Y-137783000D01*
X54908260Y-137783000D01*
X54974443Y-137789519D01*
X54974443Y-137789519D01*
G37*
G36*
X59449562Y-137997681D02*
X59484477Y-138008273D01*
X59516665Y-138025478D01*
X59544873Y-138048627D01*
X59568022Y-138076835D01*
X59585227Y-138109023D01*
X59595819Y-138143938D01*
X59600000Y-138186395D01*
X59600000Y-139327605D01*
X59595819Y-139370062D01*
X59585227Y-139404977D01*
X59568022Y-139437165D01*
X59544873Y-139465373D01*
X59516665Y-139488522D01*
X59484477Y-139505727D01*
X59449562Y-139516319D01*
X59407105Y-139520500D01*
X57940895Y-139520500D01*
X57898438Y-139516319D01*
X57863523Y-139505727D01*
X57831335Y-139488522D01*
X57803127Y-139465373D01*
X57779978Y-139437165D01*
X57762773Y-139404977D01*
X57752181Y-139370062D01*
X57748000Y-139327605D01*
X57748000Y-138186395D01*
X57752181Y-138143938D01*
X57762773Y-138109023D01*
X57779978Y-138076835D01*
X57803127Y-138048627D01*
X57831335Y-138025478D01*
X57863523Y-138008273D01*
X57898438Y-137997681D01*
X57940895Y-137993500D01*
X59407105Y-137993500D01*
X59449562Y-137997681D01*
X59449562Y-137997681D01*
G37*
G36*
X78265562Y-137781681D02*
X78300477Y-137792273D01*
X78332665Y-137809478D01*
X78360873Y-137832627D01*
X78384022Y-137860835D01*
X78401227Y-137893023D01*
X78411819Y-137927938D01*
X78416000Y-137970395D01*
X78416000Y-139111605D01*
X78411819Y-139154062D01*
X78401227Y-139188977D01*
X78384022Y-139221165D01*
X78360873Y-139249373D01*
X78332665Y-139272522D01*
X78300477Y-139289727D01*
X78265562Y-139300319D01*
X78223105Y-139304500D01*
X75856895Y-139304500D01*
X75814438Y-139300319D01*
X75779523Y-139289727D01*
X75747335Y-139272522D01*
X75719127Y-139249373D01*
X75695978Y-139221165D01*
X75678773Y-139188977D01*
X75668181Y-139154062D01*
X75664000Y-139111605D01*
X75664000Y-137970395D01*
X75668181Y-137927938D01*
X75678773Y-137893023D01*
X75695978Y-137860835D01*
X75719127Y-137832627D01*
X75747335Y-137809478D01*
X75779523Y-137792273D01*
X75814438Y-137781681D01*
X75856895Y-137777500D01*
X78223105Y-137777500D01*
X78265562Y-137781681D01*
X78265562Y-137781681D01*
G37*
G36*
X90901000Y-139301000D02*
X88799000Y-139301000D01*
X88799000Y-137699000D01*
X90901000Y-137699000D01*
X90901000Y-139301000D01*
X90901000Y-139301000D01*
G37*
G36*
X86315562Y-136945181D02*
X86350477Y-136955773D01*
X86382665Y-136972978D01*
X86410873Y-136996127D01*
X86434022Y-137024335D01*
X86451227Y-137056523D01*
X86461819Y-137091438D01*
X86466000Y-137133895D01*
X86466000Y-138275105D01*
X86461819Y-138317562D01*
X86451227Y-138352477D01*
X86434022Y-138384665D01*
X86410873Y-138412873D01*
X86382665Y-138436022D01*
X86350477Y-138453227D01*
X86315562Y-138463819D01*
X86273105Y-138468000D01*
X83906895Y-138468000D01*
X83864438Y-138463819D01*
X83829523Y-138453227D01*
X83797335Y-138436022D01*
X83769127Y-138412873D01*
X83745978Y-138384665D01*
X83728773Y-138352477D01*
X83718181Y-138317562D01*
X83714000Y-138275105D01*
X83714000Y-137133895D01*
X83718181Y-137091438D01*
X83728773Y-137056523D01*
X83745978Y-137024335D01*
X83769127Y-136996127D01*
X83797335Y-136972978D01*
X83829523Y-136955773D01*
X83864438Y-136945181D01*
X83906895Y-136941000D01*
X86273105Y-136941000D01*
X86315562Y-136945181D01*
X86315562Y-136945181D01*
G37*
G36*
X82251562Y-136945181D02*
X82286477Y-136955773D01*
X82318665Y-136972978D01*
X82346873Y-136996127D01*
X82370022Y-137024335D01*
X82387227Y-137056523D01*
X82397819Y-137091438D01*
X82402000Y-137133895D01*
X82402000Y-138275105D01*
X82397819Y-138317562D01*
X82387227Y-138352477D01*
X82370022Y-138384665D01*
X82346873Y-138412873D01*
X82318665Y-138436022D01*
X82286477Y-138453227D01*
X82251562Y-138463819D01*
X82209105Y-138468000D01*
X79842895Y-138468000D01*
X79800438Y-138463819D01*
X79765523Y-138453227D01*
X79733335Y-138436022D01*
X79705127Y-138412873D01*
X79681978Y-138384665D01*
X79664773Y-138352477D01*
X79654181Y-138317562D01*
X79650000Y-138275105D01*
X79650000Y-137133895D01*
X79654181Y-137091438D01*
X79664773Y-137056523D01*
X79681978Y-137024335D01*
X79705127Y-136996127D01*
X79733335Y-136972978D01*
X79765523Y-136955773D01*
X79800438Y-136945181D01*
X79842895Y-136941000D01*
X82209105Y-136941000D01*
X82251562Y-136945181D01*
X82251562Y-136945181D01*
G37*
G36*
X101070442Y-136185518D02*
X101136627Y-136192037D01*
X101249853Y-136226384D01*
X101306467Y-136243557D01*
X101445087Y-136317652D01*
X101462991Y-136327222D01*
X101498729Y-136356552D01*
X101600186Y-136439814D01*
X101683448Y-136541271D01*
X101712778Y-136577009D01*
X101712779Y-136577011D01*
X101796443Y-136733533D01*
X101796443Y-136733534D01*
X101847963Y-136903373D01*
X101865359Y-137080000D01*
X101847963Y-137256627D01*
X101813616Y-137369853D01*
X101796443Y-137426467D01*
X101722348Y-137565087D01*
X101712778Y-137582991D01*
X101683448Y-137618729D01*
X101600186Y-137720186D01*
X101498729Y-137803448D01*
X101462991Y-137832778D01*
X101462989Y-137832779D01*
X101306467Y-137916443D01*
X101257746Y-137931222D01*
X101136627Y-137967963D01*
X101070442Y-137974482D01*
X101004260Y-137981000D01*
X100915740Y-137981000D01*
X100849558Y-137974482D01*
X100783373Y-137967963D01*
X100662254Y-137931222D01*
X100613533Y-137916443D01*
X100457011Y-137832779D01*
X100457009Y-137832778D01*
X100421271Y-137803448D01*
X100319814Y-137720186D01*
X100236552Y-137618729D01*
X100207222Y-137582991D01*
X100197652Y-137565087D01*
X100123557Y-137426467D01*
X100106384Y-137369853D01*
X100072037Y-137256627D01*
X100054641Y-137080000D01*
X100072037Y-136903373D01*
X100123557Y-136733534D01*
X100123557Y-136733533D01*
X100207221Y-136577011D01*
X100207222Y-136577009D01*
X100236552Y-136541271D01*
X100319814Y-136439814D01*
X100421271Y-136356552D01*
X100457009Y-136327222D01*
X100474913Y-136317652D01*
X100613533Y-136243557D01*
X100670147Y-136226384D01*
X100783373Y-136192037D01*
X100849558Y-136185518D01*
X100915740Y-136179000D01*
X101004260Y-136179000D01*
X101070442Y-136185518D01*
X101070442Y-136185518D01*
G37*
G36*
X103610442Y-136185518D02*
X103676627Y-136192037D01*
X103789853Y-136226384D01*
X103846467Y-136243557D01*
X103985087Y-136317652D01*
X104002991Y-136327222D01*
X104038729Y-136356552D01*
X104140186Y-136439814D01*
X104223448Y-136541271D01*
X104252778Y-136577009D01*
X104252779Y-136577011D01*
X104336443Y-136733533D01*
X104336443Y-136733534D01*
X104387963Y-136903373D01*
X104405359Y-137080000D01*
X104387963Y-137256627D01*
X104353616Y-137369853D01*
X104336443Y-137426467D01*
X104262348Y-137565087D01*
X104252778Y-137582991D01*
X104223448Y-137618729D01*
X104140186Y-137720186D01*
X104038729Y-137803448D01*
X104002991Y-137832778D01*
X104002989Y-137832779D01*
X103846467Y-137916443D01*
X103797746Y-137931222D01*
X103676627Y-137967963D01*
X103610442Y-137974482D01*
X103544260Y-137981000D01*
X103455740Y-137981000D01*
X103389558Y-137974482D01*
X103323373Y-137967963D01*
X103202254Y-137931222D01*
X103153533Y-137916443D01*
X102997011Y-137832779D01*
X102997009Y-137832778D01*
X102961271Y-137803448D01*
X102859814Y-137720186D01*
X102776552Y-137618729D01*
X102747222Y-137582991D01*
X102737652Y-137565087D01*
X102663557Y-137426467D01*
X102646384Y-137369853D01*
X102612037Y-137256627D01*
X102594641Y-137080000D01*
X102612037Y-136903373D01*
X102663557Y-136733534D01*
X102663557Y-136733533D01*
X102747221Y-136577011D01*
X102747222Y-136577009D01*
X102776552Y-136541271D01*
X102859814Y-136439814D01*
X102961271Y-136356552D01*
X102997009Y-136327222D01*
X103014913Y-136317652D01*
X103153533Y-136243557D01*
X103210147Y-136226384D01*
X103323373Y-136192037D01*
X103389558Y-136185518D01*
X103455740Y-136179000D01*
X103544260Y-136179000D01*
X103610442Y-136185518D01*
X103610442Y-136185518D01*
G37*
G36*
X52434443Y-135249519D02*
X52500627Y-135256037D01*
X52613853Y-135290384D01*
X52670467Y-135307557D01*
X52799342Y-135376443D01*
X52826991Y-135391222D01*
X52836468Y-135399000D01*
X52964186Y-135503814D01*
X53028659Y-135582376D01*
X53076778Y-135641009D01*
X53076779Y-135641011D01*
X53160443Y-135797533D01*
X53160443Y-135797534D01*
X53211963Y-135967373D01*
X53229359Y-136144000D01*
X53211963Y-136320627D01*
X53209962Y-136327222D01*
X53160443Y-136490467D01*
X53086348Y-136629087D01*
X53076778Y-136646991D01*
X53047448Y-136682729D01*
X52964186Y-136784186D01*
X52870995Y-136860665D01*
X52826991Y-136896778D01*
X52826989Y-136896779D01*
X52670467Y-136980443D01*
X52618763Y-136996127D01*
X52500627Y-137031963D01*
X52434443Y-137038481D01*
X52368260Y-137045000D01*
X52279740Y-137045000D01*
X52213557Y-137038481D01*
X52147373Y-137031963D01*
X52029237Y-136996127D01*
X51977533Y-136980443D01*
X51821011Y-136896779D01*
X51821009Y-136896778D01*
X51777005Y-136860665D01*
X51683814Y-136784186D01*
X51600552Y-136682729D01*
X51571222Y-136646991D01*
X51561652Y-136629087D01*
X51487557Y-136490467D01*
X51438038Y-136327222D01*
X51436037Y-136320627D01*
X51418641Y-136144000D01*
X51436037Y-135967373D01*
X51487557Y-135797534D01*
X51487557Y-135797533D01*
X51571221Y-135641011D01*
X51571222Y-135641009D01*
X51619341Y-135582376D01*
X51683814Y-135503814D01*
X51811532Y-135399000D01*
X51821009Y-135391222D01*
X51848658Y-135376443D01*
X51977533Y-135307557D01*
X52034147Y-135290384D01*
X52147373Y-135256037D01*
X52213557Y-135249519D01*
X52279740Y-135243000D01*
X52368260Y-135243000D01*
X52434443Y-135249519D01*
X52434443Y-135249519D01*
G37*
G36*
X54974443Y-135249519D02*
X55040627Y-135256037D01*
X55153853Y-135290384D01*
X55210467Y-135307557D01*
X55339342Y-135376443D01*
X55366991Y-135391222D01*
X55376468Y-135399000D01*
X55504186Y-135503814D01*
X55568659Y-135582376D01*
X55616778Y-135641009D01*
X55616779Y-135641011D01*
X55700443Y-135797533D01*
X55700443Y-135797534D01*
X55751963Y-135967373D01*
X55769359Y-136144000D01*
X55751963Y-136320627D01*
X55749962Y-136327222D01*
X55700443Y-136490467D01*
X55626348Y-136629087D01*
X55616778Y-136646991D01*
X55587448Y-136682729D01*
X55504186Y-136784186D01*
X55410995Y-136860665D01*
X55366991Y-136896778D01*
X55366989Y-136896779D01*
X55210467Y-136980443D01*
X55158763Y-136996127D01*
X55040627Y-137031963D01*
X54974443Y-137038481D01*
X54908260Y-137045000D01*
X54819740Y-137045000D01*
X54753557Y-137038481D01*
X54687373Y-137031963D01*
X54569237Y-136996127D01*
X54517533Y-136980443D01*
X54361011Y-136896779D01*
X54361009Y-136896778D01*
X54317005Y-136860665D01*
X54223814Y-136784186D01*
X54140552Y-136682729D01*
X54111222Y-136646991D01*
X54101652Y-136629087D01*
X54027557Y-136490467D01*
X53978038Y-136327222D01*
X53976037Y-136320627D01*
X53958641Y-136144000D01*
X53976037Y-135967373D01*
X54027557Y-135797534D01*
X54027557Y-135797533D01*
X54111221Y-135641011D01*
X54111222Y-135641009D01*
X54159341Y-135582376D01*
X54223814Y-135503814D01*
X54351532Y-135399000D01*
X54361009Y-135391222D01*
X54388658Y-135376443D01*
X54517533Y-135307557D01*
X54574147Y-135290384D01*
X54687373Y-135256037D01*
X54753557Y-135249519D01*
X54819740Y-135243000D01*
X54908260Y-135243000D01*
X54974443Y-135249519D01*
X54974443Y-135249519D01*
G37*
G36*
X90901000Y-137001000D02*
X88799000Y-137001000D01*
X88799000Y-135399000D01*
X90901000Y-135399000D01*
X90901000Y-137001000D01*
X90901000Y-137001000D01*
G37*
G36*
X62751562Y-135421181D02*
X62786477Y-135431773D01*
X62818665Y-135448978D01*
X62846873Y-135472127D01*
X62870022Y-135500335D01*
X62887227Y-135532523D01*
X62897819Y-135567438D01*
X62902000Y-135609895D01*
X62902000Y-136751105D01*
X62897819Y-136793562D01*
X62887227Y-136828477D01*
X62870022Y-136860665D01*
X62846873Y-136888873D01*
X62818665Y-136912022D01*
X62786477Y-136929227D01*
X62751562Y-136939819D01*
X62709105Y-136944000D01*
X61242895Y-136944000D01*
X61200438Y-136939819D01*
X61165523Y-136929227D01*
X61133335Y-136912022D01*
X61105127Y-136888873D01*
X61081978Y-136860665D01*
X61064773Y-136828477D01*
X61054181Y-136793562D01*
X61050000Y-136751105D01*
X61050000Y-135609895D01*
X61054181Y-135567438D01*
X61064773Y-135532523D01*
X61081978Y-135500335D01*
X61105127Y-135472127D01*
X61133335Y-135448978D01*
X61165523Y-135431773D01*
X61200438Y-135421181D01*
X61242895Y-135417000D01*
X62709105Y-135417000D01*
X62751562Y-135421181D01*
X62751562Y-135421181D01*
G37*
G36*
X101070443Y-133645519D02*
X101136627Y-133652037D01*
X101249853Y-133686384D01*
X101306467Y-133703557D01*
X101445087Y-133777652D01*
X101462991Y-133787222D01*
X101498729Y-133816552D01*
X101600186Y-133899814D01*
X101683448Y-134001271D01*
X101712778Y-134037009D01*
X101712779Y-134037011D01*
X101796443Y-134193533D01*
X101796443Y-134193534D01*
X101847963Y-134363373D01*
X101865359Y-134540000D01*
X101847963Y-134716627D01*
X101826584Y-134787105D01*
X101796443Y-134886467D01*
X101746448Y-134980000D01*
X101712778Y-135042991D01*
X101683448Y-135078729D01*
X101600186Y-135180186D01*
X101507760Y-135256037D01*
X101462991Y-135292778D01*
X101462989Y-135292779D01*
X101306467Y-135376443D01*
X101257746Y-135391222D01*
X101136627Y-135427963D01*
X101070443Y-135434481D01*
X101004260Y-135441000D01*
X100915740Y-135441000D01*
X100849557Y-135434481D01*
X100783373Y-135427963D01*
X100662254Y-135391222D01*
X100613533Y-135376443D01*
X100457011Y-135292779D01*
X100457009Y-135292778D01*
X100412240Y-135256037D01*
X100319814Y-135180186D01*
X100236552Y-135078729D01*
X100207222Y-135042991D01*
X100173552Y-134980000D01*
X100123557Y-134886467D01*
X100093416Y-134787105D01*
X100072037Y-134716627D01*
X100054641Y-134540000D01*
X100072037Y-134363373D01*
X100123557Y-134193534D01*
X100123557Y-134193533D01*
X100207221Y-134037011D01*
X100207222Y-134037009D01*
X100236552Y-134001271D01*
X100319814Y-133899814D01*
X100421271Y-133816552D01*
X100457009Y-133787222D01*
X100474913Y-133777652D01*
X100613533Y-133703557D01*
X100670147Y-133686384D01*
X100783373Y-133652037D01*
X100849557Y-133645519D01*
X100915740Y-133639000D01*
X101004260Y-133639000D01*
X101070443Y-133645519D01*
X101070443Y-133645519D01*
G37*
G36*
X103610443Y-133645519D02*
X103676627Y-133652037D01*
X103789853Y-133686384D01*
X103846467Y-133703557D01*
X103985087Y-133777652D01*
X104002991Y-133787222D01*
X104038729Y-133816552D01*
X104140186Y-133899814D01*
X104223448Y-134001271D01*
X104252778Y-134037009D01*
X104252779Y-134037011D01*
X104336443Y-134193533D01*
X104336443Y-134193534D01*
X104387963Y-134363373D01*
X104405359Y-134540000D01*
X104387963Y-134716627D01*
X104366584Y-134787105D01*
X104336443Y-134886467D01*
X104286448Y-134980000D01*
X104252778Y-135042991D01*
X104223448Y-135078729D01*
X104140186Y-135180186D01*
X104047760Y-135256037D01*
X104002991Y-135292778D01*
X104002989Y-135292779D01*
X103846467Y-135376443D01*
X103797746Y-135391222D01*
X103676627Y-135427963D01*
X103610443Y-135434481D01*
X103544260Y-135441000D01*
X103455740Y-135441000D01*
X103389557Y-135434481D01*
X103323373Y-135427963D01*
X103202254Y-135391222D01*
X103153533Y-135376443D01*
X102997011Y-135292779D01*
X102997009Y-135292778D01*
X102952240Y-135256037D01*
X102859814Y-135180186D01*
X102776552Y-135078729D01*
X102747222Y-135042991D01*
X102713552Y-134980000D01*
X102663557Y-134886467D01*
X102633416Y-134787105D01*
X102612037Y-134716627D01*
X102594641Y-134540000D01*
X102612037Y-134363373D01*
X102663557Y-134193534D01*
X102663557Y-134193533D01*
X102747221Y-134037011D01*
X102747222Y-134037009D01*
X102776552Y-134001271D01*
X102859814Y-133899814D01*
X102961271Y-133816552D01*
X102997009Y-133787222D01*
X103014913Y-133777652D01*
X103153533Y-133703557D01*
X103210147Y-133686384D01*
X103323373Y-133652037D01*
X103389557Y-133645519D01*
X103455740Y-133639000D01*
X103544260Y-133639000D01*
X103610443Y-133645519D01*
X103610443Y-133645519D01*
G37*
G36*
X83671062Y-132232181D02*
X83705977Y-132242773D01*
X83738165Y-132259978D01*
X83766373Y-132283127D01*
X83789522Y-132311335D01*
X83806727Y-132343523D01*
X83817319Y-132378438D01*
X83821500Y-132420895D01*
X83821500Y-134787105D01*
X83817319Y-134829562D01*
X83806727Y-134864477D01*
X83789522Y-134896665D01*
X83766373Y-134924873D01*
X83738165Y-134948022D01*
X83705977Y-134965227D01*
X83671062Y-134975819D01*
X83628605Y-134980000D01*
X82487395Y-134980000D01*
X82444938Y-134975819D01*
X82410023Y-134965227D01*
X82377835Y-134948022D01*
X82349627Y-134924873D01*
X82326478Y-134896665D01*
X82309273Y-134864477D01*
X82298681Y-134829562D01*
X82294500Y-134787105D01*
X82294500Y-132420895D01*
X82298681Y-132378438D01*
X82309273Y-132343523D01*
X82326478Y-132311335D01*
X82349627Y-132283127D01*
X82377835Y-132259978D01*
X82410023Y-132242773D01*
X82444938Y-132232181D01*
X82487395Y-132228000D01*
X83628605Y-132228000D01*
X83671062Y-132232181D01*
X83671062Y-132232181D01*
G37*
G36*
X80696062Y-132232181D02*
X80730977Y-132242773D01*
X80763165Y-132259978D01*
X80791373Y-132283127D01*
X80814522Y-132311335D01*
X80831727Y-132343523D01*
X80842319Y-132378438D01*
X80846500Y-132420895D01*
X80846500Y-134787105D01*
X80842319Y-134829562D01*
X80831727Y-134864477D01*
X80814522Y-134896665D01*
X80791373Y-134924873D01*
X80763165Y-134948022D01*
X80730977Y-134965227D01*
X80696062Y-134975819D01*
X80653605Y-134980000D01*
X79512395Y-134980000D01*
X79469938Y-134975819D01*
X79435023Y-134965227D01*
X79402835Y-134948022D01*
X79374627Y-134924873D01*
X79351478Y-134896665D01*
X79334273Y-134864477D01*
X79323681Y-134829562D01*
X79319500Y-134787105D01*
X79319500Y-132420895D01*
X79323681Y-132378438D01*
X79334273Y-132343523D01*
X79351478Y-132311335D01*
X79374627Y-132283127D01*
X79402835Y-132259978D01*
X79435023Y-132242773D01*
X79469938Y-132232181D01*
X79512395Y-132228000D01*
X80653605Y-132228000D01*
X80696062Y-132232181D01*
X80696062Y-132232181D01*
G37*
G36*
X54974442Y-132709518D02*
X55040627Y-132716037D01*
X55153853Y-132750384D01*
X55210467Y-132767557D01*
X55339342Y-132836443D01*
X55366991Y-132851222D01*
X55402729Y-132880552D01*
X55504186Y-132963814D01*
X55587448Y-133065271D01*
X55616778Y-133101009D01*
X55616779Y-133101011D01*
X55700443Y-133257533D01*
X55700443Y-133257534D01*
X55751963Y-133427373D01*
X55769359Y-133604000D01*
X55751963Y-133780627D01*
X55749962Y-133787222D01*
X55700443Y-133950467D01*
X55626348Y-134089087D01*
X55616778Y-134106991D01*
X55587448Y-134142729D01*
X55504186Y-134244186D01*
X55402729Y-134327448D01*
X55366991Y-134356778D01*
X55366989Y-134356779D01*
X55210467Y-134440443D01*
X55153853Y-134457616D01*
X55040627Y-134491963D01*
X54974442Y-134498482D01*
X54908260Y-134505000D01*
X54819740Y-134505000D01*
X54753558Y-134498482D01*
X54687373Y-134491963D01*
X54574147Y-134457616D01*
X54517533Y-134440443D01*
X54361011Y-134356779D01*
X54361009Y-134356778D01*
X54325271Y-134327448D01*
X54223814Y-134244186D01*
X54140552Y-134142729D01*
X54111222Y-134106991D01*
X54101652Y-134089087D01*
X54027557Y-133950467D01*
X53978038Y-133787222D01*
X53976037Y-133780627D01*
X53958641Y-133604000D01*
X53976037Y-133427373D01*
X54027557Y-133257534D01*
X54027557Y-133257533D01*
X54111221Y-133101011D01*
X54111222Y-133101009D01*
X54140552Y-133065271D01*
X54223814Y-132963814D01*
X54325271Y-132880552D01*
X54361009Y-132851222D01*
X54388658Y-132836443D01*
X54517533Y-132767557D01*
X54574147Y-132750384D01*
X54687373Y-132716037D01*
X54753558Y-132709518D01*
X54819740Y-132703000D01*
X54908260Y-132703000D01*
X54974442Y-132709518D01*
X54974442Y-132709518D01*
G37*
G36*
X52434442Y-132709518D02*
X52500627Y-132716037D01*
X52613853Y-132750384D01*
X52670467Y-132767557D01*
X52799342Y-132836443D01*
X52826991Y-132851222D01*
X52862729Y-132880552D01*
X52964186Y-132963814D01*
X53047448Y-133065271D01*
X53076778Y-133101009D01*
X53076779Y-133101011D01*
X53160443Y-133257533D01*
X53160443Y-133257534D01*
X53211963Y-133427373D01*
X53229359Y-133604000D01*
X53211963Y-133780627D01*
X53209962Y-133787222D01*
X53160443Y-133950467D01*
X53086348Y-134089087D01*
X53076778Y-134106991D01*
X53047448Y-134142729D01*
X52964186Y-134244186D01*
X52862729Y-134327448D01*
X52826991Y-134356778D01*
X52826989Y-134356779D01*
X52670467Y-134440443D01*
X52613853Y-134457616D01*
X52500627Y-134491963D01*
X52434442Y-134498482D01*
X52368260Y-134505000D01*
X52279740Y-134505000D01*
X52213558Y-134498482D01*
X52147373Y-134491963D01*
X52034147Y-134457616D01*
X51977533Y-134440443D01*
X51821011Y-134356779D01*
X51821009Y-134356778D01*
X51785271Y-134327448D01*
X51683814Y-134244186D01*
X51600552Y-134142729D01*
X51571222Y-134106991D01*
X51561652Y-134089087D01*
X51487557Y-133950467D01*
X51438038Y-133787222D01*
X51436037Y-133780627D01*
X51418641Y-133604000D01*
X51436037Y-133427373D01*
X51487557Y-133257534D01*
X51487557Y-133257533D01*
X51571221Y-133101011D01*
X51571222Y-133101009D01*
X51600552Y-133065271D01*
X51683814Y-132963814D01*
X51785271Y-132880552D01*
X51821009Y-132851222D01*
X51848658Y-132836443D01*
X51977533Y-132767557D01*
X52034147Y-132750384D01*
X52147373Y-132716037D01*
X52213558Y-132709518D01*
X52279740Y-132703000D01*
X52368260Y-132703000D01*
X52434442Y-132709518D01*
X52434442Y-132709518D01*
G37*
G36*
X90901000Y-134101000D02*
X88799000Y-134101000D01*
X88799000Y-132499000D01*
X90901000Y-132499000D01*
X90901000Y-134101000D01*
X90901000Y-134101000D01*
G37*
G36*
X97201000Y-132951000D02*
X95099000Y-132951000D01*
X95099000Y-129049000D01*
X97201000Y-129049000D01*
X97201000Y-132951000D01*
X97201000Y-132951000D01*
G37*
G36*
X103610442Y-131105518D02*
X103676627Y-131112037D01*
X103789853Y-131146384D01*
X103846467Y-131163557D01*
X103985087Y-131237652D01*
X104002991Y-131247222D01*
X104038729Y-131276552D01*
X104140186Y-131359814D01*
X104214350Y-131450185D01*
X104252778Y-131497009D01*
X104252779Y-131497011D01*
X104336443Y-131653533D01*
X104336443Y-131653534D01*
X104387963Y-131823373D01*
X104405359Y-132000000D01*
X104387963Y-132176627D01*
X104367898Y-132242773D01*
X104336443Y-132346467D01*
X104311369Y-132393376D01*
X104252778Y-132502991D01*
X104223448Y-132538729D01*
X104140186Y-132640186D01*
X104047760Y-132716037D01*
X104002991Y-132752778D01*
X104002989Y-132752779D01*
X103846467Y-132836443D01*
X103797746Y-132851222D01*
X103676627Y-132887963D01*
X103610443Y-132894481D01*
X103544260Y-132901000D01*
X103455740Y-132901000D01*
X103389557Y-132894481D01*
X103323373Y-132887963D01*
X103202254Y-132851222D01*
X103153533Y-132836443D01*
X102997011Y-132752779D01*
X102997009Y-132752778D01*
X102952240Y-132716037D01*
X102859814Y-132640186D01*
X102776552Y-132538729D01*
X102747222Y-132502991D01*
X102688631Y-132393376D01*
X102663557Y-132346467D01*
X102632102Y-132242773D01*
X102612037Y-132176627D01*
X102594641Y-132000000D01*
X102612037Y-131823373D01*
X102663557Y-131653534D01*
X102663557Y-131653533D01*
X102747221Y-131497011D01*
X102747222Y-131497009D01*
X102785650Y-131450185D01*
X102859814Y-131359814D01*
X102961271Y-131276552D01*
X102997009Y-131247222D01*
X103014913Y-131237652D01*
X103153533Y-131163557D01*
X103210147Y-131146384D01*
X103323373Y-131112037D01*
X103389558Y-131105518D01*
X103455740Y-131099000D01*
X103544260Y-131099000D01*
X103610442Y-131105518D01*
X103610442Y-131105518D01*
G37*
G36*
X101070442Y-131105518D02*
X101136627Y-131112037D01*
X101249853Y-131146384D01*
X101306467Y-131163557D01*
X101445087Y-131237652D01*
X101462991Y-131247222D01*
X101498729Y-131276552D01*
X101600186Y-131359814D01*
X101674350Y-131450185D01*
X101712778Y-131497009D01*
X101712779Y-131497011D01*
X101796443Y-131653533D01*
X101796443Y-131653534D01*
X101847963Y-131823373D01*
X101865359Y-132000000D01*
X101847963Y-132176627D01*
X101827898Y-132242773D01*
X101796443Y-132346467D01*
X101771369Y-132393376D01*
X101712778Y-132502991D01*
X101683448Y-132538729D01*
X101600186Y-132640186D01*
X101507760Y-132716037D01*
X101462991Y-132752778D01*
X101462989Y-132752779D01*
X101306467Y-132836443D01*
X101257746Y-132851222D01*
X101136627Y-132887963D01*
X101070443Y-132894481D01*
X101004260Y-132901000D01*
X100915740Y-132901000D01*
X100849557Y-132894481D01*
X100783373Y-132887963D01*
X100662254Y-132851222D01*
X100613533Y-132836443D01*
X100457011Y-132752779D01*
X100457009Y-132752778D01*
X100412240Y-132716037D01*
X100319814Y-132640186D01*
X100236552Y-132538729D01*
X100207222Y-132502991D01*
X100148631Y-132393376D01*
X100123557Y-132346467D01*
X100092102Y-132242773D01*
X100072037Y-132176627D01*
X100054641Y-132000000D01*
X100072037Y-131823373D01*
X100123557Y-131653534D01*
X100123557Y-131653533D01*
X100207221Y-131497011D01*
X100207222Y-131497009D01*
X100245650Y-131450185D01*
X100319814Y-131359814D01*
X100421271Y-131276552D01*
X100457009Y-131247222D01*
X100474913Y-131237652D01*
X100613533Y-131163557D01*
X100670147Y-131146384D01*
X100783373Y-131112037D01*
X100849558Y-131105518D01*
X100915740Y-131099000D01*
X101004260Y-131099000D01*
X101070442Y-131105518D01*
X101070442Y-131105518D01*
G37*
G36*
X54974442Y-130169518D02*
X55040627Y-130176037D01*
X55153853Y-130210384D01*
X55210467Y-130227557D01*
X55339342Y-130296443D01*
X55366991Y-130311222D01*
X55402729Y-130340552D01*
X55504186Y-130423814D01*
X55587448Y-130525271D01*
X55616778Y-130561009D01*
X55616779Y-130561011D01*
X55700443Y-130717533D01*
X55700443Y-130717534D01*
X55751963Y-130887373D01*
X55769359Y-131064000D01*
X55751963Y-131240627D01*
X55717616Y-131353853D01*
X55700443Y-131410467D01*
X55626348Y-131549087D01*
X55616778Y-131566991D01*
X55587448Y-131602729D01*
X55504186Y-131704186D01*
X55402729Y-131787448D01*
X55366991Y-131816778D01*
X55366989Y-131816779D01*
X55210467Y-131900443D01*
X55153853Y-131917616D01*
X55040627Y-131951963D01*
X54974443Y-131958481D01*
X54908260Y-131965000D01*
X54819740Y-131965000D01*
X54753557Y-131958481D01*
X54687373Y-131951963D01*
X54574147Y-131917616D01*
X54517533Y-131900443D01*
X54361011Y-131816779D01*
X54361009Y-131816778D01*
X54325271Y-131787448D01*
X54223814Y-131704186D01*
X54140552Y-131602729D01*
X54111222Y-131566991D01*
X54101652Y-131549087D01*
X54027557Y-131410467D01*
X54010384Y-131353853D01*
X53976037Y-131240627D01*
X53958641Y-131064000D01*
X53976037Y-130887373D01*
X54027557Y-130717534D01*
X54027557Y-130717533D01*
X54111221Y-130561011D01*
X54111222Y-130561009D01*
X54140552Y-130525271D01*
X54223814Y-130423814D01*
X54325271Y-130340552D01*
X54361009Y-130311222D01*
X54388658Y-130296443D01*
X54517533Y-130227557D01*
X54574147Y-130210384D01*
X54687373Y-130176037D01*
X54753558Y-130169518D01*
X54819740Y-130163000D01*
X54908260Y-130163000D01*
X54974442Y-130169518D01*
X54974442Y-130169518D01*
G37*
G36*
X52434442Y-130169518D02*
X52500627Y-130176037D01*
X52613853Y-130210384D01*
X52670467Y-130227557D01*
X52799342Y-130296443D01*
X52826991Y-130311222D01*
X52862729Y-130340552D01*
X52964186Y-130423814D01*
X53047448Y-130525271D01*
X53076778Y-130561009D01*
X53076779Y-130561011D01*
X53160443Y-130717533D01*
X53160443Y-130717534D01*
X53211963Y-130887373D01*
X53229359Y-131064000D01*
X53211963Y-131240627D01*
X53177616Y-131353853D01*
X53160443Y-131410467D01*
X53086348Y-131549087D01*
X53076778Y-131566991D01*
X53047448Y-131602729D01*
X52964186Y-131704186D01*
X52862729Y-131787448D01*
X52826991Y-131816778D01*
X52826989Y-131816779D01*
X52670467Y-131900443D01*
X52613853Y-131917616D01*
X52500627Y-131951963D01*
X52434443Y-131958481D01*
X52368260Y-131965000D01*
X52279740Y-131965000D01*
X52213557Y-131958481D01*
X52147373Y-131951963D01*
X52034147Y-131917616D01*
X51977533Y-131900443D01*
X51821011Y-131816779D01*
X51821009Y-131816778D01*
X51785271Y-131787448D01*
X51683814Y-131704186D01*
X51600552Y-131602729D01*
X51571222Y-131566991D01*
X51561652Y-131549087D01*
X51487557Y-131410467D01*
X51470384Y-131353853D01*
X51436037Y-131240627D01*
X51418641Y-131064000D01*
X51436037Y-130887373D01*
X51487557Y-130717534D01*
X51487557Y-130717533D01*
X51571221Y-130561011D01*
X51571222Y-130561009D01*
X51600552Y-130525271D01*
X51683814Y-130423814D01*
X51785271Y-130340552D01*
X51821009Y-130311222D01*
X51848658Y-130296443D01*
X51977533Y-130227557D01*
X52034147Y-130210384D01*
X52147373Y-130176037D01*
X52213558Y-130169518D01*
X52279740Y-130163000D01*
X52368260Y-130163000D01*
X52434442Y-130169518D01*
X52434442Y-130169518D01*
G37*
G36*
X90901000Y-131801000D02*
X88799000Y-131801000D01*
X88799000Y-130199000D01*
X90901000Y-130199000D01*
X90901000Y-131801000D01*
X90901000Y-131801000D01*
G37*
G36*
X66150442Y-129915518D02*
X66216627Y-129922037D01*
X66329853Y-129956384D01*
X66386467Y-129973557D01*
X66525087Y-130047652D01*
X66542991Y-130057222D01*
X66578729Y-130086552D01*
X66680186Y-130169814D01*
X66763448Y-130271271D01*
X66792778Y-130307009D01*
X66792779Y-130307011D01*
X66876443Y-130463533D01*
X66876443Y-130463534D01*
X66927963Y-130633373D01*
X66945359Y-130810000D01*
X66927963Y-130986627D01*
X66904492Y-131064000D01*
X66876443Y-131156467D01*
X66872653Y-131163557D01*
X66792778Y-131312991D01*
X66763448Y-131348729D01*
X66680186Y-131450186D01*
X66578729Y-131533448D01*
X66542991Y-131562778D01*
X66542989Y-131562779D01*
X66386467Y-131646443D01*
X66329853Y-131663616D01*
X66216627Y-131697963D01*
X66153453Y-131704185D01*
X66084260Y-131711000D01*
X65995740Y-131711000D01*
X65926547Y-131704185D01*
X65863373Y-131697963D01*
X65750147Y-131663616D01*
X65693533Y-131646443D01*
X65537011Y-131562779D01*
X65537009Y-131562778D01*
X65501271Y-131533448D01*
X65399814Y-131450186D01*
X65316552Y-131348729D01*
X65287222Y-131312991D01*
X65207347Y-131163557D01*
X65203557Y-131156467D01*
X65175508Y-131064000D01*
X65152037Y-130986627D01*
X65134641Y-130810000D01*
X65152037Y-130633373D01*
X65203557Y-130463534D01*
X65203557Y-130463533D01*
X65287221Y-130307011D01*
X65287222Y-130307009D01*
X65316552Y-130271271D01*
X65399814Y-130169814D01*
X65501271Y-130086552D01*
X65537009Y-130057222D01*
X65554913Y-130047652D01*
X65693533Y-129973557D01*
X65750147Y-129956384D01*
X65863373Y-129922037D01*
X65929558Y-129915518D01*
X65995740Y-129909000D01*
X66084260Y-129909000D01*
X66150442Y-129915518D01*
X66150442Y-129915518D01*
G37*
G36*
X64401000Y-131711000D02*
X62599000Y-131711000D01*
X62599000Y-129909000D01*
X64401000Y-129909000D01*
X64401000Y-131711000D01*
X64401000Y-131711000D01*
G37*
G36*
X68690442Y-129915518D02*
X68756627Y-129922037D01*
X68869853Y-129956384D01*
X68926467Y-129973557D01*
X69065087Y-130047652D01*
X69082991Y-130057222D01*
X69118729Y-130086552D01*
X69220186Y-130169814D01*
X69303448Y-130271271D01*
X69332778Y-130307009D01*
X69332779Y-130307011D01*
X69416443Y-130463533D01*
X69416443Y-130463534D01*
X69467963Y-130633373D01*
X69485359Y-130810000D01*
X69467963Y-130986627D01*
X69444492Y-131064000D01*
X69416443Y-131156467D01*
X69412653Y-131163557D01*
X69332778Y-131312991D01*
X69303448Y-131348729D01*
X69220186Y-131450186D01*
X69118729Y-131533448D01*
X69082991Y-131562778D01*
X69082989Y-131562779D01*
X68926467Y-131646443D01*
X68869853Y-131663616D01*
X68756627Y-131697963D01*
X68693453Y-131704185D01*
X68624260Y-131711000D01*
X68535740Y-131711000D01*
X68466547Y-131704185D01*
X68403373Y-131697963D01*
X68290147Y-131663616D01*
X68233533Y-131646443D01*
X68077011Y-131562779D01*
X68077009Y-131562778D01*
X68041271Y-131533448D01*
X67939814Y-131450186D01*
X67856552Y-131348729D01*
X67827222Y-131312991D01*
X67747347Y-131163557D01*
X67743557Y-131156467D01*
X67715508Y-131064000D01*
X67692037Y-130986627D01*
X67674641Y-130810000D01*
X67692037Y-130633373D01*
X67743557Y-130463534D01*
X67743557Y-130463533D01*
X67827221Y-130307011D01*
X67827222Y-130307009D01*
X67856552Y-130271271D01*
X67939814Y-130169814D01*
X68041271Y-130086552D01*
X68077009Y-130057222D01*
X68094913Y-130047652D01*
X68233533Y-129973557D01*
X68290147Y-129956384D01*
X68403373Y-129922037D01*
X68469558Y-129915518D01*
X68535740Y-129909000D01*
X68624260Y-129909000D01*
X68690442Y-129915518D01*
X68690442Y-129915518D01*
G37*
G36*
X83671062Y-129126181D02*
X83705977Y-129136773D01*
X83738165Y-129153978D01*
X83766373Y-129177127D01*
X83789522Y-129205335D01*
X83806727Y-129237523D01*
X83817319Y-129272438D01*
X83821500Y-129314895D01*
X83821500Y-130781105D01*
X83817319Y-130823562D01*
X83806727Y-130858477D01*
X83789522Y-130890665D01*
X83766373Y-130918873D01*
X83738165Y-130942022D01*
X83705977Y-130959227D01*
X83671062Y-130969819D01*
X83628605Y-130974000D01*
X82487395Y-130974000D01*
X82444938Y-130969819D01*
X82410023Y-130959227D01*
X82377835Y-130942022D01*
X82349627Y-130918873D01*
X82326478Y-130890665D01*
X82309273Y-130858477D01*
X82298681Y-130823562D01*
X82294500Y-130781105D01*
X82294500Y-129314895D01*
X82298681Y-129272438D01*
X82309273Y-129237523D01*
X82326478Y-129205335D01*
X82349627Y-129177127D01*
X82377835Y-129153978D01*
X82410023Y-129136773D01*
X82444938Y-129126181D01*
X82487395Y-129122000D01*
X83628605Y-129122000D01*
X83671062Y-129126181D01*
X83671062Y-129126181D01*
G37*
G36*
X80696062Y-129126181D02*
X80730977Y-129136773D01*
X80763165Y-129153978D01*
X80791373Y-129177127D01*
X80814522Y-129205335D01*
X80831727Y-129237523D01*
X80842319Y-129272438D01*
X80846500Y-129314895D01*
X80846500Y-130781105D01*
X80842319Y-130823562D01*
X80831727Y-130858477D01*
X80814522Y-130890665D01*
X80791373Y-130918873D01*
X80763165Y-130942022D01*
X80730977Y-130959227D01*
X80696062Y-130969819D01*
X80653605Y-130974000D01*
X79512395Y-130974000D01*
X79469938Y-130969819D01*
X79435023Y-130959227D01*
X79402835Y-130942022D01*
X79374627Y-130918873D01*
X79351478Y-130890665D01*
X79334273Y-130858477D01*
X79323681Y-130823562D01*
X79319500Y-130781105D01*
X79319500Y-129314895D01*
X79323681Y-129272438D01*
X79334273Y-129237523D01*
X79351478Y-129205335D01*
X79374627Y-129177127D01*
X79402835Y-129153978D01*
X79435023Y-129136773D01*
X79469938Y-129126181D01*
X79512395Y-129122000D01*
X80653605Y-129122000D01*
X80696062Y-129126181D01*
X80696062Y-129126181D01*
G37*
G36*
X103610442Y-128565518D02*
X103676627Y-128572037D01*
X103789853Y-128606384D01*
X103846467Y-128623557D01*
X103985087Y-128697652D01*
X104002991Y-128707222D01*
X104038729Y-128736552D01*
X104140186Y-128819814D01*
X104223448Y-128921271D01*
X104252778Y-128957009D01*
X104252779Y-128957011D01*
X104336443Y-129113533D01*
X104345197Y-129142392D01*
X104387963Y-129283373D01*
X104405359Y-129460000D01*
X104387963Y-129636627D01*
X104353616Y-129749853D01*
X104336443Y-129806467D01*
X104281637Y-129909000D01*
X104252778Y-129962991D01*
X104223448Y-129998729D01*
X104140186Y-130100186D01*
X104047760Y-130176037D01*
X104002991Y-130212778D01*
X104002989Y-130212779D01*
X103846467Y-130296443D01*
X103797746Y-130311222D01*
X103676627Y-130347963D01*
X103610442Y-130354482D01*
X103544260Y-130361000D01*
X103455740Y-130361000D01*
X103389558Y-130354482D01*
X103323373Y-130347963D01*
X103202254Y-130311222D01*
X103153533Y-130296443D01*
X102997011Y-130212779D01*
X102997009Y-130212778D01*
X102952240Y-130176037D01*
X102859814Y-130100186D01*
X102776552Y-129998729D01*
X102747222Y-129962991D01*
X102718363Y-129909000D01*
X102663557Y-129806467D01*
X102646384Y-129749853D01*
X102612037Y-129636627D01*
X102594641Y-129460000D01*
X102612037Y-129283373D01*
X102654803Y-129142392D01*
X102663557Y-129113533D01*
X102747221Y-128957011D01*
X102747222Y-128957009D01*
X102776552Y-128921271D01*
X102859814Y-128819814D01*
X102961271Y-128736552D01*
X102997009Y-128707222D01*
X103014913Y-128697652D01*
X103153533Y-128623557D01*
X103210147Y-128606384D01*
X103323373Y-128572037D01*
X103389558Y-128565518D01*
X103455740Y-128559000D01*
X103544260Y-128559000D01*
X103610442Y-128565518D01*
X103610442Y-128565518D01*
G37*
G36*
X101861000Y-130361000D02*
X100059000Y-130361000D01*
X100059000Y-128559000D01*
X101861000Y-128559000D01*
X101861000Y-130361000D01*
X101861000Y-130361000D01*
G37*
G36*
X90901000Y-129501000D02*
X88799000Y-129501000D01*
X88799000Y-127899000D01*
X90901000Y-127899000D01*
X90901000Y-129501000D01*
X90901000Y-129501000D01*
G37*
G36*
X54974442Y-127629518D02*
X55040627Y-127636037D01*
X55153853Y-127670384D01*
X55210467Y-127687557D01*
X55349087Y-127761652D01*
X55366991Y-127771222D01*
X55402729Y-127800552D01*
X55504186Y-127883814D01*
X55579840Y-127976000D01*
X55616778Y-128021009D01*
X55616779Y-128021011D01*
X55700443Y-128177533D01*
X55700443Y-128177534D01*
X55751963Y-128347373D01*
X55769359Y-128524000D01*
X55751963Y-128700627D01*
X55749962Y-128707222D01*
X55700443Y-128870467D01*
X55626348Y-129009087D01*
X55616778Y-129026991D01*
X55587448Y-129062729D01*
X55504186Y-129164186D01*
X55414823Y-129237523D01*
X55366991Y-129276778D01*
X55366989Y-129276779D01*
X55210467Y-129360443D01*
X55153853Y-129377616D01*
X55040627Y-129411963D01*
X54974443Y-129418481D01*
X54908260Y-129425000D01*
X54819740Y-129425000D01*
X54753557Y-129418481D01*
X54687373Y-129411963D01*
X54574147Y-129377616D01*
X54517533Y-129360443D01*
X54361011Y-129276779D01*
X54361009Y-129276778D01*
X54313177Y-129237523D01*
X54223814Y-129164186D01*
X54140552Y-129062729D01*
X54111222Y-129026991D01*
X54101652Y-129009087D01*
X54027557Y-128870467D01*
X53978038Y-128707222D01*
X53976037Y-128700627D01*
X53958641Y-128524000D01*
X53976037Y-128347373D01*
X54027557Y-128177534D01*
X54027557Y-128177533D01*
X54111221Y-128021011D01*
X54111222Y-128021009D01*
X54148160Y-127976000D01*
X54223814Y-127883814D01*
X54325271Y-127800552D01*
X54361009Y-127771222D01*
X54378913Y-127761652D01*
X54517533Y-127687557D01*
X54574147Y-127670384D01*
X54687373Y-127636037D01*
X54753558Y-127629518D01*
X54819740Y-127623000D01*
X54908260Y-127623000D01*
X54974442Y-127629518D01*
X54974442Y-127629518D01*
G37*
G36*
X52434442Y-127629518D02*
X52500627Y-127636037D01*
X52613853Y-127670384D01*
X52670467Y-127687557D01*
X52809087Y-127761652D01*
X52826991Y-127771222D01*
X52862729Y-127800552D01*
X52964186Y-127883814D01*
X53039840Y-127976000D01*
X53076778Y-128021009D01*
X53076779Y-128021011D01*
X53160443Y-128177533D01*
X53160443Y-128177534D01*
X53211963Y-128347373D01*
X53229359Y-128524000D01*
X53211963Y-128700627D01*
X53209962Y-128707222D01*
X53160443Y-128870467D01*
X53086348Y-129009087D01*
X53076778Y-129026991D01*
X53047448Y-129062729D01*
X52964186Y-129164186D01*
X52874823Y-129237523D01*
X52826991Y-129276778D01*
X52826989Y-129276779D01*
X52670467Y-129360443D01*
X52613853Y-129377616D01*
X52500627Y-129411963D01*
X52434443Y-129418481D01*
X52368260Y-129425000D01*
X52279740Y-129425000D01*
X52213557Y-129418481D01*
X52147373Y-129411963D01*
X52034147Y-129377616D01*
X51977533Y-129360443D01*
X51821011Y-129276779D01*
X51821009Y-129276778D01*
X51773177Y-129237523D01*
X51683814Y-129164186D01*
X51600552Y-129062729D01*
X51571222Y-129026991D01*
X51561652Y-129009087D01*
X51487557Y-128870467D01*
X51438038Y-128707222D01*
X51436037Y-128700627D01*
X51418641Y-128524000D01*
X51436037Y-128347373D01*
X51487557Y-128177534D01*
X51487557Y-128177533D01*
X51571221Y-128021011D01*
X51571222Y-128021009D01*
X51608160Y-127976000D01*
X51683814Y-127883814D01*
X51785271Y-127800552D01*
X51821009Y-127771222D01*
X51838913Y-127761652D01*
X51977533Y-127687557D01*
X52034147Y-127670384D01*
X52147373Y-127636037D01*
X52213558Y-127629518D01*
X52279740Y-127623000D01*
X52368260Y-127623000D01*
X52434442Y-127629518D01*
X52434442Y-127629518D01*
G37*
G36*
X84951000Y-127976000D02*
X83749000Y-127976000D01*
X83749000Y-119024000D01*
X84951000Y-119024000D01*
X84951000Y-127976000D01*
X84951000Y-127976000D01*
G37*
G36*
X79251000Y-127976000D02*
X78049000Y-127976000D01*
X78049000Y-119024000D01*
X79251000Y-119024000D01*
X79251000Y-127976000D01*
X79251000Y-127976000D01*
G37*
G36*
X52434442Y-125089518D02*
X52500627Y-125096037D01*
X52612499Y-125129973D01*
X52670467Y-125147557D01*
X52809087Y-125221652D01*
X52826991Y-125231222D01*
X52862729Y-125260552D01*
X52964186Y-125343814D01*
X53047448Y-125445271D01*
X53076778Y-125481009D01*
X53076779Y-125481011D01*
X53160443Y-125637533D01*
X53160443Y-125637534D01*
X53211963Y-125807373D01*
X53229359Y-125984000D01*
X53211963Y-126160627D01*
X53207906Y-126174000D01*
X53160443Y-126330467D01*
X53086348Y-126469087D01*
X53076778Y-126486991D01*
X53047448Y-126522729D01*
X52964186Y-126624186D01*
X52862729Y-126707448D01*
X52826991Y-126736778D01*
X52826989Y-126736779D01*
X52670467Y-126820443D01*
X52613853Y-126837616D01*
X52500627Y-126871963D01*
X52434442Y-126878482D01*
X52368260Y-126885000D01*
X52279740Y-126885000D01*
X52213558Y-126878482D01*
X52147373Y-126871963D01*
X52034147Y-126837616D01*
X51977533Y-126820443D01*
X51821011Y-126736779D01*
X51821009Y-126736778D01*
X51785271Y-126707448D01*
X51683814Y-126624186D01*
X51600552Y-126522729D01*
X51571222Y-126486991D01*
X51561652Y-126469087D01*
X51487557Y-126330467D01*
X51440094Y-126174000D01*
X51436037Y-126160627D01*
X51418641Y-125984000D01*
X51436037Y-125807373D01*
X51487557Y-125637534D01*
X51487557Y-125637533D01*
X51571221Y-125481011D01*
X51571222Y-125481009D01*
X51600552Y-125445271D01*
X51683814Y-125343814D01*
X51785271Y-125260552D01*
X51821009Y-125231222D01*
X51838913Y-125221652D01*
X51977533Y-125147557D01*
X52035501Y-125129973D01*
X52147373Y-125096037D01*
X52213558Y-125089518D01*
X52279740Y-125083000D01*
X52368260Y-125083000D01*
X52434442Y-125089518D01*
X52434442Y-125089518D01*
G37*
G36*
X54974442Y-125089518D02*
X55040627Y-125096037D01*
X55152499Y-125129973D01*
X55210467Y-125147557D01*
X55349087Y-125221652D01*
X55366991Y-125231222D01*
X55402729Y-125260552D01*
X55504186Y-125343814D01*
X55587448Y-125445271D01*
X55616778Y-125481009D01*
X55616779Y-125481011D01*
X55700443Y-125637533D01*
X55700443Y-125637534D01*
X55751963Y-125807373D01*
X55769359Y-125984000D01*
X55751963Y-126160627D01*
X55747906Y-126174000D01*
X55700443Y-126330467D01*
X55626348Y-126469087D01*
X55616778Y-126486991D01*
X55587448Y-126522729D01*
X55504186Y-126624186D01*
X55402729Y-126707448D01*
X55366991Y-126736778D01*
X55366989Y-126736779D01*
X55210467Y-126820443D01*
X55153853Y-126837616D01*
X55040627Y-126871963D01*
X54974442Y-126878482D01*
X54908260Y-126885000D01*
X54819740Y-126885000D01*
X54753558Y-126878482D01*
X54687373Y-126871963D01*
X54574147Y-126837616D01*
X54517533Y-126820443D01*
X54361011Y-126736779D01*
X54361009Y-126736778D01*
X54325271Y-126707448D01*
X54223814Y-126624186D01*
X54140552Y-126522729D01*
X54111222Y-126486991D01*
X54101652Y-126469087D01*
X54027557Y-126330467D01*
X53980094Y-126174000D01*
X53976037Y-126160627D01*
X53958641Y-125984000D01*
X53976037Y-125807373D01*
X54027557Y-125637534D01*
X54027557Y-125637533D01*
X54111221Y-125481011D01*
X54111222Y-125481009D01*
X54140552Y-125445271D01*
X54223814Y-125343814D01*
X54325271Y-125260552D01*
X54361009Y-125231222D01*
X54378913Y-125221652D01*
X54517533Y-125147557D01*
X54575501Y-125129973D01*
X54687373Y-125096037D01*
X54753558Y-125089518D01*
X54819740Y-125083000D01*
X54908260Y-125083000D01*
X54974442Y-125089518D01*
X54974442Y-125089518D01*
G37*
G36*
X95451000Y-126201000D02*
X91549000Y-126201000D01*
X91549000Y-124099000D01*
X95451000Y-124099000D01*
X95451000Y-126201000D01*
X95451000Y-126201000D01*
G37*
G36*
X103951000Y-126201000D02*
X100049000Y-126201000D01*
X100049000Y-124099000D01*
X103951000Y-124099000D01*
X103951000Y-126201000D01*
X103951000Y-126201000D01*
G37*
G36*
X68378565Y-123449389D02*
X68569834Y-123528615D01*
X68741976Y-123643637D01*
X68888363Y-123790024D01*
X69003385Y-123962166D01*
X69082611Y-124153435D01*
X69123000Y-124356484D01*
X69123000Y-124563516D01*
X69082611Y-124766565D01*
X69003385Y-124957834D01*
X68888363Y-125129976D01*
X68741976Y-125276363D01*
X68569834Y-125391385D01*
X68378565Y-125470611D01*
X68175516Y-125511000D01*
X67968484Y-125511000D01*
X67765435Y-125470611D01*
X67574166Y-125391385D01*
X67402024Y-125276363D01*
X67255637Y-125129976D01*
X67140615Y-124957834D01*
X67061389Y-124766565D01*
X67021000Y-124563516D01*
X67021000Y-124356484D01*
X67061389Y-124153435D01*
X67140615Y-123962166D01*
X67255637Y-123790024D01*
X67402024Y-123643637D01*
X67574166Y-123528615D01*
X67765435Y-123449389D01*
X67968484Y-123409000D01*
X68175516Y-123409000D01*
X68378565Y-123449389D01*
X68378565Y-123449389D01*
G37*
G36*
X63044565Y-123449389D02*
X63235834Y-123528615D01*
X63407976Y-123643637D01*
X63554363Y-123790024D01*
X63669385Y-123962166D01*
X63748611Y-124153435D01*
X63789000Y-124356484D01*
X63789000Y-124563516D01*
X63748611Y-124766565D01*
X63669385Y-124957834D01*
X63554363Y-125129976D01*
X63407976Y-125276363D01*
X63235834Y-125391385D01*
X63044565Y-125470611D01*
X62841516Y-125511000D01*
X62634484Y-125511000D01*
X62431435Y-125470611D01*
X62240166Y-125391385D01*
X62068024Y-125276363D01*
X61921637Y-125129976D01*
X61806615Y-124957834D01*
X61727389Y-124766565D01*
X61687000Y-124563516D01*
X61687000Y-124356484D01*
X61727389Y-124153435D01*
X61806615Y-123962166D01*
X61921637Y-123790024D01*
X62068024Y-123643637D01*
X62240166Y-123528615D01*
X62431435Y-123449389D01*
X62634484Y-123409000D01*
X62841516Y-123409000D01*
X63044565Y-123449389D01*
X63044565Y-123449389D01*
G37*
G36*
X76232062Y-122522181D02*
X76266977Y-122532773D01*
X76299165Y-122549978D01*
X76327373Y-122573127D01*
X76350522Y-122601335D01*
X76367727Y-122633523D01*
X76378319Y-122668438D01*
X76382500Y-122710895D01*
X76382500Y-124177105D01*
X76378319Y-124219562D01*
X76367727Y-124254477D01*
X76350522Y-124286665D01*
X76327373Y-124314873D01*
X76299165Y-124338022D01*
X76266977Y-124355227D01*
X76232062Y-124365819D01*
X76189605Y-124370000D01*
X75048395Y-124370000D01*
X75005938Y-124365819D01*
X74971023Y-124355227D01*
X74938835Y-124338022D01*
X74910627Y-124314873D01*
X74887478Y-124286665D01*
X74870273Y-124254477D01*
X74859681Y-124219562D01*
X74855500Y-124177105D01*
X74855500Y-122710895D01*
X74859681Y-122668438D01*
X74870273Y-122633523D01*
X74887478Y-122601335D01*
X74910627Y-122573127D01*
X74938835Y-122549978D01*
X74971023Y-122532773D01*
X75005938Y-122522181D01*
X75048395Y-122518000D01*
X76189605Y-122518000D01*
X76232062Y-122522181D01*
X76232062Y-122522181D01*
G37*
G36*
X73257062Y-122522181D02*
X73291977Y-122532773D01*
X73324165Y-122549978D01*
X73352373Y-122573127D01*
X73375522Y-122601335D01*
X73392727Y-122633523D01*
X73403319Y-122668438D01*
X73407500Y-122710895D01*
X73407500Y-124177105D01*
X73403319Y-124219562D01*
X73392727Y-124254477D01*
X73375522Y-124286665D01*
X73352373Y-124314873D01*
X73324165Y-124338022D01*
X73291977Y-124355227D01*
X73257062Y-124365819D01*
X73214605Y-124370000D01*
X72073395Y-124370000D01*
X72030938Y-124365819D01*
X71996023Y-124355227D01*
X71963835Y-124338022D01*
X71935627Y-124314873D01*
X71912478Y-124286665D01*
X71895273Y-124254477D01*
X71884681Y-124219562D01*
X71880500Y-124177105D01*
X71880500Y-122710895D01*
X71884681Y-122668438D01*
X71895273Y-122633523D01*
X71912478Y-122601335D01*
X71935627Y-122573127D01*
X71963835Y-122549978D01*
X71996023Y-122532773D01*
X72030938Y-122522181D01*
X72073395Y-122518000D01*
X73214605Y-122518000D01*
X73257062Y-122522181D01*
X73257062Y-122522181D01*
G37*
G36*
X52434443Y-122549519D02*
X52500627Y-122556037D01*
X52613853Y-122590384D01*
X52670467Y-122607557D01*
X52809087Y-122681652D01*
X52826991Y-122691222D01*
X52850962Y-122710895D01*
X52964186Y-122803814D01*
X53047448Y-122905271D01*
X53076778Y-122941009D01*
X53076779Y-122941011D01*
X53160443Y-123097533D01*
X53160443Y-123097534D01*
X53211963Y-123267373D01*
X53229359Y-123444000D01*
X53211963Y-123620627D01*
X53204983Y-123643637D01*
X53160443Y-123790467D01*
X53086348Y-123929087D01*
X53076778Y-123946991D01*
X53064325Y-123962165D01*
X52964186Y-124084186D01*
X52862729Y-124167448D01*
X52826991Y-124196778D01*
X52826989Y-124196779D01*
X52670467Y-124280443D01*
X52649955Y-124286665D01*
X52500627Y-124331963D01*
X52439108Y-124338022D01*
X52368260Y-124345000D01*
X52279740Y-124345000D01*
X52208892Y-124338022D01*
X52147373Y-124331963D01*
X51998045Y-124286665D01*
X51977533Y-124280443D01*
X51821011Y-124196779D01*
X51821009Y-124196778D01*
X51785271Y-124167448D01*
X51683814Y-124084186D01*
X51583675Y-123962165D01*
X51571222Y-123946991D01*
X51561652Y-123929087D01*
X51487557Y-123790467D01*
X51443017Y-123643637D01*
X51436037Y-123620627D01*
X51418641Y-123444000D01*
X51436037Y-123267373D01*
X51487557Y-123097534D01*
X51487557Y-123097533D01*
X51571221Y-122941011D01*
X51571222Y-122941009D01*
X51600552Y-122905271D01*
X51683814Y-122803814D01*
X51797038Y-122710895D01*
X51821009Y-122691222D01*
X51838913Y-122681652D01*
X51977533Y-122607557D01*
X52034147Y-122590384D01*
X52147373Y-122556037D01*
X52213557Y-122549519D01*
X52279740Y-122543000D01*
X52368260Y-122543000D01*
X52434443Y-122549519D01*
X52434443Y-122549519D01*
G37*
G36*
X54974443Y-122549519D02*
X55040627Y-122556037D01*
X55153853Y-122590384D01*
X55210467Y-122607557D01*
X55349087Y-122681652D01*
X55366991Y-122691222D01*
X55390962Y-122710895D01*
X55504186Y-122803814D01*
X55587448Y-122905271D01*
X55616778Y-122941009D01*
X55616779Y-122941011D01*
X55700443Y-123097533D01*
X55700443Y-123097534D01*
X55751963Y-123267373D01*
X55769359Y-123444000D01*
X55751963Y-123620627D01*
X55744983Y-123643637D01*
X55700443Y-123790467D01*
X55626348Y-123929087D01*
X55616778Y-123946991D01*
X55604325Y-123962165D01*
X55504186Y-124084186D01*
X55402729Y-124167448D01*
X55366991Y-124196778D01*
X55366989Y-124196779D01*
X55210467Y-124280443D01*
X55189955Y-124286665D01*
X55040627Y-124331963D01*
X54979108Y-124338022D01*
X54908260Y-124345000D01*
X54819740Y-124345000D01*
X54748892Y-124338022D01*
X54687373Y-124331963D01*
X54538045Y-124286665D01*
X54517533Y-124280443D01*
X54361011Y-124196779D01*
X54361009Y-124196778D01*
X54325271Y-124167448D01*
X54223814Y-124084186D01*
X54123675Y-123962165D01*
X54111222Y-123946991D01*
X54101652Y-123929087D01*
X54027557Y-123790467D01*
X53983017Y-123643637D01*
X53976037Y-123620627D01*
X53958641Y-123444000D01*
X53976037Y-123267373D01*
X54027557Y-123097534D01*
X54027557Y-123097533D01*
X54111221Y-122941011D01*
X54111222Y-122941009D01*
X54140552Y-122905271D01*
X54223814Y-122803814D01*
X54337038Y-122710895D01*
X54361009Y-122691222D01*
X54378913Y-122681652D01*
X54517533Y-122607557D01*
X54574147Y-122590384D01*
X54687373Y-122556037D01*
X54753557Y-122549519D01*
X54819740Y-122543000D01*
X54908260Y-122543000D01*
X54974443Y-122549519D01*
X54974443Y-122549519D01*
G37*
G36*
X62848443Y-120009519D02*
X62914627Y-120016037D01*
X63027853Y-120050384D01*
X63084467Y-120067557D01*
X63223087Y-120141652D01*
X63240991Y-120151222D01*
X63271183Y-120176000D01*
X63378186Y-120263814D01*
X63461448Y-120365271D01*
X63490778Y-120401009D01*
X63490779Y-120401011D01*
X63574443Y-120557533D01*
X63574443Y-120557534D01*
X63625963Y-120727373D01*
X63643359Y-120904000D01*
X63625963Y-121080627D01*
X63591616Y-121193853D01*
X63574443Y-121250467D01*
X63500348Y-121389087D01*
X63490778Y-121406991D01*
X63461448Y-121442729D01*
X63378186Y-121544186D01*
X63280931Y-121624000D01*
X63240991Y-121656778D01*
X63240989Y-121656779D01*
X63084467Y-121740443D01*
X63027853Y-121757616D01*
X62914627Y-121791963D01*
X62848442Y-121798482D01*
X62782260Y-121805000D01*
X62693740Y-121805000D01*
X62627558Y-121798482D01*
X62561373Y-121791963D01*
X62448147Y-121757616D01*
X62391533Y-121740443D01*
X62235011Y-121656779D01*
X62235009Y-121656778D01*
X62195069Y-121624000D01*
X62097814Y-121544186D01*
X62014552Y-121442729D01*
X61985222Y-121406991D01*
X61975652Y-121389087D01*
X61901557Y-121250467D01*
X61884384Y-121193853D01*
X61850037Y-121080627D01*
X61832641Y-120904000D01*
X61850037Y-120727373D01*
X61901557Y-120557534D01*
X61901557Y-120557533D01*
X61985221Y-120401011D01*
X61985222Y-120401009D01*
X62014552Y-120365271D01*
X62097814Y-120263814D01*
X62204817Y-120176000D01*
X62235009Y-120151222D01*
X62252913Y-120141652D01*
X62391533Y-120067557D01*
X62448147Y-120050384D01*
X62561373Y-120016037D01*
X62627557Y-120009519D01*
X62693740Y-120003000D01*
X62782260Y-120003000D01*
X62848443Y-120009519D01*
X62848443Y-120009519D01*
G37*
G36*
X68182443Y-120009519D02*
X68248627Y-120016037D01*
X68361853Y-120050384D01*
X68418467Y-120067557D01*
X68557087Y-120141652D01*
X68574991Y-120151222D01*
X68605183Y-120176000D01*
X68712186Y-120263814D01*
X68795448Y-120365271D01*
X68824778Y-120401009D01*
X68824779Y-120401011D01*
X68908443Y-120557533D01*
X68908443Y-120557534D01*
X68959963Y-120727373D01*
X68977359Y-120904000D01*
X68959963Y-121080627D01*
X68925616Y-121193853D01*
X68908443Y-121250467D01*
X68834348Y-121389087D01*
X68824778Y-121406991D01*
X68795448Y-121442729D01*
X68712186Y-121544186D01*
X68614931Y-121624000D01*
X68574991Y-121656778D01*
X68574989Y-121656779D01*
X68418467Y-121740443D01*
X68361853Y-121757616D01*
X68248627Y-121791963D01*
X68182442Y-121798482D01*
X68116260Y-121805000D01*
X68027740Y-121805000D01*
X67961558Y-121798482D01*
X67895373Y-121791963D01*
X67782147Y-121757616D01*
X67725533Y-121740443D01*
X67569011Y-121656779D01*
X67569009Y-121656778D01*
X67529069Y-121624000D01*
X67431814Y-121544186D01*
X67348552Y-121442729D01*
X67319222Y-121406991D01*
X67309652Y-121389087D01*
X67235557Y-121250467D01*
X67218384Y-121193853D01*
X67184037Y-121080627D01*
X67166641Y-120904000D01*
X67184037Y-120727373D01*
X67235557Y-120557534D01*
X67235557Y-120557533D01*
X67319221Y-120401011D01*
X67319222Y-120401009D01*
X67348552Y-120365271D01*
X67431814Y-120263814D01*
X67538817Y-120176000D01*
X67569009Y-120151222D01*
X67586913Y-120141652D01*
X67725533Y-120067557D01*
X67782147Y-120050384D01*
X67895373Y-120016037D01*
X67961557Y-120009519D01*
X68027740Y-120003000D01*
X68116260Y-120003000D01*
X68182443Y-120009519D01*
X68182443Y-120009519D01*
G37*
G36*
X52434443Y-120009519D02*
X52500627Y-120016037D01*
X52613853Y-120050384D01*
X52670467Y-120067557D01*
X52809087Y-120141652D01*
X52826991Y-120151222D01*
X52857183Y-120176000D01*
X52964186Y-120263814D01*
X53047448Y-120365271D01*
X53076778Y-120401009D01*
X53076779Y-120401011D01*
X53160443Y-120557533D01*
X53160443Y-120557534D01*
X53211963Y-120727373D01*
X53229359Y-120904000D01*
X53211963Y-121080627D01*
X53177616Y-121193853D01*
X53160443Y-121250467D01*
X53086348Y-121389087D01*
X53076778Y-121406991D01*
X53047448Y-121442729D01*
X52964186Y-121544186D01*
X52866931Y-121624000D01*
X52826991Y-121656778D01*
X52826989Y-121656779D01*
X52670467Y-121740443D01*
X52613853Y-121757616D01*
X52500627Y-121791963D01*
X52434442Y-121798482D01*
X52368260Y-121805000D01*
X52279740Y-121805000D01*
X52213558Y-121798482D01*
X52147373Y-121791963D01*
X52034147Y-121757616D01*
X51977533Y-121740443D01*
X51821011Y-121656779D01*
X51821009Y-121656778D01*
X51781069Y-121624000D01*
X51683814Y-121544186D01*
X51600552Y-121442729D01*
X51571222Y-121406991D01*
X51561652Y-121389087D01*
X51487557Y-121250467D01*
X51470384Y-121193853D01*
X51436037Y-121080627D01*
X51418641Y-120904000D01*
X51436037Y-120727373D01*
X51487557Y-120557534D01*
X51487557Y-120557533D01*
X51571221Y-120401011D01*
X51571222Y-120401009D01*
X51600552Y-120365271D01*
X51683814Y-120263814D01*
X51790817Y-120176000D01*
X51821009Y-120151222D01*
X51838913Y-120141652D01*
X51977533Y-120067557D01*
X52034147Y-120050384D01*
X52147373Y-120016037D01*
X52213557Y-120009519D01*
X52279740Y-120003000D01*
X52368260Y-120003000D01*
X52434443Y-120009519D01*
X52434443Y-120009519D01*
G37*
G36*
X54974443Y-120009519D02*
X55040627Y-120016037D01*
X55153853Y-120050384D01*
X55210467Y-120067557D01*
X55349087Y-120141652D01*
X55366991Y-120151222D01*
X55397183Y-120176000D01*
X55504186Y-120263814D01*
X55587448Y-120365271D01*
X55616778Y-120401009D01*
X55616779Y-120401011D01*
X55700443Y-120557533D01*
X55700443Y-120557534D01*
X55751963Y-120727373D01*
X55769359Y-120904000D01*
X55751963Y-121080627D01*
X55717616Y-121193853D01*
X55700443Y-121250467D01*
X55626348Y-121389087D01*
X55616778Y-121406991D01*
X55587448Y-121442729D01*
X55504186Y-121544186D01*
X55406931Y-121624000D01*
X55366991Y-121656778D01*
X55366989Y-121656779D01*
X55210467Y-121740443D01*
X55153853Y-121757616D01*
X55040627Y-121791963D01*
X54974442Y-121798482D01*
X54908260Y-121805000D01*
X54819740Y-121805000D01*
X54753558Y-121798482D01*
X54687373Y-121791963D01*
X54574147Y-121757616D01*
X54517533Y-121740443D01*
X54361011Y-121656779D01*
X54361009Y-121656778D01*
X54321069Y-121624000D01*
X54223814Y-121544186D01*
X54140552Y-121442729D01*
X54111222Y-121406991D01*
X54101652Y-121389087D01*
X54027557Y-121250467D01*
X54010384Y-121193853D01*
X53976037Y-121080627D01*
X53958641Y-120904000D01*
X53976037Y-120727373D01*
X54027557Y-120557534D01*
X54027557Y-120557533D01*
X54111221Y-120401011D01*
X54111222Y-120401009D01*
X54140552Y-120365271D01*
X54223814Y-120263814D01*
X54330817Y-120176000D01*
X54361009Y-120151222D01*
X54378913Y-120141652D01*
X54517533Y-120067557D01*
X54574147Y-120050384D01*
X54687373Y-120016037D01*
X54753557Y-120009519D01*
X54819740Y-120003000D01*
X54908260Y-120003000D01*
X54974443Y-120009519D01*
X54974443Y-120009519D01*
G37*
G36*
X105101000Y-119901000D02*
X103499000Y-119901000D01*
X103499000Y-117799000D01*
X105101000Y-117799000D01*
X105101000Y-119901000D01*
X105101000Y-119901000D01*
G37*
G36*
X94301000Y-119901000D02*
X92699000Y-119901000D01*
X92699000Y-117799000D01*
X94301000Y-117799000D01*
X94301000Y-119901000D01*
X94301000Y-119901000D01*
G37*
G36*
X102801000Y-119901000D02*
X101199000Y-119901000D01*
X101199000Y-117799000D01*
X102801000Y-117799000D01*
X102801000Y-119901000D01*
X102801000Y-119901000D01*
G37*
G36*
X100501000Y-119901000D02*
X98899000Y-119901000D01*
X98899000Y-117799000D01*
X100501000Y-117799000D01*
X100501000Y-119901000D01*
X100501000Y-119901000D01*
G37*
G36*
X92001000Y-119901000D02*
X90399000Y-119901000D01*
X90399000Y-117799000D01*
X92001000Y-117799000D01*
X92001000Y-119901000D01*
X92001000Y-119901000D01*
G37*
G36*
X96601000Y-119901000D02*
X94999000Y-119901000D01*
X94999000Y-117799000D01*
X96601000Y-117799000D01*
X96601000Y-119901000D01*
X96601000Y-119901000D01*
G37*
G36*
X54974442Y-117469518D02*
X55040627Y-117476037D01*
X55153853Y-117510384D01*
X55210467Y-117527557D01*
X55349087Y-117601652D01*
X55366991Y-117611222D01*
X55402729Y-117640552D01*
X55504186Y-117723814D01*
X55587448Y-117825271D01*
X55616778Y-117861009D01*
X55616779Y-117861011D01*
X55700443Y-118017533D01*
X55700443Y-118017534D01*
X55751963Y-118187373D01*
X55769359Y-118364000D01*
X55751963Y-118540627D01*
X55717616Y-118653853D01*
X55700443Y-118710467D01*
X55626348Y-118849087D01*
X55616778Y-118866991D01*
X55587448Y-118902729D01*
X55504186Y-119004186D01*
X55402729Y-119087448D01*
X55366991Y-119116778D01*
X55366989Y-119116779D01*
X55210467Y-119200443D01*
X55153853Y-119217616D01*
X55040627Y-119251963D01*
X54974443Y-119258481D01*
X54908260Y-119265000D01*
X54819740Y-119265000D01*
X54753557Y-119258481D01*
X54687373Y-119251963D01*
X54574147Y-119217616D01*
X54517533Y-119200443D01*
X54361011Y-119116779D01*
X54361009Y-119116778D01*
X54325271Y-119087448D01*
X54223814Y-119004186D01*
X54140552Y-118902729D01*
X54111222Y-118866991D01*
X54101652Y-118849087D01*
X54027557Y-118710467D01*
X54010384Y-118653853D01*
X53976037Y-118540627D01*
X53958641Y-118364000D01*
X53976037Y-118187373D01*
X54027557Y-118017534D01*
X54027557Y-118017533D01*
X54111221Y-117861011D01*
X54111222Y-117861009D01*
X54140552Y-117825271D01*
X54223814Y-117723814D01*
X54325271Y-117640552D01*
X54361009Y-117611222D01*
X54378913Y-117601652D01*
X54517533Y-117527557D01*
X54574147Y-117510384D01*
X54687373Y-117476037D01*
X54753558Y-117469518D01*
X54819740Y-117463000D01*
X54908260Y-117463000D01*
X54974442Y-117469518D01*
X54974442Y-117469518D01*
G37*
G36*
X62848442Y-117469518D02*
X62914627Y-117476037D01*
X63027853Y-117510384D01*
X63084467Y-117527557D01*
X63223087Y-117601652D01*
X63240991Y-117611222D01*
X63276729Y-117640552D01*
X63378186Y-117723814D01*
X63461448Y-117825271D01*
X63490778Y-117861009D01*
X63490779Y-117861011D01*
X63574443Y-118017533D01*
X63574443Y-118017534D01*
X63625963Y-118187373D01*
X63643359Y-118364000D01*
X63625963Y-118540627D01*
X63591616Y-118653853D01*
X63574443Y-118710467D01*
X63500348Y-118849087D01*
X63490778Y-118866991D01*
X63461448Y-118902729D01*
X63378186Y-119004186D01*
X63276729Y-119087448D01*
X63240991Y-119116778D01*
X63240989Y-119116779D01*
X63084467Y-119200443D01*
X63027853Y-119217616D01*
X62914627Y-119251963D01*
X62848443Y-119258481D01*
X62782260Y-119265000D01*
X62693740Y-119265000D01*
X62627557Y-119258481D01*
X62561373Y-119251963D01*
X62448147Y-119217616D01*
X62391533Y-119200443D01*
X62235011Y-119116779D01*
X62235009Y-119116778D01*
X62199271Y-119087448D01*
X62097814Y-119004186D01*
X62014552Y-118902729D01*
X61985222Y-118866991D01*
X61975652Y-118849087D01*
X61901557Y-118710467D01*
X61884384Y-118653853D01*
X61850037Y-118540627D01*
X61832641Y-118364000D01*
X61850037Y-118187373D01*
X61901557Y-118017534D01*
X61901557Y-118017533D01*
X61985221Y-117861011D01*
X61985222Y-117861009D01*
X62014552Y-117825271D01*
X62097814Y-117723814D01*
X62199271Y-117640552D01*
X62235009Y-117611222D01*
X62252913Y-117601652D01*
X62391533Y-117527557D01*
X62448147Y-117510384D01*
X62561373Y-117476037D01*
X62627558Y-117469518D01*
X62693740Y-117463000D01*
X62782260Y-117463000D01*
X62848442Y-117469518D01*
X62848442Y-117469518D01*
G37*
G36*
X52434442Y-117469518D02*
X52500627Y-117476037D01*
X52613853Y-117510384D01*
X52670467Y-117527557D01*
X52809087Y-117601652D01*
X52826991Y-117611222D01*
X52862729Y-117640552D01*
X52964186Y-117723814D01*
X53047448Y-117825271D01*
X53076778Y-117861009D01*
X53076779Y-117861011D01*
X53160443Y-118017533D01*
X53160443Y-118017534D01*
X53211963Y-118187373D01*
X53229359Y-118364000D01*
X53211963Y-118540627D01*
X53177616Y-118653853D01*
X53160443Y-118710467D01*
X53086348Y-118849087D01*
X53076778Y-118866991D01*
X53047448Y-118902729D01*
X52964186Y-119004186D01*
X52862729Y-119087448D01*
X52826991Y-119116778D01*
X52826989Y-119116779D01*
X52670467Y-119200443D01*
X52613853Y-119217616D01*
X52500627Y-119251963D01*
X52434443Y-119258481D01*
X52368260Y-119265000D01*
X52279740Y-119265000D01*
X52213557Y-119258481D01*
X52147373Y-119251963D01*
X52034147Y-119217616D01*
X51977533Y-119200443D01*
X51821011Y-119116779D01*
X51821009Y-119116778D01*
X51785271Y-119087448D01*
X51683814Y-119004186D01*
X51600552Y-118902729D01*
X51571222Y-118866991D01*
X51561652Y-118849087D01*
X51487557Y-118710467D01*
X51470384Y-118653853D01*
X51436037Y-118540627D01*
X51418641Y-118364000D01*
X51436037Y-118187373D01*
X51487557Y-118017534D01*
X51487557Y-118017533D01*
X51571221Y-117861011D01*
X51571222Y-117861009D01*
X51600552Y-117825271D01*
X51683814Y-117723814D01*
X51785271Y-117640552D01*
X51821009Y-117611222D01*
X51838913Y-117601652D01*
X51977533Y-117527557D01*
X52034147Y-117510384D01*
X52147373Y-117476037D01*
X52213558Y-117469518D01*
X52279740Y-117463000D01*
X52368260Y-117463000D01*
X52434442Y-117469518D01*
X52434442Y-117469518D01*
G37*
G36*
X68182442Y-117469518D02*
X68248627Y-117476037D01*
X68361853Y-117510384D01*
X68418467Y-117527557D01*
X68557087Y-117601652D01*
X68574991Y-117611222D01*
X68610729Y-117640552D01*
X68712186Y-117723814D01*
X68795448Y-117825271D01*
X68824778Y-117861009D01*
X68824779Y-117861011D01*
X68908443Y-118017533D01*
X68908443Y-118017534D01*
X68959963Y-118187373D01*
X68977359Y-118364000D01*
X68959963Y-118540627D01*
X68925616Y-118653853D01*
X68908443Y-118710467D01*
X68834348Y-118849087D01*
X68824778Y-118866991D01*
X68795448Y-118902729D01*
X68712186Y-119004186D01*
X68610729Y-119087448D01*
X68574991Y-119116778D01*
X68574989Y-119116779D01*
X68418467Y-119200443D01*
X68361853Y-119217616D01*
X68248627Y-119251963D01*
X68182443Y-119258481D01*
X68116260Y-119265000D01*
X68027740Y-119265000D01*
X67961557Y-119258481D01*
X67895373Y-119251963D01*
X67782147Y-119217616D01*
X67725533Y-119200443D01*
X67569011Y-119116779D01*
X67569009Y-119116778D01*
X67533271Y-119087448D01*
X67431814Y-119004186D01*
X67348552Y-118902729D01*
X67319222Y-118866991D01*
X67309652Y-118849087D01*
X67235557Y-118710467D01*
X67218384Y-118653853D01*
X67184037Y-118540627D01*
X67166641Y-118364000D01*
X67184037Y-118187373D01*
X67235557Y-118017534D01*
X67235557Y-118017533D01*
X67319221Y-117861011D01*
X67319222Y-117861009D01*
X67348552Y-117825271D01*
X67431814Y-117723814D01*
X67533271Y-117640552D01*
X67569009Y-117611222D01*
X67586913Y-117601652D01*
X67725533Y-117527557D01*
X67782147Y-117510384D01*
X67895373Y-117476037D01*
X67961558Y-117469518D01*
X68027740Y-117463000D01*
X68116260Y-117463000D01*
X68182442Y-117469518D01*
X68182442Y-117469518D01*
G37*
G36*
X80316565Y-114813389D02*
X80507834Y-114892615D01*
X80679976Y-115007637D01*
X80826363Y-115154024D01*
X80941385Y-115326166D01*
X81020611Y-115517435D01*
X81061000Y-115720484D01*
X81061000Y-115927516D01*
X81020611Y-116130565D01*
X80941385Y-116321834D01*
X80826363Y-116493976D01*
X80679976Y-116640363D01*
X80507834Y-116755385D01*
X80316565Y-116834611D01*
X80113516Y-116875000D01*
X79906484Y-116875000D01*
X79703435Y-116834611D01*
X79512166Y-116755385D01*
X79340024Y-116640363D01*
X79193637Y-116493976D01*
X79078615Y-116321834D01*
X78999389Y-116130565D01*
X78959000Y-115927516D01*
X78959000Y-115720484D01*
X78999389Y-115517435D01*
X79078615Y-115326166D01*
X79193637Y-115154024D01*
X79340024Y-115007637D01*
X79512166Y-114892615D01*
X79703435Y-114813389D01*
X79906484Y-114773000D01*
X80113516Y-114773000D01*
X80316565Y-114813389D01*
X80316565Y-114813389D01*
G37*
G36*
X58980565Y-114813389D02*
X59171834Y-114892615D01*
X59343976Y-115007637D01*
X59490363Y-115154024D01*
X59605385Y-115326166D01*
X59684611Y-115517435D01*
X59725000Y-115720484D01*
X59725000Y-115927516D01*
X59684611Y-116130565D01*
X59605385Y-116321834D01*
X59490363Y-116493976D01*
X59343976Y-116640363D01*
X59171834Y-116755385D01*
X58980565Y-116834611D01*
X58777516Y-116875000D01*
X58570484Y-116875000D01*
X58367435Y-116834611D01*
X58176166Y-116755385D01*
X58004024Y-116640363D01*
X57857637Y-116493976D01*
X57742615Y-116321834D01*
X57663389Y-116130565D01*
X57623000Y-115927516D01*
X57623000Y-115720484D01*
X57663389Y-115517435D01*
X57742615Y-115326166D01*
X57857637Y-115154024D01*
X58004024Y-115007637D01*
X58176166Y-114892615D01*
X58367435Y-114813389D01*
X58570484Y-114773000D01*
X58777516Y-114773000D01*
X58980565Y-114813389D01*
X58980565Y-114813389D01*
G37*
G36*
X68182443Y-114929519D02*
X68248627Y-114936037D01*
X68361853Y-114970384D01*
X68418467Y-114987557D01*
X68456033Y-115007637D01*
X68574991Y-115071222D01*
X68610729Y-115100552D01*
X68712186Y-115183814D01*
X68795448Y-115285271D01*
X68824778Y-115321009D01*
X68824779Y-115321011D01*
X68908443Y-115477533D01*
X68908443Y-115477534D01*
X68959963Y-115647373D01*
X68977359Y-115824000D01*
X68959963Y-116000627D01*
X68925616Y-116113853D01*
X68908443Y-116170467D01*
X68834348Y-116309087D01*
X68824778Y-116326991D01*
X68795448Y-116362729D01*
X68712186Y-116464186D01*
X68610729Y-116547448D01*
X68574991Y-116576778D01*
X68574989Y-116576779D01*
X68418467Y-116660443D01*
X68361853Y-116677616D01*
X68248627Y-116711963D01*
X68182443Y-116718481D01*
X68116260Y-116725000D01*
X68027740Y-116725000D01*
X67961557Y-116718481D01*
X67895373Y-116711963D01*
X67782147Y-116677616D01*
X67725533Y-116660443D01*
X67569011Y-116576779D01*
X67569009Y-116576778D01*
X67533271Y-116547448D01*
X67431814Y-116464186D01*
X67348552Y-116362729D01*
X67319222Y-116326991D01*
X67309652Y-116309087D01*
X67235557Y-116170467D01*
X67218384Y-116113853D01*
X67184037Y-116000627D01*
X67166641Y-115824000D01*
X67184037Y-115647373D01*
X67235557Y-115477534D01*
X67235557Y-115477533D01*
X67319221Y-115321011D01*
X67319222Y-115321009D01*
X67348552Y-115285271D01*
X67431814Y-115183814D01*
X67533271Y-115100552D01*
X67569009Y-115071222D01*
X67687967Y-115007637D01*
X67725533Y-114987557D01*
X67782147Y-114970384D01*
X67895373Y-114936037D01*
X67961557Y-114929519D01*
X68027740Y-114923000D01*
X68116260Y-114923000D01*
X68182443Y-114929519D01*
X68182443Y-114929519D01*
G37*
G36*
X62848443Y-114929519D02*
X62914627Y-114936037D01*
X63027853Y-114970384D01*
X63084467Y-114987557D01*
X63122033Y-115007637D01*
X63240991Y-115071222D01*
X63276729Y-115100552D01*
X63378186Y-115183814D01*
X63461448Y-115285271D01*
X63490778Y-115321009D01*
X63490779Y-115321011D01*
X63574443Y-115477533D01*
X63574443Y-115477534D01*
X63625963Y-115647373D01*
X63643359Y-115824000D01*
X63625963Y-116000627D01*
X63591616Y-116113853D01*
X63574443Y-116170467D01*
X63500348Y-116309087D01*
X63490778Y-116326991D01*
X63461448Y-116362729D01*
X63378186Y-116464186D01*
X63276729Y-116547448D01*
X63240991Y-116576778D01*
X63240989Y-116576779D01*
X63084467Y-116660443D01*
X63027853Y-116677616D01*
X62914627Y-116711963D01*
X62848443Y-116718481D01*
X62782260Y-116725000D01*
X62693740Y-116725000D01*
X62627557Y-116718481D01*
X62561373Y-116711963D01*
X62448147Y-116677616D01*
X62391533Y-116660443D01*
X62235011Y-116576779D01*
X62235009Y-116576778D01*
X62199271Y-116547448D01*
X62097814Y-116464186D01*
X62014552Y-116362729D01*
X61985222Y-116326991D01*
X61975652Y-116309087D01*
X61901557Y-116170467D01*
X61884384Y-116113853D01*
X61850037Y-116000627D01*
X61832641Y-115824000D01*
X61850037Y-115647373D01*
X61901557Y-115477534D01*
X61901557Y-115477533D01*
X61985221Y-115321011D01*
X61985222Y-115321009D01*
X62014552Y-115285271D01*
X62097814Y-115183814D01*
X62199271Y-115100552D01*
X62235009Y-115071222D01*
X62353967Y-115007637D01*
X62391533Y-114987557D01*
X62448147Y-114970384D01*
X62561373Y-114936037D01*
X62627557Y-114929519D01*
X62693740Y-114923000D01*
X62782260Y-114923000D01*
X62848443Y-114929519D01*
X62848443Y-114929519D01*
G37*
G36*
X54974443Y-114929519D02*
X55040627Y-114936037D01*
X55153853Y-114970384D01*
X55210467Y-114987557D01*
X55248033Y-115007637D01*
X55366991Y-115071222D01*
X55402729Y-115100552D01*
X55504186Y-115183814D01*
X55587448Y-115285271D01*
X55616778Y-115321009D01*
X55616779Y-115321011D01*
X55700443Y-115477533D01*
X55700443Y-115477534D01*
X55751963Y-115647373D01*
X55769359Y-115824000D01*
X55751963Y-116000627D01*
X55717616Y-116113853D01*
X55700443Y-116170467D01*
X55626348Y-116309087D01*
X55616778Y-116326991D01*
X55587448Y-116362729D01*
X55504186Y-116464186D01*
X55402729Y-116547448D01*
X55366991Y-116576778D01*
X55366989Y-116576779D01*
X55210467Y-116660443D01*
X55153853Y-116677616D01*
X55040627Y-116711963D01*
X54974443Y-116718481D01*
X54908260Y-116725000D01*
X54819740Y-116725000D01*
X54753557Y-116718481D01*
X54687373Y-116711963D01*
X54574147Y-116677616D01*
X54517533Y-116660443D01*
X54361011Y-116576779D01*
X54361009Y-116576778D01*
X54325271Y-116547448D01*
X54223814Y-116464186D01*
X54140552Y-116362729D01*
X54111222Y-116326991D01*
X54101652Y-116309087D01*
X54027557Y-116170467D01*
X54010384Y-116113853D01*
X53976037Y-116000627D01*
X53958641Y-115824000D01*
X53976037Y-115647373D01*
X54027557Y-115477534D01*
X54027557Y-115477533D01*
X54111221Y-115321011D01*
X54111222Y-115321009D01*
X54140552Y-115285271D01*
X54223814Y-115183814D01*
X54325271Y-115100552D01*
X54361009Y-115071222D01*
X54479967Y-115007637D01*
X54517533Y-114987557D01*
X54574147Y-114970384D01*
X54687373Y-114936037D01*
X54753557Y-114929519D01*
X54819740Y-114923000D01*
X54908260Y-114923000D01*
X54974443Y-114929519D01*
X54974443Y-114929519D01*
G37*
G36*
X52434443Y-114929519D02*
X52500627Y-114936037D01*
X52613853Y-114970384D01*
X52670467Y-114987557D01*
X52708033Y-115007637D01*
X52826991Y-115071222D01*
X52862729Y-115100552D01*
X52964186Y-115183814D01*
X53047448Y-115285271D01*
X53076778Y-115321009D01*
X53076779Y-115321011D01*
X53160443Y-115477533D01*
X53160443Y-115477534D01*
X53211963Y-115647373D01*
X53229359Y-115824000D01*
X53211963Y-116000627D01*
X53177616Y-116113853D01*
X53160443Y-116170467D01*
X53086348Y-116309087D01*
X53076778Y-116326991D01*
X53047448Y-116362729D01*
X52964186Y-116464186D01*
X52862729Y-116547448D01*
X52826991Y-116576778D01*
X52826989Y-116576779D01*
X52670467Y-116660443D01*
X52613853Y-116677616D01*
X52500627Y-116711963D01*
X52434443Y-116718481D01*
X52368260Y-116725000D01*
X52279740Y-116725000D01*
X52213557Y-116718481D01*
X52147373Y-116711963D01*
X52034147Y-116677616D01*
X51977533Y-116660443D01*
X51821011Y-116576779D01*
X51821009Y-116576778D01*
X51785271Y-116547448D01*
X51683814Y-116464186D01*
X51600552Y-116362729D01*
X51571222Y-116326991D01*
X51561652Y-116309087D01*
X51487557Y-116170467D01*
X51470384Y-116113853D01*
X51436037Y-116000627D01*
X51418641Y-115824000D01*
X51436037Y-115647373D01*
X51487557Y-115477534D01*
X51487557Y-115477533D01*
X51571221Y-115321011D01*
X51571222Y-115321009D01*
X51600552Y-115285271D01*
X51683814Y-115183814D01*
X51785271Y-115100552D01*
X51821009Y-115071222D01*
X51939967Y-115007637D01*
X51977533Y-114987557D01*
X52034147Y-114970384D01*
X52147373Y-114936037D01*
X52213557Y-114929519D01*
X52279740Y-114923000D01*
X52368260Y-114923000D01*
X52434443Y-114929519D01*
X52434443Y-114929519D01*
G37*
G36*
X86973062Y-112616181D02*
X87007977Y-112626773D01*
X87040165Y-112643978D01*
X87068373Y-112667127D01*
X87091522Y-112695335D01*
X87108727Y-112727523D01*
X87119319Y-112762438D01*
X87123500Y-112804895D01*
X87123500Y-114271105D01*
X87119319Y-114313562D01*
X87108727Y-114348477D01*
X87091522Y-114380665D01*
X87068373Y-114408873D01*
X87040165Y-114432022D01*
X87007977Y-114449227D01*
X86973062Y-114459819D01*
X86930605Y-114464000D01*
X85789395Y-114464000D01*
X85746938Y-114459819D01*
X85712023Y-114449227D01*
X85679835Y-114432022D01*
X85651627Y-114408873D01*
X85628478Y-114380665D01*
X85611273Y-114348477D01*
X85600681Y-114313562D01*
X85596500Y-114271105D01*
X85596500Y-112804895D01*
X85600681Y-112762438D01*
X85611273Y-112727523D01*
X85628478Y-112695335D01*
X85651627Y-112667127D01*
X85679835Y-112643978D01*
X85712023Y-112626773D01*
X85746938Y-112616181D01*
X85789395Y-112612000D01*
X86930605Y-112612000D01*
X86973062Y-112616181D01*
X86973062Y-112616181D01*
G37*
G36*
X89948062Y-112616181D02*
X89982977Y-112626773D01*
X90015165Y-112643978D01*
X90043373Y-112667127D01*
X90066522Y-112695335D01*
X90083727Y-112727523D01*
X90094319Y-112762438D01*
X90098500Y-112804895D01*
X90098500Y-114271105D01*
X90094319Y-114313562D01*
X90083727Y-114348477D01*
X90066522Y-114380665D01*
X90043373Y-114408873D01*
X90015165Y-114432022D01*
X89982977Y-114449227D01*
X89948062Y-114459819D01*
X89905605Y-114464000D01*
X88764395Y-114464000D01*
X88721938Y-114459819D01*
X88687023Y-114449227D01*
X88654835Y-114432022D01*
X88626627Y-114408873D01*
X88603478Y-114380665D01*
X88586273Y-114348477D01*
X88575681Y-114313562D01*
X88571500Y-114271105D01*
X88571500Y-112804895D01*
X88575681Y-112762438D01*
X88586273Y-112727523D01*
X88603478Y-112695335D01*
X88626627Y-112667127D01*
X88654835Y-112643978D01*
X88687023Y-112626773D01*
X88721938Y-112616181D01*
X88764395Y-112612000D01*
X89905605Y-112612000D01*
X89948062Y-112616181D01*
X89948062Y-112616181D01*
G37*
G36*
X68182443Y-112389519D02*
X68248627Y-112396037D01*
X68361853Y-112430384D01*
X68418467Y-112447557D01*
X68557087Y-112521652D01*
X68574991Y-112531222D01*
X68610729Y-112560552D01*
X68712186Y-112643814D01*
X68795448Y-112745271D01*
X68824778Y-112781009D01*
X68824779Y-112781011D01*
X68908443Y-112937533D01*
X68908443Y-112937534D01*
X68959963Y-113107373D01*
X68977359Y-113284000D01*
X68959963Y-113460627D01*
X68938076Y-113532778D01*
X68908443Y-113630467D01*
X68881432Y-113681000D01*
X68824778Y-113786991D01*
X68795448Y-113822729D01*
X68712186Y-113924186D01*
X68610729Y-114007448D01*
X68574991Y-114036778D01*
X68574989Y-114036779D01*
X68418467Y-114120443D01*
X68361853Y-114137616D01*
X68248627Y-114171963D01*
X68182442Y-114178482D01*
X68116260Y-114185000D01*
X68027740Y-114185000D01*
X67961558Y-114178482D01*
X67895373Y-114171963D01*
X67782147Y-114137616D01*
X67725533Y-114120443D01*
X67569011Y-114036779D01*
X67569009Y-114036778D01*
X67533271Y-114007448D01*
X67431814Y-113924186D01*
X67348552Y-113822729D01*
X67319222Y-113786991D01*
X67262568Y-113681000D01*
X67235557Y-113630467D01*
X67205924Y-113532778D01*
X67184037Y-113460627D01*
X67166641Y-113284000D01*
X67184037Y-113107373D01*
X67235557Y-112937534D01*
X67235557Y-112937533D01*
X67319221Y-112781011D01*
X67319222Y-112781009D01*
X67348552Y-112745271D01*
X67431814Y-112643814D01*
X67533271Y-112560552D01*
X67569009Y-112531222D01*
X67586913Y-112521652D01*
X67725533Y-112447557D01*
X67782147Y-112430384D01*
X67895373Y-112396037D01*
X67961557Y-112389519D01*
X68027740Y-112383000D01*
X68116260Y-112383000D01*
X68182443Y-112389519D01*
X68182443Y-112389519D01*
G37*
G36*
X52434443Y-112389519D02*
X52500627Y-112396037D01*
X52613853Y-112430384D01*
X52670467Y-112447557D01*
X52809087Y-112521652D01*
X52826991Y-112531222D01*
X52862729Y-112560552D01*
X52964186Y-112643814D01*
X53047448Y-112745271D01*
X53076778Y-112781009D01*
X53076779Y-112781011D01*
X53160443Y-112937533D01*
X53160443Y-112937534D01*
X53211963Y-113107373D01*
X53229359Y-113284000D01*
X53211963Y-113460627D01*
X53190076Y-113532778D01*
X53160443Y-113630467D01*
X53133432Y-113681000D01*
X53076778Y-113786991D01*
X53047448Y-113822729D01*
X52964186Y-113924186D01*
X52862729Y-114007448D01*
X52826991Y-114036778D01*
X52826989Y-114036779D01*
X52670467Y-114120443D01*
X52613853Y-114137616D01*
X52500627Y-114171963D01*
X52434442Y-114178482D01*
X52368260Y-114185000D01*
X52279740Y-114185000D01*
X52213558Y-114178482D01*
X52147373Y-114171963D01*
X52034147Y-114137616D01*
X51977533Y-114120443D01*
X51821011Y-114036779D01*
X51821009Y-114036778D01*
X51785271Y-114007448D01*
X51683814Y-113924186D01*
X51600552Y-113822729D01*
X51571222Y-113786991D01*
X51514568Y-113681000D01*
X51487557Y-113630467D01*
X51457924Y-113532778D01*
X51436037Y-113460627D01*
X51418641Y-113284000D01*
X51436037Y-113107373D01*
X51487557Y-112937534D01*
X51487557Y-112937533D01*
X51571221Y-112781011D01*
X51571222Y-112781009D01*
X51600552Y-112745271D01*
X51683814Y-112643814D01*
X51785271Y-112560552D01*
X51821009Y-112531222D01*
X51838913Y-112521652D01*
X51977533Y-112447557D01*
X52034147Y-112430384D01*
X52147373Y-112396037D01*
X52213557Y-112389519D01*
X52279740Y-112383000D01*
X52368260Y-112383000D01*
X52434443Y-112389519D01*
X52434443Y-112389519D01*
G37*
G36*
X54974443Y-112389519D02*
X55040627Y-112396037D01*
X55153853Y-112430384D01*
X55210467Y-112447557D01*
X55349087Y-112521652D01*
X55366991Y-112531222D01*
X55402729Y-112560552D01*
X55504186Y-112643814D01*
X55587448Y-112745271D01*
X55616778Y-112781009D01*
X55616779Y-112781011D01*
X55700443Y-112937533D01*
X55700443Y-112937534D01*
X55751963Y-113107373D01*
X55769359Y-113284000D01*
X55751963Y-113460627D01*
X55730076Y-113532778D01*
X55700443Y-113630467D01*
X55673432Y-113681000D01*
X55616778Y-113786991D01*
X55587448Y-113822729D01*
X55504186Y-113924186D01*
X55402729Y-114007448D01*
X55366991Y-114036778D01*
X55366989Y-114036779D01*
X55210467Y-114120443D01*
X55153853Y-114137616D01*
X55040627Y-114171963D01*
X54974442Y-114178482D01*
X54908260Y-114185000D01*
X54819740Y-114185000D01*
X54753558Y-114178482D01*
X54687373Y-114171963D01*
X54574147Y-114137616D01*
X54517533Y-114120443D01*
X54361011Y-114036779D01*
X54361009Y-114036778D01*
X54325271Y-114007448D01*
X54223814Y-113924186D01*
X54140552Y-113822729D01*
X54111222Y-113786991D01*
X54054568Y-113681000D01*
X54027557Y-113630467D01*
X53997924Y-113532778D01*
X53976037Y-113460627D01*
X53958641Y-113284000D01*
X53976037Y-113107373D01*
X54027557Y-112937534D01*
X54027557Y-112937533D01*
X54111221Y-112781011D01*
X54111222Y-112781009D01*
X54140552Y-112745271D01*
X54223814Y-112643814D01*
X54325271Y-112560552D01*
X54361009Y-112531222D01*
X54378913Y-112521652D01*
X54517533Y-112447557D01*
X54574147Y-112430384D01*
X54687373Y-112396037D01*
X54753557Y-112389519D01*
X54819740Y-112383000D01*
X54908260Y-112383000D01*
X54974443Y-112389519D01*
X54974443Y-112389519D01*
G37*
G36*
X62848443Y-112389519D02*
X62914627Y-112396037D01*
X63027853Y-112430384D01*
X63084467Y-112447557D01*
X63223087Y-112521652D01*
X63240991Y-112531222D01*
X63276729Y-112560552D01*
X63378186Y-112643814D01*
X63461448Y-112745271D01*
X63490778Y-112781009D01*
X63490779Y-112781011D01*
X63574443Y-112937533D01*
X63574443Y-112937534D01*
X63625963Y-113107373D01*
X63643359Y-113284000D01*
X63625963Y-113460627D01*
X63604076Y-113532778D01*
X63574443Y-113630467D01*
X63547432Y-113681000D01*
X63490778Y-113786991D01*
X63461448Y-113822729D01*
X63378186Y-113924186D01*
X63276729Y-114007448D01*
X63240991Y-114036778D01*
X63240989Y-114036779D01*
X63084467Y-114120443D01*
X63027853Y-114137616D01*
X62914627Y-114171963D01*
X62848442Y-114178482D01*
X62782260Y-114185000D01*
X62693740Y-114185000D01*
X62627558Y-114178482D01*
X62561373Y-114171963D01*
X62448147Y-114137616D01*
X62391533Y-114120443D01*
X62235011Y-114036779D01*
X62235009Y-114036778D01*
X62199271Y-114007448D01*
X62097814Y-113924186D01*
X62014552Y-113822729D01*
X61985222Y-113786991D01*
X61928568Y-113681000D01*
X61901557Y-113630467D01*
X61871924Y-113532778D01*
X61850037Y-113460627D01*
X61832641Y-113284000D01*
X61850037Y-113107373D01*
X61901557Y-112937534D01*
X61901557Y-112937533D01*
X61985221Y-112781011D01*
X61985222Y-112781009D01*
X62014552Y-112745271D01*
X62097814Y-112643814D01*
X62199271Y-112560552D01*
X62235009Y-112531222D01*
X62252913Y-112521652D01*
X62391533Y-112447557D01*
X62448147Y-112430384D01*
X62561373Y-112396037D01*
X62627557Y-112389519D01*
X62693740Y-112383000D01*
X62782260Y-112383000D01*
X62848443Y-112389519D01*
X62848443Y-112389519D01*
G37*
G36*
X103650442Y-111885518D02*
X103716627Y-111892037D01*
X103815313Y-111921973D01*
X103886467Y-111943557D01*
X104025087Y-112017652D01*
X104042991Y-112027222D01*
X104078729Y-112056552D01*
X104180186Y-112139814D01*
X104263448Y-112241271D01*
X104292778Y-112277009D01*
X104292779Y-112277011D01*
X104376443Y-112433533D01*
X104376443Y-112433534D01*
X104427963Y-112603373D01*
X104445359Y-112780000D01*
X104427963Y-112956627D01*
X104393616Y-113069853D01*
X104376443Y-113126467D01*
X104302348Y-113265087D01*
X104292778Y-113282991D01*
X104263448Y-113318729D01*
X104180186Y-113420186D01*
X104078729Y-113503448D01*
X104042991Y-113532778D01*
X104042989Y-113532779D01*
X103886467Y-113616443D01*
X103840238Y-113630466D01*
X103716627Y-113667963D01*
X103650443Y-113674481D01*
X103584260Y-113681000D01*
X103495740Y-113681000D01*
X103429557Y-113674481D01*
X103363373Y-113667963D01*
X103239762Y-113630466D01*
X103193533Y-113616443D01*
X103037011Y-113532779D01*
X103037009Y-113532778D01*
X103001271Y-113503448D01*
X102899814Y-113420186D01*
X102816552Y-113318729D01*
X102787222Y-113282991D01*
X102777652Y-113265087D01*
X102703557Y-113126467D01*
X102686384Y-113069853D01*
X102652037Y-112956627D01*
X102634641Y-112780000D01*
X102652037Y-112603373D01*
X102703557Y-112433534D01*
X102703557Y-112433533D01*
X102787221Y-112277011D01*
X102787222Y-112277009D01*
X102816552Y-112241271D01*
X102899814Y-112139814D01*
X103001271Y-112056552D01*
X103037009Y-112027222D01*
X103054913Y-112017652D01*
X103193533Y-111943557D01*
X103264687Y-111921973D01*
X103363373Y-111892037D01*
X103429558Y-111885518D01*
X103495740Y-111879000D01*
X103584260Y-111879000D01*
X103650442Y-111885518D01*
X103650442Y-111885518D01*
G37*
G36*
X101110442Y-111885518D02*
X101176627Y-111892037D01*
X101275313Y-111921973D01*
X101346467Y-111943557D01*
X101485087Y-112017652D01*
X101502991Y-112027222D01*
X101538729Y-112056552D01*
X101640186Y-112139814D01*
X101723448Y-112241271D01*
X101752778Y-112277009D01*
X101752779Y-112277011D01*
X101836443Y-112433533D01*
X101836443Y-112433534D01*
X101887963Y-112603373D01*
X101905359Y-112780000D01*
X101887963Y-112956627D01*
X101853616Y-113069853D01*
X101836443Y-113126467D01*
X101762348Y-113265087D01*
X101752778Y-113282991D01*
X101723448Y-113318729D01*
X101640186Y-113420186D01*
X101538729Y-113503448D01*
X101502991Y-113532778D01*
X101502989Y-113532779D01*
X101346467Y-113616443D01*
X101300238Y-113630466D01*
X101176627Y-113667963D01*
X101110443Y-113674481D01*
X101044260Y-113681000D01*
X100955740Y-113681000D01*
X100889557Y-113674481D01*
X100823373Y-113667963D01*
X100699762Y-113630466D01*
X100653533Y-113616443D01*
X100497011Y-113532779D01*
X100497009Y-113532778D01*
X100461271Y-113503448D01*
X100359814Y-113420186D01*
X100276552Y-113318729D01*
X100247222Y-113282991D01*
X100237652Y-113265087D01*
X100163557Y-113126467D01*
X100146384Y-113069853D01*
X100112037Y-112956627D01*
X100094641Y-112780000D01*
X100112037Y-112603373D01*
X100163557Y-112433534D01*
X100163557Y-112433533D01*
X100247221Y-112277011D01*
X100247222Y-112277009D01*
X100276552Y-112241271D01*
X100359814Y-112139814D01*
X100461271Y-112056552D01*
X100497009Y-112027222D01*
X100514913Y-112017652D01*
X100653533Y-111943557D01*
X100724687Y-111921973D01*
X100823373Y-111892037D01*
X100889558Y-111885518D01*
X100955740Y-111879000D01*
X101044260Y-111879000D01*
X101110442Y-111885518D01*
X101110442Y-111885518D01*
G37*
G36*
X58980565Y-110241389D02*
X59171834Y-110320615D01*
X59343976Y-110435637D01*
X59490363Y-110582024D01*
X59605385Y-110754166D01*
X59684611Y-110945435D01*
X59725000Y-111148484D01*
X59725000Y-111355516D01*
X59684611Y-111558565D01*
X59605385Y-111749834D01*
X59490363Y-111921976D01*
X59343976Y-112068363D01*
X59171834Y-112183385D01*
X58980565Y-112262611D01*
X58777516Y-112303000D01*
X58570484Y-112303000D01*
X58367435Y-112262611D01*
X58176166Y-112183385D01*
X58004024Y-112068363D01*
X57857637Y-111921976D01*
X57742615Y-111749834D01*
X57663389Y-111558565D01*
X57623000Y-111355516D01*
X57623000Y-111148484D01*
X57663389Y-110945435D01*
X57742615Y-110754166D01*
X57857637Y-110582024D01*
X58004024Y-110435637D01*
X58176166Y-110320615D01*
X58367435Y-110241389D01*
X58570484Y-110201000D01*
X58777516Y-110201000D01*
X58980565Y-110241389D01*
X58980565Y-110241389D01*
G37*
G36*
X62848443Y-109849519D02*
X62914627Y-109856037D01*
X63027853Y-109890384D01*
X63084467Y-109907557D01*
X63223087Y-109981652D01*
X63240991Y-109991222D01*
X63276729Y-110020552D01*
X63378186Y-110103814D01*
X63457943Y-110201000D01*
X63490778Y-110241009D01*
X63490779Y-110241011D01*
X63574443Y-110397533D01*
X63574443Y-110397534D01*
X63625963Y-110567373D01*
X63643359Y-110744000D01*
X63625963Y-110920627D01*
X63604076Y-110992778D01*
X63574443Y-111090467D01*
X63500348Y-111229087D01*
X63490778Y-111246991D01*
X63461448Y-111282729D01*
X63378186Y-111384186D01*
X63276729Y-111467448D01*
X63240991Y-111496778D01*
X63240989Y-111496779D01*
X63084467Y-111580443D01*
X63027853Y-111597616D01*
X62914627Y-111631963D01*
X62848443Y-111638481D01*
X62782260Y-111645000D01*
X62693740Y-111645000D01*
X62627557Y-111638481D01*
X62561373Y-111631963D01*
X62448147Y-111597616D01*
X62391533Y-111580443D01*
X62235011Y-111496779D01*
X62235009Y-111496778D01*
X62199271Y-111467448D01*
X62097814Y-111384186D01*
X62014552Y-111282729D01*
X61985222Y-111246991D01*
X61975652Y-111229087D01*
X61901557Y-111090467D01*
X61871924Y-110992778D01*
X61850037Y-110920627D01*
X61832641Y-110744000D01*
X61850037Y-110567373D01*
X61901557Y-110397534D01*
X61901557Y-110397533D01*
X61985221Y-110241011D01*
X61985222Y-110241009D01*
X62018057Y-110201000D01*
X62097814Y-110103814D01*
X62199271Y-110020552D01*
X62235009Y-109991222D01*
X62252913Y-109981652D01*
X62391533Y-109907557D01*
X62448147Y-109890384D01*
X62561373Y-109856037D01*
X62627557Y-109849519D01*
X62693740Y-109843000D01*
X62782260Y-109843000D01*
X62848443Y-109849519D01*
X62848443Y-109849519D01*
G37*
G36*
X52434443Y-109849519D02*
X52500627Y-109856037D01*
X52613853Y-109890384D01*
X52670467Y-109907557D01*
X52809087Y-109981652D01*
X52826991Y-109991222D01*
X52862729Y-110020552D01*
X52964186Y-110103814D01*
X53043943Y-110201000D01*
X53076778Y-110241009D01*
X53076779Y-110241011D01*
X53160443Y-110397533D01*
X53160443Y-110397534D01*
X53211963Y-110567373D01*
X53229359Y-110744000D01*
X53211963Y-110920627D01*
X53190076Y-110992778D01*
X53160443Y-111090467D01*
X53086348Y-111229087D01*
X53076778Y-111246991D01*
X53047448Y-111282729D01*
X52964186Y-111384186D01*
X52862729Y-111467448D01*
X52826991Y-111496778D01*
X52826989Y-111496779D01*
X52670467Y-111580443D01*
X52613853Y-111597616D01*
X52500627Y-111631963D01*
X52434443Y-111638481D01*
X52368260Y-111645000D01*
X52279740Y-111645000D01*
X52213557Y-111638481D01*
X52147373Y-111631963D01*
X52034147Y-111597616D01*
X51977533Y-111580443D01*
X51821011Y-111496779D01*
X51821009Y-111496778D01*
X51785271Y-111467448D01*
X51683814Y-111384186D01*
X51600552Y-111282729D01*
X51571222Y-111246991D01*
X51561652Y-111229087D01*
X51487557Y-111090467D01*
X51457924Y-110992778D01*
X51436037Y-110920627D01*
X51418641Y-110744000D01*
X51436037Y-110567373D01*
X51487557Y-110397534D01*
X51487557Y-110397533D01*
X51571221Y-110241011D01*
X51571222Y-110241009D01*
X51604057Y-110201000D01*
X51683814Y-110103814D01*
X51785271Y-110020552D01*
X51821009Y-109991222D01*
X51838913Y-109981652D01*
X51977533Y-109907557D01*
X52034147Y-109890384D01*
X52147373Y-109856037D01*
X52213557Y-109849519D01*
X52279740Y-109843000D01*
X52368260Y-109843000D01*
X52434443Y-109849519D01*
X52434443Y-109849519D01*
G37*
G36*
X54974443Y-109849519D02*
X55040627Y-109856037D01*
X55153853Y-109890384D01*
X55210467Y-109907557D01*
X55349087Y-109981652D01*
X55366991Y-109991222D01*
X55402729Y-110020552D01*
X55504186Y-110103814D01*
X55583943Y-110201000D01*
X55616778Y-110241009D01*
X55616779Y-110241011D01*
X55700443Y-110397533D01*
X55700443Y-110397534D01*
X55751963Y-110567373D01*
X55769359Y-110744000D01*
X55751963Y-110920627D01*
X55730076Y-110992778D01*
X55700443Y-111090467D01*
X55626348Y-111229087D01*
X55616778Y-111246991D01*
X55587448Y-111282729D01*
X55504186Y-111384186D01*
X55402729Y-111467448D01*
X55366991Y-111496778D01*
X55366989Y-111496779D01*
X55210467Y-111580443D01*
X55153853Y-111597616D01*
X55040627Y-111631963D01*
X54974443Y-111638481D01*
X54908260Y-111645000D01*
X54819740Y-111645000D01*
X54753557Y-111638481D01*
X54687373Y-111631963D01*
X54574147Y-111597616D01*
X54517533Y-111580443D01*
X54361011Y-111496779D01*
X54361009Y-111496778D01*
X54325271Y-111467448D01*
X54223814Y-111384186D01*
X54140552Y-111282729D01*
X54111222Y-111246991D01*
X54101652Y-111229087D01*
X54027557Y-111090467D01*
X53997924Y-110992778D01*
X53976037Y-110920627D01*
X53958641Y-110744000D01*
X53976037Y-110567373D01*
X54027557Y-110397534D01*
X54027557Y-110397533D01*
X54111221Y-110241011D01*
X54111222Y-110241009D01*
X54144057Y-110201000D01*
X54223814Y-110103814D01*
X54325271Y-110020552D01*
X54361009Y-109991222D01*
X54378913Y-109981652D01*
X54517533Y-109907557D01*
X54574147Y-109890384D01*
X54687373Y-109856037D01*
X54753557Y-109849519D01*
X54819740Y-109843000D01*
X54908260Y-109843000D01*
X54974443Y-109849519D01*
X54974443Y-109849519D01*
G37*
G36*
X68182443Y-109849519D02*
X68248627Y-109856037D01*
X68361853Y-109890384D01*
X68418467Y-109907557D01*
X68557087Y-109981652D01*
X68574991Y-109991222D01*
X68610729Y-110020552D01*
X68712186Y-110103814D01*
X68791943Y-110201000D01*
X68824778Y-110241009D01*
X68824779Y-110241011D01*
X68908443Y-110397533D01*
X68908443Y-110397534D01*
X68959963Y-110567373D01*
X68977359Y-110744000D01*
X68959963Y-110920627D01*
X68938076Y-110992778D01*
X68908443Y-111090467D01*
X68834348Y-111229087D01*
X68824778Y-111246991D01*
X68795448Y-111282729D01*
X68712186Y-111384186D01*
X68610729Y-111467448D01*
X68574991Y-111496778D01*
X68574989Y-111496779D01*
X68418467Y-111580443D01*
X68361853Y-111597616D01*
X68248627Y-111631963D01*
X68182443Y-111638481D01*
X68116260Y-111645000D01*
X68027740Y-111645000D01*
X67961557Y-111638481D01*
X67895373Y-111631963D01*
X67782147Y-111597616D01*
X67725533Y-111580443D01*
X67569011Y-111496779D01*
X67569009Y-111496778D01*
X67533271Y-111467448D01*
X67431814Y-111384186D01*
X67348552Y-111282729D01*
X67319222Y-111246991D01*
X67309652Y-111229087D01*
X67235557Y-111090467D01*
X67205924Y-110992778D01*
X67184037Y-110920627D01*
X67166641Y-110744000D01*
X67184037Y-110567373D01*
X67235557Y-110397534D01*
X67235557Y-110397533D01*
X67319221Y-110241011D01*
X67319222Y-110241009D01*
X67352057Y-110201000D01*
X67431814Y-110103814D01*
X67533271Y-110020552D01*
X67569009Y-109991222D01*
X67586913Y-109981652D01*
X67725533Y-109907557D01*
X67782147Y-109890384D01*
X67895373Y-109856037D01*
X67961557Y-109849519D01*
X68027740Y-109843000D01*
X68116260Y-109843000D01*
X68182443Y-109849519D01*
X68182443Y-109849519D01*
G37*
G36*
X103650443Y-109345519D02*
X103716627Y-109352037D01*
X103786072Y-109373103D01*
X103886467Y-109403557D01*
X103987891Y-109457770D01*
X104042991Y-109487222D01*
X104078729Y-109516552D01*
X104180186Y-109599814D01*
X104263448Y-109701271D01*
X104292778Y-109737009D01*
X104292779Y-109737011D01*
X104376443Y-109893533D01*
X104376443Y-109893534D01*
X104427963Y-110063373D01*
X104445359Y-110240000D01*
X104427963Y-110416627D01*
X104422196Y-110435637D01*
X104376443Y-110586467D01*
X104302348Y-110725087D01*
X104292778Y-110742991D01*
X104263448Y-110778729D01*
X104180186Y-110880186D01*
X104078729Y-110963448D01*
X104042991Y-110992778D01*
X104042989Y-110992779D01*
X103886467Y-111076443D01*
X103840238Y-111090466D01*
X103716627Y-111127963D01*
X103650443Y-111134481D01*
X103584260Y-111141000D01*
X103495740Y-111141000D01*
X103429557Y-111134481D01*
X103363373Y-111127963D01*
X103239762Y-111090466D01*
X103193533Y-111076443D01*
X103037011Y-110992779D01*
X103037009Y-110992778D01*
X103001271Y-110963448D01*
X102899814Y-110880186D01*
X102816552Y-110778729D01*
X102787222Y-110742991D01*
X102777652Y-110725087D01*
X102703557Y-110586467D01*
X102657804Y-110435637D01*
X102652037Y-110416627D01*
X102634641Y-110240000D01*
X102652037Y-110063373D01*
X102703557Y-109893534D01*
X102703557Y-109893533D01*
X102787221Y-109737011D01*
X102787222Y-109737009D01*
X102816552Y-109701271D01*
X102899814Y-109599814D01*
X103001271Y-109516552D01*
X103037009Y-109487222D01*
X103092109Y-109457770D01*
X103193533Y-109403557D01*
X103293928Y-109373103D01*
X103363373Y-109352037D01*
X103429557Y-109345519D01*
X103495740Y-109339000D01*
X103584260Y-109339000D01*
X103650443Y-109345519D01*
X103650443Y-109345519D01*
G37*
G36*
X101110443Y-109345519D02*
X101176627Y-109352037D01*
X101246072Y-109373103D01*
X101346467Y-109403557D01*
X101447891Y-109457770D01*
X101502991Y-109487222D01*
X101538729Y-109516552D01*
X101640186Y-109599814D01*
X101723448Y-109701271D01*
X101752778Y-109737009D01*
X101752779Y-109737011D01*
X101836443Y-109893533D01*
X101836443Y-109893534D01*
X101887963Y-110063373D01*
X101905359Y-110240000D01*
X101887963Y-110416627D01*
X101882196Y-110435637D01*
X101836443Y-110586467D01*
X101762348Y-110725087D01*
X101752778Y-110742991D01*
X101723448Y-110778729D01*
X101640186Y-110880186D01*
X101538729Y-110963448D01*
X101502991Y-110992778D01*
X101502989Y-110992779D01*
X101346467Y-111076443D01*
X101300238Y-111090466D01*
X101176627Y-111127963D01*
X101110443Y-111134481D01*
X101044260Y-111141000D01*
X100955740Y-111141000D01*
X100889557Y-111134481D01*
X100823373Y-111127963D01*
X100699762Y-111090466D01*
X100653533Y-111076443D01*
X100497011Y-110992779D01*
X100497009Y-110992778D01*
X100461271Y-110963448D01*
X100359814Y-110880186D01*
X100276552Y-110778729D01*
X100247222Y-110742991D01*
X100237652Y-110725087D01*
X100163557Y-110586467D01*
X100117804Y-110435637D01*
X100112037Y-110416627D01*
X100094641Y-110240000D01*
X100112037Y-110063373D01*
X100163557Y-109893534D01*
X100163557Y-109893533D01*
X100247221Y-109737011D01*
X100247222Y-109737009D01*
X100276552Y-109701271D01*
X100359814Y-109599814D01*
X100461271Y-109516552D01*
X100497009Y-109487222D01*
X100552109Y-109457770D01*
X100653533Y-109403557D01*
X100753928Y-109373103D01*
X100823373Y-109352037D01*
X100889557Y-109345519D01*
X100955740Y-109339000D01*
X101044260Y-109339000D01*
X101110443Y-109345519D01*
X101110443Y-109345519D01*
G37*
G36*
X88619677Y-107965465D02*
X88657364Y-107976898D01*
X88692103Y-107995466D01*
X88722548Y-108020452D01*
X88747534Y-108050897D01*
X88766102Y-108085636D01*
X88777535Y-108123323D01*
X88782000Y-108168661D01*
X88782000Y-109255339D01*
X88777535Y-109300677D01*
X88766102Y-109338364D01*
X88747534Y-109373103D01*
X88722548Y-109403548D01*
X88692103Y-109428534D01*
X88657364Y-109447102D01*
X88619677Y-109458535D01*
X88574339Y-109463000D01*
X87737661Y-109463000D01*
X87692323Y-109458535D01*
X87654636Y-109447102D01*
X87619897Y-109428534D01*
X87589452Y-109403548D01*
X87564466Y-109373103D01*
X87545898Y-109338364D01*
X87534465Y-109300677D01*
X87530000Y-109255339D01*
X87530000Y-108168661D01*
X87534465Y-108123323D01*
X87545898Y-108085636D01*
X87564466Y-108050897D01*
X87589452Y-108020452D01*
X87619897Y-107995466D01*
X87654636Y-107976898D01*
X87692323Y-107965465D01*
X87737661Y-107961000D01*
X88574339Y-107961000D01*
X88619677Y-107965465D01*
X88619677Y-107965465D01*
G37*
G36*
X86569677Y-107965465D02*
X86607364Y-107976898D01*
X86642103Y-107995466D01*
X86672548Y-108020452D01*
X86697534Y-108050897D01*
X86716102Y-108085636D01*
X86727535Y-108123323D01*
X86732000Y-108168661D01*
X86732000Y-109255339D01*
X86727535Y-109300677D01*
X86716102Y-109338364D01*
X86697534Y-109373103D01*
X86672548Y-109403548D01*
X86642103Y-109428534D01*
X86607364Y-109447102D01*
X86569677Y-109458535D01*
X86524339Y-109463000D01*
X85687661Y-109463000D01*
X85642323Y-109458535D01*
X85604636Y-109447102D01*
X85569897Y-109428534D01*
X85539452Y-109403548D01*
X85514466Y-109373103D01*
X85495898Y-109338364D01*
X85484465Y-109300677D01*
X85480000Y-109255339D01*
X85480000Y-108168661D01*
X85484465Y-108123323D01*
X85495898Y-108085636D01*
X85514466Y-108050897D01*
X85539452Y-108020452D01*
X85569897Y-107995466D01*
X85604636Y-107976898D01*
X85642323Y-107965465D01*
X85687661Y-107961000D01*
X86524339Y-107961000D01*
X86569677Y-107965465D01*
X86569677Y-107965465D01*
G37*
G36*
X91386677Y-107965465D02*
X91424364Y-107976898D01*
X91459103Y-107995466D01*
X91489548Y-108020452D01*
X91514534Y-108050897D01*
X91533102Y-108085636D01*
X91544535Y-108123323D01*
X91549000Y-108168661D01*
X91549000Y-109255339D01*
X91544535Y-109300677D01*
X91533102Y-109338364D01*
X91514534Y-109373103D01*
X91489548Y-109403548D01*
X91459103Y-109428534D01*
X91424364Y-109447102D01*
X91386677Y-109458535D01*
X91341339Y-109463000D01*
X90504661Y-109463000D01*
X90459323Y-109458535D01*
X90421636Y-109447102D01*
X90386897Y-109428534D01*
X90356452Y-109403548D01*
X90331466Y-109373103D01*
X90312898Y-109338364D01*
X90301465Y-109300677D01*
X90297000Y-109255339D01*
X90297000Y-108168661D01*
X90301465Y-108123323D01*
X90312898Y-108085636D01*
X90331466Y-108050897D01*
X90356452Y-108020452D01*
X90386897Y-107995466D01*
X90421636Y-107976898D01*
X90459323Y-107965465D01*
X90504661Y-107961000D01*
X91341339Y-107961000D01*
X91386677Y-107965465D01*
X91386677Y-107965465D01*
G37*
G36*
X93436677Y-107965465D02*
X93474364Y-107976898D01*
X93509103Y-107995466D01*
X93539548Y-108020452D01*
X93564534Y-108050897D01*
X93583102Y-108085636D01*
X93594535Y-108123323D01*
X93599000Y-108168661D01*
X93599000Y-109255339D01*
X93594535Y-109300677D01*
X93583102Y-109338364D01*
X93564534Y-109373103D01*
X93539548Y-109403548D01*
X93509103Y-109428534D01*
X93474364Y-109447102D01*
X93436677Y-109458535D01*
X93391339Y-109463000D01*
X92554661Y-109463000D01*
X92509323Y-109458535D01*
X92471636Y-109447102D01*
X92436897Y-109428534D01*
X92406452Y-109403548D01*
X92381466Y-109373103D01*
X92362898Y-109338364D01*
X92351465Y-109300677D01*
X92347000Y-109255339D01*
X92347000Y-108168661D01*
X92351465Y-108123323D01*
X92362898Y-108085636D01*
X92381466Y-108050897D01*
X92406452Y-108020452D01*
X92436897Y-107995466D01*
X92471636Y-107976898D01*
X92509323Y-107965465D01*
X92554661Y-107961000D01*
X93391339Y-107961000D01*
X93436677Y-107965465D01*
X93436677Y-107965465D01*
G37*
G36*
X52434442Y-107309518D02*
X52500627Y-107316037D01*
X52613853Y-107350384D01*
X52670467Y-107367557D01*
X52730186Y-107399478D01*
X52826991Y-107451222D01*
X52862729Y-107480552D01*
X52964186Y-107563814D01*
X53022930Y-107635395D01*
X53076778Y-107701009D01*
X53076779Y-107701011D01*
X53160443Y-107857533D01*
X53160443Y-107857534D01*
X53211963Y-108027373D01*
X53229359Y-108204000D01*
X53211963Y-108380627D01*
X53190076Y-108452778D01*
X53160443Y-108550467D01*
X53133432Y-108601000D01*
X53076778Y-108706991D01*
X53058614Y-108729124D01*
X52964186Y-108844186D01*
X52862729Y-108927448D01*
X52826991Y-108956778D01*
X52826989Y-108956779D01*
X52670467Y-109040443D01*
X52613853Y-109057616D01*
X52500627Y-109091963D01*
X52434443Y-109098481D01*
X52368260Y-109105000D01*
X52279740Y-109105000D01*
X52213557Y-109098481D01*
X52147373Y-109091963D01*
X52034147Y-109057616D01*
X51977533Y-109040443D01*
X51821011Y-108956779D01*
X51821009Y-108956778D01*
X51785271Y-108927448D01*
X51683814Y-108844186D01*
X51589386Y-108729124D01*
X51571222Y-108706991D01*
X51514568Y-108601000D01*
X51487557Y-108550467D01*
X51457924Y-108452778D01*
X51436037Y-108380627D01*
X51418641Y-108204000D01*
X51436037Y-108027373D01*
X51487557Y-107857534D01*
X51487557Y-107857533D01*
X51571221Y-107701011D01*
X51571222Y-107701009D01*
X51625070Y-107635395D01*
X51683814Y-107563814D01*
X51785271Y-107480552D01*
X51821009Y-107451222D01*
X51917814Y-107399478D01*
X51977533Y-107367557D01*
X52034147Y-107350384D01*
X52147373Y-107316037D01*
X52213558Y-107309518D01*
X52279740Y-107303000D01*
X52368260Y-107303000D01*
X52434442Y-107309518D01*
X52434442Y-107309518D01*
G37*
G36*
X54974442Y-107309518D02*
X55040627Y-107316037D01*
X55153853Y-107350384D01*
X55210467Y-107367557D01*
X55270186Y-107399478D01*
X55366991Y-107451222D01*
X55402729Y-107480552D01*
X55504186Y-107563814D01*
X55562930Y-107635395D01*
X55616778Y-107701009D01*
X55616779Y-107701011D01*
X55700443Y-107857533D01*
X55700443Y-107857534D01*
X55751963Y-108027373D01*
X55769359Y-108204000D01*
X55751963Y-108380627D01*
X55730076Y-108452778D01*
X55700443Y-108550467D01*
X55673432Y-108601000D01*
X55616778Y-108706991D01*
X55598614Y-108729124D01*
X55504186Y-108844186D01*
X55402729Y-108927448D01*
X55366991Y-108956778D01*
X55366989Y-108956779D01*
X55210467Y-109040443D01*
X55153853Y-109057616D01*
X55040627Y-109091963D01*
X54974443Y-109098481D01*
X54908260Y-109105000D01*
X54819740Y-109105000D01*
X54753557Y-109098481D01*
X54687373Y-109091963D01*
X54574147Y-109057616D01*
X54517533Y-109040443D01*
X54361011Y-108956779D01*
X54361009Y-108956778D01*
X54325271Y-108927448D01*
X54223814Y-108844186D01*
X54129386Y-108729124D01*
X54111222Y-108706991D01*
X54054568Y-108601000D01*
X54027557Y-108550467D01*
X53997924Y-108452778D01*
X53976037Y-108380627D01*
X53958641Y-108204000D01*
X53976037Y-108027373D01*
X54027557Y-107857534D01*
X54027557Y-107857533D01*
X54111221Y-107701011D01*
X54111222Y-107701009D01*
X54165070Y-107635395D01*
X54223814Y-107563814D01*
X54325271Y-107480552D01*
X54361009Y-107451222D01*
X54457814Y-107399478D01*
X54517533Y-107367557D01*
X54574147Y-107350384D01*
X54687373Y-107316037D01*
X54753558Y-107309518D01*
X54819740Y-107303000D01*
X54908260Y-107303000D01*
X54974442Y-107309518D01*
X54974442Y-107309518D01*
G37*
G36*
X62848442Y-107309518D02*
X62914627Y-107316037D01*
X63027853Y-107350384D01*
X63084467Y-107367557D01*
X63144186Y-107399478D01*
X63240991Y-107451222D01*
X63276729Y-107480552D01*
X63378186Y-107563814D01*
X63436930Y-107635395D01*
X63490778Y-107701009D01*
X63490779Y-107701011D01*
X63574443Y-107857533D01*
X63574443Y-107857534D01*
X63625963Y-108027373D01*
X63643359Y-108204000D01*
X63625963Y-108380627D01*
X63604076Y-108452778D01*
X63574443Y-108550467D01*
X63547432Y-108601000D01*
X63490778Y-108706991D01*
X63472614Y-108729124D01*
X63378186Y-108844186D01*
X63276729Y-108927448D01*
X63240991Y-108956778D01*
X63240989Y-108956779D01*
X63084467Y-109040443D01*
X63027853Y-109057616D01*
X62914627Y-109091963D01*
X62848443Y-109098481D01*
X62782260Y-109105000D01*
X62693740Y-109105000D01*
X62627557Y-109098481D01*
X62561373Y-109091963D01*
X62448147Y-109057616D01*
X62391533Y-109040443D01*
X62235011Y-108956779D01*
X62235009Y-108956778D01*
X62199271Y-108927448D01*
X62097814Y-108844186D01*
X62003386Y-108729124D01*
X61985222Y-108706991D01*
X61928568Y-108601000D01*
X61901557Y-108550467D01*
X61871924Y-108452778D01*
X61850037Y-108380627D01*
X61832641Y-108204000D01*
X61850037Y-108027373D01*
X61901557Y-107857534D01*
X61901557Y-107857533D01*
X61985221Y-107701011D01*
X61985222Y-107701009D01*
X62039070Y-107635395D01*
X62097814Y-107563814D01*
X62199271Y-107480552D01*
X62235009Y-107451222D01*
X62331814Y-107399478D01*
X62391533Y-107367557D01*
X62448147Y-107350384D01*
X62561373Y-107316037D01*
X62627558Y-107309518D01*
X62693740Y-107303000D01*
X62782260Y-107303000D01*
X62848442Y-107309518D01*
X62848442Y-107309518D01*
G37*
G36*
X68182442Y-107309518D02*
X68248627Y-107316037D01*
X68361853Y-107350384D01*
X68418467Y-107367557D01*
X68478186Y-107399478D01*
X68574991Y-107451222D01*
X68610729Y-107480552D01*
X68712186Y-107563814D01*
X68770930Y-107635395D01*
X68824778Y-107701009D01*
X68824779Y-107701011D01*
X68908443Y-107857533D01*
X68908443Y-107857534D01*
X68959963Y-108027373D01*
X68977359Y-108204000D01*
X68959963Y-108380627D01*
X68938076Y-108452778D01*
X68908443Y-108550467D01*
X68881432Y-108601000D01*
X68824778Y-108706991D01*
X68806614Y-108729124D01*
X68712186Y-108844186D01*
X68610729Y-108927448D01*
X68574991Y-108956778D01*
X68574989Y-108956779D01*
X68418467Y-109040443D01*
X68361853Y-109057616D01*
X68248627Y-109091963D01*
X68182443Y-109098481D01*
X68116260Y-109105000D01*
X68027740Y-109105000D01*
X67961557Y-109098481D01*
X67895373Y-109091963D01*
X67782147Y-109057616D01*
X67725533Y-109040443D01*
X67569011Y-108956779D01*
X67569009Y-108956778D01*
X67533271Y-108927448D01*
X67431814Y-108844186D01*
X67337386Y-108729124D01*
X67319222Y-108706991D01*
X67262568Y-108601000D01*
X67235557Y-108550467D01*
X67205924Y-108452778D01*
X67184037Y-108380627D01*
X67166641Y-108204000D01*
X67184037Y-108027373D01*
X67235557Y-107857534D01*
X67235557Y-107857533D01*
X67319221Y-107701011D01*
X67319222Y-107701009D01*
X67373070Y-107635395D01*
X67431814Y-107563814D01*
X67533271Y-107480552D01*
X67569009Y-107451222D01*
X67665814Y-107399478D01*
X67725533Y-107367557D01*
X67782147Y-107350384D01*
X67895373Y-107316037D01*
X67961558Y-107309518D01*
X68027740Y-107303000D01*
X68116260Y-107303000D01*
X68182442Y-107309518D01*
X68182442Y-107309518D01*
G37*
G36*
X59449562Y-107371681D02*
X59484477Y-107382273D01*
X59516665Y-107399478D01*
X59544873Y-107422627D01*
X59568022Y-107450835D01*
X59585227Y-107483023D01*
X59595819Y-107517938D01*
X59600000Y-107560395D01*
X59600000Y-108701605D01*
X59595819Y-108744062D01*
X59585227Y-108778977D01*
X59568022Y-108811165D01*
X59544873Y-108839373D01*
X59516665Y-108862522D01*
X59484477Y-108879727D01*
X59449562Y-108890319D01*
X59407105Y-108894500D01*
X57940895Y-108894500D01*
X57898438Y-108890319D01*
X57863523Y-108879727D01*
X57831335Y-108862522D01*
X57803127Y-108839373D01*
X57779978Y-108811165D01*
X57762773Y-108778977D01*
X57752181Y-108744062D01*
X57748000Y-108701605D01*
X57748000Y-107560395D01*
X57752181Y-107517938D01*
X57762773Y-107483023D01*
X57779978Y-107450835D01*
X57803127Y-107422627D01*
X57831335Y-107399478D01*
X57863523Y-107382273D01*
X57898438Y-107371681D01*
X57940895Y-107367500D01*
X59407105Y-107367500D01*
X59449562Y-107371681D01*
X59449562Y-107371681D01*
G37*
G36*
X103650443Y-106805519D02*
X103716627Y-106812037D01*
X103786072Y-106833103D01*
X103886467Y-106863557D01*
X103987891Y-106917770D01*
X104042991Y-106947222D01*
X104078729Y-106976552D01*
X104180186Y-107059814D01*
X104263448Y-107161271D01*
X104292778Y-107197009D01*
X104292779Y-107197011D01*
X104376443Y-107353533D01*
X104376443Y-107353534D01*
X104427963Y-107523373D01*
X104445359Y-107700000D01*
X104427963Y-107876627D01*
X104402369Y-107961000D01*
X104376443Y-108046467D01*
X104374075Y-108050897D01*
X104292778Y-108202991D01*
X104268008Y-108233173D01*
X104180186Y-108340186D01*
X104078729Y-108423448D01*
X104042991Y-108452778D01*
X104042989Y-108452779D01*
X103886467Y-108536443D01*
X103840238Y-108550466D01*
X103716627Y-108587963D01*
X103650443Y-108594481D01*
X103584260Y-108601000D01*
X103495740Y-108601000D01*
X103429557Y-108594481D01*
X103363373Y-108587963D01*
X103239762Y-108550466D01*
X103193533Y-108536443D01*
X103037011Y-108452779D01*
X103037009Y-108452778D01*
X103001271Y-108423448D01*
X102899814Y-108340186D01*
X102811992Y-108233173D01*
X102787222Y-108202991D01*
X102705925Y-108050897D01*
X102703557Y-108046467D01*
X102677631Y-107961000D01*
X102652037Y-107876627D01*
X102634641Y-107700000D01*
X102652037Y-107523373D01*
X102703557Y-107353534D01*
X102703557Y-107353533D01*
X102787221Y-107197011D01*
X102787222Y-107197009D01*
X102816552Y-107161271D01*
X102899814Y-107059814D01*
X103001271Y-106976552D01*
X103037009Y-106947222D01*
X103092109Y-106917770D01*
X103193533Y-106863557D01*
X103293928Y-106833103D01*
X103363373Y-106812037D01*
X103429557Y-106805519D01*
X103495740Y-106799000D01*
X103584260Y-106799000D01*
X103650443Y-106805519D01*
X103650443Y-106805519D01*
G37*
G36*
X101110443Y-106805519D02*
X101176627Y-106812037D01*
X101246072Y-106833103D01*
X101346467Y-106863557D01*
X101447891Y-106917770D01*
X101502991Y-106947222D01*
X101538729Y-106976552D01*
X101640186Y-107059814D01*
X101723448Y-107161271D01*
X101752778Y-107197009D01*
X101752779Y-107197011D01*
X101836443Y-107353533D01*
X101836443Y-107353534D01*
X101887963Y-107523373D01*
X101905359Y-107700000D01*
X101887963Y-107876627D01*
X101862369Y-107961000D01*
X101836443Y-108046467D01*
X101834075Y-108050897D01*
X101752778Y-108202991D01*
X101728008Y-108233173D01*
X101640186Y-108340186D01*
X101538729Y-108423448D01*
X101502991Y-108452778D01*
X101502989Y-108452779D01*
X101346467Y-108536443D01*
X101300238Y-108550466D01*
X101176627Y-108587963D01*
X101110443Y-108594481D01*
X101044260Y-108601000D01*
X100955740Y-108601000D01*
X100889557Y-108594481D01*
X100823373Y-108587963D01*
X100699762Y-108550466D01*
X100653533Y-108536443D01*
X100497011Y-108452779D01*
X100497009Y-108452778D01*
X100461271Y-108423448D01*
X100359814Y-108340186D01*
X100271992Y-108233173D01*
X100247222Y-108202991D01*
X100165925Y-108050897D01*
X100163557Y-108046467D01*
X100137631Y-107961000D01*
X100112037Y-107876627D01*
X100094641Y-107700000D01*
X100112037Y-107523373D01*
X100163557Y-107353534D01*
X100163557Y-107353533D01*
X100247221Y-107197011D01*
X100247222Y-107197009D01*
X100276552Y-107161271D01*
X100359814Y-107059814D01*
X100461271Y-106976552D01*
X100497009Y-106947222D01*
X100552109Y-106917770D01*
X100653533Y-106863557D01*
X100753928Y-106833103D01*
X100823373Y-106812037D01*
X100889557Y-106805519D01*
X100955740Y-106799000D01*
X101044260Y-106799000D01*
X101110443Y-106805519D01*
X101110443Y-106805519D01*
G37*
G36*
X86551677Y-105425465D02*
X86589364Y-105436898D01*
X86624103Y-105455466D01*
X86654548Y-105480452D01*
X86679534Y-105510897D01*
X86698102Y-105545636D01*
X86709535Y-105583323D01*
X86714000Y-105628661D01*
X86714000Y-106715339D01*
X86709535Y-106760677D01*
X86698102Y-106798364D01*
X86679534Y-106833103D01*
X86654548Y-106863548D01*
X86624103Y-106888534D01*
X86589364Y-106907102D01*
X86551677Y-106918535D01*
X86506339Y-106923000D01*
X85669661Y-106923000D01*
X85624323Y-106918535D01*
X85586636Y-106907102D01*
X85551897Y-106888534D01*
X85521452Y-106863548D01*
X85496466Y-106833103D01*
X85477898Y-106798364D01*
X85466465Y-106760677D01*
X85462000Y-106715339D01*
X85462000Y-105628661D01*
X85466465Y-105583323D01*
X85477898Y-105545636D01*
X85496466Y-105510897D01*
X85521452Y-105480452D01*
X85551897Y-105455466D01*
X85586636Y-105436898D01*
X85624323Y-105425465D01*
X85669661Y-105421000D01*
X86506339Y-105421000D01*
X86551677Y-105425465D01*
X86551677Y-105425465D01*
G37*
G36*
X91395677Y-105425465D02*
X91433364Y-105436898D01*
X91468103Y-105455466D01*
X91498548Y-105480452D01*
X91523534Y-105510897D01*
X91542102Y-105545636D01*
X91553535Y-105583323D01*
X91558000Y-105628661D01*
X91558000Y-106715339D01*
X91553535Y-106760677D01*
X91542102Y-106798364D01*
X91523534Y-106833103D01*
X91498548Y-106863548D01*
X91468103Y-106888534D01*
X91433364Y-106907102D01*
X91395677Y-106918535D01*
X91350339Y-106923000D01*
X90513661Y-106923000D01*
X90468323Y-106918535D01*
X90430636Y-106907102D01*
X90395897Y-106888534D01*
X90365452Y-106863548D01*
X90340466Y-106833103D01*
X90321898Y-106798364D01*
X90310465Y-106760677D01*
X90306000Y-106715339D01*
X90306000Y-105628661D01*
X90310465Y-105583323D01*
X90321898Y-105545636D01*
X90340466Y-105510897D01*
X90365452Y-105480452D01*
X90395897Y-105455466D01*
X90430636Y-105436898D01*
X90468323Y-105425465D01*
X90513661Y-105421000D01*
X91350339Y-105421000D01*
X91395677Y-105425465D01*
X91395677Y-105425465D01*
G37*
G36*
X93445677Y-105425465D02*
X93483364Y-105436898D01*
X93518103Y-105455466D01*
X93548548Y-105480452D01*
X93573534Y-105510897D01*
X93592102Y-105545636D01*
X93603535Y-105583323D01*
X93608000Y-105628661D01*
X93608000Y-106715339D01*
X93603535Y-106760677D01*
X93592102Y-106798364D01*
X93573534Y-106833103D01*
X93548548Y-106863548D01*
X93518103Y-106888534D01*
X93483364Y-106907102D01*
X93445677Y-106918535D01*
X93400339Y-106923000D01*
X92563661Y-106923000D01*
X92518323Y-106918535D01*
X92480636Y-106907102D01*
X92445897Y-106888534D01*
X92415452Y-106863548D01*
X92390466Y-106833103D01*
X92371898Y-106798364D01*
X92360465Y-106760677D01*
X92356000Y-106715339D01*
X92356000Y-105628661D01*
X92360465Y-105583323D01*
X92371898Y-105545636D01*
X92390466Y-105510897D01*
X92415452Y-105480452D01*
X92445897Y-105455466D01*
X92480636Y-105436898D01*
X92518323Y-105425465D01*
X92563661Y-105421000D01*
X93400339Y-105421000D01*
X93445677Y-105425465D01*
X93445677Y-105425465D01*
G37*
G36*
X88601677Y-105425465D02*
X88639364Y-105436898D01*
X88674103Y-105455466D01*
X88704548Y-105480452D01*
X88729534Y-105510897D01*
X88748102Y-105545636D01*
X88759535Y-105583323D01*
X88764000Y-105628661D01*
X88764000Y-106715339D01*
X88759535Y-106760677D01*
X88748102Y-106798364D01*
X88729534Y-106833103D01*
X88704548Y-106863548D01*
X88674103Y-106888534D01*
X88639364Y-106907102D01*
X88601677Y-106918535D01*
X88556339Y-106923000D01*
X87719661Y-106923000D01*
X87674323Y-106918535D01*
X87636636Y-106907102D01*
X87601897Y-106888534D01*
X87571452Y-106863548D01*
X87546466Y-106833103D01*
X87527898Y-106798364D01*
X87516465Y-106760677D01*
X87512000Y-106715339D01*
X87512000Y-105628661D01*
X87516465Y-105583323D01*
X87527898Y-105545636D01*
X87546466Y-105510897D01*
X87571452Y-105480452D01*
X87601897Y-105455466D01*
X87636636Y-105436898D01*
X87674323Y-105425465D01*
X87719661Y-105421000D01*
X88556339Y-105421000D01*
X88601677Y-105425465D01*
X88601677Y-105425465D01*
G37*
G36*
X54974442Y-104769518D02*
X55040627Y-104776037D01*
X55153853Y-104810384D01*
X55210467Y-104827557D01*
X55349087Y-104901652D01*
X55366991Y-104911222D01*
X55402729Y-104940552D01*
X55504186Y-105023814D01*
X55587448Y-105125271D01*
X55616778Y-105161009D01*
X55616779Y-105161011D01*
X55700443Y-105317533D01*
X55700443Y-105317534D01*
X55751963Y-105487373D01*
X55769359Y-105664000D01*
X55751963Y-105840627D01*
X55730076Y-105912778D01*
X55700443Y-106010467D01*
X55673432Y-106061000D01*
X55616778Y-106166991D01*
X55587448Y-106202729D01*
X55504186Y-106304186D01*
X55402729Y-106387448D01*
X55366991Y-106416778D01*
X55366989Y-106416779D01*
X55210467Y-106500443D01*
X55153853Y-106517616D01*
X55040627Y-106551963D01*
X54974442Y-106558482D01*
X54908260Y-106565000D01*
X54819740Y-106565000D01*
X54753558Y-106558482D01*
X54687373Y-106551963D01*
X54574147Y-106517616D01*
X54517533Y-106500443D01*
X54361011Y-106416779D01*
X54361009Y-106416778D01*
X54325271Y-106387448D01*
X54223814Y-106304186D01*
X54140552Y-106202729D01*
X54111222Y-106166991D01*
X54054568Y-106061000D01*
X54027557Y-106010467D01*
X53997924Y-105912778D01*
X53976037Y-105840627D01*
X53958641Y-105664000D01*
X53976037Y-105487373D01*
X54027557Y-105317534D01*
X54027557Y-105317533D01*
X54111221Y-105161011D01*
X54111222Y-105161009D01*
X54140552Y-105125271D01*
X54223814Y-105023814D01*
X54325271Y-104940552D01*
X54361009Y-104911222D01*
X54378913Y-104901652D01*
X54517533Y-104827557D01*
X54574147Y-104810384D01*
X54687373Y-104776037D01*
X54753558Y-104769518D01*
X54819740Y-104763000D01*
X54908260Y-104763000D01*
X54974442Y-104769518D01*
X54974442Y-104769518D01*
G37*
G36*
X52434442Y-104769518D02*
X52500627Y-104776037D01*
X52613853Y-104810384D01*
X52670467Y-104827557D01*
X52809087Y-104901652D01*
X52826991Y-104911222D01*
X52862729Y-104940552D01*
X52964186Y-105023814D01*
X53047448Y-105125271D01*
X53076778Y-105161009D01*
X53076779Y-105161011D01*
X53160443Y-105317533D01*
X53160443Y-105317534D01*
X53211963Y-105487373D01*
X53229359Y-105664000D01*
X53211963Y-105840627D01*
X53190076Y-105912778D01*
X53160443Y-106010467D01*
X53133432Y-106061000D01*
X53076778Y-106166991D01*
X53047448Y-106202729D01*
X52964186Y-106304186D01*
X52862729Y-106387448D01*
X52826991Y-106416778D01*
X52826989Y-106416779D01*
X52670467Y-106500443D01*
X52613853Y-106517616D01*
X52500627Y-106551963D01*
X52434442Y-106558482D01*
X52368260Y-106565000D01*
X52279740Y-106565000D01*
X52213558Y-106558482D01*
X52147373Y-106551963D01*
X52034147Y-106517616D01*
X51977533Y-106500443D01*
X51821011Y-106416779D01*
X51821009Y-106416778D01*
X51785271Y-106387448D01*
X51683814Y-106304186D01*
X51600552Y-106202729D01*
X51571222Y-106166991D01*
X51514568Y-106061000D01*
X51487557Y-106010467D01*
X51457924Y-105912778D01*
X51436037Y-105840627D01*
X51418641Y-105664000D01*
X51436037Y-105487373D01*
X51487557Y-105317534D01*
X51487557Y-105317533D01*
X51571221Y-105161011D01*
X51571222Y-105161009D01*
X51600552Y-105125271D01*
X51683814Y-105023814D01*
X51785271Y-104940552D01*
X51821009Y-104911222D01*
X51838913Y-104901652D01*
X51977533Y-104827557D01*
X52034147Y-104810384D01*
X52147373Y-104776037D01*
X52213558Y-104769518D01*
X52279740Y-104763000D01*
X52368260Y-104763000D01*
X52434442Y-104769518D01*
X52434442Y-104769518D01*
G37*
G36*
X62848442Y-104769518D02*
X62914627Y-104776037D01*
X63027853Y-104810384D01*
X63084467Y-104827557D01*
X63223087Y-104901652D01*
X63240991Y-104911222D01*
X63276729Y-104940552D01*
X63378186Y-105023814D01*
X63461448Y-105125271D01*
X63490778Y-105161009D01*
X63490779Y-105161011D01*
X63574443Y-105317533D01*
X63574443Y-105317534D01*
X63625963Y-105487373D01*
X63643359Y-105664000D01*
X63625963Y-105840627D01*
X63604076Y-105912778D01*
X63574443Y-106010467D01*
X63547432Y-106061000D01*
X63490778Y-106166991D01*
X63461448Y-106202729D01*
X63378186Y-106304186D01*
X63276729Y-106387448D01*
X63240991Y-106416778D01*
X63240989Y-106416779D01*
X63084467Y-106500443D01*
X63027853Y-106517616D01*
X62914627Y-106551963D01*
X62848442Y-106558482D01*
X62782260Y-106565000D01*
X62693740Y-106565000D01*
X62627558Y-106558482D01*
X62561373Y-106551963D01*
X62448147Y-106517616D01*
X62391533Y-106500443D01*
X62235011Y-106416779D01*
X62235009Y-106416778D01*
X62199271Y-106387448D01*
X62097814Y-106304186D01*
X62014552Y-106202729D01*
X61985222Y-106166991D01*
X61928568Y-106061000D01*
X61901557Y-106010467D01*
X61871924Y-105912778D01*
X61850037Y-105840627D01*
X61832641Y-105664000D01*
X61850037Y-105487373D01*
X61901557Y-105317534D01*
X61901557Y-105317533D01*
X61985221Y-105161011D01*
X61985222Y-105161009D01*
X62014552Y-105125271D01*
X62097814Y-105023814D01*
X62199271Y-104940552D01*
X62235009Y-104911222D01*
X62252913Y-104901652D01*
X62391533Y-104827557D01*
X62448147Y-104810384D01*
X62561373Y-104776037D01*
X62627558Y-104769518D01*
X62693740Y-104763000D01*
X62782260Y-104763000D01*
X62848442Y-104769518D01*
X62848442Y-104769518D01*
G37*
G36*
X68182442Y-104769518D02*
X68248627Y-104776037D01*
X68361853Y-104810384D01*
X68418467Y-104827557D01*
X68557087Y-104901652D01*
X68574991Y-104911222D01*
X68610729Y-104940552D01*
X68712186Y-105023814D01*
X68795448Y-105125271D01*
X68824778Y-105161009D01*
X68824779Y-105161011D01*
X68908443Y-105317533D01*
X68908443Y-105317534D01*
X68959963Y-105487373D01*
X68977359Y-105664000D01*
X68959963Y-105840627D01*
X68938076Y-105912778D01*
X68908443Y-106010467D01*
X68881432Y-106061000D01*
X68824778Y-106166991D01*
X68795448Y-106202729D01*
X68712186Y-106304186D01*
X68610729Y-106387448D01*
X68574991Y-106416778D01*
X68574989Y-106416779D01*
X68418467Y-106500443D01*
X68361853Y-106517616D01*
X68248627Y-106551963D01*
X68182442Y-106558482D01*
X68116260Y-106565000D01*
X68027740Y-106565000D01*
X67961558Y-106558482D01*
X67895373Y-106551963D01*
X67782147Y-106517616D01*
X67725533Y-106500443D01*
X67569011Y-106416779D01*
X67569009Y-106416778D01*
X67533271Y-106387448D01*
X67431814Y-106304186D01*
X67348552Y-106202729D01*
X67319222Y-106166991D01*
X67262568Y-106061000D01*
X67235557Y-106010467D01*
X67205924Y-105912778D01*
X67184037Y-105840627D01*
X67166641Y-105664000D01*
X67184037Y-105487373D01*
X67235557Y-105317534D01*
X67235557Y-105317533D01*
X67319221Y-105161011D01*
X67319222Y-105161009D01*
X67348552Y-105125271D01*
X67431814Y-105023814D01*
X67533271Y-104940552D01*
X67569009Y-104911222D01*
X67586913Y-104901652D01*
X67725533Y-104827557D01*
X67782147Y-104810384D01*
X67895373Y-104776037D01*
X67961558Y-104769518D01*
X68027740Y-104763000D01*
X68116260Y-104763000D01*
X68182442Y-104769518D01*
X68182442Y-104769518D01*
G37*
G36*
X101110442Y-104265518D02*
X101176627Y-104272037D01*
X101246072Y-104293103D01*
X101346467Y-104323557D01*
X101447891Y-104377770D01*
X101502991Y-104407222D01*
X101524017Y-104424478D01*
X101640186Y-104519814D01*
X101712665Y-104608131D01*
X101752778Y-104657009D01*
X101752779Y-104657011D01*
X101836443Y-104813533D01*
X101836443Y-104813534D01*
X101887963Y-104983373D01*
X101905359Y-105160000D01*
X101887963Y-105336627D01*
X101862369Y-105421000D01*
X101836443Y-105506467D01*
X101834075Y-105510897D01*
X101752778Y-105662991D01*
X101728008Y-105693173D01*
X101640186Y-105800186D01*
X101549813Y-105874352D01*
X101502991Y-105912778D01*
X101502989Y-105912779D01*
X101346467Y-105996443D01*
X101300238Y-106010466D01*
X101176627Y-106047963D01*
X101110442Y-106054482D01*
X101044260Y-106061000D01*
X100955740Y-106061000D01*
X100889558Y-106054482D01*
X100823373Y-106047963D01*
X100699762Y-106010466D01*
X100653533Y-105996443D01*
X100497011Y-105912779D01*
X100497009Y-105912778D01*
X100450187Y-105874352D01*
X100359814Y-105800186D01*
X100271992Y-105693173D01*
X100247222Y-105662991D01*
X100165925Y-105510897D01*
X100163557Y-105506467D01*
X100137631Y-105421000D01*
X100112037Y-105336627D01*
X100094641Y-105160000D01*
X100112037Y-104983373D01*
X100163557Y-104813534D01*
X100163557Y-104813533D01*
X100247221Y-104657011D01*
X100247222Y-104657009D01*
X100287335Y-104608131D01*
X100359814Y-104519814D01*
X100475983Y-104424478D01*
X100497009Y-104407222D01*
X100552109Y-104377770D01*
X100653533Y-104323557D01*
X100753928Y-104293103D01*
X100823373Y-104272037D01*
X100889558Y-104265518D01*
X100955740Y-104259000D01*
X101044260Y-104259000D01*
X101110442Y-104265518D01*
X101110442Y-104265518D01*
G37*
G36*
X103650442Y-104265518D02*
X103716627Y-104272037D01*
X103786072Y-104293103D01*
X103886467Y-104323557D01*
X103987891Y-104377770D01*
X104042991Y-104407222D01*
X104064017Y-104424478D01*
X104180186Y-104519814D01*
X104252665Y-104608131D01*
X104292778Y-104657009D01*
X104292779Y-104657011D01*
X104376443Y-104813533D01*
X104376443Y-104813534D01*
X104427963Y-104983373D01*
X104445359Y-105160000D01*
X104427963Y-105336627D01*
X104402369Y-105421000D01*
X104376443Y-105506467D01*
X104374075Y-105510897D01*
X104292778Y-105662991D01*
X104268008Y-105693173D01*
X104180186Y-105800186D01*
X104089813Y-105874352D01*
X104042991Y-105912778D01*
X104042989Y-105912779D01*
X103886467Y-105996443D01*
X103840238Y-106010466D01*
X103716627Y-106047963D01*
X103650442Y-106054482D01*
X103584260Y-106061000D01*
X103495740Y-106061000D01*
X103429558Y-106054482D01*
X103363373Y-106047963D01*
X103239762Y-106010466D01*
X103193533Y-105996443D01*
X103037011Y-105912779D01*
X103037009Y-105912778D01*
X102990187Y-105874352D01*
X102899814Y-105800186D01*
X102811992Y-105693173D01*
X102787222Y-105662991D01*
X102705925Y-105510897D01*
X102703557Y-105506467D01*
X102677631Y-105421000D01*
X102652037Y-105336627D01*
X102634641Y-105160000D01*
X102652037Y-104983373D01*
X102703557Y-104813534D01*
X102703557Y-104813533D01*
X102787221Y-104657011D01*
X102787222Y-104657009D01*
X102827335Y-104608131D01*
X102899814Y-104519814D01*
X103015983Y-104424478D01*
X103037009Y-104407222D01*
X103092109Y-104377770D01*
X103193533Y-104323557D01*
X103293928Y-104293103D01*
X103363373Y-104272037D01*
X103429558Y-104265518D01*
X103495740Y-104259000D01*
X103584260Y-104259000D01*
X103650442Y-104265518D01*
X103650442Y-104265518D01*
G37*
G36*
X59449562Y-104396681D02*
X59484477Y-104407273D01*
X59516665Y-104424478D01*
X59544873Y-104447627D01*
X59568022Y-104475835D01*
X59585227Y-104508023D01*
X59595819Y-104542938D01*
X59600000Y-104585395D01*
X59600000Y-105726605D01*
X59595819Y-105769062D01*
X59585227Y-105803977D01*
X59568022Y-105836165D01*
X59544873Y-105864373D01*
X59516665Y-105887522D01*
X59484477Y-105904727D01*
X59449562Y-105915319D01*
X59407105Y-105919500D01*
X57940895Y-105919500D01*
X57898438Y-105915319D01*
X57863523Y-105904727D01*
X57831335Y-105887522D01*
X57803127Y-105864373D01*
X57779978Y-105836165D01*
X57762773Y-105803977D01*
X57752181Y-105769062D01*
X57748000Y-105726605D01*
X57748000Y-104585395D01*
X57752181Y-104542938D01*
X57762773Y-104508023D01*
X57779978Y-104475835D01*
X57803127Y-104447627D01*
X57831335Y-104424478D01*
X57863523Y-104407273D01*
X57898438Y-104396681D01*
X57940895Y-104392500D01*
X59407105Y-104392500D01*
X59449562Y-104396681D01*
X59449562Y-104396681D01*
G37*
G36*
X88601677Y-102885465D02*
X88639364Y-102896898D01*
X88674103Y-102915466D01*
X88704548Y-102940452D01*
X88729534Y-102970897D01*
X88748102Y-103005636D01*
X88759535Y-103043323D01*
X88764000Y-103088661D01*
X88764000Y-104175339D01*
X88759535Y-104220677D01*
X88748102Y-104258364D01*
X88729534Y-104293103D01*
X88704548Y-104323548D01*
X88674103Y-104348534D01*
X88639364Y-104367102D01*
X88601677Y-104378535D01*
X88556339Y-104383000D01*
X87719661Y-104383000D01*
X87674323Y-104378535D01*
X87636636Y-104367102D01*
X87601897Y-104348534D01*
X87571452Y-104323548D01*
X87546466Y-104293103D01*
X87527898Y-104258364D01*
X87516465Y-104220677D01*
X87512000Y-104175339D01*
X87512000Y-103088661D01*
X87516465Y-103043323D01*
X87527898Y-103005636D01*
X87546466Y-102970897D01*
X87571452Y-102940452D01*
X87601897Y-102915466D01*
X87636636Y-102896898D01*
X87674323Y-102885465D01*
X87719661Y-102881000D01*
X88556339Y-102881000D01*
X88601677Y-102885465D01*
X88601677Y-102885465D01*
G37*
G36*
X91386677Y-102885465D02*
X91424364Y-102896898D01*
X91459103Y-102915466D01*
X91489548Y-102940452D01*
X91514534Y-102970897D01*
X91533102Y-103005636D01*
X91544535Y-103043323D01*
X91549000Y-103088661D01*
X91549000Y-104175339D01*
X91544535Y-104220677D01*
X91533102Y-104258364D01*
X91514534Y-104293103D01*
X91489548Y-104323548D01*
X91459103Y-104348534D01*
X91424364Y-104367102D01*
X91386677Y-104378535D01*
X91341339Y-104383000D01*
X90504661Y-104383000D01*
X90459323Y-104378535D01*
X90421636Y-104367102D01*
X90386897Y-104348534D01*
X90356452Y-104323548D01*
X90331466Y-104293103D01*
X90312898Y-104258364D01*
X90301465Y-104220677D01*
X90297000Y-104175339D01*
X90297000Y-103088661D01*
X90301465Y-103043323D01*
X90312898Y-103005636D01*
X90331466Y-102970897D01*
X90356452Y-102940452D01*
X90386897Y-102915466D01*
X90421636Y-102896898D01*
X90459323Y-102885465D01*
X90504661Y-102881000D01*
X91341339Y-102881000D01*
X91386677Y-102885465D01*
X91386677Y-102885465D01*
G37*
G36*
X93436677Y-102885465D02*
X93474364Y-102896898D01*
X93509103Y-102915466D01*
X93539548Y-102940452D01*
X93564534Y-102970897D01*
X93583102Y-103005636D01*
X93594535Y-103043323D01*
X93599000Y-103088661D01*
X93599000Y-104175339D01*
X93594535Y-104220677D01*
X93583102Y-104258364D01*
X93564534Y-104293103D01*
X93539548Y-104323548D01*
X93509103Y-104348534D01*
X93474364Y-104367102D01*
X93436677Y-104378535D01*
X93391339Y-104383000D01*
X92554661Y-104383000D01*
X92509323Y-104378535D01*
X92471636Y-104367102D01*
X92436897Y-104348534D01*
X92406452Y-104323548D01*
X92381466Y-104293103D01*
X92362898Y-104258364D01*
X92351465Y-104220677D01*
X92347000Y-104175339D01*
X92347000Y-103088661D01*
X92351465Y-103043323D01*
X92362898Y-103005636D01*
X92381466Y-102970897D01*
X92406452Y-102940452D01*
X92436897Y-102915466D01*
X92471636Y-102896898D01*
X92509323Y-102885465D01*
X92554661Y-102881000D01*
X93391339Y-102881000D01*
X93436677Y-102885465D01*
X93436677Y-102885465D01*
G37*
G36*
X86551677Y-102885465D02*
X86589364Y-102896898D01*
X86624103Y-102915466D01*
X86654548Y-102940452D01*
X86679534Y-102970897D01*
X86698102Y-103005636D01*
X86709535Y-103043323D01*
X86714000Y-103088661D01*
X86714000Y-104175339D01*
X86709535Y-104220677D01*
X86698102Y-104258364D01*
X86679534Y-104293103D01*
X86654548Y-104323548D01*
X86624103Y-104348534D01*
X86589364Y-104367102D01*
X86551677Y-104378535D01*
X86506339Y-104383000D01*
X85669661Y-104383000D01*
X85624323Y-104378535D01*
X85586636Y-104367102D01*
X85551897Y-104348534D01*
X85521452Y-104323548D01*
X85496466Y-104293103D01*
X85477898Y-104258364D01*
X85466465Y-104220677D01*
X85462000Y-104175339D01*
X85462000Y-103088661D01*
X85466465Y-103043323D01*
X85477898Y-103005636D01*
X85496466Y-102970897D01*
X85521452Y-102940452D01*
X85551897Y-102915466D01*
X85586636Y-102896898D01*
X85624323Y-102885465D01*
X85669661Y-102881000D01*
X86506339Y-102881000D01*
X86551677Y-102885465D01*
X86551677Y-102885465D01*
G37*
G36*
X63639000Y-104025000D02*
X61837000Y-104025000D01*
X61837000Y-102223000D01*
X63639000Y-102223000D01*
X63639000Y-104025000D01*
X63639000Y-104025000D01*
G37*
G36*
X68973000Y-104025000D02*
X67171000Y-104025000D01*
X67171000Y-102223000D01*
X68973000Y-102223000D01*
X68973000Y-104025000D01*
X68973000Y-104025000D01*
G37*
G36*
X54974443Y-102229519D02*
X55040627Y-102236037D01*
X55153853Y-102270384D01*
X55210467Y-102287557D01*
X55349087Y-102361652D01*
X55366991Y-102371222D01*
X55402729Y-102400552D01*
X55504186Y-102483814D01*
X55587448Y-102585271D01*
X55616778Y-102621009D01*
X55616779Y-102621011D01*
X55700443Y-102777533D01*
X55700443Y-102777534D01*
X55751963Y-102947373D01*
X55769359Y-103124000D01*
X55751963Y-103300627D01*
X55730076Y-103372778D01*
X55700443Y-103470467D01*
X55673432Y-103521000D01*
X55616778Y-103626991D01*
X55587448Y-103662729D01*
X55504186Y-103764186D01*
X55402729Y-103847448D01*
X55366991Y-103876778D01*
X55366989Y-103876779D01*
X55210467Y-103960443D01*
X55153853Y-103977616D01*
X55040627Y-104011963D01*
X54974443Y-104018481D01*
X54908260Y-104025000D01*
X54819740Y-104025000D01*
X54753557Y-104018481D01*
X54687373Y-104011963D01*
X54574147Y-103977616D01*
X54517533Y-103960443D01*
X54361011Y-103876779D01*
X54361009Y-103876778D01*
X54325271Y-103847448D01*
X54223814Y-103764186D01*
X54140552Y-103662729D01*
X54111222Y-103626991D01*
X54054568Y-103521000D01*
X54027557Y-103470467D01*
X53997924Y-103372778D01*
X53976037Y-103300627D01*
X53958641Y-103124000D01*
X53976037Y-102947373D01*
X54027557Y-102777534D01*
X54027557Y-102777533D01*
X54111221Y-102621011D01*
X54111222Y-102621009D01*
X54140552Y-102585271D01*
X54223814Y-102483814D01*
X54325271Y-102400552D01*
X54361009Y-102371222D01*
X54378913Y-102361652D01*
X54517533Y-102287557D01*
X54574147Y-102270384D01*
X54687373Y-102236037D01*
X54753557Y-102229519D01*
X54819740Y-102223000D01*
X54908260Y-102223000D01*
X54974443Y-102229519D01*
X54974443Y-102229519D01*
G37*
G36*
X52434443Y-102229519D02*
X52500627Y-102236037D01*
X52613853Y-102270384D01*
X52670467Y-102287557D01*
X52809087Y-102361652D01*
X52826991Y-102371222D01*
X52862729Y-102400552D01*
X52964186Y-102483814D01*
X53047448Y-102585271D01*
X53076778Y-102621009D01*
X53076779Y-102621011D01*
X53160443Y-102777533D01*
X53160443Y-102777534D01*
X53211963Y-102947373D01*
X53229359Y-103124000D01*
X53211963Y-103300627D01*
X53190076Y-103372778D01*
X53160443Y-103470467D01*
X53133432Y-103521000D01*
X53076778Y-103626991D01*
X53047448Y-103662729D01*
X52964186Y-103764186D01*
X52862729Y-103847448D01*
X52826991Y-103876778D01*
X52826989Y-103876779D01*
X52670467Y-103960443D01*
X52613853Y-103977616D01*
X52500627Y-104011963D01*
X52434443Y-104018481D01*
X52368260Y-104025000D01*
X52279740Y-104025000D01*
X52213557Y-104018481D01*
X52147373Y-104011963D01*
X52034147Y-103977616D01*
X51977533Y-103960443D01*
X51821011Y-103876779D01*
X51821009Y-103876778D01*
X51785271Y-103847448D01*
X51683814Y-103764186D01*
X51600552Y-103662729D01*
X51571222Y-103626991D01*
X51514568Y-103521000D01*
X51487557Y-103470467D01*
X51457924Y-103372778D01*
X51436037Y-103300627D01*
X51418641Y-103124000D01*
X51436037Y-102947373D01*
X51487557Y-102777534D01*
X51487557Y-102777533D01*
X51571221Y-102621011D01*
X51571222Y-102621009D01*
X51600552Y-102585271D01*
X51683814Y-102483814D01*
X51785271Y-102400552D01*
X51821009Y-102371222D01*
X51838913Y-102361652D01*
X51977533Y-102287557D01*
X52034147Y-102270384D01*
X52147373Y-102236037D01*
X52213557Y-102229519D01*
X52279740Y-102223000D01*
X52368260Y-102223000D01*
X52434443Y-102229519D01*
X52434443Y-102229519D01*
G37*
G36*
X101110443Y-101725519D02*
X101176627Y-101732037D01*
X101289853Y-101766384D01*
X101346467Y-101783557D01*
X101485087Y-101857652D01*
X101502991Y-101867222D01*
X101538729Y-101896552D01*
X101640186Y-101979814D01*
X101723448Y-102081271D01*
X101752778Y-102117009D01*
X101752779Y-102117011D01*
X101836443Y-102273533D01*
X101836443Y-102273534D01*
X101887963Y-102443373D01*
X101905359Y-102620000D01*
X101887963Y-102796627D01*
X101862369Y-102881000D01*
X101836443Y-102966467D01*
X101834075Y-102970897D01*
X101752778Y-103122991D01*
X101728008Y-103153173D01*
X101640186Y-103260186D01*
X101538729Y-103343448D01*
X101502991Y-103372778D01*
X101502989Y-103372779D01*
X101346467Y-103456443D01*
X101300238Y-103470466D01*
X101176627Y-103507963D01*
X101110443Y-103514481D01*
X101044260Y-103521000D01*
X100955740Y-103521000D01*
X100889558Y-103514482D01*
X100823373Y-103507963D01*
X100699762Y-103470466D01*
X100653533Y-103456443D01*
X100497011Y-103372779D01*
X100497009Y-103372778D01*
X100461271Y-103343448D01*
X100359814Y-103260186D01*
X100271992Y-103153173D01*
X100247222Y-103122991D01*
X100165925Y-102970897D01*
X100163557Y-102966467D01*
X100137631Y-102881000D01*
X100112037Y-102796627D01*
X100094641Y-102620000D01*
X100112037Y-102443373D01*
X100163557Y-102273534D01*
X100163557Y-102273533D01*
X100247221Y-102117011D01*
X100247222Y-102117009D01*
X100276552Y-102081271D01*
X100359814Y-101979814D01*
X100461271Y-101896552D01*
X100497009Y-101867222D01*
X100514913Y-101857652D01*
X100653533Y-101783557D01*
X100710147Y-101766384D01*
X100823373Y-101732037D01*
X100889557Y-101725519D01*
X100955740Y-101719000D01*
X101044260Y-101719000D01*
X101110443Y-101725519D01*
X101110443Y-101725519D01*
G37*
G36*
X103650443Y-101725519D02*
X103716627Y-101732037D01*
X103829853Y-101766384D01*
X103886467Y-101783557D01*
X104025087Y-101857652D01*
X104042991Y-101867222D01*
X104078729Y-101896552D01*
X104180186Y-101979814D01*
X104263448Y-102081271D01*
X104292778Y-102117009D01*
X104292779Y-102117011D01*
X104376443Y-102273533D01*
X104376443Y-102273534D01*
X104427963Y-102443373D01*
X104445359Y-102620000D01*
X104427963Y-102796627D01*
X104402369Y-102881000D01*
X104376443Y-102966467D01*
X104374075Y-102970897D01*
X104292778Y-103122991D01*
X104268008Y-103153173D01*
X104180186Y-103260186D01*
X104078729Y-103343448D01*
X104042991Y-103372778D01*
X104042989Y-103372779D01*
X103886467Y-103456443D01*
X103840238Y-103470466D01*
X103716627Y-103507963D01*
X103650443Y-103514481D01*
X103584260Y-103521000D01*
X103495740Y-103521000D01*
X103429558Y-103514482D01*
X103363373Y-103507963D01*
X103239762Y-103470466D01*
X103193533Y-103456443D01*
X103037011Y-103372779D01*
X103037009Y-103372778D01*
X103001271Y-103343448D01*
X102899814Y-103260186D01*
X102811992Y-103153173D01*
X102787222Y-103122991D01*
X102705925Y-102970897D01*
X102703557Y-102966467D01*
X102677631Y-102881000D01*
X102652037Y-102796627D01*
X102634641Y-102620000D01*
X102652037Y-102443373D01*
X102703557Y-102273534D01*
X102703557Y-102273533D01*
X102787221Y-102117011D01*
X102787222Y-102117009D01*
X102816552Y-102081271D01*
X102899814Y-101979814D01*
X103001271Y-101896552D01*
X103037009Y-101867222D01*
X103054913Y-101857652D01*
X103193533Y-101783557D01*
X103250147Y-101766384D01*
X103363373Y-101732037D01*
X103429557Y-101725519D01*
X103495740Y-101719000D01*
X103584260Y-101719000D01*
X103650443Y-101725519D01*
X103650443Y-101725519D01*
G37*
G36*
X81966062Y-99662181D02*
X82000977Y-99672773D01*
X82033165Y-99689978D01*
X82061373Y-99713127D01*
X82084522Y-99741335D01*
X82101727Y-99773523D01*
X82112319Y-99808438D01*
X82116500Y-99850895D01*
X82116500Y-101317105D01*
X82112319Y-101359562D01*
X82101727Y-101394477D01*
X82084522Y-101426665D01*
X82061373Y-101454873D01*
X82033165Y-101478022D01*
X82000977Y-101495227D01*
X81966062Y-101505819D01*
X81923605Y-101510000D01*
X80782395Y-101510000D01*
X80739938Y-101505819D01*
X80705023Y-101495227D01*
X80672835Y-101478022D01*
X80644627Y-101454873D01*
X80621478Y-101426665D01*
X80604273Y-101394477D01*
X80593681Y-101359562D01*
X80589500Y-101317105D01*
X80589500Y-99850895D01*
X80593681Y-99808438D01*
X80604273Y-99773523D01*
X80621478Y-99741335D01*
X80644627Y-99713127D01*
X80672835Y-99689978D01*
X80705023Y-99672773D01*
X80739938Y-99662181D01*
X80782395Y-99658000D01*
X81923605Y-99658000D01*
X81966062Y-99662181D01*
X81966062Y-99662181D01*
G37*
G36*
X84941062Y-99662181D02*
X84975977Y-99672773D01*
X85008165Y-99689978D01*
X85036373Y-99713127D01*
X85059522Y-99741335D01*
X85076727Y-99773523D01*
X85087319Y-99808438D01*
X85091500Y-99850895D01*
X85091500Y-101317105D01*
X85087319Y-101359562D01*
X85076727Y-101394477D01*
X85059522Y-101426665D01*
X85036373Y-101454873D01*
X85008165Y-101478022D01*
X84975977Y-101495227D01*
X84941062Y-101505819D01*
X84898605Y-101510000D01*
X83757395Y-101510000D01*
X83714938Y-101505819D01*
X83680023Y-101495227D01*
X83647835Y-101478022D01*
X83619627Y-101454873D01*
X83596478Y-101426665D01*
X83579273Y-101394477D01*
X83568681Y-101359562D01*
X83564500Y-101317105D01*
X83564500Y-99850895D01*
X83568681Y-99808438D01*
X83579273Y-99773523D01*
X83596478Y-99741335D01*
X83619627Y-99713127D01*
X83647835Y-99689978D01*
X83680023Y-99672773D01*
X83714938Y-99662181D01*
X83757395Y-99658000D01*
X84898605Y-99658000D01*
X84941062Y-99662181D01*
X84941062Y-99662181D01*
G37*
G36*
X54974442Y-99689518D02*
X55040627Y-99696037D01*
X55153853Y-99730384D01*
X55210467Y-99747557D01*
X55349087Y-99821652D01*
X55366991Y-99831222D01*
X55382166Y-99843676D01*
X55504186Y-99943814D01*
X55566325Y-100019532D01*
X55616778Y-100081009D01*
X55616779Y-100081011D01*
X55700443Y-100237533D01*
X55700443Y-100237534D01*
X55751963Y-100407373D01*
X55769359Y-100584000D01*
X55751963Y-100760627D01*
X55730076Y-100832778D01*
X55700443Y-100930467D01*
X55673432Y-100981000D01*
X55616778Y-101086991D01*
X55587448Y-101122729D01*
X55504186Y-101224186D01*
X55402729Y-101307448D01*
X55366991Y-101336778D01*
X55366989Y-101336779D01*
X55210467Y-101420443D01*
X55189955Y-101426665D01*
X55040627Y-101471963D01*
X54979108Y-101478022D01*
X54908260Y-101485000D01*
X54819740Y-101485000D01*
X54748892Y-101478022D01*
X54687373Y-101471963D01*
X54538045Y-101426665D01*
X54517533Y-101420443D01*
X54361011Y-101336779D01*
X54361009Y-101336778D01*
X54325271Y-101307448D01*
X54223814Y-101224186D01*
X54140552Y-101122729D01*
X54111222Y-101086991D01*
X54054568Y-100981000D01*
X54027557Y-100930467D01*
X53997924Y-100832778D01*
X53976037Y-100760627D01*
X53958641Y-100584000D01*
X53976037Y-100407373D01*
X54027557Y-100237534D01*
X54027557Y-100237533D01*
X54111221Y-100081011D01*
X54111222Y-100081009D01*
X54161675Y-100019532D01*
X54223814Y-99943814D01*
X54345834Y-99843676D01*
X54361009Y-99831222D01*
X54378913Y-99821652D01*
X54517533Y-99747557D01*
X54574147Y-99730384D01*
X54687373Y-99696037D01*
X54753558Y-99689518D01*
X54819740Y-99683000D01*
X54908260Y-99683000D01*
X54974442Y-99689518D01*
X54974442Y-99689518D01*
G37*
G36*
X52434442Y-99689518D02*
X52500627Y-99696037D01*
X52613853Y-99730384D01*
X52670467Y-99747557D01*
X52809087Y-99821652D01*
X52826991Y-99831222D01*
X52842166Y-99843676D01*
X52964186Y-99943814D01*
X53026325Y-100019532D01*
X53076778Y-100081009D01*
X53076779Y-100081011D01*
X53160443Y-100237533D01*
X53160443Y-100237534D01*
X53211963Y-100407373D01*
X53229359Y-100584000D01*
X53211963Y-100760627D01*
X53190076Y-100832778D01*
X53160443Y-100930467D01*
X53133432Y-100981000D01*
X53076778Y-101086991D01*
X53047448Y-101122729D01*
X52964186Y-101224186D01*
X52862729Y-101307448D01*
X52826991Y-101336778D01*
X52826989Y-101336779D01*
X52670467Y-101420443D01*
X52649955Y-101426665D01*
X52500627Y-101471963D01*
X52439108Y-101478022D01*
X52368260Y-101485000D01*
X52279740Y-101485000D01*
X52208892Y-101478022D01*
X52147373Y-101471963D01*
X51998045Y-101426665D01*
X51977533Y-101420443D01*
X51821011Y-101336779D01*
X51821009Y-101336778D01*
X51785271Y-101307448D01*
X51683814Y-101224186D01*
X51600552Y-101122729D01*
X51571222Y-101086991D01*
X51514568Y-100981000D01*
X51487557Y-100930467D01*
X51457924Y-100832778D01*
X51436037Y-100760627D01*
X51418641Y-100584000D01*
X51436037Y-100407373D01*
X51487557Y-100237534D01*
X51487557Y-100237533D01*
X51571221Y-100081011D01*
X51571222Y-100081009D01*
X51621675Y-100019532D01*
X51683814Y-99943814D01*
X51805834Y-99843676D01*
X51821009Y-99831222D01*
X51838913Y-99821652D01*
X51977533Y-99747557D01*
X52034147Y-99730384D01*
X52147373Y-99696037D01*
X52213558Y-99689518D01*
X52279740Y-99683000D01*
X52368260Y-99683000D01*
X52434442Y-99689518D01*
X52434442Y-99689518D01*
G37*
G36*
X103650442Y-99185518D02*
X103716627Y-99192037D01*
X103829853Y-99226384D01*
X103886467Y-99243557D01*
X104025087Y-99317652D01*
X104042991Y-99327222D01*
X104078729Y-99356552D01*
X104180186Y-99439814D01*
X104263448Y-99541271D01*
X104292778Y-99577009D01*
X104292779Y-99577011D01*
X104376443Y-99733533D01*
X104380697Y-99747557D01*
X104427963Y-99903373D01*
X104445359Y-100080000D01*
X104427963Y-100256627D01*
X104393616Y-100369853D01*
X104376443Y-100426467D01*
X104337467Y-100499384D01*
X104292778Y-100582991D01*
X104263448Y-100618729D01*
X104180186Y-100720186D01*
X104078729Y-100803448D01*
X104042991Y-100832778D01*
X104042989Y-100832779D01*
X103886467Y-100916443D01*
X103840238Y-100930466D01*
X103716627Y-100967963D01*
X103650442Y-100974482D01*
X103584260Y-100981000D01*
X103495740Y-100981000D01*
X103429558Y-100974482D01*
X103363373Y-100967963D01*
X103239762Y-100930466D01*
X103193533Y-100916443D01*
X103037011Y-100832779D01*
X103037009Y-100832778D01*
X103001271Y-100803448D01*
X102899814Y-100720186D01*
X102816552Y-100618729D01*
X102787222Y-100582991D01*
X102742533Y-100499384D01*
X102703557Y-100426467D01*
X102686384Y-100369853D01*
X102652037Y-100256627D01*
X102634641Y-100080000D01*
X102652037Y-99903373D01*
X102699303Y-99747557D01*
X102703557Y-99733533D01*
X102787221Y-99577011D01*
X102787222Y-99577009D01*
X102816552Y-99541271D01*
X102899814Y-99439814D01*
X103001271Y-99356552D01*
X103037009Y-99327222D01*
X103054913Y-99317652D01*
X103193533Y-99243557D01*
X103250147Y-99226384D01*
X103363373Y-99192037D01*
X103429558Y-99185518D01*
X103495740Y-99179000D01*
X103584260Y-99179000D01*
X103650442Y-99185518D01*
X103650442Y-99185518D01*
G37*
G36*
X101110442Y-99185518D02*
X101176627Y-99192037D01*
X101289853Y-99226384D01*
X101346467Y-99243557D01*
X101485087Y-99317652D01*
X101502991Y-99327222D01*
X101538729Y-99356552D01*
X101640186Y-99439814D01*
X101723448Y-99541271D01*
X101752778Y-99577009D01*
X101752779Y-99577011D01*
X101836443Y-99733533D01*
X101840697Y-99747557D01*
X101887963Y-99903373D01*
X101905359Y-100080000D01*
X101887963Y-100256627D01*
X101853616Y-100369853D01*
X101836443Y-100426467D01*
X101797467Y-100499384D01*
X101752778Y-100582991D01*
X101723448Y-100618729D01*
X101640186Y-100720186D01*
X101538729Y-100803448D01*
X101502991Y-100832778D01*
X101502989Y-100832779D01*
X101346467Y-100916443D01*
X101300238Y-100930466D01*
X101176627Y-100967963D01*
X101110442Y-100974482D01*
X101044260Y-100981000D01*
X100955740Y-100981000D01*
X100889558Y-100974482D01*
X100823373Y-100967963D01*
X100699762Y-100930466D01*
X100653533Y-100916443D01*
X100497011Y-100832779D01*
X100497009Y-100832778D01*
X100461271Y-100803448D01*
X100359814Y-100720186D01*
X100276552Y-100618729D01*
X100247222Y-100582991D01*
X100202533Y-100499384D01*
X100163557Y-100426467D01*
X100146384Y-100369853D01*
X100112037Y-100256627D01*
X100094641Y-100080000D01*
X100112037Y-99903373D01*
X100159303Y-99747557D01*
X100163557Y-99733533D01*
X100247221Y-99577011D01*
X100247222Y-99577009D01*
X100276552Y-99541271D01*
X100359814Y-99439814D01*
X100461271Y-99356552D01*
X100497009Y-99327222D01*
X100514913Y-99317652D01*
X100653533Y-99243557D01*
X100710147Y-99226384D01*
X100823373Y-99192037D01*
X100889558Y-99185518D01*
X100955740Y-99179000D01*
X101044260Y-99179000D01*
X101110442Y-99185518D01*
X101110442Y-99185518D01*
G37*
G36*
X63044565Y-98557389D02*
X63235834Y-98636615D01*
X63407976Y-98751637D01*
X63554363Y-98898024D01*
X63669385Y-99070166D01*
X63748611Y-99261435D01*
X63789000Y-99464484D01*
X63789000Y-99671516D01*
X63748611Y-99874565D01*
X63669385Y-100065834D01*
X63554363Y-100237976D01*
X63407976Y-100384363D01*
X63235834Y-100499385D01*
X63044565Y-100578611D01*
X62841516Y-100619000D01*
X62634484Y-100619000D01*
X62431435Y-100578611D01*
X62240166Y-100499385D01*
X62068024Y-100384363D01*
X61921637Y-100237976D01*
X61806615Y-100065834D01*
X61727389Y-99874565D01*
X61687000Y-99671516D01*
X61687000Y-99464484D01*
X61727389Y-99261435D01*
X61806615Y-99070166D01*
X61921637Y-98898024D01*
X62068024Y-98751637D01*
X62240166Y-98636615D01*
X62431435Y-98557389D01*
X62634484Y-98517000D01*
X62841516Y-98517000D01*
X63044565Y-98557389D01*
X63044565Y-98557389D01*
G37*
G36*
X68378565Y-98557389D02*
X68569834Y-98636615D01*
X68741976Y-98751637D01*
X68888363Y-98898024D01*
X69003385Y-99070166D01*
X69082611Y-99261435D01*
X69123000Y-99464484D01*
X69123000Y-99671516D01*
X69082611Y-99874565D01*
X69003385Y-100065834D01*
X68888363Y-100237976D01*
X68741976Y-100384363D01*
X68569834Y-100499385D01*
X68378565Y-100578611D01*
X68175516Y-100619000D01*
X67968484Y-100619000D01*
X67765435Y-100578611D01*
X67574166Y-100499385D01*
X67402024Y-100384363D01*
X67255637Y-100237976D01*
X67140615Y-100065834D01*
X67061389Y-99874565D01*
X67021000Y-99671516D01*
X67021000Y-99464484D01*
X67061389Y-99261435D01*
X67140615Y-99070166D01*
X67255637Y-98898024D01*
X67402024Y-98751637D01*
X67574166Y-98636615D01*
X67765435Y-98557389D01*
X67968484Y-98517000D01*
X68175516Y-98517000D01*
X68378565Y-98557389D01*
X68378565Y-98557389D01*
G37*
G36*
X75534297Y-98592247D02*
X75569867Y-98603037D01*
X75602639Y-98620554D01*
X75631369Y-98644131D01*
X75654946Y-98672861D01*
X75672463Y-98705633D01*
X75683253Y-98741203D01*
X75687500Y-98784324D01*
X75687500Y-99843676D01*
X75683253Y-99886797D01*
X75672463Y-99922367D01*
X75654946Y-99955139D01*
X75631369Y-99983869D01*
X75602639Y-100007446D01*
X75569867Y-100024963D01*
X75534297Y-100035753D01*
X75491176Y-100040000D01*
X74206824Y-100040000D01*
X74163703Y-100035753D01*
X74128133Y-100024963D01*
X74095361Y-100007446D01*
X74066631Y-99983869D01*
X74043054Y-99955139D01*
X74025537Y-99922367D01*
X74014747Y-99886797D01*
X74010500Y-99843676D01*
X74010500Y-98784324D01*
X74014747Y-98741203D01*
X74025537Y-98705633D01*
X74043054Y-98672861D01*
X74066631Y-98644131D01*
X74095361Y-98620554D01*
X74128133Y-98603037D01*
X74163703Y-98592247D01*
X74206824Y-98588000D01*
X75491176Y-98588000D01*
X75534297Y-98592247D01*
X75534297Y-98592247D01*
G37*
G36*
X78409297Y-98592247D02*
X78444867Y-98603037D01*
X78477639Y-98620554D01*
X78506369Y-98644131D01*
X78529946Y-98672861D01*
X78547463Y-98705633D01*
X78558253Y-98741203D01*
X78562500Y-98784324D01*
X78562500Y-99843676D01*
X78558253Y-99886797D01*
X78547463Y-99922367D01*
X78529946Y-99955139D01*
X78506369Y-99983869D01*
X78477639Y-100007446D01*
X78444867Y-100024963D01*
X78409297Y-100035753D01*
X78366176Y-100040000D01*
X77081824Y-100040000D01*
X77038703Y-100035753D01*
X77003133Y-100024963D01*
X76970361Y-100007446D01*
X76941631Y-99983869D01*
X76918054Y-99955139D01*
X76900537Y-99922367D01*
X76889747Y-99886797D01*
X76885500Y-99843676D01*
X76885500Y-98784324D01*
X76889747Y-98741203D01*
X76900537Y-98705633D01*
X76918054Y-98672861D01*
X76941631Y-98644131D01*
X76970361Y-98620554D01*
X77003133Y-98603037D01*
X77038703Y-98592247D01*
X77081824Y-98588000D01*
X78366176Y-98588000D01*
X78409297Y-98592247D01*
X78409297Y-98592247D01*
G37*
G36*
X54974443Y-97149519D02*
X55040627Y-97156037D01*
X55153853Y-97190384D01*
X55210467Y-97207557D01*
X55349087Y-97281652D01*
X55366991Y-97291222D01*
X55378905Y-97301000D01*
X55504186Y-97403814D01*
X55576198Y-97491562D01*
X55616778Y-97541009D01*
X55616779Y-97541011D01*
X55700443Y-97697533D01*
X55700443Y-97697534D01*
X55751963Y-97867373D01*
X55769359Y-98044000D01*
X55751963Y-98220627D01*
X55730076Y-98292778D01*
X55700443Y-98390467D01*
X55673432Y-98441000D01*
X55616778Y-98546991D01*
X55587448Y-98582729D01*
X55504186Y-98684186D01*
X55402729Y-98767448D01*
X55366991Y-98796778D01*
X55366989Y-98796779D01*
X55210467Y-98880443D01*
X55153853Y-98897616D01*
X55040627Y-98931963D01*
X54974442Y-98938482D01*
X54908260Y-98945000D01*
X54819740Y-98945000D01*
X54753558Y-98938482D01*
X54687373Y-98931963D01*
X54574147Y-98897616D01*
X54517533Y-98880443D01*
X54361011Y-98796779D01*
X54361009Y-98796778D01*
X54325271Y-98767448D01*
X54223814Y-98684186D01*
X54140552Y-98582729D01*
X54111222Y-98546991D01*
X54054568Y-98441000D01*
X54027557Y-98390467D01*
X53997924Y-98292778D01*
X53976037Y-98220627D01*
X53958641Y-98044000D01*
X53976037Y-97867373D01*
X54027557Y-97697534D01*
X54027557Y-97697533D01*
X54111221Y-97541011D01*
X54111222Y-97541009D01*
X54151802Y-97491562D01*
X54223814Y-97403814D01*
X54349095Y-97301000D01*
X54361009Y-97291222D01*
X54378913Y-97281652D01*
X54517533Y-97207557D01*
X54574147Y-97190384D01*
X54687373Y-97156037D01*
X54753557Y-97149519D01*
X54819740Y-97143000D01*
X54908260Y-97143000D01*
X54974443Y-97149519D01*
X54974443Y-97149519D01*
G37*
G36*
X52434443Y-97149519D02*
X52500627Y-97156037D01*
X52613853Y-97190384D01*
X52670467Y-97207557D01*
X52809087Y-97281652D01*
X52826991Y-97291222D01*
X52838905Y-97301000D01*
X52964186Y-97403814D01*
X53036198Y-97491562D01*
X53076778Y-97541009D01*
X53076779Y-97541011D01*
X53160443Y-97697533D01*
X53160443Y-97697534D01*
X53211963Y-97867373D01*
X53229359Y-98044000D01*
X53211963Y-98220627D01*
X53190076Y-98292778D01*
X53160443Y-98390467D01*
X53133432Y-98441000D01*
X53076778Y-98546991D01*
X53047448Y-98582729D01*
X52964186Y-98684186D01*
X52862729Y-98767448D01*
X52826991Y-98796778D01*
X52826989Y-98796779D01*
X52670467Y-98880443D01*
X52613853Y-98897616D01*
X52500627Y-98931963D01*
X52434442Y-98938482D01*
X52368260Y-98945000D01*
X52279740Y-98945000D01*
X52213558Y-98938482D01*
X52147373Y-98931963D01*
X52034147Y-98897616D01*
X51977533Y-98880443D01*
X51821011Y-98796779D01*
X51821009Y-98796778D01*
X51785271Y-98767448D01*
X51683814Y-98684186D01*
X51600552Y-98582729D01*
X51571222Y-98546991D01*
X51514568Y-98441000D01*
X51487557Y-98390467D01*
X51457924Y-98292778D01*
X51436037Y-98220627D01*
X51418641Y-98044000D01*
X51436037Y-97867373D01*
X51487557Y-97697534D01*
X51487557Y-97697533D01*
X51571221Y-97541011D01*
X51571222Y-97541009D01*
X51611802Y-97491562D01*
X51683814Y-97403814D01*
X51809095Y-97301000D01*
X51821009Y-97291222D01*
X51838913Y-97281652D01*
X51977533Y-97207557D01*
X52034147Y-97190384D01*
X52147373Y-97156037D01*
X52213557Y-97149519D01*
X52279740Y-97143000D01*
X52368260Y-97143000D01*
X52434443Y-97149519D01*
X52434443Y-97149519D01*
G37*
G36*
X103650442Y-96645518D02*
X103716627Y-96652037D01*
X103815313Y-96681973D01*
X103886467Y-96703557D01*
X104025087Y-96777652D01*
X104042991Y-96787222D01*
X104078729Y-96816552D01*
X104180186Y-96899814D01*
X104263448Y-97001271D01*
X104292778Y-97037009D01*
X104292779Y-97037011D01*
X104376443Y-97193533D01*
X104376443Y-97193534D01*
X104427963Y-97363373D01*
X104445359Y-97540000D01*
X104427963Y-97716627D01*
X104393616Y-97829853D01*
X104376443Y-97886467D01*
X104302348Y-98025087D01*
X104292778Y-98042991D01*
X104263448Y-98078729D01*
X104180186Y-98180186D01*
X104078729Y-98263448D01*
X104042991Y-98292778D01*
X104042989Y-98292779D01*
X103886467Y-98376443D01*
X103840238Y-98390466D01*
X103716627Y-98427963D01*
X103650442Y-98434482D01*
X103584260Y-98441000D01*
X103495740Y-98441000D01*
X103429557Y-98434481D01*
X103363373Y-98427963D01*
X103239762Y-98390466D01*
X103193533Y-98376443D01*
X103037011Y-98292779D01*
X103037009Y-98292778D01*
X103001271Y-98263448D01*
X102899814Y-98180186D01*
X102816552Y-98078729D01*
X102787222Y-98042991D01*
X102777652Y-98025087D01*
X102703557Y-97886467D01*
X102686384Y-97829853D01*
X102652037Y-97716627D01*
X102634641Y-97540000D01*
X102652037Y-97363373D01*
X102703557Y-97193534D01*
X102703557Y-97193533D01*
X102787221Y-97037011D01*
X102787222Y-97037009D01*
X102816552Y-97001271D01*
X102899814Y-96899814D01*
X103001271Y-96816552D01*
X103037009Y-96787222D01*
X103054913Y-96777652D01*
X103193533Y-96703557D01*
X103264687Y-96681973D01*
X103363373Y-96652037D01*
X103429558Y-96645518D01*
X103495740Y-96639000D01*
X103584260Y-96639000D01*
X103650442Y-96645518D01*
X103650442Y-96645518D01*
G37*
G36*
X101110442Y-96645518D02*
X101176627Y-96652037D01*
X101275313Y-96681973D01*
X101346467Y-96703557D01*
X101485087Y-96777652D01*
X101502991Y-96787222D01*
X101538729Y-96816552D01*
X101640186Y-96899814D01*
X101723448Y-97001271D01*
X101752778Y-97037009D01*
X101752779Y-97037011D01*
X101836443Y-97193533D01*
X101836443Y-97193534D01*
X101887963Y-97363373D01*
X101905359Y-97540000D01*
X101887963Y-97716627D01*
X101853616Y-97829853D01*
X101836443Y-97886467D01*
X101762348Y-98025087D01*
X101752778Y-98042991D01*
X101723448Y-98078729D01*
X101640186Y-98180186D01*
X101538729Y-98263448D01*
X101502991Y-98292778D01*
X101502989Y-98292779D01*
X101346467Y-98376443D01*
X101300238Y-98390466D01*
X101176627Y-98427963D01*
X101110442Y-98434482D01*
X101044260Y-98441000D01*
X100955740Y-98441000D01*
X100889557Y-98434481D01*
X100823373Y-98427963D01*
X100699762Y-98390466D01*
X100653533Y-98376443D01*
X100497011Y-98292779D01*
X100497009Y-98292778D01*
X100461271Y-98263448D01*
X100359814Y-98180186D01*
X100276552Y-98078729D01*
X100247222Y-98042991D01*
X100237652Y-98025087D01*
X100163557Y-97886467D01*
X100146384Y-97829853D01*
X100112037Y-97716627D01*
X100094641Y-97540000D01*
X100112037Y-97363373D01*
X100163557Y-97193534D01*
X100163557Y-97193533D01*
X100247221Y-97037011D01*
X100247222Y-97037009D01*
X100276552Y-97001271D01*
X100359814Y-96899814D01*
X100461271Y-96816552D01*
X100497009Y-96787222D01*
X100514913Y-96777652D01*
X100653533Y-96703557D01*
X100724687Y-96681973D01*
X100823373Y-96652037D01*
X100889558Y-96645518D01*
X100955740Y-96639000D01*
X101044260Y-96639000D01*
X101110442Y-96645518D01*
X101110442Y-96645518D01*
G37*
G36*
X78337062Y-94894181D02*
X78371977Y-94904773D01*
X78404165Y-94921978D01*
X78432373Y-94945127D01*
X78455522Y-94973335D01*
X78472727Y-95005523D01*
X78483319Y-95040438D01*
X78487500Y-95082895D01*
X78487500Y-97449105D01*
X78483319Y-97491562D01*
X78472727Y-97526477D01*
X78455522Y-97558665D01*
X78432373Y-97586873D01*
X78404165Y-97610022D01*
X78371977Y-97627227D01*
X78337062Y-97637819D01*
X78294605Y-97642000D01*
X77153395Y-97642000D01*
X77110938Y-97637819D01*
X77076023Y-97627227D01*
X77043835Y-97610022D01*
X77015627Y-97586873D01*
X76992478Y-97558665D01*
X76975273Y-97526477D01*
X76964681Y-97491562D01*
X76960500Y-97449105D01*
X76960500Y-95082895D01*
X76964681Y-95040438D01*
X76975273Y-95005523D01*
X76992478Y-94973335D01*
X77015627Y-94945127D01*
X77043835Y-94921978D01*
X77076023Y-94904773D01*
X77110938Y-94894181D01*
X77153395Y-94890000D01*
X78294605Y-94890000D01*
X78337062Y-94894181D01*
X78337062Y-94894181D01*
G37*
G36*
X75362062Y-94894181D02*
X75396977Y-94904773D01*
X75429165Y-94921978D01*
X75457373Y-94945127D01*
X75480522Y-94973335D01*
X75497727Y-95005523D01*
X75508319Y-95040438D01*
X75512500Y-95082895D01*
X75512500Y-97449105D01*
X75508319Y-97491562D01*
X75497727Y-97526477D01*
X75480522Y-97558665D01*
X75457373Y-97586873D01*
X75429165Y-97610022D01*
X75396977Y-97627227D01*
X75362062Y-97637819D01*
X75319605Y-97642000D01*
X74178395Y-97642000D01*
X74135938Y-97637819D01*
X74101023Y-97627227D01*
X74068835Y-97610022D01*
X74040627Y-97586873D01*
X74017478Y-97558665D01*
X74000273Y-97526477D01*
X73989681Y-97491562D01*
X73985500Y-97449105D01*
X73985500Y-95082895D01*
X73989681Y-95040438D01*
X74000273Y-95005523D01*
X74017478Y-94973335D01*
X74040627Y-94945127D01*
X74068835Y-94921978D01*
X74101023Y-94904773D01*
X74135938Y-94894181D01*
X74178395Y-94890000D01*
X75319605Y-94890000D01*
X75362062Y-94894181D01*
X75362062Y-94894181D01*
G37*
G36*
X81851000Y-97301000D02*
X80249000Y-97301000D01*
X80249000Y-92199000D01*
X81851000Y-92199000D01*
X81851000Y-97301000D01*
X81851000Y-97301000D01*
G37*
G36*
X87751000Y-97301000D02*
X86149000Y-97301000D01*
X86149000Y-92199000D01*
X87751000Y-92199000D01*
X87751000Y-97301000D01*
X87751000Y-97301000D01*
G37*
G36*
X68378565Y-95001389D02*
X68569834Y-95080615D01*
X68741976Y-95195637D01*
X68888363Y-95342024D01*
X69003385Y-95514166D01*
X69082611Y-95705435D01*
X69123000Y-95908484D01*
X69123000Y-96115516D01*
X69082611Y-96318565D01*
X69003385Y-96509834D01*
X68888363Y-96681976D01*
X68741976Y-96828363D01*
X68569834Y-96943385D01*
X68378565Y-97022611D01*
X68175516Y-97063000D01*
X67968484Y-97063000D01*
X67765435Y-97022611D01*
X67574166Y-96943385D01*
X67402024Y-96828363D01*
X67255637Y-96681976D01*
X67140615Y-96509834D01*
X67061389Y-96318565D01*
X67021000Y-96115516D01*
X67021000Y-95908484D01*
X67061389Y-95705435D01*
X67140615Y-95514166D01*
X67255637Y-95342024D01*
X67402024Y-95195637D01*
X67574166Y-95080615D01*
X67765435Y-95001389D01*
X67968484Y-94961000D01*
X68175516Y-94961000D01*
X68378565Y-95001389D01*
X68378565Y-95001389D01*
G37*
G36*
X63044565Y-95001389D02*
X63235834Y-95080615D01*
X63407976Y-95195637D01*
X63554363Y-95342024D01*
X63669385Y-95514166D01*
X63748611Y-95705435D01*
X63789000Y-95908484D01*
X63789000Y-96115516D01*
X63748611Y-96318565D01*
X63669385Y-96509834D01*
X63554363Y-96681976D01*
X63407976Y-96828363D01*
X63235834Y-96943385D01*
X63044565Y-97022611D01*
X62841516Y-97063000D01*
X62634484Y-97063000D01*
X62431435Y-97022611D01*
X62240166Y-96943385D01*
X62068024Y-96828363D01*
X61921637Y-96681976D01*
X61806615Y-96509834D01*
X61727389Y-96318565D01*
X61687000Y-96115516D01*
X61687000Y-95908484D01*
X61727389Y-95705435D01*
X61806615Y-95514166D01*
X61921637Y-95342024D01*
X62068024Y-95195637D01*
X62240166Y-95080615D01*
X62431435Y-95001389D01*
X62634484Y-94961000D01*
X62841516Y-94961000D01*
X63044565Y-95001389D01*
X63044565Y-95001389D01*
G37*
G36*
X54974442Y-94609518D02*
X55040627Y-94616037D01*
X55153853Y-94650384D01*
X55210467Y-94667557D01*
X55349087Y-94741652D01*
X55366991Y-94751222D01*
X55402729Y-94780552D01*
X55504186Y-94863814D01*
X55562727Y-94935148D01*
X55616778Y-95001009D01*
X55616779Y-95001011D01*
X55700443Y-95157533D01*
X55700443Y-95157534D01*
X55751963Y-95327373D01*
X55769359Y-95504000D01*
X55751963Y-95680627D01*
X55730076Y-95752778D01*
X55700443Y-95850467D01*
X55626348Y-95989087D01*
X55616778Y-96006991D01*
X55587448Y-96042729D01*
X55504186Y-96144186D01*
X55402729Y-96227448D01*
X55366991Y-96256778D01*
X55366989Y-96256779D01*
X55210467Y-96340443D01*
X55153853Y-96357616D01*
X55040627Y-96391963D01*
X54974442Y-96398482D01*
X54908260Y-96405000D01*
X54819740Y-96405000D01*
X54753558Y-96398482D01*
X54687373Y-96391963D01*
X54574147Y-96357616D01*
X54517533Y-96340443D01*
X54361011Y-96256779D01*
X54361009Y-96256778D01*
X54325271Y-96227448D01*
X54223814Y-96144186D01*
X54140552Y-96042729D01*
X54111222Y-96006991D01*
X54101652Y-95989087D01*
X54027557Y-95850467D01*
X53997924Y-95752778D01*
X53976037Y-95680627D01*
X53958641Y-95504000D01*
X53976037Y-95327373D01*
X54027557Y-95157534D01*
X54027557Y-95157533D01*
X54111221Y-95001011D01*
X54111222Y-95001009D01*
X54165273Y-94935148D01*
X54223814Y-94863814D01*
X54325271Y-94780552D01*
X54361009Y-94751222D01*
X54378913Y-94741652D01*
X54517533Y-94667557D01*
X54574147Y-94650384D01*
X54687373Y-94616037D01*
X54753558Y-94609518D01*
X54819740Y-94603000D01*
X54908260Y-94603000D01*
X54974442Y-94609518D01*
X54974442Y-94609518D01*
G37*
G36*
X52434442Y-94609518D02*
X52500627Y-94616037D01*
X52613853Y-94650384D01*
X52670467Y-94667557D01*
X52809087Y-94741652D01*
X52826991Y-94751222D01*
X52862729Y-94780552D01*
X52964186Y-94863814D01*
X53022727Y-94935148D01*
X53076778Y-95001009D01*
X53076779Y-95001011D01*
X53160443Y-95157533D01*
X53160443Y-95157534D01*
X53211963Y-95327373D01*
X53229359Y-95504000D01*
X53211963Y-95680627D01*
X53190076Y-95752778D01*
X53160443Y-95850467D01*
X53086348Y-95989087D01*
X53076778Y-96006991D01*
X53047448Y-96042729D01*
X52964186Y-96144186D01*
X52862729Y-96227448D01*
X52826991Y-96256778D01*
X52826989Y-96256779D01*
X52670467Y-96340443D01*
X52613853Y-96357616D01*
X52500627Y-96391963D01*
X52434442Y-96398482D01*
X52368260Y-96405000D01*
X52279740Y-96405000D01*
X52213558Y-96398482D01*
X52147373Y-96391963D01*
X52034147Y-96357616D01*
X51977533Y-96340443D01*
X51821011Y-96256779D01*
X51821009Y-96256778D01*
X51785271Y-96227448D01*
X51683814Y-96144186D01*
X51600552Y-96042729D01*
X51571222Y-96006991D01*
X51561652Y-95989087D01*
X51487557Y-95850467D01*
X51457924Y-95752778D01*
X51436037Y-95680627D01*
X51418641Y-95504000D01*
X51436037Y-95327373D01*
X51487557Y-95157534D01*
X51487557Y-95157533D01*
X51571221Y-95001011D01*
X51571222Y-95001009D01*
X51625273Y-94935148D01*
X51683814Y-94863814D01*
X51785271Y-94780552D01*
X51821009Y-94751222D01*
X51838913Y-94741652D01*
X51977533Y-94667557D01*
X52034147Y-94650384D01*
X52147373Y-94616037D01*
X52213558Y-94609518D01*
X52279740Y-94603000D01*
X52368260Y-94603000D01*
X52434442Y-94609518D01*
X52434442Y-94609518D01*
G37*
G36*
X101901000Y-95901000D02*
X100099000Y-95901000D01*
X100099000Y-94099000D01*
X101901000Y-94099000D01*
X101901000Y-95901000D01*
X101901000Y-95901000D01*
G37*
G36*
X103650443Y-94105519D02*
X103716627Y-94112037D01*
X103829853Y-94146384D01*
X103886467Y-94163557D01*
X104025087Y-94237652D01*
X104042991Y-94247222D01*
X104078729Y-94276552D01*
X104180186Y-94359814D01*
X104263448Y-94461271D01*
X104292778Y-94497009D01*
X104292779Y-94497011D01*
X104376443Y-94653533D01*
X104376443Y-94653534D01*
X104427963Y-94823373D01*
X104445359Y-95000000D01*
X104427963Y-95176627D01*
X104422196Y-95195637D01*
X104376443Y-95346467D01*
X104374020Y-95351000D01*
X104292778Y-95502991D01*
X104263448Y-95538729D01*
X104180186Y-95640186D01*
X104078729Y-95723448D01*
X104042991Y-95752778D01*
X104042989Y-95752779D01*
X103886467Y-95836443D01*
X103840238Y-95850466D01*
X103716627Y-95887963D01*
X103650443Y-95894481D01*
X103584260Y-95901000D01*
X103495740Y-95901000D01*
X103429557Y-95894481D01*
X103363373Y-95887963D01*
X103239762Y-95850466D01*
X103193533Y-95836443D01*
X103037011Y-95752779D01*
X103037009Y-95752778D01*
X103001271Y-95723448D01*
X102899814Y-95640186D01*
X102816552Y-95538729D01*
X102787222Y-95502991D01*
X102705980Y-95351000D01*
X102703557Y-95346467D01*
X102657804Y-95195637D01*
X102652037Y-95176627D01*
X102634641Y-95000000D01*
X102652037Y-94823373D01*
X102703557Y-94653534D01*
X102703557Y-94653533D01*
X102787221Y-94497011D01*
X102787222Y-94497009D01*
X102816552Y-94461271D01*
X102899814Y-94359814D01*
X103001271Y-94276552D01*
X103037009Y-94247222D01*
X103054913Y-94237652D01*
X103193533Y-94163557D01*
X103250147Y-94146384D01*
X103363373Y-94112037D01*
X103429557Y-94105519D01*
X103495740Y-94099000D01*
X103584260Y-94099000D01*
X103650443Y-94105519D01*
X103650443Y-94105519D01*
G37*
G36*
X52434443Y-92069519D02*
X52500627Y-92076037D01*
X52613853Y-92110384D01*
X52670467Y-92127557D01*
X52804125Y-92199000D01*
X52826991Y-92211222D01*
X52862729Y-92240552D01*
X52964186Y-92323814D01*
X53047448Y-92425271D01*
X53076778Y-92461009D01*
X53076779Y-92461011D01*
X53160443Y-92617533D01*
X53160443Y-92617534D01*
X53211963Y-92787373D01*
X53229359Y-92964000D01*
X53211963Y-93140627D01*
X53177616Y-93253853D01*
X53160443Y-93310467D01*
X53112051Y-93401000D01*
X53076778Y-93466991D01*
X53050509Y-93499000D01*
X52964186Y-93604186D01*
X52862729Y-93687448D01*
X52826991Y-93716778D01*
X52826989Y-93716779D01*
X52670467Y-93800443D01*
X52613853Y-93817616D01*
X52500627Y-93851963D01*
X52434443Y-93858481D01*
X52368260Y-93865000D01*
X52279740Y-93865000D01*
X52213557Y-93858481D01*
X52147373Y-93851963D01*
X52034147Y-93817616D01*
X51977533Y-93800443D01*
X51821011Y-93716779D01*
X51821009Y-93716778D01*
X51785271Y-93687448D01*
X51683814Y-93604186D01*
X51597491Y-93499000D01*
X51571222Y-93466991D01*
X51535949Y-93401000D01*
X51487557Y-93310467D01*
X51470384Y-93253853D01*
X51436037Y-93140627D01*
X51418641Y-92964000D01*
X51436037Y-92787373D01*
X51487557Y-92617534D01*
X51487557Y-92617533D01*
X51571221Y-92461011D01*
X51571222Y-92461009D01*
X51600552Y-92425271D01*
X51683814Y-92323814D01*
X51785271Y-92240552D01*
X51821009Y-92211222D01*
X51843875Y-92199000D01*
X51977533Y-92127557D01*
X52034147Y-92110384D01*
X52147373Y-92076037D01*
X52213557Y-92069519D01*
X52279740Y-92063000D01*
X52368260Y-92063000D01*
X52434443Y-92069519D01*
X52434443Y-92069519D01*
G37*
G36*
X54974443Y-92069519D02*
X55040627Y-92076037D01*
X55153853Y-92110384D01*
X55210467Y-92127557D01*
X55344125Y-92199000D01*
X55366991Y-92211222D01*
X55402729Y-92240552D01*
X55504186Y-92323814D01*
X55587448Y-92425271D01*
X55616778Y-92461009D01*
X55616779Y-92461011D01*
X55700443Y-92617533D01*
X55700443Y-92617534D01*
X55751963Y-92787373D01*
X55769359Y-92964000D01*
X55751963Y-93140627D01*
X55717616Y-93253853D01*
X55700443Y-93310467D01*
X55652051Y-93401000D01*
X55616778Y-93466991D01*
X55590509Y-93499000D01*
X55504186Y-93604186D01*
X55402729Y-93687448D01*
X55366991Y-93716778D01*
X55366989Y-93716779D01*
X55210467Y-93800443D01*
X55153853Y-93817616D01*
X55040627Y-93851963D01*
X54974443Y-93858481D01*
X54908260Y-93865000D01*
X54819740Y-93865000D01*
X54753557Y-93858481D01*
X54687373Y-93851963D01*
X54574147Y-93817616D01*
X54517533Y-93800443D01*
X54361011Y-93716779D01*
X54361009Y-93716778D01*
X54325271Y-93687448D01*
X54223814Y-93604186D01*
X54137491Y-93499000D01*
X54111222Y-93466991D01*
X54075949Y-93401000D01*
X54027557Y-93310467D01*
X54010384Y-93253853D01*
X53976037Y-93140627D01*
X53958641Y-92964000D01*
X53976037Y-92787373D01*
X54027557Y-92617534D01*
X54027557Y-92617533D01*
X54111221Y-92461011D01*
X54111222Y-92461009D01*
X54140552Y-92425271D01*
X54223814Y-92323814D01*
X54325271Y-92240552D01*
X54361009Y-92211222D01*
X54383875Y-92199000D01*
X54517533Y-92127557D01*
X54574147Y-92110384D01*
X54687373Y-92076037D01*
X54753557Y-92069519D01*
X54819740Y-92063000D01*
X54908260Y-92063000D01*
X54974443Y-92069519D01*
X54974443Y-92069519D01*
G37*
G36*
X86088062Y-87628181D02*
X86122977Y-87638773D01*
X86155165Y-87655978D01*
X86183373Y-87679127D01*
X86206522Y-87707335D01*
X86223727Y-87739523D01*
X86234319Y-87774438D01*
X86238500Y-87816895D01*
X86238500Y-90183105D01*
X86234319Y-90225562D01*
X86223727Y-90260477D01*
X86206522Y-90292665D01*
X86183373Y-90320873D01*
X86155165Y-90344022D01*
X86122977Y-90361227D01*
X86088062Y-90371819D01*
X86045605Y-90376000D01*
X84904395Y-90376000D01*
X84861938Y-90371819D01*
X84827023Y-90361227D01*
X84794835Y-90344022D01*
X84766627Y-90320873D01*
X84743478Y-90292665D01*
X84726273Y-90260477D01*
X84715681Y-90225562D01*
X84711500Y-90183105D01*
X84711500Y-87816895D01*
X84715681Y-87774438D01*
X84726273Y-87739523D01*
X84743478Y-87707335D01*
X84766627Y-87679127D01*
X84794835Y-87655978D01*
X84827023Y-87638773D01*
X84861938Y-87628181D01*
X84904395Y-87624000D01*
X86045605Y-87624000D01*
X86088062Y-87628181D01*
X86088062Y-87628181D01*
G37*
G36*
X83113062Y-87628181D02*
X83147977Y-87638773D01*
X83180165Y-87655978D01*
X83208373Y-87679127D01*
X83231522Y-87707335D01*
X83248727Y-87739523D01*
X83259319Y-87774438D01*
X83263500Y-87816895D01*
X83263500Y-90183105D01*
X83259319Y-90225562D01*
X83248727Y-90260477D01*
X83231522Y-90292665D01*
X83208373Y-90320873D01*
X83180165Y-90344022D01*
X83147977Y-90361227D01*
X83113062Y-90371819D01*
X83070605Y-90376000D01*
X81929395Y-90376000D01*
X81886938Y-90371819D01*
X81852023Y-90361227D01*
X81819835Y-90344022D01*
X81791627Y-90320873D01*
X81768478Y-90292665D01*
X81751273Y-90260477D01*
X81740681Y-90225562D01*
X81736500Y-90183105D01*
X81736500Y-87816895D01*
X81740681Y-87774438D01*
X81751273Y-87739523D01*
X81768478Y-87707335D01*
X81791627Y-87679127D01*
X81819835Y-87655978D01*
X81852023Y-87638773D01*
X81886938Y-87628181D01*
X81929395Y-87624000D01*
X83070605Y-87624000D01*
X83113062Y-87628181D01*
X83113062Y-87628181D01*
G37*
G36*
X76042297Y-88686247D02*
X76077867Y-88697037D01*
X76110639Y-88714554D01*
X76139369Y-88738131D01*
X76162946Y-88766861D01*
X76180463Y-88799633D01*
X76191253Y-88835203D01*
X76195500Y-88878324D01*
X76195500Y-89937676D01*
X76191253Y-89980797D01*
X76180463Y-90016367D01*
X76162946Y-90049139D01*
X76139369Y-90077869D01*
X76110639Y-90101446D01*
X76077867Y-90118963D01*
X76042297Y-90129753D01*
X75999176Y-90134000D01*
X74714824Y-90134000D01*
X74671703Y-90129753D01*
X74636133Y-90118963D01*
X74603361Y-90101446D01*
X74574631Y-90077869D01*
X74551054Y-90049139D01*
X74533537Y-90016367D01*
X74522747Y-89980797D01*
X74518500Y-89937676D01*
X74518500Y-88878324D01*
X74522747Y-88835203D01*
X74533537Y-88799633D01*
X74551054Y-88766861D01*
X74574631Y-88738131D01*
X74603361Y-88714554D01*
X74636133Y-88697037D01*
X74671703Y-88686247D01*
X74714824Y-88682000D01*
X75999176Y-88682000D01*
X76042297Y-88686247D01*
X76042297Y-88686247D01*
G37*
G36*
X78917297Y-88686247D02*
X78952867Y-88697037D01*
X78985639Y-88714554D01*
X79014369Y-88738131D01*
X79037946Y-88766861D01*
X79055463Y-88799633D01*
X79066253Y-88835203D01*
X79070500Y-88878324D01*
X79070500Y-89937676D01*
X79066253Y-89980797D01*
X79055463Y-90016367D01*
X79037946Y-90049139D01*
X79014369Y-90077869D01*
X78985639Y-90101446D01*
X78952867Y-90118963D01*
X78917297Y-90129753D01*
X78874176Y-90134000D01*
X77589824Y-90134000D01*
X77546703Y-90129753D01*
X77511133Y-90118963D01*
X77478361Y-90101446D01*
X77449631Y-90077869D01*
X77426054Y-90049139D01*
X77408537Y-90016367D01*
X77397747Y-89980797D01*
X77393500Y-89937676D01*
X77393500Y-88878324D01*
X77397747Y-88835203D01*
X77408537Y-88799633D01*
X77426054Y-88766861D01*
X77449631Y-88738131D01*
X77478361Y-88714554D01*
X77511133Y-88697037D01*
X77546703Y-88686247D01*
X77589824Y-88682000D01*
X78874176Y-88682000D01*
X78917297Y-88686247D01*
X78917297Y-88686247D01*
G37*
G36*
X103318433Y-87134893D02*
X103408657Y-87152839D01*
X103514267Y-87196585D01*
X103663621Y-87258449D01*
X103893089Y-87411774D01*
X104088226Y-87606911D01*
X104241551Y-87836379D01*
X104347161Y-88091344D01*
X104401000Y-88362012D01*
X104401000Y-88637988D01*
X104381080Y-88738131D01*
X104353195Y-88878324D01*
X104347161Y-88908656D01*
X104241551Y-89163621D01*
X104088226Y-89393089D01*
X103893089Y-89588226D01*
X103663621Y-89741551D01*
X103514267Y-89803415D01*
X103408657Y-89847161D01*
X103318433Y-89865107D01*
X103137988Y-89901000D01*
X102862012Y-89901000D01*
X102681567Y-89865107D01*
X102591343Y-89847161D01*
X102485733Y-89803415D01*
X102336379Y-89741551D01*
X102106911Y-89588226D01*
X101911774Y-89393089D01*
X101758449Y-89163621D01*
X101652839Y-88908656D01*
X101646806Y-88878324D01*
X101618920Y-88738131D01*
X101599000Y-88637988D01*
X101599000Y-88362012D01*
X101652839Y-88091344D01*
X101758449Y-87836379D01*
X101911774Y-87606911D01*
X102106911Y-87411774D01*
X102336379Y-87258449D01*
X102485733Y-87196585D01*
X102591343Y-87152839D01*
X102681567Y-87134893D01*
X102862012Y-87099000D01*
X103137988Y-87099000D01*
X103318433Y-87134893D01*
X103318433Y-87134893D01*
G37*
G36*
X53818433Y-87134893D02*
X53908657Y-87152839D01*
X54014267Y-87196585D01*
X54163621Y-87258449D01*
X54393089Y-87411774D01*
X54588226Y-87606911D01*
X54741551Y-87836379D01*
X54847161Y-88091344D01*
X54901000Y-88362012D01*
X54901000Y-88637988D01*
X54881080Y-88738131D01*
X54853195Y-88878324D01*
X54847161Y-88908656D01*
X54741551Y-89163621D01*
X54588226Y-89393089D01*
X54393089Y-89588226D01*
X54163621Y-89741551D01*
X54014267Y-89803415D01*
X53908657Y-89847161D01*
X53818433Y-89865107D01*
X53637988Y-89901000D01*
X53362012Y-89901000D01*
X53181567Y-89865107D01*
X53091343Y-89847161D01*
X52985733Y-89803415D01*
X52836379Y-89741551D01*
X52606911Y-89588226D01*
X52411774Y-89393089D01*
X52258449Y-89163621D01*
X52152839Y-88908656D01*
X52146806Y-88878324D01*
X52118920Y-88738131D01*
X52099000Y-88637988D01*
X52099000Y-88362012D01*
X52152839Y-88091344D01*
X52258449Y-87836379D01*
X52411774Y-87606911D01*
X52606911Y-87411774D01*
X52836379Y-87258449D01*
X52985733Y-87196585D01*
X53091343Y-87152839D01*
X53181567Y-87134893D01*
X53362012Y-87099000D01*
X53637988Y-87099000D01*
X53818433Y-87134893D01*
X53818433Y-87134893D01*
G37*
M02*
