%TF.GenerationSoftware,KiCad,Pcbnew,5.0.2-bee76a0~70~ubuntu18.04.1*%
%TF.CreationDate,2019-03-20T18:43:48-06:00*%
%TF.ProjectId,Pi_Breakout_Board,50695f42-7265-4616-9b6f-75745f426f61,rev?*%
%TF.SameCoordinates,Original*%
%TF.FileFunction,Legend,Top*%
%TF.FilePolarity,Positive*%
%FSLAX46Y46*%
G04 Gerber Fmt 4.6, Leading zero omitted, Abs format (unit mm)*
G04 Created by KiCad (PCBNEW 5.0.2-bee76a0~70~ubuntu18.04.1) date Wed 20 Mar 2019 06:43:48 PM MDT*
%MOMM*%
%LPD*%
G01*
G04 APERTURE LIST*
%ADD10C,0.300000*%
%ADD11C,0.120000*%
%ADD12C,0.150000*%
G04 APERTURE END LIST*
D10*
X97798000Y-136338571D02*
X98726571Y-136338571D01*
X98226571Y-136910000D01*
X98440857Y-136910000D01*
X98583714Y-136981428D01*
X98655142Y-137052857D01*
X98726571Y-137195714D01*
X98726571Y-137552857D01*
X98655142Y-137695714D01*
X98583714Y-137767142D01*
X98440857Y-137838571D01*
X98012285Y-137838571D01*
X97869428Y-137767142D01*
X97798000Y-137695714D01*
X97869428Y-133941428D02*
X97940857Y-133870000D01*
X98083714Y-133798571D01*
X98440857Y-133798571D01*
X98583714Y-133870000D01*
X98655142Y-133941428D01*
X98726571Y-134084285D01*
X98726571Y-134227142D01*
X98655142Y-134441428D01*
X97798000Y-135298571D01*
X98726571Y-135298571D01*
X98726571Y-132758571D02*
X97869428Y-132758571D01*
X98298000Y-132758571D02*
X98298000Y-131258571D01*
X98155142Y-131472857D01*
X98012285Y-131615714D01*
X97869428Y-131687142D01*
X98226571Y-128718571D02*
X98369428Y-128718571D01*
X98512285Y-128790000D01*
X98583714Y-128861428D01*
X98655142Y-129004285D01*
X98726571Y-129290000D01*
X98726571Y-129647142D01*
X98655142Y-129932857D01*
X98583714Y-130075714D01*
X98512285Y-130147142D01*
X98369428Y-130218571D01*
X98226571Y-130218571D01*
X98083714Y-130147142D01*
X98012285Y-130075714D01*
X97940857Y-129932857D01*
X97869428Y-129647142D01*
X97869428Y-129290000D01*
X97940857Y-129004285D01*
X98012285Y-128861428D01*
X98083714Y-128790000D01*
X98226571Y-128718571D01*
X97544000Y-111954571D02*
X98544000Y-111954571D01*
X97901142Y-113454571D01*
X98329714Y-109414571D02*
X98044000Y-109414571D01*
X97901142Y-109486000D01*
X97829714Y-109557428D01*
X97686857Y-109771714D01*
X97615428Y-110057428D01*
X97615428Y-110628857D01*
X97686857Y-110771714D01*
X97758285Y-110843142D01*
X97901142Y-110914571D01*
X98186857Y-110914571D01*
X98329714Y-110843142D01*
X98401142Y-110771714D01*
X98472571Y-110628857D01*
X98472571Y-110271714D01*
X98401142Y-110128857D01*
X98329714Y-110057428D01*
X98186857Y-109986000D01*
X97901142Y-109986000D01*
X97758285Y-110057428D01*
X97686857Y-110128857D01*
X97615428Y-110271714D01*
X98401142Y-106874571D02*
X97686857Y-106874571D01*
X97615428Y-107588857D01*
X97686857Y-107517428D01*
X97829714Y-107446000D01*
X98186857Y-107446000D01*
X98329714Y-107517428D01*
X98401142Y-107588857D01*
X98472571Y-107731714D01*
X98472571Y-108088857D01*
X98401142Y-108231714D01*
X98329714Y-108303142D01*
X98186857Y-108374571D01*
X97829714Y-108374571D01*
X97686857Y-108303142D01*
X97615428Y-108231714D01*
X98075714Y-104834571D02*
X98075714Y-105834571D01*
X97718571Y-104263142D02*
X97361428Y-105334571D01*
X98290000Y-105334571D01*
X97290000Y-101794571D02*
X98218571Y-101794571D01*
X97718571Y-102366000D01*
X97932857Y-102366000D01*
X98075714Y-102437428D01*
X98147142Y-102508857D01*
X98218571Y-102651714D01*
X98218571Y-103008857D01*
X98147142Y-103151714D01*
X98075714Y-103223142D01*
X97932857Y-103294571D01*
X97504285Y-103294571D01*
X97361428Y-103223142D01*
X97290000Y-103151714D01*
X97361428Y-99397428D02*
X97432857Y-99326000D01*
X97575714Y-99254571D01*
X97932857Y-99254571D01*
X98075714Y-99326000D01*
X98147142Y-99397428D01*
X98218571Y-99540285D01*
X98218571Y-99683142D01*
X98147142Y-99897428D01*
X97290000Y-100754571D01*
X98218571Y-100754571D01*
X98218571Y-98214571D02*
X97361428Y-98214571D01*
X97790000Y-98214571D02*
X97790000Y-96714571D01*
X97647142Y-96928857D01*
X97504285Y-97071714D01*
X97361428Y-97143142D01*
X97718571Y-94174571D02*
X97861428Y-94174571D01*
X98004285Y-94246000D01*
X98075714Y-94317428D01*
X98147142Y-94460285D01*
X98218571Y-94746000D01*
X98218571Y-95103142D01*
X98147142Y-95388857D01*
X98075714Y-95531714D01*
X98004285Y-95603142D01*
X97861428Y-95674571D01*
X97718571Y-95674571D01*
X97575714Y-95603142D01*
X97504285Y-95531714D01*
X97432857Y-95388857D01*
X97361428Y-95103142D01*
X97361428Y-94746000D01*
X97432857Y-94460285D01*
X97504285Y-94317428D01*
X97575714Y-94246000D01*
X97718571Y-94174571D01*
X57142285Y-100175142D02*
X57356571Y-100246571D01*
X57713714Y-100246571D01*
X57856571Y-100175142D01*
X57928000Y-100103714D01*
X57999428Y-99960857D01*
X57999428Y-99818000D01*
X57928000Y-99675142D01*
X57856571Y-99603714D01*
X57713714Y-99532285D01*
X57428000Y-99460857D01*
X57285142Y-99389428D01*
X57213714Y-99318000D01*
X57142285Y-99175142D01*
X57142285Y-99032285D01*
X57213714Y-98889428D01*
X57285142Y-98818000D01*
X57428000Y-98746571D01*
X57785142Y-98746571D01*
X57999428Y-98818000D01*
X59499428Y-100103714D02*
X59428000Y-100175142D01*
X59213714Y-100246571D01*
X59070857Y-100246571D01*
X58856571Y-100175142D01*
X58713714Y-100032285D01*
X58642285Y-99889428D01*
X58570857Y-99603714D01*
X58570857Y-99389428D01*
X58642285Y-99103714D01*
X58713714Y-98960857D01*
X58856571Y-98818000D01*
X59070857Y-98746571D01*
X59213714Y-98746571D01*
X59428000Y-98818000D01*
X59499428Y-98889428D01*
X60856571Y-100246571D02*
X60142285Y-100246571D01*
X60142285Y-98746571D01*
X57106571Y-96365142D02*
X57320857Y-96436571D01*
X57678000Y-96436571D01*
X57820857Y-96365142D01*
X57892285Y-96293714D01*
X57963714Y-96150857D01*
X57963714Y-96008000D01*
X57892285Y-95865142D01*
X57820857Y-95793714D01*
X57678000Y-95722285D01*
X57392285Y-95650857D01*
X57249428Y-95579428D01*
X57178000Y-95508000D01*
X57106571Y-95365142D01*
X57106571Y-95222285D01*
X57178000Y-95079428D01*
X57249428Y-95008000D01*
X57392285Y-94936571D01*
X57749428Y-94936571D01*
X57963714Y-95008000D01*
X58606571Y-96436571D02*
X58606571Y-94936571D01*
X58963714Y-94936571D01*
X59178000Y-95008000D01*
X59320857Y-95150857D01*
X59392285Y-95293714D01*
X59463714Y-95579428D01*
X59463714Y-95793714D01*
X59392285Y-96079428D01*
X59320857Y-96222285D01*
X59178000Y-96365142D01*
X58963714Y-96436571D01*
X58606571Y-96436571D01*
X60035142Y-96008000D02*
X60749428Y-96008000D01*
X59892285Y-96436571D02*
X60392285Y-94936571D01*
X60892285Y-96436571D01*
X59797428Y-93642571D02*
X59797428Y-92142571D01*
X60440285Y-92285428D02*
X60511714Y-92214000D01*
X60654571Y-92142571D01*
X61011714Y-92142571D01*
X61154571Y-92214000D01*
X61226000Y-92285428D01*
X61297428Y-92428285D01*
X61297428Y-92571142D01*
X61226000Y-92785428D01*
X60368857Y-93642571D01*
X61297428Y-93642571D01*
X62797428Y-93499714D02*
X62726000Y-93571142D01*
X62511714Y-93642571D01*
X62368857Y-93642571D01*
X62154571Y-93571142D01*
X62011714Y-93428285D01*
X61940285Y-93285428D01*
X61868857Y-92999714D01*
X61868857Y-92785428D01*
X61940285Y-92499714D01*
X62011714Y-92356857D01*
X62154571Y-92214000D01*
X62368857Y-92142571D01*
X62511714Y-92142571D01*
X62726000Y-92214000D01*
X62797428Y-92285428D01*
X64226000Y-93642571D02*
X63368857Y-93642571D01*
X63797428Y-93642571D02*
X63797428Y-92142571D01*
X63654571Y-92356857D01*
X63511714Y-92499714D01*
X63368857Y-92571142D01*
X66655428Y-93642571D02*
X66655428Y-92142571D01*
X67298285Y-92285428D02*
X67369714Y-92214000D01*
X67512571Y-92142571D01*
X67869714Y-92142571D01*
X68012571Y-92214000D01*
X68084000Y-92285428D01*
X68155428Y-92428285D01*
X68155428Y-92571142D01*
X68084000Y-92785428D01*
X67226857Y-93642571D01*
X68155428Y-93642571D01*
X69655428Y-93499714D02*
X69584000Y-93571142D01*
X69369714Y-93642571D01*
X69226857Y-93642571D01*
X69012571Y-93571142D01*
X68869714Y-93428285D01*
X68798285Y-93285428D01*
X68726857Y-92999714D01*
X68726857Y-92785428D01*
X68798285Y-92499714D01*
X68869714Y-92356857D01*
X69012571Y-92214000D01*
X69226857Y-92142571D01*
X69369714Y-92142571D01*
X69584000Y-92214000D01*
X69655428Y-92285428D01*
X70584000Y-92142571D02*
X70726857Y-92142571D01*
X70869714Y-92214000D01*
X70941142Y-92285428D01*
X71012571Y-92428285D01*
X71084000Y-92714000D01*
X71084000Y-93071142D01*
X71012571Y-93356857D01*
X70941142Y-93499714D01*
X70869714Y-93571142D01*
X70726857Y-93642571D01*
X70584000Y-93642571D01*
X70441142Y-93571142D01*
X70369714Y-93499714D01*
X70298285Y-93356857D01*
X70226857Y-93071142D01*
X70226857Y-92714000D01*
X70298285Y-92428285D01*
X70369714Y-92285428D01*
X70441142Y-92214000D01*
X70584000Y-92142571D01*
X70096285Y-103731142D02*
X70310571Y-103802571D01*
X70667714Y-103802571D01*
X70810571Y-103731142D01*
X70882000Y-103659714D01*
X70953428Y-103516857D01*
X70953428Y-103374000D01*
X70882000Y-103231142D01*
X70810571Y-103159714D01*
X70667714Y-103088285D01*
X70382000Y-103016857D01*
X70239142Y-102945428D01*
X70167714Y-102874000D01*
X70096285Y-102731142D01*
X70096285Y-102588285D01*
X70167714Y-102445428D01*
X70239142Y-102374000D01*
X70382000Y-102302571D01*
X70739142Y-102302571D01*
X70953428Y-102374000D01*
X72453428Y-103659714D02*
X72382000Y-103731142D01*
X72167714Y-103802571D01*
X72024857Y-103802571D01*
X71810571Y-103731142D01*
X71667714Y-103588285D01*
X71596285Y-103445428D01*
X71524857Y-103159714D01*
X71524857Y-102945428D01*
X71596285Y-102659714D01*
X71667714Y-102516857D01*
X71810571Y-102374000D01*
X72024857Y-102302571D01*
X72167714Y-102302571D01*
X72382000Y-102374000D01*
X72453428Y-102445428D01*
X73810571Y-103802571D02*
X73096285Y-103802571D01*
X73096285Y-102302571D01*
X70060571Y-106271142D02*
X70274857Y-106342571D01*
X70632000Y-106342571D01*
X70774857Y-106271142D01*
X70846285Y-106199714D01*
X70917714Y-106056857D01*
X70917714Y-105914000D01*
X70846285Y-105771142D01*
X70774857Y-105699714D01*
X70632000Y-105628285D01*
X70346285Y-105556857D01*
X70203428Y-105485428D01*
X70132000Y-105414000D01*
X70060571Y-105271142D01*
X70060571Y-105128285D01*
X70132000Y-104985428D01*
X70203428Y-104914000D01*
X70346285Y-104842571D01*
X70703428Y-104842571D01*
X70917714Y-104914000D01*
X71560571Y-106342571D02*
X71560571Y-104842571D01*
X71917714Y-104842571D01*
X72132000Y-104914000D01*
X72274857Y-105056857D01*
X72346285Y-105199714D01*
X72417714Y-105485428D01*
X72417714Y-105699714D01*
X72346285Y-105985428D01*
X72274857Y-106128285D01*
X72132000Y-106271142D01*
X71917714Y-106342571D01*
X71560571Y-106342571D01*
X72989142Y-105914000D02*
X73703428Y-105914000D01*
X72846285Y-106342571D02*
X73346285Y-104842571D01*
X73846285Y-106342571D01*
X70024857Y-107382571D02*
X70953428Y-107382571D01*
X70453428Y-107954000D01*
X70667714Y-107954000D01*
X70810571Y-108025428D01*
X70882000Y-108096857D01*
X70953428Y-108239714D01*
X70953428Y-108596857D01*
X70882000Y-108739714D01*
X70810571Y-108811142D01*
X70667714Y-108882571D01*
X70239142Y-108882571D01*
X70096285Y-108811142D01*
X70024857Y-108739714D01*
X71382000Y-107382571D02*
X71882000Y-108882571D01*
X72382000Y-107382571D01*
X72739142Y-107382571D02*
X73667714Y-107382571D01*
X73167714Y-107954000D01*
X73382000Y-107954000D01*
X73524857Y-108025428D01*
X73596285Y-108096857D01*
X73667714Y-108239714D01*
X73667714Y-108596857D01*
X73596285Y-108739714D01*
X73524857Y-108811142D01*
X73382000Y-108882571D01*
X72953428Y-108882571D01*
X72810571Y-108811142D01*
X72739142Y-108739714D01*
X70739142Y-109994000D02*
X70596285Y-109922571D01*
X70382000Y-109922571D01*
X70167714Y-109994000D01*
X70024857Y-110136857D01*
X69953428Y-110279714D01*
X69882000Y-110565428D01*
X69882000Y-110779714D01*
X69953428Y-111065428D01*
X70024857Y-111208285D01*
X70167714Y-111351142D01*
X70382000Y-111422571D01*
X70524857Y-111422571D01*
X70739142Y-111351142D01*
X70810571Y-111279714D01*
X70810571Y-110779714D01*
X70524857Y-110779714D01*
X71453428Y-111422571D02*
X71453428Y-109922571D01*
X72310571Y-111422571D01*
X72310571Y-109922571D01*
X73024857Y-111422571D02*
X73024857Y-109922571D01*
X73382000Y-109922571D01*
X73596285Y-109994000D01*
X73739142Y-110136857D01*
X73810571Y-110279714D01*
X73882000Y-110565428D01*
X73882000Y-110779714D01*
X73810571Y-111065428D01*
X73739142Y-111208285D01*
X73596285Y-111351142D01*
X73382000Y-111422571D01*
X73024857Y-111422571D01*
X69854285Y-113891142D02*
X70068571Y-113962571D01*
X70425714Y-113962571D01*
X70568571Y-113891142D01*
X70640000Y-113819714D01*
X70711428Y-113676857D01*
X70711428Y-113534000D01*
X70640000Y-113391142D01*
X70568571Y-113319714D01*
X70425714Y-113248285D01*
X70140000Y-113176857D01*
X69997142Y-113105428D01*
X69925714Y-113034000D01*
X69854285Y-112891142D01*
X69854285Y-112748285D01*
X69925714Y-112605428D01*
X69997142Y-112534000D01*
X70140000Y-112462571D01*
X70497142Y-112462571D01*
X70711428Y-112534000D01*
X72211428Y-113819714D02*
X72140000Y-113891142D01*
X71925714Y-113962571D01*
X71782857Y-113962571D01*
X71568571Y-113891142D01*
X71425714Y-113748285D01*
X71354285Y-113605428D01*
X71282857Y-113319714D01*
X71282857Y-113105428D01*
X71354285Y-112819714D01*
X71425714Y-112676857D01*
X71568571Y-112534000D01*
X71782857Y-112462571D01*
X71925714Y-112462571D01*
X72140000Y-112534000D01*
X72211428Y-112605428D01*
X73568571Y-113962571D02*
X72854285Y-113962571D01*
X72854285Y-112462571D01*
X74068571Y-113962571D02*
X74068571Y-112462571D01*
X74925714Y-113962571D02*
X74282857Y-113105428D01*
X74925714Y-112462571D02*
X74068571Y-113319714D01*
X70032857Y-116502571D02*
X70032857Y-115002571D01*
X70532857Y-116074000D01*
X71032857Y-115002571D01*
X71032857Y-116502571D01*
X71747142Y-116502571D02*
X71747142Y-115002571D01*
X72390000Y-116431142D02*
X72604285Y-116502571D01*
X72961428Y-116502571D01*
X73104285Y-116431142D01*
X73175714Y-116359714D01*
X73247142Y-116216857D01*
X73247142Y-116074000D01*
X73175714Y-115931142D01*
X73104285Y-115859714D01*
X72961428Y-115788285D01*
X72675714Y-115716857D01*
X72532857Y-115645428D01*
X72461428Y-115574000D01*
X72390000Y-115431142D01*
X72390000Y-115288285D01*
X72461428Y-115145428D01*
X72532857Y-115074000D01*
X72675714Y-115002571D01*
X73032857Y-115002571D01*
X73247142Y-115074000D01*
X74175714Y-115002571D02*
X74461428Y-115002571D01*
X74604285Y-115074000D01*
X74747142Y-115216857D01*
X74818571Y-115502571D01*
X74818571Y-116002571D01*
X74747142Y-116288285D01*
X74604285Y-116431142D01*
X74461428Y-116502571D01*
X74175714Y-116502571D01*
X74032857Y-116431142D01*
X73890000Y-116288285D01*
X73818571Y-116002571D01*
X73818571Y-115502571D01*
X73890000Y-115216857D01*
X74032857Y-115074000D01*
X74175714Y-115002571D01*
X63892857Y-132346000D02*
X63750000Y-132274571D01*
X63535714Y-132274571D01*
X63321428Y-132346000D01*
X63178571Y-132488857D01*
X63107142Y-132631714D01*
X63035714Y-132917428D01*
X63035714Y-133131714D01*
X63107142Y-133417428D01*
X63178571Y-133560285D01*
X63321428Y-133703142D01*
X63535714Y-133774571D01*
X63678571Y-133774571D01*
X63892857Y-133703142D01*
X63964285Y-133631714D01*
X63964285Y-133131714D01*
X63678571Y-133131714D01*
X65790000Y-133774571D02*
X65290000Y-133060285D01*
X64932857Y-133774571D02*
X64932857Y-132274571D01*
X65504285Y-132274571D01*
X65647142Y-132346000D01*
X65718571Y-132417428D01*
X65790000Y-132560285D01*
X65790000Y-132774571D01*
X65718571Y-132917428D01*
X65647142Y-132988857D01*
X65504285Y-133060285D01*
X64932857Y-133060285D01*
X66290000Y-132274571D02*
X67290000Y-133774571D01*
X67290000Y-132274571D02*
X66290000Y-133774571D01*
X67945142Y-132274571D02*
X68802285Y-132274571D01*
X68373714Y-133774571D02*
X68373714Y-132274571D01*
X69159428Y-132274571D02*
X70159428Y-133774571D01*
X70159428Y-132274571D02*
X69159428Y-133774571D01*
X74866571Y-145903142D02*
X76009428Y-145903142D01*
X75438000Y-146474571D02*
X75438000Y-145331714D01*
X65675142Y-126038000D02*
X67175142Y-126038000D01*
X66889428Y-128043714D02*
X66818000Y-128115142D01*
X66603714Y-128186571D01*
X66460857Y-128186571D01*
X66246571Y-128115142D01*
X66103714Y-127972285D01*
X66032285Y-127829428D01*
X65960857Y-127543714D01*
X65960857Y-127329428D01*
X66032285Y-127043714D01*
X66103714Y-126900857D01*
X66246571Y-126758000D01*
X66460857Y-126686571D01*
X66603714Y-126686571D01*
X66818000Y-126758000D01*
X66889428Y-126829428D01*
X67175142Y-126038000D02*
X68532285Y-126038000D01*
X67532285Y-127400857D02*
X68032285Y-127400857D01*
X68246571Y-128186571D02*
X67532285Y-128186571D01*
X67532285Y-126686571D01*
X68246571Y-126686571D01*
X68532285Y-126038000D02*
X69960857Y-126038000D01*
X69675142Y-128186571D02*
X68818000Y-128186571D01*
X69246571Y-128186571D02*
X69246571Y-126686571D01*
X69103714Y-126900857D01*
X68960857Y-127043714D01*
X68818000Y-127115142D01*
X60595142Y-126038000D02*
X62095142Y-126038000D01*
X61809428Y-128043714D02*
X61738000Y-128115142D01*
X61523714Y-128186571D01*
X61380857Y-128186571D01*
X61166571Y-128115142D01*
X61023714Y-127972285D01*
X60952285Y-127829428D01*
X60880857Y-127543714D01*
X60880857Y-127329428D01*
X60952285Y-127043714D01*
X61023714Y-126900857D01*
X61166571Y-126758000D01*
X61380857Y-126686571D01*
X61523714Y-126686571D01*
X61738000Y-126758000D01*
X61809428Y-126829428D01*
X62095142Y-126038000D02*
X63452285Y-126038000D01*
X62452285Y-127400857D02*
X62952285Y-127400857D01*
X63166571Y-128186571D02*
X62452285Y-128186571D01*
X62452285Y-126686571D01*
X63166571Y-126686571D01*
X63452285Y-126038000D02*
X64880857Y-126038000D01*
X64095142Y-126686571D02*
X64238000Y-126686571D01*
X64380857Y-126758000D01*
X64452285Y-126829428D01*
X64523714Y-126972285D01*
X64595142Y-127258000D01*
X64595142Y-127615142D01*
X64523714Y-127900857D01*
X64452285Y-128043714D01*
X64380857Y-128115142D01*
X64238000Y-128186571D01*
X64095142Y-128186571D01*
X63952285Y-128115142D01*
X63880857Y-128043714D01*
X63809428Y-127900857D01*
X63738000Y-127615142D01*
X63738000Y-127258000D01*
X63809428Y-126972285D01*
X63880857Y-126829428D01*
X63952285Y-126758000D01*
X64095142Y-126686571D01*
D11*
%TO.C,Q4*%
X88900000Y-135090000D02*
X94910000Y-135090000D01*
X91150000Y-141910000D02*
X94910000Y-141910000D01*
X94910000Y-135090000D02*
X94910000Y-136350000D01*
X94910000Y-141910000D02*
X94910000Y-140650000D01*
D12*
%TO.C,U1*%
X83825000Y-128475000D02*
X83825000Y-128250000D01*
X79175000Y-128475000D02*
X79175000Y-128150000D01*
X79175000Y-118525000D02*
X79175000Y-118850000D01*
X83825000Y-118525000D02*
X83825000Y-118850000D01*
X83825000Y-128475000D02*
X79175000Y-128475000D01*
X83825000Y-118525000D02*
X79175000Y-118525000D01*
X83825000Y-128250000D02*
X84900000Y-128250000D01*
D11*
%TO.C,J5*%
X66742000Y-101794000D02*
X68072000Y-101794000D01*
X66742000Y-103124000D02*
X66742000Y-101794000D01*
X66742000Y-104394000D02*
X69402000Y-104394000D01*
X69402000Y-104394000D02*
X69402000Y-122234000D01*
X66742000Y-104394000D02*
X66742000Y-122234000D01*
X66742000Y-122234000D02*
X69402000Y-122234000D01*
%TO.C,TP1*%
X59874000Y-115824000D02*
G75*
G03X59874000Y-115824000I-1200000J0D01*
G01*
%TO.C,TP3*%
X59874000Y-111252000D02*
G75*
G03X59874000Y-111252000I-1200000J0D01*
G01*
%TO.C,TP4*%
X81210000Y-115824000D02*
G75*
G03X81210000Y-115824000I-1200000J0D01*
G01*
%TO.C,TP5*%
X69272000Y-124460000D02*
G75*
G03X69272000Y-124460000I-1200000J0D01*
G01*
%TO.C,TP6*%
X63938000Y-124460000D02*
G75*
G03X63938000Y-124460000I-1200000J0D01*
G01*
%TO.C,TP7*%
X69272000Y-96012000D02*
G75*
G03X69272000Y-96012000I-1200000J0D01*
G01*
%TO.C,TP8*%
X69272000Y-99568000D02*
G75*
G03X69272000Y-99568000I-1200000J0D01*
G01*
%TO.C,TP9*%
X63938000Y-96012000D02*
G75*
G03X63938000Y-96012000I-1200000J0D01*
G01*
%TO.C,TP10*%
X63938000Y-99568000D02*
G75*
G03X63938000Y-99568000I-1200000J0D01*
G01*
%TO.C,J1*%
X56194000Y-91634000D02*
X50994000Y-91634000D01*
X56194000Y-139954000D02*
X56194000Y-91634000D01*
X50994000Y-142554000D02*
X50994000Y-91634000D01*
X56194000Y-139954000D02*
X53594000Y-139954000D01*
X53594000Y-139954000D02*
X53594000Y-142554000D01*
X53594000Y-142554000D02*
X50994000Y-142554000D01*
X56194000Y-141224000D02*
X56194000Y-142554000D01*
X56194000Y-142554000D02*
X54864000Y-142554000D01*
%TO.C,C1*%
X80968436Y-134964000D02*
X82172564Y-134964000D01*
X80968436Y-132244000D02*
X82172564Y-132244000D01*
%TO.C,C2*%
X83385436Y-90360000D02*
X84589564Y-90360000D01*
X83385436Y-87640000D02*
X84589564Y-87640000D01*
%TO.C,C3*%
X79279500Y-88473000D02*
X75194500Y-88473000D01*
X79279500Y-90343000D02*
X79279500Y-88473000D01*
X75194500Y-90343000D02*
X79279500Y-90343000D01*
%TO.C,C4*%
X76838564Y-97626000D02*
X75634436Y-97626000D01*
X76838564Y-94906000D02*
X75634436Y-94906000D01*
%TO.C,C5*%
X74686500Y-100249000D02*
X78771500Y-100249000D01*
X78771500Y-100249000D02*
X78771500Y-98379000D01*
X78771500Y-98379000D02*
X74686500Y-98379000D01*
%TO.C,C8*%
X98012000Y-146030000D02*
G75*
G03X98012000Y-146030000I-3270000J0D01*
G01*
X97972000Y-146030000D02*
X91512000Y-146030000D01*
X97972000Y-146070000D02*
X91512000Y-146070000D01*
X97972000Y-146110000D02*
X91512000Y-146110000D01*
X97970000Y-146150000D02*
X91514000Y-146150000D01*
X97969000Y-146190000D02*
X91515000Y-146190000D01*
X97966000Y-146230000D02*
X91518000Y-146230000D01*
X97964000Y-146270000D02*
X95782000Y-146270000D01*
X93702000Y-146270000D02*
X91520000Y-146270000D01*
X97960000Y-146310000D02*
X95782000Y-146310000D01*
X93702000Y-146310000D02*
X91524000Y-146310000D01*
X97957000Y-146350000D02*
X95782000Y-146350000D01*
X93702000Y-146350000D02*
X91527000Y-146350000D01*
X97953000Y-146390000D02*
X95782000Y-146390000D01*
X93702000Y-146390000D02*
X91531000Y-146390000D01*
X97948000Y-146430000D02*
X95782000Y-146430000D01*
X93702000Y-146430000D02*
X91536000Y-146430000D01*
X97943000Y-146470000D02*
X95782000Y-146470000D01*
X93702000Y-146470000D02*
X91541000Y-146470000D01*
X97937000Y-146510000D02*
X95782000Y-146510000D01*
X93702000Y-146510000D02*
X91547000Y-146510000D01*
X97931000Y-146550000D02*
X95782000Y-146550000D01*
X93702000Y-146550000D02*
X91553000Y-146550000D01*
X97924000Y-146590000D02*
X95782000Y-146590000D01*
X93702000Y-146590000D02*
X91560000Y-146590000D01*
X97917000Y-146630000D02*
X95782000Y-146630000D01*
X93702000Y-146630000D02*
X91567000Y-146630000D01*
X97909000Y-146670000D02*
X95782000Y-146670000D01*
X93702000Y-146670000D02*
X91575000Y-146670000D01*
X97901000Y-146710000D02*
X95782000Y-146710000D01*
X93702000Y-146710000D02*
X91583000Y-146710000D01*
X97892000Y-146751000D02*
X95782000Y-146751000D01*
X93702000Y-146751000D02*
X91592000Y-146751000D01*
X97883000Y-146791000D02*
X95782000Y-146791000D01*
X93702000Y-146791000D02*
X91601000Y-146791000D01*
X97873000Y-146831000D02*
X95782000Y-146831000D01*
X93702000Y-146831000D02*
X91611000Y-146831000D01*
X97863000Y-146871000D02*
X95782000Y-146871000D01*
X93702000Y-146871000D02*
X91621000Y-146871000D01*
X97852000Y-146911000D02*
X95782000Y-146911000D01*
X93702000Y-146911000D02*
X91632000Y-146911000D01*
X97840000Y-146951000D02*
X95782000Y-146951000D01*
X93702000Y-146951000D02*
X91644000Y-146951000D01*
X97828000Y-146991000D02*
X95782000Y-146991000D01*
X93702000Y-146991000D02*
X91656000Y-146991000D01*
X97816000Y-147031000D02*
X95782000Y-147031000D01*
X93702000Y-147031000D02*
X91668000Y-147031000D01*
X97803000Y-147071000D02*
X95782000Y-147071000D01*
X93702000Y-147071000D02*
X91681000Y-147071000D01*
X97789000Y-147111000D02*
X95782000Y-147111000D01*
X93702000Y-147111000D02*
X91695000Y-147111000D01*
X97775000Y-147151000D02*
X95782000Y-147151000D01*
X93702000Y-147151000D02*
X91709000Y-147151000D01*
X97760000Y-147191000D02*
X95782000Y-147191000D01*
X93702000Y-147191000D02*
X91724000Y-147191000D01*
X97744000Y-147231000D02*
X95782000Y-147231000D01*
X93702000Y-147231000D02*
X91740000Y-147231000D01*
X97728000Y-147271000D02*
X95782000Y-147271000D01*
X93702000Y-147271000D02*
X91756000Y-147271000D01*
X97712000Y-147311000D02*
X95782000Y-147311000D01*
X93702000Y-147311000D02*
X91772000Y-147311000D01*
X97694000Y-147351000D02*
X95782000Y-147351000D01*
X93702000Y-147351000D02*
X91790000Y-147351000D01*
X97676000Y-147391000D02*
X95782000Y-147391000D01*
X93702000Y-147391000D02*
X91808000Y-147391000D01*
X97658000Y-147431000D02*
X95782000Y-147431000D01*
X93702000Y-147431000D02*
X91826000Y-147431000D01*
X97638000Y-147471000D02*
X95782000Y-147471000D01*
X93702000Y-147471000D02*
X91846000Y-147471000D01*
X97618000Y-147511000D02*
X95782000Y-147511000D01*
X93702000Y-147511000D02*
X91866000Y-147511000D01*
X97598000Y-147551000D02*
X95782000Y-147551000D01*
X93702000Y-147551000D02*
X91886000Y-147551000D01*
X97576000Y-147591000D02*
X95782000Y-147591000D01*
X93702000Y-147591000D02*
X91908000Y-147591000D01*
X97554000Y-147631000D02*
X95782000Y-147631000D01*
X93702000Y-147631000D02*
X91930000Y-147631000D01*
X97532000Y-147671000D02*
X95782000Y-147671000D01*
X93702000Y-147671000D02*
X91952000Y-147671000D01*
X97508000Y-147711000D02*
X95782000Y-147711000D01*
X93702000Y-147711000D02*
X91976000Y-147711000D01*
X97484000Y-147751000D02*
X95782000Y-147751000D01*
X93702000Y-147751000D02*
X92000000Y-147751000D01*
X97458000Y-147791000D02*
X95782000Y-147791000D01*
X93702000Y-147791000D02*
X92026000Y-147791000D01*
X97432000Y-147831000D02*
X95782000Y-147831000D01*
X93702000Y-147831000D02*
X92052000Y-147831000D01*
X97406000Y-147871000D02*
X95782000Y-147871000D01*
X93702000Y-147871000D02*
X92078000Y-147871000D01*
X97378000Y-147911000D02*
X95782000Y-147911000D01*
X93702000Y-147911000D02*
X92106000Y-147911000D01*
X97349000Y-147951000D02*
X95782000Y-147951000D01*
X93702000Y-147951000D02*
X92135000Y-147951000D01*
X97320000Y-147991000D02*
X95782000Y-147991000D01*
X93702000Y-147991000D02*
X92164000Y-147991000D01*
X97290000Y-148031000D02*
X95782000Y-148031000D01*
X93702000Y-148031000D02*
X92194000Y-148031000D01*
X97258000Y-148071000D02*
X95782000Y-148071000D01*
X93702000Y-148071000D02*
X92226000Y-148071000D01*
X97226000Y-148111000D02*
X95782000Y-148111000D01*
X93702000Y-148111000D02*
X92258000Y-148111000D01*
X97192000Y-148151000D02*
X95782000Y-148151000D01*
X93702000Y-148151000D02*
X92292000Y-148151000D01*
X97158000Y-148191000D02*
X95782000Y-148191000D01*
X93702000Y-148191000D02*
X92326000Y-148191000D01*
X97122000Y-148231000D02*
X95782000Y-148231000D01*
X93702000Y-148231000D02*
X92362000Y-148231000D01*
X97085000Y-148271000D02*
X95782000Y-148271000D01*
X93702000Y-148271000D02*
X92399000Y-148271000D01*
X97047000Y-148311000D02*
X95782000Y-148311000D01*
X93702000Y-148311000D02*
X92437000Y-148311000D01*
X97007000Y-148351000D02*
X92477000Y-148351000D01*
X96966000Y-148391000D02*
X92518000Y-148391000D01*
X96924000Y-148431000D02*
X92560000Y-148431000D01*
X96879000Y-148471000D02*
X92605000Y-148471000D01*
X96834000Y-148511000D02*
X92650000Y-148511000D01*
X96786000Y-148551000D02*
X92698000Y-148551000D01*
X96737000Y-148591000D02*
X92747000Y-148591000D01*
X96686000Y-148631000D02*
X92798000Y-148631000D01*
X96632000Y-148671000D02*
X92852000Y-148671000D01*
X96576000Y-148711000D02*
X92908000Y-148711000D01*
X96518000Y-148751000D02*
X92966000Y-148751000D01*
X96456000Y-148791000D02*
X93028000Y-148791000D01*
X96392000Y-148831000D02*
X93092000Y-148831000D01*
X96323000Y-148871000D02*
X93161000Y-148871000D01*
X96251000Y-148911000D02*
X93233000Y-148911000D01*
X96174000Y-148951000D02*
X93310000Y-148951000D01*
X96092000Y-148991000D02*
X93392000Y-148991000D01*
X96004000Y-149031000D02*
X93480000Y-149031000D01*
X95907000Y-149071000D02*
X93577000Y-149071000D01*
X95801000Y-149111000D02*
X93683000Y-149111000D01*
X95682000Y-149151000D02*
X93802000Y-149151000D01*
X95544000Y-149191000D02*
X93940000Y-149191000D01*
X95375000Y-149231000D02*
X94109000Y-149231000D01*
X95144000Y-149271000D02*
X94340000Y-149271000D01*
X96581000Y-142529759D02*
X96581000Y-143159759D01*
X96896000Y-142844759D02*
X96266000Y-142844759D01*
%TO.C,Q1*%
X98590000Y-123910000D02*
X99850000Y-123910000D01*
X105410000Y-123910000D02*
X104150000Y-123910000D01*
X98590000Y-120150000D02*
X98590000Y-123910000D01*
X105410000Y-117900000D02*
X105410000Y-123910000D01*
%TO.C,Q2*%
X96910000Y-117900000D02*
X96910000Y-123910000D01*
X90090000Y-120150000D02*
X90090000Y-123910000D01*
X96910000Y-123910000D02*
X95650000Y-123910000D01*
X90090000Y-123910000D02*
X91350000Y-123910000D01*
%TO.C,Q3*%
X94910000Y-134410000D02*
X94910000Y-133150000D01*
X94910000Y-127590000D02*
X94910000Y-128850000D01*
X91150000Y-134410000D02*
X94910000Y-134410000D01*
X88900000Y-127590000D02*
X94910000Y-127590000D01*
%TO.C,Q5*%
X88178000Y-149270000D02*
X77938000Y-149270000D01*
X88178000Y-144629000D02*
X77938000Y-144629000D01*
X88178000Y-149270000D02*
X88178000Y-144629000D01*
X77938000Y-149270000D02*
X77938000Y-144629000D01*
X88178000Y-147760000D02*
X77938000Y-147760000D01*
X84908000Y-149270000D02*
X84908000Y-147760000D01*
X81207000Y-149270000D02*
X81207000Y-147760000D01*
%TO.C,R1*%
X74733564Y-122534000D02*
X73529436Y-122534000D01*
X74733564Y-124354000D02*
X73529436Y-124354000D01*
%TO.C,R2*%
X82172564Y-129138000D02*
X80968436Y-129138000D01*
X82172564Y-130958000D02*
X80968436Y-130958000D01*
%TO.C,R7*%
X87245436Y-112628000D02*
X88449564Y-112628000D01*
X87245436Y-114448000D02*
X88449564Y-114448000D01*
%TO.C,R9*%
X57764000Y-107245564D02*
X57764000Y-106041436D01*
X59584000Y-107245564D02*
X59584000Y-106041436D01*
%TO.C,R12*%
X57764000Y-140846564D02*
X57764000Y-139642436D01*
X59584000Y-140846564D02*
X59584000Y-139642436D01*
%TO.C,R14*%
X62886000Y-138270064D02*
X62886000Y-137065936D01*
X61066000Y-138270064D02*
X61066000Y-137065936D01*
%TO.C,R20*%
X82238436Y-101494000D02*
X83442564Y-101494000D01*
X82238436Y-99674000D02*
X83442564Y-99674000D01*
D12*
%TO.C,U2*%
X81800000Y-97475000D02*
X86200000Y-97475000D01*
X80225000Y-91950000D02*
X86200000Y-91950000D01*
D11*
%TO.C,C11*%
X75680000Y-140630564D02*
X75680000Y-139426436D01*
X78400000Y-140630564D02*
X78400000Y-139426436D01*
%TO.C,C12*%
X79666000Y-138589936D02*
X79666000Y-139794064D01*
X82386000Y-138589936D02*
X82386000Y-139794064D01*
%TO.C,C13*%
X83730000Y-139794064D02*
X83730000Y-138589936D01*
X86450000Y-139794064D02*
X86450000Y-138589936D01*
%TO.C,J2*%
X99630000Y-138410000D02*
X104830000Y-138410000D01*
X99630000Y-130730000D02*
X99630000Y-138410000D01*
X104830000Y-128130000D02*
X104830000Y-138410000D01*
X99630000Y-130730000D02*
X102230000Y-130730000D01*
X102230000Y-130730000D02*
X102230000Y-128130000D01*
X102230000Y-128130000D02*
X104830000Y-128130000D01*
X99630000Y-129460000D02*
X99630000Y-128130000D01*
X99630000Y-128130000D02*
X100960000Y-128130000D01*
%TO.C,J3*%
X99670000Y-114110000D02*
X104870000Y-114110000D01*
X99670000Y-96270000D02*
X99670000Y-114110000D01*
X104870000Y-93670000D02*
X104870000Y-114110000D01*
X99670000Y-96270000D02*
X102270000Y-96270000D01*
X102270000Y-96270000D02*
X102270000Y-93670000D01*
X102270000Y-93670000D02*
X104870000Y-93670000D01*
X99670000Y-95000000D02*
X99670000Y-93670000D01*
X99670000Y-93670000D02*
X101000000Y-93670000D01*
%TO.C,J4*%
X74168000Y-148336000D02*
X64008000Y-148336000D01*
X74168000Y-149606000D02*
X74168000Y-141986000D01*
X74168000Y-141986000D02*
X64008000Y-141986000D01*
X64008000Y-141986000D02*
X64008000Y-149606000D01*
X64008000Y-149606000D02*
X74168000Y-149606000D01*
%TO.C,J6*%
X61408000Y-122234000D02*
X64068000Y-122234000D01*
X61408000Y-104394000D02*
X61408000Y-122234000D01*
X64068000Y-104394000D02*
X64068000Y-122234000D01*
X61408000Y-104394000D02*
X64068000Y-104394000D01*
X61408000Y-103124000D02*
X61408000Y-101794000D01*
X61408000Y-101794000D02*
X62738000Y-101794000D01*
%TO.C,D1*%
X69161000Y-138232000D02*
X66301000Y-138232000D01*
X69161000Y-140152000D02*
X69161000Y-138232000D01*
X66301000Y-140152000D02*
X69161000Y-140152000D01*
%TO.C,D2*%
X90948000Y-109672000D02*
X93808000Y-109672000D01*
X93808000Y-109672000D02*
X93808000Y-107752000D01*
X93808000Y-107752000D02*
X90948000Y-107752000D01*
%TO.C,D3*%
X93817000Y-105212000D02*
X90957000Y-105212000D01*
X93817000Y-107132000D02*
X93817000Y-105212000D01*
X90957000Y-107132000D02*
X93817000Y-107132000D01*
%TO.C,D4*%
X90948000Y-104592000D02*
X93808000Y-104592000D01*
X93808000Y-104592000D02*
X93808000Y-102672000D01*
X93808000Y-102672000D02*
X90948000Y-102672000D01*
%TO.C,R3*%
X71121748Y-138482000D02*
X71644252Y-138482000D01*
X71121748Y-139902000D02*
X71644252Y-139902000D01*
%TO.C,R4*%
X86869748Y-109422000D02*
X87392252Y-109422000D01*
X86869748Y-108002000D02*
X87392252Y-108002000D01*
%TO.C,R5*%
X86851748Y-106882000D02*
X87374252Y-106882000D01*
X86851748Y-105462000D02*
X87374252Y-105462000D01*
%TO.C,R6*%
X86851748Y-102922000D02*
X87374252Y-102922000D01*
X86851748Y-104342000D02*
X87374252Y-104342000D01*
%TO.C,J7*%
X57464000Y-155378000D02*
X57464000Y-146748000D01*
X57582095Y-155378000D02*
X57582095Y-146748000D01*
X57700190Y-155378000D02*
X57700190Y-146748000D01*
X57818285Y-155378000D02*
X57818285Y-146748000D01*
X57936380Y-155378000D02*
X57936380Y-146748000D01*
X58054475Y-155378000D02*
X58054475Y-146748000D01*
X58172570Y-155378000D02*
X58172570Y-146748000D01*
X58290665Y-155378000D02*
X58290665Y-146748000D01*
X58408760Y-155378000D02*
X58408760Y-146748000D01*
X58526855Y-155378000D02*
X58526855Y-146748000D01*
X58644950Y-155378000D02*
X58644950Y-146748000D01*
X58763045Y-155378000D02*
X58763045Y-146748000D01*
X58881140Y-155378000D02*
X58881140Y-146748000D01*
X58999235Y-155378000D02*
X58999235Y-146748000D01*
X59117330Y-155378000D02*
X59117330Y-146748000D01*
X59235425Y-155378000D02*
X59235425Y-146748000D01*
X59353520Y-155378000D02*
X59353520Y-146748000D01*
X59471615Y-155378000D02*
X59471615Y-146748000D01*
X59589710Y-155378000D02*
X59589710Y-146748000D01*
X59707805Y-155378000D02*
X59707805Y-146748000D01*
X59825900Y-155378000D02*
X59825900Y-146748000D01*
X58314000Y-146748000D02*
X58314000Y-146398000D01*
X59034000Y-146748000D02*
X59034000Y-146398000D01*
X60854000Y-146748000D02*
X60854000Y-146338000D01*
X61574000Y-146748000D02*
X61574000Y-146338000D01*
X59944000Y-155378000D02*
X59944000Y-146748000D01*
X57344000Y-155378000D02*
X57344000Y-146748000D01*
X57344000Y-146748000D02*
X62544000Y-146748000D01*
X62544000Y-155378000D02*
X62544000Y-146748000D01*
X57344000Y-155378000D02*
X62544000Y-155378000D01*
X57344000Y-144178000D02*
X58674000Y-144178000D01*
X57344000Y-145288000D02*
X57344000Y-144178000D01*
%TO.C,J8*%
X69910000Y-132140000D02*
X69910000Y-129480000D01*
X64770000Y-132140000D02*
X69910000Y-132140000D01*
X64770000Y-129480000D02*
X69910000Y-129480000D01*
X64770000Y-132140000D02*
X64770000Y-129480000D01*
X63500000Y-132140000D02*
X62170000Y-132140000D01*
X62170000Y-132140000D02*
X62170000Y-130810000D01*
%TO.C,Q4*%
D12*
X87534761Y-135929619D02*
X87439523Y-135882000D01*
X87344285Y-135786761D01*
X87201428Y-135643904D01*
X87106190Y-135596285D01*
X87010952Y-135596285D01*
X87058571Y-135834380D02*
X86963333Y-135786761D01*
X86868095Y-135691523D01*
X86820476Y-135501047D01*
X86820476Y-135167714D01*
X86868095Y-134977238D01*
X86963333Y-134882000D01*
X87058571Y-134834380D01*
X87249047Y-134834380D01*
X87344285Y-134882000D01*
X87439523Y-134977238D01*
X87487142Y-135167714D01*
X87487142Y-135501047D01*
X87439523Y-135691523D01*
X87344285Y-135786761D01*
X87249047Y-135834380D01*
X87058571Y-135834380D01*
X88344285Y-135167714D02*
X88344285Y-135834380D01*
X88106190Y-134786761D02*
X87868095Y-135501047D01*
X88487142Y-135501047D01*
%TO.C,U1*%
X85598095Y-127468380D02*
X85598095Y-128277904D01*
X85645714Y-128373142D01*
X85693333Y-128420761D01*
X85788571Y-128468380D01*
X85979047Y-128468380D01*
X86074285Y-128420761D01*
X86121904Y-128373142D01*
X86169523Y-128277904D01*
X86169523Y-127468380D01*
X87169523Y-128468380D02*
X86598095Y-128468380D01*
X86883809Y-128468380D02*
X86883809Y-127468380D01*
X86788571Y-127611238D01*
X86693333Y-127706476D01*
X86598095Y-127754095D01*
%TO.C,TP4*%
X78748095Y-113278380D02*
X79319523Y-113278380D01*
X79033809Y-114278380D02*
X79033809Y-113278380D01*
X79652857Y-114278380D02*
X79652857Y-113278380D01*
X80033809Y-113278380D01*
X80129047Y-113326000D01*
X80176666Y-113373619D01*
X80224285Y-113468857D01*
X80224285Y-113611714D01*
X80176666Y-113706952D01*
X80129047Y-113754571D01*
X80033809Y-113802190D01*
X79652857Y-113802190D01*
X81081428Y-113611714D02*
X81081428Y-114278380D01*
X80843333Y-113230761D02*
X80605238Y-113945047D01*
X81224285Y-113945047D01*
%TO.C,J1*%
X54530666Y-142962380D02*
X54530666Y-143676666D01*
X54483047Y-143819523D01*
X54387809Y-143914761D01*
X54244952Y-143962380D01*
X54149714Y-143962380D01*
X55530666Y-143962380D02*
X54959238Y-143962380D01*
X55244952Y-143962380D02*
X55244952Y-142962380D01*
X55149714Y-143105238D01*
X55054476Y-143200476D01*
X54959238Y-143248095D01*
%TO.C,C1*%
X85050333Y-133834142D02*
X85002714Y-133881761D01*
X84859857Y-133929380D01*
X84764619Y-133929380D01*
X84621761Y-133881761D01*
X84526523Y-133786523D01*
X84478904Y-133691285D01*
X84431285Y-133500809D01*
X84431285Y-133357952D01*
X84478904Y-133167476D01*
X84526523Y-133072238D01*
X84621761Y-132977000D01*
X84764619Y-132929380D01*
X84859857Y-132929380D01*
X85002714Y-132977000D01*
X85050333Y-133024619D01*
X86002714Y-133929380D02*
X85431285Y-133929380D01*
X85717000Y-133929380D02*
X85717000Y-132929380D01*
X85621761Y-133072238D01*
X85526523Y-133167476D01*
X85431285Y-133215095D01*
%TO.C,C2*%
X87413333Y-89357142D02*
X87365714Y-89404761D01*
X87222857Y-89452380D01*
X87127619Y-89452380D01*
X86984761Y-89404761D01*
X86889523Y-89309523D01*
X86841904Y-89214285D01*
X86794285Y-89023809D01*
X86794285Y-88880952D01*
X86841904Y-88690476D01*
X86889523Y-88595238D01*
X86984761Y-88500000D01*
X87127619Y-88452380D01*
X87222857Y-88452380D01*
X87365714Y-88500000D01*
X87413333Y-88547619D01*
X87794285Y-88547619D02*
X87841904Y-88500000D01*
X87937142Y-88452380D01*
X88175238Y-88452380D01*
X88270476Y-88500000D01*
X88318095Y-88547619D01*
X88365714Y-88642857D01*
X88365714Y-88738095D01*
X88318095Y-88880952D01*
X87746666Y-89452380D01*
X88365714Y-89452380D01*
%TO.C,C3*%
X72985333Y-89765142D02*
X72937714Y-89812761D01*
X72794857Y-89860380D01*
X72699619Y-89860380D01*
X72556761Y-89812761D01*
X72461523Y-89717523D01*
X72413904Y-89622285D01*
X72366285Y-89431809D01*
X72366285Y-89288952D01*
X72413904Y-89098476D01*
X72461523Y-89003238D01*
X72556761Y-88908000D01*
X72699619Y-88860380D01*
X72794857Y-88860380D01*
X72937714Y-88908000D01*
X72985333Y-88955619D01*
X73318666Y-88860380D02*
X73937714Y-88860380D01*
X73604380Y-89241333D01*
X73747238Y-89241333D01*
X73842476Y-89288952D01*
X73890095Y-89336571D01*
X73937714Y-89431809D01*
X73937714Y-89669904D01*
X73890095Y-89765142D01*
X73842476Y-89812761D01*
X73747238Y-89860380D01*
X73461523Y-89860380D01*
X73366285Y-89812761D01*
X73318666Y-89765142D01*
%TO.C,C4*%
X76287333Y-94083142D02*
X76239714Y-94130761D01*
X76096857Y-94178380D01*
X76001619Y-94178380D01*
X75858761Y-94130761D01*
X75763523Y-94035523D01*
X75715904Y-93940285D01*
X75668285Y-93749809D01*
X75668285Y-93606952D01*
X75715904Y-93416476D01*
X75763523Y-93321238D01*
X75858761Y-93226000D01*
X76001619Y-93178380D01*
X76096857Y-93178380D01*
X76239714Y-93226000D01*
X76287333Y-93273619D01*
X77144476Y-93511714D02*
X77144476Y-94178380D01*
X76906380Y-93130761D02*
X76668285Y-93845047D01*
X77287333Y-93845047D01*
%TO.C,C5*%
X78319333Y-101449142D02*
X78271714Y-101496761D01*
X78128857Y-101544380D01*
X78033619Y-101544380D01*
X77890761Y-101496761D01*
X77795523Y-101401523D01*
X77747904Y-101306285D01*
X77700285Y-101115809D01*
X77700285Y-100972952D01*
X77747904Y-100782476D01*
X77795523Y-100687238D01*
X77890761Y-100592000D01*
X78033619Y-100544380D01*
X78128857Y-100544380D01*
X78271714Y-100592000D01*
X78319333Y-100639619D01*
X79224095Y-100544380D02*
X78747904Y-100544380D01*
X78700285Y-101020571D01*
X78747904Y-100972952D01*
X78843142Y-100925333D01*
X79081238Y-100925333D01*
X79176476Y-100972952D01*
X79224095Y-101020571D01*
X79271714Y-101115809D01*
X79271714Y-101353904D01*
X79224095Y-101449142D01*
X79176476Y-101496761D01*
X79081238Y-101544380D01*
X78843142Y-101544380D01*
X78747904Y-101496761D01*
X78700285Y-101449142D01*
%TO.C,C8*%
X98639333Y-143613142D02*
X98591714Y-143660761D01*
X98448857Y-143708380D01*
X98353619Y-143708380D01*
X98210761Y-143660761D01*
X98115523Y-143565523D01*
X98067904Y-143470285D01*
X98020285Y-143279809D01*
X98020285Y-143136952D01*
X98067904Y-142946476D01*
X98115523Y-142851238D01*
X98210761Y-142756000D01*
X98353619Y-142708380D01*
X98448857Y-142708380D01*
X98591714Y-142756000D01*
X98639333Y-142803619D01*
X99210761Y-143136952D02*
X99115523Y-143089333D01*
X99067904Y-143041714D01*
X99020285Y-142946476D01*
X99020285Y-142898857D01*
X99067904Y-142803619D01*
X99115523Y-142756000D01*
X99210761Y-142708380D01*
X99401238Y-142708380D01*
X99496476Y-142756000D01*
X99544095Y-142803619D01*
X99591714Y-142898857D01*
X99591714Y-142946476D01*
X99544095Y-143041714D01*
X99496476Y-143089333D01*
X99401238Y-143136952D01*
X99210761Y-143136952D01*
X99115523Y-143184571D01*
X99067904Y-143232190D01*
X99020285Y-143327428D01*
X99020285Y-143517904D01*
X99067904Y-143613142D01*
X99115523Y-143660761D01*
X99210761Y-143708380D01*
X99401238Y-143708380D01*
X99496476Y-143660761D01*
X99544095Y-143613142D01*
X99591714Y-143517904D01*
X99591714Y-143327428D01*
X99544095Y-143232190D01*
X99496476Y-143184571D01*
X99401238Y-143136952D01*
%TO.C,Q1*%
X101885761Y-117006619D02*
X101790523Y-116959000D01*
X101695285Y-116863761D01*
X101552428Y-116720904D01*
X101457190Y-116673285D01*
X101361952Y-116673285D01*
X101409571Y-116911380D02*
X101314333Y-116863761D01*
X101219095Y-116768523D01*
X101171476Y-116578047D01*
X101171476Y-116244714D01*
X101219095Y-116054238D01*
X101314333Y-115959000D01*
X101409571Y-115911380D01*
X101600047Y-115911380D01*
X101695285Y-115959000D01*
X101790523Y-116054238D01*
X101838142Y-116244714D01*
X101838142Y-116578047D01*
X101790523Y-116768523D01*
X101695285Y-116863761D01*
X101600047Y-116911380D01*
X101409571Y-116911380D01*
X102790523Y-116911380D02*
X102219095Y-116911380D01*
X102504809Y-116911380D02*
X102504809Y-115911380D01*
X102409571Y-116054238D01*
X102314333Y-116149476D01*
X102219095Y-116197095D01*
%TO.C,Q2*%
X93249761Y-117006619D02*
X93154523Y-116959000D01*
X93059285Y-116863761D01*
X92916428Y-116720904D01*
X92821190Y-116673285D01*
X92725952Y-116673285D01*
X92773571Y-116911380D02*
X92678333Y-116863761D01*
X92583095Y-116768523D01*
X92535476Y-116578047D01*
X92535476Y-116244714D01*
X92583095Y-116054238D01*
X92678333Y-115959000D01*
X92773571Y-115911380D01*
X92964047Y-115911380D01*
X93059285Y-115959000D01*
X93154523Y-116054238D01*
X93202142Y-116244714D01*
X93202142Y-116578047D01*
X93154523Y-116768523D01*
X93059285Y-116863761D01*
X92964047Y-116911380D01*
X92773571Y-116911380D01*
X93583095Y-116006619D02*
X93630714Y-115959000D01*
X93725952Y-115911380D01*
X93964047Y-115911380D01*
X94059285Y-115959000D01*
X94106904Y-116006619D01*
X94154523Y-116101857D01*
X94154523Y-116197095D01*
X94106904Y-116339952D01*
X93535476Y-116911380D01*
X94154523Y-116911380D01*
%TO.C,Q3*%
X87280761Y-131611619D02*
X87185523Y-131564000D01*
X87090285Y-131468761D01*
X86947428Y-131325904D01*
X86852190Y-131278285D01*
X86756952Y-131278285D01*
X86804571Y-131516380D02*
X86709333Y-131468761D01*
X86614095Y-131373523D01*
X86566476Y-131183047D01*
X86566476Y-130849714D01*
X86614095Y-130659238D01*
X86709333Y-130564000D01*
X86804571Y-130516380D01*
X86995047Y-130516380D01*
X87090285Y-130564000D01*
X87185523Y-130659238D01*
X87233142Y-130849714D01*
X87233142Y-131183047D01*
X87185523Y-131373523D01*
X87090285Y-131468761D01*
X86995047Y-131516380D01*
X86804571Y-131516380D01*
X87566476Y-130516380D02*
X88185523Y-130516380D01*
X87852190Y-130897333D01*
X87995047Y-130897333D01*
X88090285Y-130944952D01*
X88137904Y-130992571D01*
X88185523Y-131087809D01*
X88185523Y-131325904D01*
X88137904Y-131421142D01*
X88090285Y-131468761D01*
X87995047Y-131516380D01*
X87709333Y-131516380D01*
X87614095Y-131468761D01*
X87566476Y-131421142D01*
%TO.C,Q5*%
X83470761Y-153709619D02*
X83375523Y-153662000D01*
X83280285Y-153566761D01*
X83137428Y-153423904D01*
X83042190Y-153376285D01*
X82946952Y-153376285D01*
X82994571Y-153614380D02*
X82899333Y-153566761D01*
X82804095Y-153471523D01*
X82756476Y-153281047D01*
X82756476Y-152947714D01*
X82804095Y-152757238D01*
X82899333Y-152662000D01*
X82994571Y-152614380D01*
X83185047Y-152614380D01*
X83280285Y-152662000D01*
X83375523Y-152757238D01*
X83423142Y-152947714D01*
X83423142Y-153281047D01*
X83375523Y-153471523D01*
X83280285Y-153566761D01*
X83185047Y-153614380D01*
X82994571Y-153614380D01*
X84327904Y-152614380D02*
X83851714Y-152614380D01*
X83804095Y-153090571D01*
X83851714Y-153042952D01*
X83946952Y-152995333D01*
X84185047Y-152995333D01*
X84280285Y-153042952D01*
X84327904Y-153090571D01*
X84375523Y-153185809D01*
X84375523Y-153423904D01*
X84327904Y-153519142D01*
X84280285Y-153566761D01*
X84185047Y-153614380D01*
X83946952Y-153614380D01*
X83851714Y-153566761D01*
X83804095Y-153519142D01*
%TO.C,R1*%
X74001333Y-122118380D02*
X73668000Y-121642190D01*
X73429904Y-122118380D02*
X73429904Y-121118380D01*
X73810857Y-121118380D01*
X73906095Y-121166000D01*
X73953714Y-121213619D01*
X74001333Y-121308857D01*
X74001333Y-121451714D01*
X73953714Y-121546952D01*
X73906095Y-121594571D01*
X73810857Y-121642190D01*
X73429904Y-121642190D01*
X74953714Y-122118380D02*
X74382285Y-122118380D01*
X74668000Y-122118380D02*
X74668000Y-121118380D01*
X74572761Y-121261238D01*
X74477523Y-121356476D01*
X74382285Y-121404095D01*
%TO.C,R2*%
X84923333Y-130500380D02*
X84590000Y-130024190D01*
X84351904Y-130500380D02*
X84351904Y-129500380D01*
X84732857Y-129500380D01*
X84828095Y-129548000D01*
X84875714Y-129595619D01*
X84923333Y-129690857D01*
X84923333Y-129833714D01*
X84875714Y-129928952D01*
X84828095Y-129976571D01*
X84732857Y-130024190D01*
X84351904Y-130024190D01*
X85304285Y-129595619D02*
X85351904Y-129548000D01*
X85447142Y-129500380D01*
X85685238Y-129500380D01*
X85780476Y-129548000D01*
X85828095Y-129595619D01*
X85875714Y-129690857D01*
X85875714Y-129786095D01*
X85828095Y-129928952D01*
X85256666Y-130500380D01*
X85875714Y-130500380D01*
%TO.C,R7*%
X87717333Y-116276380D02*
X87384000Y-115800190D01*
X87145904Y-116276380D02*
X87145904Y-115276380D01*
X87526857Y-115276380D01*
X87622095Y-115324000D01*
X87669714Y-115371619D01*
X87717333Y-115466857D01*
X87717333Y-115609714D01*
X87669714Y-115704952D01*
X87622095Y-115752571D01*
X87526857Y-115800190D01*
X87145904Y-115800190D01*
X88050666Y-115276380D02*
X88717333Y-115276380D01*
X88288761Y-116276380D01*
%TO.C,R9*%
X57745333Y-103322380D02*
X57412000Y-102846190D01*
X57173904Y-103322380D02*
X57173904Y-102322380D01*
X57554857Y-102322380D01*
X57650095Y-102370000D01*
X57697714Y-102417619D01*
X57745333Y-102512857D01*
X57745333Y-102655714D01*
X57697714Y-102750952D01*
X57650095Y-102798571D01*
X57554857Y-102846190D01*
X57173904Y-102846190D01*
X58221523Y-103322380D02*
X58412000Y-103322380D01*
X58507238Y-103274761D01*
X58554857Y-103227142D01*
X58650095Y-103084285D01*
X58697714Y-102893809D01*
X58697714Y-102512857D01*
X58650095Y-102417619D01*
X58602476Y-102370000D01*
X58507238Y-102322380D01*
X58316761Y-102322380D01*
X58221523Y-102370000D01*
X58173904Y-102417619D01*
X58126285Y-102512857D01*
X58126285Y-102750952D01*
X58173904Y-102846190D01*
X58221523Y-102893809D01*
X58316761Y-102941428D01*
X58507238Y-102941428D01*
X58602476Y-102893809D01*
X58650095Y-102846190D01*
X58697714Y-102750952D01*
%TO.C,R12*%
X61412380Y-140850857D02*
X60936190Y-141184190D01*
X61412380Y-141422285D02*
X60412380Y-141422285D01*
X60412380Y-141041333D01*
X60460000Y-140946095D01*
X60507619Y-140898476D01*
X60602857Y-140850857D01*
X60745714Y-140850857D01*
X60840952Y-140898476D01*
X60888571Y-140946095D01*
X60936190Y-141041333D01*
X60936190Y-141422285D01*
X61412380Y-139898476D02*
X61412380Y-140469904D01*
X61412380Y-140184190D02*
X60412380Y-140184190D01*
X60555238Y-140279428D01*
X60650476Y-140374666D01*
X60698095Y-140469904D01*
X60507619Y-139517523D02*
X60460000Y-139469904D01*
X60412380Y-139374666D01*
X60412380Y-139136571D01*
X60460000Y-139041333D01*
X60507619Y-138993714D01*
X60602857Y-138946095D01*
X60698095Y-138946095D01*
X60840952Y-138993714D01*
X61412380Y-139565142D01*
X61412380Y-138946095D01*
%TO.C,R14*%
X64460380Y-138310857D02*
X63984190Y-138644190D01*
X64460380Y-138882285D02*
X63460380Y-138882285D01*
X63460380Y-138501333D01*
X63508000Y-138406095D01*
X63555619Y-138358476D01*
X63650857Y-138310857D01*
X63793714Y-138310857D01*
X63888952Y-138358476D01*
X63936571Y-138406095D01*
X63984190Y-138501333D01*
X63984190Y-138882285D01*
X64460380Y-137358476D02*
X64460380Y-137929904D01*
X64460380Y-137644190D02*
X63460380Y-137644190D01*
X63603238Y-137739428D01*
X63698476Y-137834666D01*
X63746095Y-137929904D01*
X63793714Y-136501333D02*
X64460380Y-136501333D01*
X63412761Y-136739428D02*
X64127047Y-136977523D01*
X64127047Y-136358476D01*
%TO.C,R20*%
X85971142Y-99258380D02*
X85637809Y-98782190D01*
X85399714Y-99258380D02*
X85399714Y-98258380D01*
X85780666Y-98258380D01*
X85875904Y-98306000D01*
X85923523Y-98353619D01*
X85971142Y-98448857D01*
X85971142Y-98591714D01*
X85923523Y-98686952D01*
X85875904Y-98734571D01*
X85780666Y-98782190D01*
X85399714Y-98782190D01*
X86352095Y-98353619D02*
X86399714Y-98306000D01*
X86494952Y-98258380D01*
X86733047Y-98258380D01*
X86828285Y-98306000D01*
X86875904Y-98353619D01*
X86923523Y-98448857D01*
X86923523Y-98544095D01*
X86875904Y-98686952D01*
X86304476Y-99258380D01*
X86923523Y-99258380D01*
X87542571Y-98258380D02*
X87637809Y-98258380D01*
X87733047Y-98306000D01*
X87780666Y-98353619D01*
X87828285Y-98448857D01*
X87875904Y-98639333D01*
X87875904Y-98877428D01*
X87828285Y-99067904D01*
X87780666Y-99163142D01*
X87733047Y-99210761D01*
X87637809Y-99258380D01*
X87542571Y-99258380D01*
X87447333Y-99210761D01*
X87399714Y-99163142D01*
X87352095Y-99067904D01*
X87304476Y-98877428D01*
X87304476Y-98639333D01*
X87352095Y-98448857D01*
X87399714Y-98353619D01*
X87447333Y-98306000D01*
X87542571Y-98258380D01*
%TO.C,U2*%
X77724095Y-91400380D02*
X77724095Y-92209904D01*
X77771714Y-92305142D01*
X77819333Y-92352761D01*
X77914571Y-92400380D01*
X78105047Y-92400380D01*
X78200285Y-92352761D01*
X78247904Y-92305142D01*
X78295523Y-92209904D01*
X78295523Y-91400380D01*
X78724095Y-91495619D02*
X78771714Y-91448000D01*
X78866952Y-91400380D01*
X79105047Y-91400380D01*
X79200285Y-91448000D01*
X79247904Y-91495619D01*
X79295523Y-91590857D01*
X79295523Y-91686095D01*
X79247904Y-91828952D01*
X78676476Y-92400380D01*
X79295523Y-92400380D01*
%TO.C,C11*%
X76446142Y-143613142D02*
X76398523Y-143660761D01*
X76255666Y-143708380D01*
X76160428Y-143708380D01*
X76017571Y-143660761D01*
X75922333Y-143565523D01*
X75874714Y-143470285D01*
X75827095Y-143279809D01*
X75827095Y-143136952D01*
X75874714Y-142946476D01*
X75922333Y-142851238D01*
X76017571Y-142756000D01*
X76160428Y-142708380D01*
X76255666Y-142708380D01*
X76398523Y-142756000D01*
X76446142Y-142803619D01*
X77398523Y-143708380D02*
X76827095Y-143708380D01*
X77112809Y-143708380D02*
X77112809Y-142708380D01*
X77017571Y-142851238D01*
X76922333Y-142946476D01*
X76827095Y-142994095D01*
X78350904Y-143708380D02*
X77779476Y-143708380D01*
X78065190Y-143708380D02*
X78065190Y-142708380D01*
X77969952Y-142851238D01*
X77874714Y-142946476D01*
X77779476Y-142994095D01*
%TO.C,C12*%
X80383142Y-142724142D02*
X80335523Y-142771761D01*
X80192666Y-142819380D01*
X80097428Y-142819380D01*
X79954571Y-142771761D01*
X79859333Y-142676523D01*
X79811714Y-142581285D01*
X79764095Y-142390809D01*
X79764095Y-142247952D01*
X79811714Y-142057476D01*
X79859333Y-141962238D01*
X79954571Y-141867000D01*
X80097428Y-141819380D01*
X80192666Y-141819380D01*
X80335523Y-141867000D01*
X80383142Y-141914619D01*
X81335523Y-142819380D02*
X80764095Y-142819380D01*
X81049809Y-142819380D02*
X81049809Y-141819380D01*
X80954571Y-141962238D01*
X80859333Y-142057476D01*
X80764095Y-142105095D01*
X81716476Y-141914619D02*
X81764095Y-141867000D01*
X81859333Y-141819380D01*
X82097428Y-141819380D01*
X82192666Y-141867000D01*
X82240285Y-141914619D01*
X82287904Y-142009857D01*
X82287904Y-142105095D01*
X82240285Y-142247952D01*
X81668857Y-142819380D01*
X82287904Y-142819380D01*
%TO.C,C13*%
X84447142Y-142724142D02*
X84399523Y-142771761D01*
X84256666Y-142819380D01*
X84161428Y-142819380D01*
X84018571Y-142771761D01*
X83923333Y-142676523D01*
X83875714Y-142581285D01*
X83828095Y-142390809D01*
X83828095Y-142247952D01*
X83875714Y-142057476D01*
X83923333Y-141962238D01*
X84018571Y-141867000D01*
X84161428Y-141819380D01*
X84256666Y-141819380D01*
X84399523Y-141867000D01*
X84447142Y-141914619D01*
X85399523Y-142819380D02*
X84828095Y-142819380D01*
X85113809Y-142819380D02*
X85113809Y-141819380D01*
X85018571Y-141962238D01*
X84923333Y-142057476D01*
X84828095Y-142105095D01*
X85732857Y-141819380D02*
X86351904Y-141819380D01*
X86018571Y-142200333D01*
X86161428Y-142200333D01*
X86256666Y-142247952D01*
X86304285Y-142295571D01*
X86351904Y-142390809D01*
X86351904Y-142628904D01*
X86304285Y-142724142D01*
X86256666Y-142771761D01*
X86161428Y-142819380D01*
X85875714Y-142819380D01*
X85780476Y-142771761D01*
X85732857Y-142724142D01*
%TO.C,H1*%
X107696095Y-84018380D02*
X107696095Y-83018380D01*
X107696095Y-83494571D02*
X108267523Y-83494571D01*
X108267523Y-84018380D02*
X108267523Y-83018380D01*
X109267523Y-84018380D02*
X108696095Y-84018380D01*
X108981809Y-84018380D02*
X108981809Y-83018380D01*
X108886571Y-83161238D01*
X108791333Y-83256476D01*
X108696095Y-83304095D01*
%TO.C,H2*%
X106934095Y-153106380D02*
X106934095Y-152106380D01*
X106934095Y-152582571D02*
X107505523Y-152582571D01*
X107505523Y-153106380D02*
X107505523Y-152106380D01*
X107934095Y-152201619D02*
X107981714Y-152154000D01*
X108076952Y-152106380D01*
X108315047Y-152106380D01*
X108410285Y-152154000D01*
X108457904Y-152201619D01*
X108505523Y-152296857D01*
X108505523Y-152392095D01*
X108457904Y-152534952D01*
X107886476Y-153106380D01*
X108505523Y-153106380D01*
%TO.C,H3*%
X51562095Y-81224380D02*
X51562095Y-80224380D01*
X51562095Y-80700571D02*
X52133523Y-80700571D01*
X52133523Y-81224380D02*
X52133523Y-80224380D01*
X52514476Y-80224380D02*
X53133523Y-80224380D01*
X52800190Y-80605333D01*
X52943047Y-80605333D01*
X53038285Y-80652952D01*
X53085904Y-80700571D01*
X53133523Y-80795809D01*
X53133523Y-81033904D01*
X53085904Y-81129142D01*
X53038285Y-81176761D01*
X52943047Y-81224380D01*
X52657333Y-81224380D01*
X52562095Y-81176761D01*
X52514476Y-81129142D01*
%TO.C,J2*%
X101896666Y-126582380D02*
X101896666Y-127296666D01*
X101849047Y-127439523D01*
X101753809Y-127534761D01*
X101610952Y-127582380D01*
X101515714Y-127582380D01*
X102325238Y-126677619D02*
X102372857Y-126630000D01*
X102468095Y-126582380D01*
X102706190Y-126582380D01*
X102801428Y-126630000D01*
X102849047Y-126677619D01*
X102896666Y-126772857D01*
X102896666Y-126868095D01*
X102849047Y-127010952D01*
X102277619Y-127582380D01*
X102896666Y-127582380D01*
%TO.C,J3*%
X98218666Y-91654380D02*
X98218666Y-92368666D01*
X98171047Y-92511523D01*
X98075809Y-92606761D01*
X97932952Y-92654380D01*
X97837714Y-92654380D01*
X98599619Y-91654380D02*
X99218666Y-91654380D01*
X98885333Y-92035333D01*
X99028190Y-92035333D01*
X99123428Y-92082952D01*
X99171047Y-92130571D01*
X99218666Y-92225809D01*
X99218666Y-92463904D01*
X99171047Y-92559142D01*
X99123428Y-92606761D01*
X99028190Y-92654380D01*
X98742476Y-92654380D01*
X98647238Y-92606761D01*
X98599619Y-92559142D01*
%TO.C,J4*%
X63674666Y-140676380D02*
X63674666Y-141390666D01*
X63627047Y-141533523D01*
X63531809Y-141628761D01*
X63388952Y-141676380D01*
X63293714Y-141676380D01*
X64579428Y-141009714D02*
X64579428Y-141676380D01*
X64341333Y-140628761D02*
X64103238Y-141343047D01*
X64722285Y-141343047D01*
%TO.C,D1*%
X66571904Y-137866380D02*
X66571904Y-136866380D01*
X66810000Y-136866380D01*
X66952857Y-136914000D01*
X67048095Y-137009238D01*
X67095714Y-137104476D01*
X67143333Y-137294952D01*
X67143333Y-137437809D01*
X67095714Y-137628285D01*
X67048095Y-137723523D01*
X66952857Y-137818761D01*
X66810000Y-137866380D01*
X66571904Y-137866380D01*
X68095714Y-137866380D02*
X67524285Y-137866380D01*
X67810000Y-137866380D02*
X67810000Y-136866380D01*
X67714761Y-137009238D01*
X67619523Y-137104476D01*
X67524285Y-137152095D01*
%TO.C,D2*%
X94003904Y-109164380D02*
X94003904Y-108164380D01*
X94242000Y-108164380D01*
X94384857Y-108212000D01*
X94480095Y-108307238D01*
X94527714Y-108402476D01*
X94575333Y-108592952D01*
X94575333Y-108735809D01*
X94527714Y-108926285D01*
X94480095Y-109021523D01*
X94384857Y-109116761D01*
X94242000Y-109164380D01*
X94003904Y-109164380D01*
X94956285Y-108259619D02*
X95003904Y-108212000D01*
X95099142Y-108164380D01*
X95337238Y-108164380D01*
X95432476Y-108212000D01*
X95480095Y-108259619D01*
X95527714Y-108354857D01*
X95527714Y-108450095D01*
X95480095Y-108592952D01*
X94908666Y-109164380D01*
X95527714Y-109164380D01*
%TO.C,D3*%
X94003904Y-106624380D02*
X94003904Y-105624380D01*
X94242000Y-105624380D01*
X94384857Y-105672000D01*
X94480095Y-105767238D01*
X94527714Y-105862476D01*
X94575333Y-106052952D01*
X94575333Y-106195809D01*
X94527714Y-106386285D01*
X94480095Y-106481523D01*
X94384857Y-106576761D01*
X94242000Y-106624380D01*
X94003904Y-106624380D01*
X94908666Y-105624380D02*
X95527714Y-105624380D01*
X95194380Y-106005333D01*
X95337238Y-106005333D01*
X95432476Y-106052952D01*
X95480095Y-106100571D01*
X95527714Y-106195809D01*
X95527714Y-106433904D01*
X95480095Y-106529142D01*
X95432476Y-106576761D01*
X95337238Y-106624380D01*
X95051523Y-106624380D01*
X94956285Y-106576761D01*
X94908666Y-106529142D01*
%TO.C,D4*%
X93749904Y-104084380D02*
X93749904Y-103084380D01*
X93988000Y-103084380D01*
X94130857Y-103132000D01*
X94226095Y-103227238D01*
X94273714Y-103322476D01*
X94321333Y-103512952D01*
X94321333Y-103655809D01*
X94273714Y-103846285D01*
X94226095Y-103941523D01*
X94130857Y-104036761D01*
X93988000Y-104084380D01*
X93749904Y-104084380D01*
X95178476Y-103417714D02*
X95178476Y-104084380D01*
X94940380Y-103036761D02*
X94702285Y-103751047D01*
X95321333Y-103751047D01*
%TO.C,R3*%
X71216333Y-137994380D02*
X70883000Y-137518190D01*
X70644904Y-137994380D02*
X70644904Y-136994380D01*
X71025857Y-136994380D01*
X71121095Y-137042000D01*
X71168714Y-137089619D01*
X71216333Y-137184857D01*
X71216333Y-137327714D01*
X71168714Y-137422952D01*
X71121095Y-137470571D01*
X71025857Y-137518190D01*
X70644904Y-137518190D01*
X71549666Y-136994380D02*
X72168714Y-136994380D01*
X71835380Y-137375333D01*
X71978238Y-137375333D01*
X72073476Y-137422952D01*
X72121095Y-137470571D01*
X72168714Y-137565809D01*
X72168714Y-137803904D01*
X72121095Y-137899142D01*
X72073476Y-137946761D01*
X71978238Y-137994380D01*
X71692523Y-137994380D01*
X71597285Y-137946761D01*
X71549666Y-137899142D01*
%TO.C,R4*%
X83653333Y-109164380D02*
X83320000Y-108688190D01*
X83081904Y-109164380D02*
X83081904Y-108164380D01*
X83462857Y-108164380D01*
X83558095Y-108212000D01*
X83605714Y-108259619D01*
X83653333Y-108354857D01*
X83653333Y-108497714D01*
X83605714Y-108592952D01*
X83558095Y-108640571D01*
X83462857Y-108688190D01*
X83081904Y-108688190D01*
X84510476Y-108497714D02*
X84510476Y-109164380D01*
X84272380Y-108116761D02*
X84034285Y-108831047D01*
X84653333Y-108831047D01*
%TO.C,R5*%
X83653333Y-106624380D02*
X83320000Y-106148190D01*
X83081904Y-106624380D02*
X83081904Y-105624380D01*
X83462857Y-105624380D01*
X83558095Y-105672000D01*
X83605714Y-105719619D01*
X83653333Y-105814857D01*
X83653333Y-105957714D01*
X83605714Y-106052952D01*
X83558095Y-106100571D01*
X83462857Y-106148190D01*
X83081904Y-106148190D01*
X84558095Y-105624380D02*
X84081904Y-105624380D01*
X84034285Y-106100571D01*
X84081904Y-106052952D01*
X84177142Y-106005333D01*
X84415238Y-106005333D01*
X84510476Y-106052952D01*
X84558095Y-106100571D01*
X84605714Y-106195809D01*
X84605714Y-106433904D01*
X84558095Y-106529142D01*
X84510476Y-106576761D01*
X84415238Y-106624380D01*
X84177142Y-106624380D01*
X84081904Y-106576761D01*
X84034285Y-106529142D01*
%TO.C,R6*%
X83653333Y-104084380D02*
X83320000Y-103608190D01*
X83081904Y-104084380D02*
X83081904Y-103084380D01*
X83462857Y-103084380D01*
X83558095Y-103132000D01*
X83605714Y-103179619D01*
X83653333Y-103274857D01*
X83653333Y-103417714D01*
X83605714Y-103512952D01*
X83558095Y-103560571D01*
X83462857Y-103608190D01*
X83081904Y-103608190D01*
X84510476Y-103084380D02*
X84320000Y-103084380D01*
X84224761Y-103132000D01*
X84177142Y-103179619D01*
X84081904Y-103322476D01*
X84034285Y-103512952D01*
X84034285Y-103893904D01*
X84081904Y-103989142D01*
X84129523Y-104036761D01*
X84224761Y-104084380D01*
X84415238Y-104084380D01*
X84510476Y-104036761D01*
X84558095Y-103989142D01*
X84605714Y-103893904D01*
X84605714Y-103655809D01*
X84558095Y-103560571D01*
X84510476Y-103512952D01*
X84415238Y-103465333D01*
X84224761Y-103465333D01*
X84129523Y-103512952D01*
X84081904Y-103560571D01*
X84034285Y-103655809D01*
%TO.C,J7*%
X55570666Y-151090380D02*
X55570666Y-151804666D01*
X55523047Y-151947523D01*
X55427809Y-152042761D01*
X55284952Y-152090380D01*
X55189714Y-152090380D01*
X55951619Y-151090380D02*
X56618285Y-151090380D01*
X56189714Y-152090380D01*
%TO.C,J8*%
X60622380Y-131143333D02*
X61336666Y-131143333D01*
X61479523Y-131190952D01*
X61574761Y-131286190D01*
X61622380Y-131429047D01*
X61622380Y-131524285D01*
X61050952Y-130524285D02*
X61003333Y-130619523D01*
X60955714Y-130667142D01*
X60860476Y-130714761D01*
X60812857Y-130714761D01*
X60717619Y-130667142D01*
X60670000Y-130619523D01*
X60622380Y-130524285D01*
X60622380Y-130333809D01*
X60670000Y-130238571D01*
X60717619Y-130190952D01*
X60812857Y-130143333D01*
X60860476Y-130143333D01*
X60955714Y-130190952D01*
X61003333Y-130238571D01*
X61050952Y-130333809D01*
X61050952Y-130524285D01*
X61098571Y-130619523D01*
X61146190Y-130667142D01*
X61241428Y-130714761D01*
X61431904Y-130714761D01*
X61527142Y-130667142D01*
X61574761Y-130619523D01*
X61622380Y-130524285D01*
X61622380Y-130333809D01*
X61574761Y-130238571D01*
X61527142Y-130190952D01*
X61431904Y-130143333D01*
X61241428Y-130143333D01*
X61146190Y-130190952D01*
X61098571Y-130238571D01*
X61050952Y-130333809D01*
%TD*%
M02*
